<svg width="1419" height="282" viewBox="0 0 1419 282" fill="none" xmlns="http://www.w3.org/2000/svg">
<rect width="1419" height="281" fill="white"/>
<path d="M1330.77 269.2H1407L1373.42 12.0469H1245.43V50.6865H1272.98L1245 269.2H1287.79L1290.89 245.007H1327.62L1330.77 269.2ZM1296.89 197.848L1309.03 102.96L1321.45 197.848H1296.89Z" fill="black"/>
<path d="M1157.13 108.422L1067 11L1067 269.204H1159V160.347L1194.04 115.994V269.2H1229V11L1157.13 108.422Z" fill="black"/>
<path d="M973.769 269.191H1050L1016.42 12.0381H888.425V50.6777H915.982L888 269.191H930.791L933.889 244.998H970.623L973.769 269.191ZM939.885 197.84L952.034 102.952L964.447 197.84H939.885Z" fill="black"/>
<path d="M874 63.9328C874 25.0854 851.873 12.0381 810.881 12.0381H714V50.7557H744.043L702 269.191H746L790.062 131.801L833.178 269.191H867.379L825.705 119.542C825.705 119.542 874 102.763 874 63.9328ZM808.653 74.7551L818.128 47.0502C818.128 47.0502 831.699 50.193 827.47 63.5C823.015 77.4996 808.653 74.7551 808.653 74.7551Z" fill="black"/>
<path d="M664.5 12V195.5C664.498 205.897 665.135 215.724 659.993 223.075C654.851 230.426 651.771 233 644.5 233V12L543 12.0259V190.656C543 211.434 548.773 231.361 559.048 246.053C569.324 260.746 583.26 269 597.792 269H638.208C652.74 269 670.724 260.746 681 246.053C691.276 231.361 693 211.434 693 190.656V12H664.5Z" fill="black"/>
<path d="M522 12H361V52.8691H393.566V267H489.434V52.8691H522V12Z" fill="black"/>
<path d="M307.5 12V195.5C307.498 205.897 308.135 215.724 302.993 223.075C297.851 230.426 294.771 233 287.5 233V12L186 12.0259V190.656C186 211.434 191.773 231.361 202.048 246.053C212.324 260.746 226.26 269 240.792 269H281.208C295.74 269 313.724 260.746 324 246.053C334.276 231.361 336 211.434 336 190.656V12H307.5Z" fill="black"/>
<path d="M168 52.341V12H12V269H87.3319L113.88 149.752H168V111.454H122.402L135.562 52.341H168Z" fill="black"/>
</svg>
