<svg width="705" height="541" viewBox="0 0 705 541" fill="none" xmlns="http://www.w3.org/2000/svg">
<rect width="705" height="540" fill="white"/>
<path d="M628.769 528.059H705L671.416 268.059H543.425V307.126H570.982L543 528.059H585.791L588.889 503.598H625.623L628.769 528.059ZM594.885 455.917L607.034 359.979L619.447 455.917H594.885Z" fill="black"/>
<path d="M455.128 365.5L365 267L365 528.062H457V418L492.036 373.156V528.059H527V267L455.128 365.5Z" fill="black"/>
<path d="M271.769 528.05H348L314.416 268.05H186.425V307.117H213.982L186 528.05H228.791L231.889 503.589H268.623L271.769 528.05ZM237.885 455.908L250.034 359.97L262.447 455.908H237.885Z" fill="black"/>
<path d="M172 320.519C172 281.242 149.873 268.05 108.881 268.05H12V307.196H42.0428L0 528.05H44L88.0618 389.139L131.178 528.05H165.379L123.705 376.744C123.705 376.744 172 359.779 172 320.519ZM106.653 331.461L116.128 303.449C116.128 303.449 129.699 306.627 125.47 320.081C121.015 334.236 106.653 331.461 106.653 331.461Z" fill="black"/>
<path d="M664.5 12V195.5C664.498 205.897 665.135 215.724 659.993 223.075C654.851 230.426 651.771 233 644.5 233V12L543 12.0259V190.656C543 211.434 548.773 231.361 559.048 246.053C569.324 260.746 583.26 269 597.792 269H638.208C652.74 269 670.724 260.746 681 246.053C691.276 231.361 693 211.434 693 190.656V12H664.5Z" fill="black"/>
<path d="M522 12H361V52.8691H393.566V267H489.434V52.8691H522V12Z" fill="black"/>
<path d="M307.5 12V195.5C307.498 205.897 308.135 215.724 302.993 223.075C297.851 230.426 294.771 233 287.5 233V12L186 12.0259V190.656C186 211.434 191.773 231.361 202.048 246.053C212.324 260.746 226.26 269 240.792 269H281.208C295.74 269 313.724 260.746 324 246.053C334.276 231.361 336 211.434 336 190.656V12H307.5Z" fill="black"/>
<path d="M168 52.341V12H12V269H87.3319L113.88 149.752H168V111.454H122.402L135.562 52.341H168Z" fill="black"/>
</svg>
