<svg width="959" height="896" viewBox="0 0 959 896" fill="none" xmlns="http://www.w3.org/2000/svg">
<path d="M399.202 862.089C391.802 862.089 384.142 861.909 376.442 861.569C344.319 860.273 312.441 855.39 281.402 847.009C266.425 842.891 251.728 837.814 237.402 831.809C120.022 782.689 43.5824 674.009 32.8224 541.009C27.2224 472.609 42.3824 415.009 79.1224 365.009C110.142 322.729 151.502 292.449 191.562 266.009C217.702 248.769 241.022 222.649 268.042 192.429C331.542 121.369 410.582 32.9291 555.082 32.9291C559.502 32.9291 564.042 32.9291 568.542 33.1691C601.429 34.245 634.072 39.2266 665.782 48.0091C744.082 70.0091 814.302 117.729 853.642 175.549C856.782 180.169 859.942 185.089 863.002 190.189C932.342 305.649 936.162 464.489 916.602 574.649C897.242 683.789 861.422 753.349 804.602 791.049C803.928 786.948 802.836 782.927 801.342 779.049C791.342 753.469 765.342 738.189 731.982 738.189C729.182 738.189 726.322 738.289 723.482 738.509C683.902 741.389 655.162 763.609 634.182 779.849L628.822 783.929C558.162 837.989 487.322 862.089 399.202 862.089Z" fill="#2B3B4F"/>
<path d="M711.882 152.129C717.063 152.129 721.262 147.929 721.262 142.749C721.262 137.569 717.063 133.369 711.882 133.369C706.702 133.369 702.502 137.569 702.502 142.749C702.502 147.929 706.702 152.129 711.882 152.129Z" fill="#C4D0DD"/>
<path d="M868.962 310.869C874.142 310.869 878.342 306.669 878.342 301.489C878.342 296.309 874.142 292.109 868.962 292.109C863.782 292.109 859.582 296.309 859.582 301.489C859.582 306.669 863.782 310.869 868.962 310.869Z" fill="#C4D0DD"/>
<path d="M220.402 755.589C225.583 755.589 229.782 751.39 229.782 746.209C229.782 741.029 225.583 736.829 220.402 736.829C215.222 736.829 211.022 741.029 211.022 746.209C211.022 751.39 215.222 755.589 220.402 755.589Z" fill="#C4D0DD"/>
<path d="M791.782 747.449C796.963 747.449 801.162 743.249 801.162 738.069C801.162 732.889 796.963 728.689 791.782 728.689C786.602 728.689 782.402 732.889 782.402 738.069C782.402 743.249 786.602 747.449 791.782 747.449Z" fill="#C4D0DD"/>
<path d="M483.802 61.009C483.802 62.0692 483.488 63.1055 482.899 63.9869C482.31 64.8684 481.473 65.5554 480.493 65.961C479.514 66.3667 478.436 66.4729 477.396 66.2661C476.357 66.0592 475.402 65.5488 474.652 64.7991C473.902 64.0495 473.392 63.0945 473.185 62.0547C472.978 61.015 473.084 59.9373 473.49 58.9579C473.896 57.9785 474.583 57.1413 475.464 56.5524C476.346 55.9634 477.382 55.649 478.442 55.649C479.864 55.649 481.227 56.2138 482.232 57.219C483.237 58.2242 483.802 59.5875 483.802 61.009Z" fill="#C4D0DD"/>
<path d="M110.822 394.049C116.003 394.049 120.202 389.849 120.202 384.669C120.202 379.489 116.003 375.289 110.822 375.289C105.642 375.289 101.442 379.489 101.442 384.669C101.442 389.849 105.642 394.049 110.822 394.049Z" fill="#C4D0DD"/>
<path d="M787.302 154.409C789.876 154.409 791.962 152.323 791.962 149.749C791.962 147.175 789.876 145.089 787.302 145.089C784.728 145.089 782.642 147.175 782.642 149.749C782.642 152.323 784.728 154.409 787.302 154.409Z" fill="#C4D0DD"/>
<path d="M160.702 688.189C163.276 688.189 165.362 686.103 165.362 683.529C165.362 680.955 163.276 678.869 160.702 678.869C158.129 678.869 156.042 680.955 156.042 683.529C156.042 686.103 158.129 688.189 160.702 688.189Z" fill="#BEFFBE"/>
<path d="M848.042 649.829C850.616 649.829 852.702 647.743 852.702 645.169C852.702 642.595 850.616 640.509 848.042 640.509C845.469 640.509 843.382 642.595 843.382 645.169C843.382 647.743 845.469 649.829 848.042 649.829Z" fill="#BEFFBE"/>
<path d="M419.322 773.649C419.326 774.572 419.056 775.474 418.547 776.243C418.037 777.012 417.311 777.613 416.46 777.969C415.608 778.324 414.671 778.419 413.766 778.242C412.86 778.064 412.028 777.622 411.374 776.971C410.721 776.32 410.275 775.49 410.093 774.586C409.912 773.681 410.003 772.743 410.355 771.89C410.707 771.038 411.305 770.309 412.071 769.796C412.838 769.283 413.74 769.009 414.662 769.009C415.895 769.009 417.077 769.497 417.95 770.367C418.824 771.236 419.317 772.417 419.322 773.649Z" fill="#BEFFBE"/>
<path d="M180.822 609.349C180.822 610.271 180.549 611.172 180.037 611.938C179.525 612.704 178.797 613.302 177.946 613.654C177.094 614.007 176.157 614.099 175.253 613.919C174.349 613.74 173.519 613.296 172.867 612.644C172.216 611.992 171.772 611.162 171.592 610.258C171.412 609.354 171.504 608.417 171.857 607.566C172.21 606.714 172.807 605.986 173.573 605.474C174.34 604.962 175.241 604.689 176.162 604.689C177.397 604.694 178.579 605.187 179.452 606.06C180.325 606.932 180.817 608.115 180.822 609.349Z" fill="#C4D0DD"/>
<path d="M373.542 832.569C373.542 833.491 373.269 834.392 372.757 835.158C372.245 835.924 371.517 836.522 370.665 836.874C369.814 837.227 368.877 837.319 367.973 837.139C367.069 836.96 366.239 836.516 365.587 835.864C364.935 835.212 364.492 834.382 364.312 833.478C364.132 832.574 364.224 831.637 364.577 830.786C364.93 829.934 365.527 829.206 366.293 828.694C367.06 828.182 367.961 827.909 368.882 827.909C369.495 827.906 370.102 828.025 370.669 828.258C371.235 828.492 371.75 828.835 372.183 829.268C372.616 829.701 372.96 830.216 373.193 830.783C373.426 831.349 373.545 831.956 373.542 832.569Z" fill="#C4D0DD"/>
<path d="M641.642 82.369C641.642 83.2906 641.369 84.1916 640.857 84.9579C640.345 85.7243 639.617 86.3216 638.766 86.6743C637.914 87.027 636.977 87.1193 636.073 86.9395C635.169 86.7596 634.339 86.3158 633.687 85.6641C633.035 85.0124 632.592 84.1821 632.412 83.2781C632.232 82.3742 632.324 81.4372 632.677 80.5857C633.03 79.7342 633.627 79.0064 634.393 78.4943C635.16 77.9823 636.061 77.709 636.982 77.709C638.218 77.709 639.403 78.1999 640.277 79.0739C641.151 79.9478 641.642 81.1331 641.642 82.369Z" fill="#BEFFBE"/>
<path d="M649.682 591.449C649.682 592.371 649.409 593.272 648.897 594.038C648.385 594.804 647.657 595.402 646.806 595.754C645.954 596.107 645.017 596.199 644.113 596.02C643.209 595.84 642.379 595.396 641.727 594.744C641.076 594.092 640.632 593.262 640.452 592.358C640.272 591.454 640.364 590.517 640.717 589.666C641.07 588.814 641.667 588.086 642.433 587.574C643.2 587.062 644.101 586.789 645.022 586.789C645.635 586.786 646.242 586.905 646.809 587.138C647.375 587.372 647.89 587.715 648.323 588.148C648.757 588.581 649.1 589.096 649.333 589.663C649.566 590.229 649.685 590.836 649.682 591.449Z" fill="#C4D0DD"/>
<path d="M863.462 410.469C863.462 411.392 863.188 412.293 862.675 413.06C862.162 413.827 861.433 414.424 860.581 414.776C859.728 415.128 858.79 415.22 857.886 415.038C856.981 414.857 856.151 414.411 855.5 413.757C854.849 413.103 854.407 412.271 854.229 411.366C854.052 410.461 854.147 409.523 854.503 408.672C854.858 407.821 855.459 407.094 856.228 406.585C856.997 406.075 857.9 405.805 858.822 405.809C860.055 405.814 861.235 406.308 862.104 407.181C862.974 408.054 863.462 409.237 863.462 410.469Z" fill="#C4D0DD"/>
<path d="M101.482 593.549C104.056 593.549 106.142 591.463 106.142 588.889C106.142 586.315 104.056 584.229 101.482 584.229C98.9086 584.229 96.8223 586.315 96.8223 588.889C96.8223 591.463 98.9086 593.549 101.482 593.549Z" fill="#BEFFBE"/>
<path d="M516.302 804.589C518.876 804.589 520.962 802.503 520.962 799.929C520.962 797.355 518.876 795.269 516.302 795.269C513.728 795.269 511.642 797.355 511.642 799.929C511.642 802.503 513.728 804.589 516.302 804.589Z" fill="#C4D0DD"/>
<path d="M347.462 622.969C350.036 622.969 352.122 620.883 352.122 618.309C352.122 615.735 350.036 613.649 347.462 613.649C344.889 613.649 342.802 615.735 342.802 618.309C342.802 620.883 344.889 622.969 347.462 622.969Z" fill="#BEFFBE"/>
<path d="M657.802 242.249C657.802 243.172 657.529 244.073 657.016 244.84C656.503 245.607 655.774 246.204 654.921 246.556C654.068 246.908 653.13 246.999 652.226 246.818C651.321 246.637 650.491 246.191 649.84 245.537C649.189 244.883 648.747 244.051 648.57 243.146C648.392 242.241 648.487 241.303 648.843 240.452C649.199 239.601 649.799 238.874 650.568 238.365C651.337 237.855 652.24 237.585 653.162 237.589C653.773 237.589 654.378 237.71 654.943 237.944C655.507 238.179 656.019 238.522 656.45 238.955C656.882 239.388 657.223 239.902 657.455 240.467C657.687 241.033 657.805 241.638 657.802 242.249Z" fill="#BEFFBE"/>
<path d="M262.142 728.409V648.409H291.082V654.229H269.742V684.229H287.142V689.769H269.742V722.749H291.282V728.389L262.142 728.409Z" fill="#C4D0DD"/>
<path d="M301.562 728.409V648.409H319.562C323.637 648.199 327.698 649.032 331.362 650.829C334.168 652.383 336.346 654.865 337.522 657.849C338.855 661.332 339.493 665.041 339.402 668.769C339.422 671.592 339.093 674.407 338.422 677.149C337.846 679.622 336.695 681.924 335.062 683.869C333.298 685.811 330.93 687.101 328.342 687.529L340.602 728.429H333.282L321.602 689.009H309.062V728.409H301.562ZM309.062 683.549H319.242C321.946 683.7 324.64 683.12 327.042 681.869C328.919 680.748 330.336 678.998 331.042 676.929C331.915 674.293 332.321 671.525 332.242 668.749C332.514 664.88 331.615 661.02 329.662 657.669C327.962 655.249 324.562 654.029 319.502 654.029H309.122L309.062 683.549Z" fill="#C4D0DD"/>
<path d="M352.122 728.409V648.409H370.122C374.203 648.206 378.269 649.038 381.942 650.829C384.748 652.383 386.926 654.865 388.102 657.849C389.435 661.332 390.073 665.041 389.982 668.769C390.002 671.592 389.673 674.407 389.002 677.149C388.426 679.622 387.275 681.924 385.642 683.869C383.879 685.811 381.511 687.101 378.922 687.529L391.162 728.429H383.862L372.182 689.009H359.642V728.409H352.122ZM359.642 683.549H369.822C372.526 683.697 375.219 683.117 377.622 681.869C379.499 680.749 380.916 678.998 381.622 676.929C382.495 674.293 382.901 671.525 382.822 668.749C383.094 664.88 382.195 661.02 380.242 657.669C378.522 655.249 375.142 654.029 370.062 654.029H359.702L359.642 683.549Z" fill="#C4D0DD"/>
<path d="M421.582 729.389C417.231 729.629 412.908 728.549 409.182 726.289C406.162 724.177 403.937 721.114 402.862 717.589C401.575 713.447 400.954 709.126 401.022 704.789V671.609C400.949 667.292 401.626 662.995 403.022 658.909C404.175 655.493 406.434 652.558 409.442 650.569C413.229 648.623 417.425 647.608 421.682 647.608C425.939 647.608 430.135 648.623 433.922 650.569C436.926 652.552 439.174 655.491 440.302 658.909C441.636 663.007 442.272 667.3 442.182 671.609V704.889C442.249 709.205 441.635 713.504 440.362 717.629C439.281 721.13 437.073 724.174 434.082 726.289C430.328 728.571 425.967 729.652 421.582 729.389ZM421.582 723.389C424.441 723.583 427.285 722.839 429.682 721.269C431.584 719.75 432.922 717.638 433.482 715.269C434.213 712.38 434.562 709.408 434.522 706.429V670.229C434.564 667.263 434.214 664.304 433.482 661.429C432.913 659.125 431.572 657.085 429.682 655.649C427.195 654.322 424.42 653.628 421.602 653.628C418.783 653.628 416.008 654.322 413.522 655.649C411.602 657.068 410.237 659.112 409.662 661.429C408.937 664.305 408.594 667.264 408.642 670.229V706.469C408.595 709.448 408.938 712.419 409.662 715.309C410.227 717.69 411.589 719.807 413.522 721.309C415.915 722.849 418.743 723.572 421.582 723.369V723.389Z" fill="#C4D0DD"/>
<path d="M454.562 728.409V648.409H472.562C476.637 648.199 480.698 649.032 484.362 650.829C487.166 652.391 489.348 654.87 490.542 657.849C491.865 661.334 492.503 665.042 492.422 668.769C492.432 671.591 492.103 674.405 491.442 677.149C490.858 679.619 489.708 681.92 488.082 683.869C486.316 685.808 483.949 687.097 481.362 687.529L493.602 728.429H486.302L474.622 689.009H462.082V728.409H454.562ZM462.082 683.549H472.242C474.946 683.7 477.64 683.12 480.042 681.869C481.918 680.747 483.335 678.997 484.042 676.929C484.905 674.291 485.305 671.523 485.222 668.749C485.498 664.883 484.606 661.022 482.662 657.669C480.942 655.249 477.562 654.029 472.482 654.029H462.122L462.082 683.549Z" fill="#C4D0DD"/>
<path d="M525.302 728.409V648.409H544.462C548.406 648.2 552.326 649.123 555.762 651.069C558.484 652.83 560.55 655.437 561.642 658.489C562.896 662.073 563.499 665.853 563.422 669.649C563.46 673.205 562.844 676.737 561.602 680.069C560.446 683.183 558.349 685.86 555.602 687.729C552.308 689.769 548.473 690.766 544.602 690.589H532.822V728.409H525.302ZM532.822 685.009H542.402C545.096 685.111 547.779 684.619 550.262 683.569C552.284 682.584 553.856 680.868 554.662 678.769C555.694 675.857 556.163 672.776 556.042 669.689C556.158 666.465 555.753 663.244 554.842 660.149C554.527 659.117 554 658.162 553.293 657.345C552.587 656.529 551.718 655.87 550.742 655.409C548.115 654.409 545.31 653.959 542.502 654.089H532.822V685.009Z" fill="#C4D0DD"/>
<path d="M564.602 728.409L581.502 648.409H589.502L606.502 728.409H599.082L595.082 706.969H576.002L572.002 728.409H564.602ZM577.062 701.529H594.042L585.442 658.369L577.062 701.529Z" fill="#C4D0DD"/>
<path d="M633.962 729.489C629.786 729.72 625.646 728.613 622.142 726.329C619.214 724.089 617.106 720.947 616.142 717.389C614.882 713.043 614.282 708.533 614.362 704.009V672.789C614.281 668.282 614.86 663.788 616.082 659.449C617.084 655.932 619.239 652.853 622.202 650.709C625.853 648.75 629.917 647.689 634.059 647.613C638.201 647.536 642.302 648.447 646.022 650.269C648.838 652.125 650.95 654.871 652.022 658.069C653.359 662.111 653.988 666.353 653.882 670.609V673.389H646.822V670.609C646.888 667.417 646.539 664.23 645.782 661.129C645.261 658.899 643.99 656.915 642.182 655.509C639.901 654.101 637.236 653.444 634.562 653.629C631.635 653.416 628.728 654.252 626.362 655.989C624.456 657.69 623.186 659.99 622.762 662.509C622.17 665.634 621.889 668.809 621.922 671.989V704.889C621.858 708.252 622.207 711.611 622.962 714.889C623.486 717.376 624.849 719.607 626.822 721.209C629.168 722.815 631.986 723.583 634.822 723.389C637.466 723.673 640.12 722.944 642.247 721.347C644.374 719.751 645.816 717.407 646.282 714.789C647.056 711.514 647.419 708.154 647.362 704.789V695.409H635.522V689.789H654.282V728.409H649.442L648.562 719.309C647.7 722.213 645.995 724.796 643.662 726.729C640.848 728.748 637.418 729.724 633.962 729.489Z" fill="#C4D0DD"/>
<path d="M667.142 728.409V648.409H696.082V654.229H674.822V684.229H692.222V689.769H674.822V722.749H696.362V728.389L667.142 728.409Z" fill="#C4D0DD"/>
<path d="M230.462 618.769V520.629H111.142V462.449L215.142 219.369H294.522V466.389H335.442V520.629H294.562V618.769H230.462ZM168.322 466.389H230.462V292.829L168.322 466.389ZM475.522 624.669C452.189 624.669 432.855 619.742 417.522 609.889C402.228 599.99 390.231 585.758 383.062 569.009C375.342 551.569 371.482 531.516 371.482 508.849V331.789C371.482 308.456 375.182 287.996 382.582 270.409C389.396 253.504 401.272 239.119 416.582 229.229C431.862 219.362 451.502 214.429 475.502 214.429C499.502 214.429 519.142 219.362 534.422 229.229C549.723 239.13 561.596 253.511 568.422 270.409C575.822 287.996 579.522 308.456 579.522 331.789V508.809C579.522 531.476 575.655 551.529 567.922 568.969C560.751 585.739 548.739 599.987 533.422 609.889C518.155 619.756 498.855 624.682 475.522 624.669ZM475.522 566.009C485.709 566.009 493.269 562.882 498.202 556.629C503.295 549.99 506.68 542.202 508.062 533.949C509.678 525.329 510.502 516.579 510.522 507.809V332.769C510.525 323.604 509.782 314.454 508.302 305.409C507.122 297.068 503.809 289.173 498.682 282.489C493.762 276.249 486.042 273.122 475.522 273.109C465.002 273.096 457.275 276.222 452.342 282.489C447.259 289.188 443.981 297.08 442.822 305.409C441.342 314.454 440.599 323.604 440.602 332.769V507.809C440.622 516.592 441.534 525.35 443.322 533.949C444.847 542.202 448.309 549.975 453.422 556.629C458.355 562.896 465.722 566.022 475.522 566.009ZM742.282 618.769V520.629H622.942V462.449L726.942 219.369H806.322V466.389H847.262V520.629H806.362V618.769H742.282ZM680.142 466.389H742.282V292.829L680.142 466.389Z" fill="#BEFFBE" stroke="#2B3B4F" stroke-miterlimit="10"/>
<g opacity="0.3">
<path d="M628.222 511.269L628.482 511.509C628.836 511.796 629.21 512.057 629.602 512.289L629.922 512.449C630.275 512.657 630.642 512.837 631.022 512.989L631.422 513.149C631.948 513.364 632.49 513.538 633.042 513.669H633.322C633.842 513.789 634.382 513.889 634.982 513.969H635.542C636.242 513.969 636.982 514.129 637.782 514.149C640.603 514.225 643.409 513.715 646.022 512.649C647.416 512.11 648.755 511.44 650.022 510.649C650.892 510.099 651.733 509.505 652.542 508.869C652.962 508.549 653.362 508.209 653.762 507.849C654.573 507.142 655.341 506.387 656.062 505.589C662.702 498.309 666.602 486.969 663.362 473.589C662.562 470.269 661.702 467.149 660.802 464.149C659.403 459.487 657.727 454.912 655.782 450.449C655.302 449.369 654.822 448.309 654.302 447.289C653.17 444.979 651.908 442.736 650.522 440.569C649.642 439.189 648.722 437.869 647.782 436.569C645.662 433.752 643.142 431.259 640.302 429.169C639.642 428.689 638.962 428.249 638.302 427.849C638.131 427.74 637.95 427.646 637.762 427.569L622.922 462.229V501.009C624.342 505.009 625.302 508.509 627.822 511.009L628.222 511.269Z" fill="#232F40"/>
<path d="M579.562 501.009V432.349C577.562 432.349 575.802 432.509 574.222 432.609C574.435 421.763 573.217 410.937 570.602 400.409C570.569 393.904 569.233 387.472 566.674 381.492C564.115 375.512 560.385 370.104 555.702 365.589C554.762 352.309 547.342 336.789 539.042 325.909C539.248 325.928 539.456 325.928 539.662 325.909C542.982 325.549 545.062 321.389 546.522 314.229C546.722 313.249 546.882 312.329 547.002 311.449C549.994 309.604 552.525 307.1 554.402 304.129C555.46 301.869 556.135 299.45 556.402 296.969C560.059 294.763 563.368 292.026 566.222 288.849C568.909 285.682 570.667 281.833 571.302 277.729C570.442 275.229 569.502 272.769 568.502 270.369C564.277 260.273 558.291 251.009 550.822 243.009C548.659 241.872 546.379 240.973 544.022 240.329C541.882 239.753 539.678 239.444 537.462 239.409C525.33 237 513.009 235.661 500.642 235.409C494.642 235.269 489.302 235.409 484.482 235.589C480.337 233.788 475.795 233.099 471.302 233.589C468.533 233.879 465.83 234.622 463.302 235.789C456.261 233.902 448.941 233.279 441.682 233.949C440.162 234.129 438.662 234.309 437.202 234.529C437.202 233.769 437.102 233.009 437.002 232.249C436.842 230.789 436.622 229.349 436.362 227.929C436.522 225.265 436.522 222.593 436.362 219.929C429.316 222.128 422.591 225.248 416.362 229.209C401.052 239.099 389.176 253.483 382.362 270.389C374.962 287.976 371.262 308.436 371.262 331.769V349.329C378.422 358.589 387.062 368.969 392.762 372.949L394.002 374.229C394.402 381.129 395.622 396.669 398.622 401.789C398.622 401.789 396.262 410.029 400.262 414.209C399.042 423.449 397.422 446.589 407.022 469.389C414.482 487.089 427.202 496.649 440.282 499.689V332.769C440.385 323.595 441.235 314.445 442.822 305.409C444.011 297.071 447.323 289.178 452.442 282.489C457.376 276.249 465.102 273.122 475.622 273.109C486.142 273.096 493.862 276.222 498.782 282.489C503.909 289.173 507.222 297.068 508.402 305.409C509.883 314.454 510.625 323.604 510.622 332.769V507.809C510.622 510.769 510.482 513.809 510.302 516.729C510.402 517.289 510.522 517.829 510.662 518.329C510.825 518.882 511.025 519.423 511.262 519.949C511.301 520.053 511.347 520.153 511.402 520.249C511.574 520.611 511.775 520.959 512.002 521.289L512.182 521.529C512.439 521.887 512.734 522.216 513.062 522.509C513.37 522.783 513.705 523.024 514.062 523.229L514.342 523.389L515.342 523.869H515.542C515.962 524.029 516.402 524.169 516.882 524.309H517.202C517.582 524.429 518.002 524.529 518.422 524.629L518.882 524.749L520.382 525.089C527.622 526.769 539.982 516.949 543.142 507.089C543.803 504.943 544.298 502.75 544.622 500.529L545.822 500.349C556.928 502.682 568.374 502.906 579.562 501.009ZM533.662 319.669L533.782 318.809C533.682 319.009 533.662 319.369 533.662 319.589V319.669ZM534.282 314.689C534.402 313.669 534.542 312.689 534.662 311.689C534.562 312.669 534.402 313.669 534.282 314.609V314.689Z" fill="#232F40"/>
<path d="M294.562 355.529C291.982 361.989 289.702 367.809 288.562 371.049C284.882 381.389 281.022 393.049 281.102 399.729C281.182 406.409 285.322 414.969 288.562 415.249C291.802 415.529 294.102 413.389 294.562 408.889V355.529Z" fill="#232F40"/>
</g>
<path d="M525.083 375.369C526.316 385.382 526.944 395.46 526.963 405.549C526.843 420.749 530.403 421.069 537.663 422.749C544.923 424.429 557.262 414.609 560.422 404.749C563.582 394.889 563.283 375.829 563.283 375.829L525.083 375.369Z" fill="#C8C8C8"/>
<path d="M539.402 423.929C538.73 423.936 538.06 423.869 537.402 423.729L536.722 423.569C529.162 421.829 525.822 420.429 525.942 405.569C525.919 395.541 525.298 385.523 524.082 375.569L523.922 374.429L564.242 374.889V375.869C564.242 376.649 564.502 395.189 561.322 405.109C558.142 415.029 547.222 423.929 539.402 423.929ZM526.222 376.389C527.364 386.067 527.945 395.804 527.962 405.549C527.842 419.549 530.582 420.089 537.202 421.549L537.882 421.709C544.582 423.269 556.482 413.709 559.462 404.369C562.142 396.029 562.302 380.749 562.282 376.749L526.222 376.389Z" fill="#2B3B4F"/>
<path d="M558.162 393.689C557.822 400.429 555.822 411.249 545.802 416.569C543.008 418.064 539.862 418.781 536.695 418.644C533.529 418.507 530.457 417.521 527.802 415.789C529.282 421.069 532.542 421.589 537.582 422.749C544.822 424.429 557.182 414.609 560.342 404.749C563.502 394.889 563.202 375.829 563.202 375.829H558.742C558.662 380.769 558.382 389.149 558.162 393.689Z" fill="#C8C8C8"/>
<path d="M539.402 423.929C538.73 423.936 538.059 423.869 537.402 423.729L536.742 423.569C532.122 422.509 528.482 421.669 526.902 416.049L526.182 413.529L528.402 414.949C530.903 416.562 533.789 417.48 536.762 417.61C539.735 417.74 542.69 417.077 545.322 415.689C554.442 410.829 556.782 401.009 557.142 393.689C557.382 388.829 557.682 379.549 557.802 375.789V374.809H564.222V375.789C564.222 376.569 564.482 395.109 561.302 405.029C558.122 414.949 547.222 423.929 539.402 423.929ZM529.902 417.929C531.342 420.209 533.662 420.749 537.202 421.569L537.882 421.709C544.582 423.269 556.482 413.709 559.462 404.369C562.142 396.029 562.302 380.749 562.282 376.749H559.782C559.642 380.969 559.382 389.209 559.162 393.709C558.782 401.609 556.222 412.129 546.282 417.429C543.782 418.785 541.001 419.541 538.158 419.638C535.316 419.735 532.489 419.171 529.902 417.989V417.929Z" fill="#2B3B4F"/>
<path d="M490.622 389.709C500.283 389.061 509.79 386.957 518.822 383.469C535.122 377.469 553.422 363.809 549.502 350.469C545.582 337.129 524.342 333.429 515.962 334.329C509.9 335.097 503.89 336.225 497.962 337.709C497.962 337.709 500.002 375.269 490.622 389.709Z" fill="#C8C8C8"/>
<path d="M488.822 390.749L489.842 389.169C498.942 375.169 497.122 338.129 497.102 337.749V336.929L497.902 336.729C503.871 335.242 509.921 334.107 516.022 333.329C524.502 332.429 546.462 335.969 550.642 350.189C554.542 363.469 537.442 377.729 519.342 384.409C510.19 387.97 500.543 390.095 490.742 390.709L488.822 390.749ZM499.142 338.469C499.362 344.009 500.242 374.249 492.502 388.609C501.432 387.749 510.212 385.732 518.622 382.609C535.842 376.249 552.242 362.949 548.622 350.829C544.822 337.929 523.842 334.569 516.142 335.409C510.401 336.094 504.704 337.116 499.082 338.469H499.142Z" fill="#2B3B4F"/>
<path d="M482.822 395.169C489.556 393.541 495.586 389.79 500.022 384.469C506.522 375.989 508.922 362.309 505.442 353.149C501.962 343.989 482.822 395.169 482.822 395.169Z" fill="#BEFFBE"/>
<path d="M481.162 396.509L481.802 394.809C485.642 384.549 498.622 351.069 504.222 351.049C504.742 351.049 505.722 351.269 506.222 352.789C509.782 362.189 507.342 376.369 500.662 385.069C496.09 390.598 489.842 394.488 482.862 396.149L481.162 396.509ZM504.162 353.009C501.422 353.009 491.902 373.789 484.362 393.649C490.155 391.917 495.301 388.499 499.142 383.829C505.442 375.629 507.762 362.289 504.442 353.489C504.392 353.307 504.296 353.142 504.162 353.009Z" fill="#2B3B4F"/>
<path d="M418.483 307.489C418.483 307.489 412.203 337.489 424.483 366.869C436.763 396.249 463.763 403.229 482.663 395.169C501.563 387.109 506.083 360.489 506.283 342.789C506.483 325.089 505.963 317.049 505.963 317.049C505.963 317.049 442.443 323.249 418.483 307.489Z" fill="#C8C8C8"/>
<path d="M467.283 399.269C461.758 399.258 456.287 398.192 451.163 396.129C442.723 392.709 431.163 384.909 423.643 367.249C411.303 337.929 417.423 307.589 417.503 307.249L417.803 305.809L419.023 306.609C442.423 322.009 505.303 316.069 505.943 316.009L506.963 315.909V316.949C506.963 316.949 507.483 325.249 507.283 342.769C507.143 355.749 504.483 386.909 483.043 396.049C478.058 398.168 472.699 399.263 467.283 399.269ZM419.283 309.129C418.263 315.409 414.983 341.329 425.563 366.489C432.743 383.509 443.903 390.989 452.003 394.269C461.747 398.275 472.678 398.275 482.423 394.269C502.783 385.589 505.303 355.389 505.443 342.809C505.603 328.809 505.303 320.809 505.183 318.169C496.623 318.889 442.543 323.009 419.203 309.129H419.283Z" fill="#2B3B4F"/>
<path d="M416.162 299.269C416.162 299.269 413.342 309.109 419.042 312.729C424.742 316.349 454.162 333.629 489.042 327.009C508.562 323.309 504.262 317.589 503.922 314.449C503.582 311.309 416.162 299.269 416.162 299.269Z" fill="#BEFFBE"/>
<path d="M473.082 329.509C453.784 329.16 434.934 323.634 418.502 313.509C412.262 309.509 415.082 299.369 415.202 298.929L415.442 298.089L416.302 298.209C416.522 298.209 438.442 301.269 460.102 304.629C504.682 311.549 504.862 313.069 504.982 314.289C505.041 314.68 505.122 315.067 505.222 315.449C505.563 316.389 505.693 317.391 505.603 318.387C505.513 319.382 505.206 320.346 504.702 321.209C502.802 324.169 497.902 326.309 489.302 327.929C483.957 328.964 478.527 329.493 473.082 329.509ZM416.922 300.389C416.442 302.709 415.482 309.289 419.582 311.889C425.102 315.389 454.382 332.569 488.922 326.029C496.742 324.549 501.482 322.589 503.022 320.189C503.367 319.546 503.569 318.836 503.614 318.107C503.659 317.379 503.546 316.65 503.282 315.969C503.176 315.596 503.096 315.236 503.042 314.889C498.822 312.409 448.702 304.769 416.922 300.389Z" fill="#2B3B4F"/>
<path d="M411.402 268.349C411.402 268.349 412.262 292.629 416.162 299.269C420.062 305.909 471.702 326.089 497.922 320.409C524.142 314.729 566.822 291.369 572.022 274.209C577.222 257.049 563.702 230.049 550.982 217.049C538.262 204.049 532.682 201.489 532.682 201.489C532.682 201.489 501.522 243.009 462.822 256.769C424.122 270.529 411.402 268.349 411.402 268.349Z" fill="white"/>
<path d="M487.322 322.409C459.462 322.409 419.062 306.169 415.322 299.769C411.322 292.989 410.442 269.389 410.422 268.389V267.169L411.622 267.369C411.742 267.369 424.602 269.269 462.482 255.829C500.362 242.389 531.642 201.309 531.942 200.889L532.442 200.249L533.162 200.589C533.402 200.689 539.062 203.389 551.762 216.349C564.462 229.309 578.542 256.349 573.042 274.509C567.542 292.669 523.822 315.849 498.202 321.389C494.621 322.108 490.975 322.45 487.322 322.409ZM412.442 269.449C412.682 274.289 413.762 293.209 417.022 298.769C420.282 304.329 471.162 325.169 497.722 319.429C524.962 313.429 566.202 289.949 571.062 273.929C576.262 256.749 562.082 229.809 550.262 217.749C540.262 207.629 534.782 203.889 532.962 202.789C528.642 208.289 498.962 244.989 463.102 257.709C430.622 269.229 416.422 269.649 412.442 269.449Z" fill="#2B3B4F"/>
<path d="M617.242 329.689C617.242 329.689 644.682 318.949 655.642 325.529C666.602 332.109 674.982 347.529 680.742 371.189C686.502 394.849 669.662 412.289 655.122 411.749C640.582 411.209 643.122 401.749 637.462 392.129C631.802 382.509 624.842 376.909 624.382 375.889C623.922 374.869 630.822 344.469 617.242 329.689Z" fill="white"/>
<path d="M655.802 412.769H655.082C644.022 412.369 642.142 406.769 639.942 400.509C639.096 397.78 637.97 395.146 636.582 392.649C633.453 387.447 629.669 382.668 625.322 378.429C624.616 377.854 623.997 377.181 623.482 376.429C623.282 376.009 623.342 375.609 623.642 373.229C624.622 365.629 627.642 342.509 616.522 330.489L615.522 329.409L616.882 328.889C618.022 328.429 644.882 318.029 656.162 324.889C667.442 331.749 675.882 347.009 681.702 371.009C683.159 376.405 683.339 382.067 682.228 387.545C681.117 393.022 678.746 398.166 675.302 402.569C672.996 405.592 670.054 408.072 666.685 409.834C663.316 411.596 659.601 412.598 655.802 412.769ZM625.362 375.569C625.582 375.829 626.182 376.429 626.742 377.009C631.221 381.358 635.114 386.273 638.322 391.629C639.761 394.241 640.94 396.987 641.842 399.829C643.942 405.969 645.482 410.389 655.162 410.749C661.762 410.989 668.702 407.449 673.762 401.249C677.012 397.083 679.247 392.218 680.288 387.038C681.33 381.858 681.15 376.507 679.762 371.409C674.062 347.929 665.762 332.769 655.122 326.389C646.062 320.929 624.522 328.109 618.942 330.129C629.522 343.049 626.602 365.749 625.622 373.369C625.502 374.249 625.402 375.169 625.362 375.569Z" fill="#2B3B4F"/>
<path d="M655.642 325.529C652.079 323.798 648.101 323.105 644.162 323.529C649.722 327.649 660.682 337.689 667.862 356.789C677.862 383.249 673.302 397.169 668.222 402.309C663.142 407.449 652.382 409.329 647.722 408.769L645.122 408.469C647.122 410.469 650.102 411.669 655.122 411.849C669.662 412.389 686.502 395.029 680.742 371.289C674.982 347.549 666.602 332.109 655.642 325.529Z" fill="white"/>
<path d="M655.802 412.769H655.082C650.182 412.589 646.802 411.429 644.422 409.089L642.322 407.089L647.842 407.749C652.082 408.249 662.562 406.569 667.502 401.569C673.162 395.849 675.962 381.189 666.922 357.109C659.902 338.409 649.282 328.529 643.562 324.289L641.302 322.609L644.122 322.489C648.254 322.071 652.419 322.848 656.122 324.729C667.242 331.409 675.842 346.969 681.662 371.009C683.119 376.405 683.299 382.067 682.188 387.545C681.077 393.022 678.706 398.166 675.262 402.569C672.96 405.587 670.024 408.063 666.663 409.826C663.301 411.588 659.594 412.592 655.802 412.769ZM649.282 409.769C651.18 410.399 653.163 410.73 655.162 410.749C661.762 410.989 668.702 407.449 673.762 401.249C677.012 397.083 679.246 392.218 680.288 387.038C681.329 381.858 681.149 376.507 679.762 371.409C674.062 347.929 665.762 332.769 655.122 326.389C652.663 325.07 649.913 324.382 647.122 324.389C657.012 332.965 664.492 343.975 668.822 356.329C680.622 387.749 671.902 399.929 668.942 402.909C664.022 407.869 654.522 409.809 649.282 409.769Z" fill="#2B3B4F"/>
<path d="M559.242 397.009C559.242 397.009 585.122 404.449 609.242 394.769C633.362 385.089 647.422 369.089 642.122 349.529C636.822 329.969 626.842 329.289 604.982 329.529C583.122 329.769 578.722 331.669 578.722 331.669C578.722 331.669 577.902 387.009 559.242 397.009Z" fill="white"/>
<path d="M581.603 400.789C573.971 400.831 566.364 399.91 558.963 398.049L556.603 397.389L558.763 396.209C576.763 386.449 577.622 332.309 577.622 331.749V331.109L578.203 330.849C578.403 330.849 583.023 328.849 604.843 328.629C626.663 328.409 637.483 329.149 642.963 349.349C648.083 368.229 635.883 385.149 609.503 395.789C600.603 399.209 591.135 400.905 581.603 400.789ZM561.723 396.669C568.443 398.169 589.363 401.749 608.763 393.929C634.103 383.729 645.883 367.669 641.062 349.929C635.943 331.069 626.823 330.429 604.903 330.689C587.583 330.889 581.382 332.089 579.622 332.569C579.462 339.009 577.863 384.489 561.723 396.669Z" fill="#2B3B4F"/>
<path d="M587.711 303.509C590.197 277.161 572.493 253.941 548.168 251.645C523.843 249.35 502.108 268.849 499.622 295.198C497.136 321.546 514.84 344.767 539.165 347.062C563.49 349.357 585.225 329.858 587.711 303.509Z" fill="#BEFFBE"/>
<path d="M543.042 348.269C541.706 348.274 540.371 348.207 539.042 348.069C514.202 345.729 496.062 321.969 498.602 295.109C501.142 268.249 523.402 248.309 548.222 250.649C554.25 251.238 560.087 253.083 565.357 256.066C570.628 259.05 575.215 263.104 578.822 267.969C586.526 278.165 590.098 290.893 588.822 303.609C586.322 329.009 566.242 348.269 543.042 348.269ZM544.302 252.469C522.122 252.469 502.922 270.909 500.622 295.309C498.202 321.069 515.522 343.849 539.262 346.089C563.002 348.329 584.282 329.189 586.722 303.429C587.982 291.217 584.582 278.98 577.202 269.169C573.768 264.538 569.403 260.676 564.388 257.831C559.374 254.986 553.819 253.221 548.082 252.649C546.829 252.529 545.569 252.469 544.302 252.469Z" fill="#2B3B4F"/>
<path d="M597.067 358.878C599.322 334.971 583.268 313.903 561.208 311.821C539.149 309.74 519.437 327.433 517.181 351.34C514.926 375.248 530.98 396.315 553.04 398.397C575.099 400.478 594.811 382.785 597.067 358.878Z" fill="#BEFFBE"/>
<path d="M556.582 399.569C555.382 399.569 554.182 399.569 552.962 399.389C547.497 398.851 542.205 397.174 537.428 394.467C532.65 391.759 528.492 388.081 525.222 383.669C518.229 374.389 515.006 362.807 516.202 351.249C518.502 326.849 538.742 308.689 561.322 310.849C583.902 313.009 600.402 334.569 598.102 358.989C595.922 382.089 577.662 399.569 556.582 399.569ZM557.722 312.669C537.722 312.669 520.282 329.369 518.182 351.449C517.051 362.499 520.129 373.569 526.802 382.449C529.909 386.644 533.859 390.142 538.399 392.719C542.939 395.295 547.968 396.893 553.162 397.409C574.622 399.409 593.902 382.109 596.102 358.789C598.302 335.469 582.622 314.789 561.142 312.789C560.002 312.729 558.822 312.669 557.722 312.669Z" fill="#2B3B4F"/>
<path d="M591.542 330.369C591.542 330.369 593.342 291.669 574.442 270.369C555.542 249.069 512.562 266.489 505.422 298.369C498.282 330.249 513.422 378.029 533.082 390.369C552.742 402.709 569.482 390.649 580.702 373.529C591.922 356.409 591.542 330.369 591.542 330.369Z" fill="white"/>
<path d="M549.202 396.509C543.26 396.382 537.479 394.557 532.542 391.249C512.082 378.429 497.382 329.729 504.442 298.189C508.902 278.189 526.202 265.429 541.382 261.489C555.042 257.949 567.382 260.969 575.182 269.749C594.042 290.949 592.622 328.389 592.542 330.389C592.542 331.849 592.682 357.089 581.542 374.129C575.362 383.549 564.142 396.509 549.202 396.509ZM552.242 262.049C548.745 262.073 545.264 262.537 541.882 263.429C527.302 267.209 510.662 279.549 506.402 298.629C499.482 329.509 513.722 377.109 533.602 389.549C555.462 403.249 571.962 385.069 579.862 373.029C590.762 356.369 590.542 330.629 590.542 330.389C590.542 329.989 592.102 291.849 573.682 271.149C570.976 268.176 567.659 265.824 563.958 264.253C560.257 262.682 556.261 261.93 552.242 262.049Z" fill="#2B3B4F"/>
<path d="M324.522 221.989C324.522 221.989 309.562 258.189 305.882 268.509C302.202 278.829 298.322 290.509 298.422 297.189C298.522 303.869 302.642 312.429 305.862 312.709C309.082 312.989 311.422 310.829 311.862 306.289C312.302 301.749 312.122 299.869 314.402 297.369C317.599 294.433 321.068 291.807 324.762 289.529C325.682 289.109 326.382 292.549 324.222 296.309C322.062 300.069 317.322 303.469 320.222 307.289C323.122 311.109 329.102 306.649 332.222 303.429C335.977 299.399 338.641 294.477 339.962 289.129C341.262 283.549 340.622 271.769 340.622 271.769L367.062 246.809C367.062 246.809 332.202 242.609 324.522 221.989Z" fill="#C8C8C8"/>
<path d="M306.442 313.749H305.782C301.662 313.389 297.502 303.989 297.422 297.249C297.342 290.509 300.982 279.249 304.922 268.229C308.582 257.989 323.442 222.009 323.582 221.629L324.562 219.289L325.462 221.669C332.842 241.469 367.022 245.809 367.462 245.849L369.582 246.109L341.942 272.209C342.042 274.489 342.402 284.209 341.202 289.409C339.827 294.927 337.075 300.005 333.202 304.169C331.462 305.929 326.962 310.029 323.082 309.809C322.403 309.776 321.74 309.593 321.142 309.271C320.543 308.949 320.024 308.497 319.622 307.949C316.942 304.509 319.362 301.389 321.502 298.629C322.222 297.741 322.889 296.813 323.502 295.849C324.437 294.342 324.871 292.578 324.742 290.809C321.387 292.961 318.222 295.396 315.282 298.089C313.582 299.949 313.442 301.369 313.182 304.509C313.182 305.109 313.062 305.729 313.002 306.509C312.422 311.009 310.022 313.749 306.442 313.749ZM324.542 224.549C321.242 232.549 309.922 260.129 306.822 268.849C303.102 279.249 299.342 290.729 299.422 297.169C299.422 304.109 303.682 311.509 305.962 311.709C309.722 312.049 310.682 308.389 310.902 306.189C310.902 305.509 311.022 304.869 311.082 304.309C311.362 301.029 311.542 299.049 313.722 296.689C317.001 293.675 320.572 290.996 324.382 288.689C324.654 288.562 324.96 288.528 325.253 288.593C325.546 288.658 325.81 288.819 326.002 289.049C327.062 290.229 326.982 293.649 325.122 296.889C324.489 297.939 323.78 298.941 323.002 299.889C320.762 302.789 319.482 304.649 321.122 306.769C321.352 307.089 321.651 307.352 321.998 307.539C322.344 307.726 322.729 307.832 323.122 307.849C325.622 307.989 329.122 305.349 331.682 302.809C335.312 298.914 337.886 294.158 339.162 288.989C340.422 283.609 339.822 272.029 339.822 271.909V271.449L365.102 247.569C357.602 246.269 332.602 241.009 324.542 224.549Z" fill="#2B3B4F"/>
<path d="M335.382 299.609C331.222 299.509 328.242 298.509 326.562 296.649C325.661 295.699 325.16 294.439 325.162 293.129L327.162 293.289C327.21 294.047 327.538 294.76 328.082 295.289C329.002 296.269 331.002 297.449 335.422 297.549L335.382 299.609Z" fill="#2B3B4F"/>
<path d="M312.222 298.529C309.419 298.51 306.697 297.592 304.454 295.911C302.211 294.23 300.567 291.874 299.762 289.189L301.762 288.669C302.534 291.296 304.255 293.542 306.592 294.969C308.929 296.396 311.713 296.902 314.402 296.389L314.662 298.389C313.853 298.486 313.038 298.533 312.222 298.529Z" fill="#2B3B4F"/>
<path d="M305.842 305.949C303.45 305.888 301.139 305.068 299.242 303.609L300.462 302.029C300.702 302.209 306.322 306.449 310.602 301.729L312.082 303.069C311.312 303.972 310.356 304.697 309.278 305.194C308.201 305.692 307.029 305.949 305.842 305.949Z" fill="#2B3B4F"/>
<path d="M338.382 272.829C329.242 272.829 322.382 270.529 317.782 265.989C314.378 262.553 312.448 257.925 312.402 253.089H314.402C314.494 257.377 316.217 261.469 319.222 264.529C323.742 269.029 330.982 271.089 340.762 270.689L340.862 272.689L338.382 272.829Z" fill="#2B3B4F"/>
<path d="M332.002 211.249C332.002 211.249 324.962 211.369 324.522 221.989C324.082 232.609 332.522 248.969 348.882 251.669C365.242 254.369 375.342 244.649 378.302 236.629C381.262 228.609 343.162 205.009 332.002 211.249Z" fill="#BEFFBE"/>
<path d="M354.342 253.149C352.459 253.142 350.579 252.982 348.722 252.669C331.782 249.849 323.062 232.669 323.522 221.929C323.942 211.749 330.282 210.429 331.702 210.269C340.202 205.769 361.322 216.269 372.242 225.549C376.142 228.869 380.522 233.549 379.242 236.989C377.237 241.902 373.776 246.083 369.325 248.972C364.874 251.86 359.646 253.318 354.342 253.149ZM332.022 212.249C331.742 212.249 326.022 212.569 325.522 222.029C325.082 232.029 333.222 248.029 349.042 250.689C366.142 253.529 375.042 242.509 377.362 236.289C377.882 234.909 376.462 231.769 370.962 227.069C360.502 218.189 339.742 207.989 332.482 212.109L332.262 212.229L332.022 212.249Z" fill="#2B3B4F"/>
<path d="M350.322 182.349C350.322 182.349 333.042 203.129 330.022 213.689C327.002 224.249 334.542 243.689 353.702 246.029C372.862 248.369 384.262 232.469 384.262 232.469L350.322 182.349Z" fill="#C8C8C8"/>
<path d="M357.562 247.269C356.225 247.267 354.89 247.187 353.562 247.029C349.478 246.543 345.549 245.168 342.053 243.002C338.556 240.835 335.576 237.93 333.322 234.489C328.962 227.869 327.322 219.609 329.042 213.429C332.082 202.769 348.822 182.569 349.522 181.709L350.382 180.689L385.462 232.469L385.062 233.049C384.962 233.189 374.702 247.269 357.562 247.269ZM350.242 184.029C346.742 188.329 333.522 205.049 330.982 214.029C329.402 219.589 330.982 227.389 334.982 233.449C337.057 236.666 339.823 239.379 343.079 241.393C346.334 243.406 349.997 244.669 353.802 245.089C370.142 247.089 380.782 235.209 382.982 232.489L350.242 184.029Z" fill="#2B3B4F"/>
<path d="M360.202 165.589C352.496 172.717 347.779 182.501 347.002 192.969C346.142 209.909 361.742 229.449 382.102 227.569C402.462 225.689 376.962 164.769 360.202 165.589Z" fill="#BEFFBE"/>
<path d="M379.402 228.689C371.094 228.601 363.15 225.271 357.262 219.409C353.659 216.029 350.797 211.937 348.859 207.392C346.921 202.847 345.948 197.949 346.002 193.009C346.771 182.284 351.625 172.263 359.562 165.009L359.822 164.809H360.542C373.522 164.809 389.342 196.469 390.542 213.909C391.182 222.969 388.202 228.249 382.182 228.809C381.262 228.649 380.342 228.689 379.402 228.689ZM360.602 166.569C353.268 173.515 348.777 182.938 348.002 193.009C347.945 197.68 348.862 202.312 350.694 206.609C352.526 210.907 355.233 214.775 358.642 217.969C361.679 221.017 365.345 223.365 369.383 224.85C373.421 226.336 377.734 226.922 382.022 226.569C388.122 226.009 388.962 219.329 388.562 213.809C387.282 195.609 371.582 166.649 360.602 166.569Z" fill="#2B3B4F"/>
<path d="M368.822 178.129C368.822 178.129 359.642 189.009 364.822 207.369C367.989 218.41 374.29 228.297 382.962 235.829C382.962 235.829 408.022 271.829 418.542 277.449C429.062 283.069 447.682 283.249 485.402 267.929C523.122 252.609 538.002 230.189 543.782 218.689C549.562 207.189 515.642 154.169 503.922 146.469C492.534 139.4 479.148 136.247 465.802 137.489C458.601 138.348 451.466 139.684 444.442 141.489L368.822 178.129Z" fill="#BEFFBE"/>
<path d="M434.822 281.949C429.01 282.134 423.242 280.891 418.022 278.329C407.602 272.809 384.022 239.189 382.162 236.529C373.376 228.882 366.998 218.85 363.802 207.649C358.522 189.029 367.482 177.949 367.802 177.489L368.142 177.229L444.022 140.509C451.148 138.68 458.392 137.343 465.702 136.509C479.278 135.267 492.89 138.475 504.482 145.649C516.242 153.369 550.922 206.789 544.702 219.149C537.242 233.949 520.982 254.609 485.802 268.889C464.202 277.629 447.522 281.949 434.822 281.949ZM369.362 179.009C368.322 180.409 361.162 190.789 365.802 207.189C368.932 218.034 375.11 227.753 383.602 235.189L383.802 235.389C384.062 235.749 408.842 271.289 419.042 276.689C431.442 283.269 453.042 280.149 485.042 267.149C519.642 253.149 535.602 232.869 542.902 218.369C548.142 207.929 515.242 155.229 503.362 147.449C492.166 140.514 479.017 137.411 465.902 138.609C458.756 139.477 451.674 140.813 444.702 142.609L369.362 179.009Z" fill="#2B3B4F"/>
<path d="M362.002 172.109C362.002 172.109 352.942 183.029 358.142 201.349C361.309 212.391 367.61 222.277 376.282 229.809C376.282 229.809 401.342 265.809 411.862 271.409C422.382 277.009 441.002 277.209 478.722 261.909C516.442 246.609 531.302 224.169 537.102 212.649C542.902 201.129 508.962 148.149 497.242 140.449C485.851 133.371 472.455 130.217 459.102 131.469C451.908 132.329 444.779 133.665 437.762 135.469L362.002 172.109Z" fill="white"/>
<path d="M428.203 275.929C422.391 276.116 416.622 274.873 411.403 272.309C400.983 266.769 377.403 233.169 375.543 230.489C366.752 222.854 360.373 212.827 357.183 201.629C351.903 183.009 360.863 171.929 361.183 171.469L361.523 171.209L437.263 134.489C444.389 132.66 451.633 131.323 458.943 130.489C472.519 129.237 486.134 132.446 497.723 139.629C509.483 147.349 544.163 200.769 537.943 213.129C530.483 227.929 514.223 248.589 479.043 262.849C457.503 271.609 440.823 275.929 428.203 275.929ZM362.663 173.009C361.623 174.409 354.463 184.789 359.103 201.189C362.212 212.043 368.394 221.767 376.903 229.189L377.103 229.409C377.363 229.769 402.143 265.309 412.343 270.709C424.743 277.289 446.343 274.149 478.343 261.169C512.963 247.169 528.923 226.889 536.203 212.389C541.463 201.949 508.562 149.249 496.682 141.469C485.487 134.534 472.338 131.431 459.223 132.629C452.076 133.497 444.994 134.833 438.023 136.629L362.663 173.009Z" fill="#2B3B4F"/>
<path d="M452.597 151.517C461.219 121.252 443.673 89.7285 413.408 81.1072C383.142 72.4859 351.619 90.0318 342.997 120.297C334.376 150.562 351.922 182.086 382.187 190.707C412.452 199.329 443.976 181.783 452.597 151.517Z" fill="#BEFFBE"/>
<path d="M397.682 193.889C382.577 193.861 368.078 187.94 357.27 177.387C346.462 166.833 340.198 152.48 339.81 137.379C339.422 122.278 344.94 107.622 355.192 96.527C365.444 85.4324 379.62 78.7752 394.704 77.9713C409.788 77.1674 424.591 82.2803 435.964 92.2225C447.337 102.165 454.382 116.152 455.601 131.208C456.82 146.265 452.117 161.203 442.492 172.845C432.867 184.488 419.08 191.916 404.062 193.549C401.944 193.78 399.814 193.894 397.682 193.889ZM397.902 79.889C395.844 79.893 393.788 80.0065 391.742 80.229C377.32 81.8296 364.091 88.9932 354.869 100.196C345.647 111.399 341.159 125.758 342.359 140.219C343.56 154.68 350.355 168.102 361.298 177.631C372.242 187.16 386.471 192.044 400.959 191.244C415.448 190.445 429.053 184.024 438.881 173.349C448.71 162.674 453.986 148.585 453.587 134.08C453.189 119.575 447.148 105.797 436.749 95.677C426.35 85.5568 412.413 79.8926 397.902 79.889Z" fill="#2B3B4F"/>
<path d="M440.117 160.915C462.121 133.013 457.339 92.5571 429.438 70.5533C401.536 48.5496 361.08 53.3307 339.076 81.2323C317.072 109.134 321.854 149.59 349.755 171.594C377.657 193.598 418.113 188.817 440.117 160.915Z" fill="#8A8A8A"/>
<path d="M389.482 186.429C376.865 186.405 364.525 182.729 353.952 175.845C343.379 168.961 335.025 159.163 329.9 147.634C324.774 136.106 323.096 123.34 325.068 110.878C327.039 98.4161 332.577 86.7918 341.011 77.4087C349.446 68.0256 360.416 61.2851 372.598 58.0012C384.78 54.7173 397.652 55.0306 409.66 58.9031C421.668 62.7756 432.297 70.0417 440.265 79.824C448.233 89.6062 453.199 101.486 454.562 114.029C456.418 131.268 451.349 148.538 440.472 162.04C429.596 175.543 413.801 184.171 396.562 186.029C394.211 186.288 391.848 186.421 389.482 186.429ZM389.642 57.729C387.344 57.7376 385.047 57.8644 382.762 58.109C370.309 59.4636 358.537 64.4802 348.935 72.5247C339.333 80.5692 332.331 91.2802 328.816 103.303C325.301 115.327 325.43 128.122 329.187 140.072C332.943 152.022 340.159 162.59 349.921 170.44C359.683 178.289 371.554 183.068 384.031 184.171C396.509 185.275 409.034 182.654 420.023 176.639C431.011 170.625 439.969 161.488 445.765 150.382C451.56 139.277 453.933 126.703 452.582 114.249C450.88 98.7359 443.519 84.3946 431.908 73.9674C420.296 63.5402 405.248 57.7589 389.642 57.729Z" fill="#2B3B4F"/>
<path d="M433.742 130.189C434.769 128.085 435.211 125.743 435.022 123.409C434.622 118.569 429.202 109.649 427.022 107.229C424.842 104.809 421.282 107.669 421.282 107.669L417.282 100.489C415.027 96.3032 411.962 92.6072 408.266 89.6156C404.57 86.624 400.317 84.3963 395.753 83.062C391.19 81.7276 386.406 81.3132 381.681 81.8427C376.956 82.3722 372.382 83.8352 368.227 86.1466C364.072 88.458 360.417 91.5718 357.475 95.3073C354.533 99.0428 352.363 103.325 351.09 107.907C349.817 112.488 349.466 117.276 350.059 121.994C350.651 126.712 352.175 131.265 354.542 135.389L362.822 150.289L358.182 142.769C358.182 142.769 353.942 144.229 354.802 147.409C355.662 150.589 360.382 159.909 364.282 162.789C366.28 164.298 368.683 165.175 371.182 165.309L382.122 184.969C386.94 185.51 391.804 185.51 396.622 184.969C406.893 183.855 416.744 180.282 425.34 174.551C433.936 168.82 441.024 161.102 446.002 152.049L433.742 130.189Z" fill="#2B3B4F"/>
<path d="M389.662 186.409C387.083 186.412 384.505 186.265 381.942 185.969H381.442L370.522 166.329C368.026 166.077 365.642 165.158 363.622 163.669C359.382 160.529 354.642 150.949 353.782 147.669C353.573 146.503 353.792 145.301 354.398 144.283C355.004 143.265 355.958 142.501 357.082 142.129L353.602 135.889C349.03 127.352 347.996 117.36 350.724 108.069C353.453 98.7767 359.725 90.9299 368.187 86.221C376.65 81.5122 386.624 80.3187 395.958 82.8982C405.293 85.4776 413.239 91.6232 418.082 100.009L421.562 106.229C422.445 105.581 423.526 105.259 424.62 105.317C425.713 105.375 426.753 105.811 427.562 106.549C429.842 108.969 435.562 118.049 435.902 123.309C436.102 125.649 435.71 128.001 434.762 130.149L446.982 152.149L446.722 152.649C441.653 161.833 434.45 169.664 425.721 175.48C416.991 181.296 406.99 184.928 396.562 186.069C394.27 186.309 391.967 186.422 389.662 186.409ZM382.682 184.029C395.035 185.389 407.516 183.079 418.564 177.388C429.612 171.697 438.738 162.877 444.802 152.029L432.602 130.029L432.842 129.549C433.797 127.615 434.205 125.458 434.022 123.309C433.642 118.729 428.342 110.029 426.202 107.749C424.622 106.049 421.962 108.169 421.842 108.269L420.922 109.009L416.342 101.009C414.11 97.0051 411.111 93.48 407.516 90.6351C403.921 87.7902 399.801 85.6812 395.391 84.4286C390.981 83.1759 386.368 82.8041 381.814 83.3344C377.261 83.8646 372.856 85.2866 368.852 87.5191C364.848 89.7515 361.323 92.7508 358.478 96.3456C355.634 99.9404 353.525 104.06 352.272 108.47C349.742 117.376 350.854 126.923 355.362 135.009L363.642 149.909L361.922 150.909L357.722 144.129C356.782 144.629 355.282 145.649 355.722 147.249C356.542 150.269 361.142 159.369 364.842 162.089C366.686 163.475 368.899 164.283 371.202 164.409H371.762L382.682 184.029Z" fill="#2B3B4F"/>
<path d="M416.822 112.189C413.319 105.906 407.465 101.27 400.546 99.3016C393.627 97.3327 386.209 98.1914 379.922 101.689L375.022 104.409C368.739 107.912 364.104 113.767 362.135 120.686C360.166 127.605 361.025 135.023 364.522 141.309L389.062 185.309C391.541 185.327 394.018 185.207 396.482 184.949C405.609 183.959 414.417 181.022 422.311 176.337C430.205 171.651 437.002 165.326 442.242 157.789L416.822 112.189Z" fill="white"/>
<path d="M389.662 186.409H388.562L363.722 141.789C360.102 135.268 359.217 127.578 361.26 120.405C363.304 113.232 368.109 107.163 374.622 103.529L379.522 100.809C386.04 97.1898 393.728 96.3048 400.897 98.3485C408.067 100.392 414.132 105.197 417.762 111.709L443.502 157.949L443.142 158.469C437.811 166.114 430.904 172.529 422.887 177.282C414.87 182.036 405.928 185.018 396.662 186.029C394.338 186.286 392.001 186.413 389.662 186.409ZM393.162 99.269C388.732 99.2658 384.374 100.395 380.502 102.549L375.602 105.289C369.552 108.658 365.085 114.292 363.184 120.951C361.283 127.611 362.102 134.753 365.462 140.809L389.742 184.409C391.981 184.41 394.217 184.29 396.442 184.049C405.321 183.08 413.895 180.242 421.599 175.723C429.303 171.204 435.963 165.106 441.142 157.829L416.022 112.689C413.754 108.617 410.439 105.226 406.42 102.866C402.4 100.507 397.823 99.2648 393.162 99.269Z" fill="#2B3B4F"/>
<path d="M386.822 139.009C387.742 140.669 387.682 142.469 386.682 143.009C385.682 143.549 384.122 142.689 383.202 141.009C382.282 139.329 382.342 137.549 383.342 137.009C384.342 136.469 385.802 137.249 386.822 139.009Z" fill="#2B3B4F"/>
<path d="M407.062 127.589C407.982 129.249 407.922 131.049 406.922 131.589C405.922 132.129 404.362 131.249 403.422 129.589C402.482 127.929 402.582 126.149 403.582 125.589C404.582 125.029 406.142 125.949 407.062 127.589Z" fill="#2B3B4F"/>
<path d="M398.442 148.569L397.602 146.749L405.942 142.909L396.302 130.909L397.862 129.649L409.102 143.669L398.442 148.569Z" fill="#2B3B4F"/>
<path d="M412.582 154.009C412.913 154.6 413.061 155.275 413.008 155.95C412.955 156.626 412.702 157.27 412.282 157.801C411.863 158.332 411.295 158.727 410.65 158.935C410.006 159.144 409.314 159.156 408.663 158.97C408.012 158.785 407.43 158.411 406.992 157.895C406.553 157.378 406.278 156.744 406.201 156.071C406.124 155.398 406.248 154.718 406.558 154.116C406.868 153.513 407.35 153.017 407.942 152.689C408.733 152.251 409.665 152.144 410.535 152.392C411.404 152.639 412.14 153.22 412.582 154.009Z" fill="#2B3B4F"/>
<path d="M373.542 136.809L371.542 136.349C371.542 136.349 373.342 129.269 382.382 128.669L382.502 130.669C374.982 131.169 373.562 136.749 373.542 136.809Z" fill="#2B3B4F"/>
<path d="M396.582 122.229L394.682 121.589C394.682 121.589 397.282 114.029 406.942 116.129L406.522 118.129C398.662 116.369 396.662 121.989 396.582 122.229Z" fill="#2B3B4F"/>
<path d="M410.662 177.849C407.505 177.768 404.368 177.305 401.322 176.469L401.862 174.469C405.637 175.536 409.577 175.895 413.482 175.529C417.445 174.847 421.061 172.846 423.742 169.849C425.521 166.685 426.937 163.331 427.962 159.849L429.962 160.469C429.842 160.789 427.362 168.469 425.402 171.009C422.432 174.411 418.376 176.68 413.922 177.429C412.852 177.678 411.76 177.819 410.662 177.849Z" fill="#2B3B4F"/>
<path d="M342.262 158.249C340.778 144.93 343.492 131.479 350.025 119.777C356.557 108.075 366.581 98.7057 378.698 92.978C390.814 87.2503 404.417 85.4504 417.606 87.8297C430.795 90.209 442.911 96.6486 452.262 106.249C449.995 96.5851 445.523 87.5768 439.195 79.9289C432.867 72.281 424.856 66.2009 415.787 62.1642C406.719 58.1276 396.84 56.2439 386.922 56.6606C377.005 57.0772 367.318 59.7829 358.62 64.566C349.922 69.349 342.449 76.0797 336.785 84.2314C331.121 92.3831 327.42 101.735 325.971 111.555C324.523 121.375 325.366 131.397 328.435 140.837C331.504 150.276 336.716 158.878 343.662 165.969C343.043 163.426 342.576 160.848 342.262 158.249Z" fill="white"/>
<path d="M345.422 169.309L342.822 166.769C335.783 159.568 330.504 150.837 327.398 141.258C324.291 131.679 323.442 121.511 324.916 111.55C326.389 101.588 330.146 92.102 335.893 83.8327C341.64 75.5633 349.22 68.7346 358.043 63.8801C366.866 59.0256 376.691 56.2766 386.752 55.848C396.813 55.4194 406.837 57.3228 416.041 61.4094C425.244 65.4961 433.378 71.6553 439.807 79.406C446.237 87.1566 450.787 96.2888 453.102 106.089L453.922 109.589L451.502 107.009C442.296 97.5856 430.381 91.2681 417.415 88.9365C404.449 86.6049 391.079 88.3753 379.167 94.0012C367.255 99.627 357.394 108.828 350.959 120.323C344.523 131.817 341.832 145.033 343.262 158.129C343.547 160.715 343.995 163.28 344.602 165.809L345.422 169.309ZM389.642 57.729C387.344 57.7365 385.047 57.8633 382.762 58.109C366.07 59.9457 350.788 68.3277 340.267 81.4165C329.747 94.5053 324.847 111.232 326.642 127.929C328.004 140.835 333.336 153.001 341.902 162.749C341.642 161.269 341.422 159.809 341.282 158.349C339.848 145.151 342.469 131.83 348.797 120.159C355.125 108.489 364.858 99.0232 376.701 93.0237C388.543 87.0242 401.932 84.7756 415.085 86.5774C428.238 88.3791 440.529 94.1457 450.322 103.109C446.445 90.0183 438.444 78.5295 427.51 70.3528C416.577 62.176 403.295 57.7484 389.642 57.729Z" fill="#2B3B4F"/>
<path d="M495.763 196.153C511.663 194.425 522.971 178.461 521.02 160.496C519.068 142.531 504.596 129.368 488.695 131.095C472.795 132.823 461.487 148.787 463.439 166.752C465.39 184.717 479.862 197.88 495.763 196.153Z" fill="#BEFFBE"/>
<path d="M492.962 197.309C477.702 197.309 464.322 184.249 462.442 166.849C461.406 158.179 463.576 149.43 468.542 142.249C470.789 138.87 473.752 136.027 477.219 133.92C480.687 131.814 484.576 130.495 488.61 130.058C492.644 129.621 496.725 130.076 500.563 131.392C504.402 132.707 507.904 134.85 510.822 137.669C517.144 143.677 521.125 151.735 522.056 160.406C522.986 169.077 520.806 177.797 515.902 185.009C513.385 188.789 509.975 191.891 505.974 194.04C501.973 196.188 497.504 197.318 492.962 197.329V197.309ZM491.522 131.929C490.614 131.925 489.706 131.972 488.802 132.069C485.068 132.518 481.474 133.763 478.262 135.719C475.05 137.675 472.295 140.297 470.182 143.409C465.484 150.183 463.434 158.445 464.422 166.629C466.302 184.029 480.422 196.829 495.662 195.169C499.396 194.718 502.989 193.472 506.201 191.516C509.412 189.56 512.168 186.939 514.282 183.829C518.879 177.003 520.912 168.772 520.022 160.591C519.133 152.41 515.378 144.808 509.422 139.129C504.57 134.568 498.181 131.998 491.522 131.929Z" fill="#2B3B4F"/>
<path d="M558.822 137.749C545.433 134.704 531.753 133.115 518.022 133.009C492.742 132.409 477.882 134.849 473.082 147.429C468.282 160.009 469.382 180.329 484.962 187.049C493.662 190.789 506.422 188.629 515.722 186.509C525.022 184.389 547.722 174.889 554.962 163.469C562.202 152.049 562.262 143.009 558.822 137.749Z" fill="white"/>
<path d="M496.822 190.009C492.655 190.122 488.507 189.401 484.622 187.889C468.202 180.809 467.522 159.309 472.222 146.989C477.322 133.589 492.922 131.329 518.222 131.929C532.055 132.081 545.833 133.703 559.322 136.769L559.682 136.889L559.902 137.209C564.022 143.609 562.602 153.349 555.902 163.929C548.422 175.929 524.682 185.409 516.042 187.389C509.752 188.97 503.306 189.848 496.822 190.009ZM511.202 133.849C490.922 133.849 478.322 136.609 474.082 147.709C469.662 159.289 470.202 179.489 485.402 186.049C493.982 189.729 506.722 187.469 515.562 185.449C523.962 183.449 547.002 174.289 554.182 162.849C560.182 153.309 561.702 144.289 558.322 138.609C545.098 135.676 531.607 134.108 518.062 133.929C515.622 133.889 513.342 133.849 511.142 133.849H511.202Z" fill="#2B3B4F"/>
<path d="M585.362 157.009C585.362 157.009 577.002 141.949 561.362 137.749C545.722 133.549 531.482 143.749 525.002 153.749C518.522 163.749 521.402 167.029 521.402 167.029C521.402 167.029 544.242 155.589 556.062 153.449C567.882 151.309 585.362 157.009 585.362 157.009Z" fill="#BEFFBE"/>
<path d="M521.202 168.269L520.702 167.689C520.362 167.289 517.522 163.489 524.222 153.209C531.282 142.349 546.042 132.589 561.682 136.789C577.322 140.989 585.882 155.889 586.242 156.509L587.482 158.749L585.062 157.949C584.882 157.949 567.722 152.389 556.302 154.449C544.882 156.509 522.122 167.809 521.902 167.929L521.202 168.269ZM554.142 137.789C542.142 137.789 531.502 145.789 525.902 154.289C521.602 160.869 521.622 164.289 521.902 165.669C526.402 163.469 545.302 154.369 555.902 152.469C565.222 150.789 577.682 153.769 583.022 155.269C580.062 151.009 572.542 141.789 561.122 138.709C558.846 138.098 556.499 137.788 554.142 137.789Z" fill="#2B3B4F"/>
<path d="M520.822 177.169C520.822 177.169 517.142 166.649 531.922 152.989C546.702 139.329 573.922 144.249 582.662 153.369C591.402 162.489 590.462 178.569 583.442 186.349C579.623 190.781 574.832 194.272 569.442 196.549C569.442 196.549 555.742 173.109 520.822 177.169Z" fill="white"/>
<path d="M569.042 197.769L568.622 197.049C568.502 196.829 554.742 174.229 521.002 178.169H520.202L519.922 177.409C519.782 176.949 516.222 166.089 531.302 152.169C546.382 138.249 573.862 142.669 583.442 152.569C592.722 162.149 591.442 178.889 584.262 186.909C580.33 191.479 575.386 195.067 569.822 197.389L569.042 197.769ZM528.742 175.769C554.862 175.769 567.362 191.769 569.882 195.369C574.8 193.088 579.187 189.804 582.762 185.729C589.422 178.349 590.542 162.929 582.022 154.129C574.022 145.829 547.602 139.969 532.662 153.789C520.842 164.709 521.222 173.569 521.642 176.149C524.026 175.876 526.423 175.729 528.822 175.709L528.742 175.769Z" fill="#2B3B4F"/>
<path d="M508.562 197.849C508.562 197.849 514.223 183.009 520.823 177.169C527.423 171.329 547.383 168.969 562.223 174.089C577.063 179.209 574.443 196.289 571.663 201.629C568.883 206.969 560.383 211.269 560.383 211.269L508.562 197.849Z" fill="white"/>
<path d="M560.562 212.329L507.222 198.529L507.622 197.489C507.862 196.869 513.442 182.289 520.222 176.429C527.002 170.569 547.062 167.769 562.602 173.129C565.038 173.877 567.274 175.165 569.143 176.896C571.013 178.628 572.469 180.758 573.402 183.129C575.624 189.317 575.337 196.129 572.602 202.109C569.722 207.689 561.242 211.989 560.902 212.109L560.562 212.329ZM509.902 197.169L560.322 210.209C561.882 209.369 568.542 205.589 570.842 201.169C573.278 195.697 573.528 189.5 571.542 183.849C570.711 181.753 569.418 179.872 567.759 178.345C566.101 176.818 564.119 175.685 561.962 175.029C547.262 169.969 527.822 172.489 521.522 177.929C516.142 182.609 511.322 193.709 509.902 197.169Z" fill="#2B3B4F"/>
<path d="M510.242 195.429C507.933 196.092 505.854 197.387 504.242 199.169C501.463 202.462 498.066 205.18 494.242 207.169C488.242 210.629 481.742 210.769 484.122 217.169C486.502 223.569 495.382 222.669 499.742 221.629C504.102 220.589 505.902 218.989 509.262 216.389C512.622 213.789 515.162 195.869 515.262 194.989C515.362 194.109 510.242 195.429 510.242 195.429Z" fill="white"/>
<path d="M493.622 223.529C489.522 223.529 484.842 222.389 483.122 217.669C481.002 211.969 484.982 210.289 489.122 208.509C490.657 207.893 492.153 207.185 493.602 206.389C496.881 204.733 499.814 202.466 502.242 199.709L503.442 198.469C505.201 196.545 507.468 195.158 509.982 194.469C514.942 193.389 515.562 194.009 515.862 194.309L516.242 194.689V195.389C516.242 195.389 516.242 195.769 516.102 196.229C514.102 208.729 512.002 215.649 509.802 217.369L509.042 217.949C506.449 220.303 503.306 221.967 499.902 222.789C497.843 223.27 495.737 223.518 493.622 223.529ZM510.442 196.409C508.321 197.026 506.41 198.216 504.922 199.849L503.762 201.089C501.186 203.974 498.102 206.36 494.662 208.129C493.138 208.956 491.569 209.698 489.962 210.349C485.402 212.349 483.602 213.209 484.982 216.969C487.282 223.169 496.622 221.489 499.442 220.809C502.57 220.06 505.454 218.525 507.822 216.349L508.562 215.769C509.382 215.129 511.522 211.949 514.122 195.889C512.885 196.005 511.656 196.199 510.442 196.469V196.409Z" fill="#2B3B4F"/>
<path d="M526.142 189.489C526.142 189.489 517.222 187.489 512.842 190.929C508.462 194.369 508.842 208.189 509.182 216.549C509.522 224.909 512.502 231.609 515.702 232.549C516.963 233.051 518.328 233.237 519.677 233.09C521.026 232.944 522.319 232.47 523.442 231.709C524.722 230.449 523.442 218.269 524.282 208.369C525.122 198.469 526.142 189.489 526.142 189.489Z" fill="white"/>
<path d="M519.042 234.189C517.799 234.192 516.564 233.996 515.382 233.609C511.562 232.349 508.542 225.189 508.182 216.589C507.702 204.969 507.862 193.709 512.182 190.169C516.882 186.329 525.942 188.429 526.322 188.529L527.182 188.729L527.082 189.609C527.082 189.609 526.102 198.769 525.222 208.549C524.822 213.189 524.902 218.409 524.962 222.549C524.962 229.289 524.962 231.549 524.122 232.449C522.706 233.643 520.894 234.264 519.042 234.189ZM520.362 189.869C517.93 189.713 515.513 190.359 513.482 191.709C509.282 195.109 509.922 210.109 510.182 216.509C510.522 224.829 513.482 230.869 516.002 231.709C517.095 232.141 518.273 232.312 519.444 232.208C520.614 232.103 521.743 231.727 522.742 231.109C523.093 228.303 523.18 225.471 523.002 222.649C523.002 218.409 522.862 213.109 523.282 208.389C524.002 200.389 524.782 192.849 525.042 190.389C523.499 190.092 521.934 189.918 520.362 189.869Z" fill="#2B3B4F"/>
<path d="M526.142 189.489C523.643 195.799 521.911 202.386 520.982 209.109C519.822 219.109 525.202 232.469 527.282 233.629C529.362 234.789 535.282 234.449 536.582 231.509C537.882 228.569 536.942 218.529 537.102 212.649C537.262 206.769 540.082 194.149 539.662 190.269C539.242 186.389 530.522 185.929 526.142 189.489Z" fill="white"/>
<path d="M530.422 235.269C529.172 235.315 527.929 235.054 526.802 234.509C524.062 232.969 518.802 218.689 519.982 208.989C520.924 202.178 522.676 195.504 525.202 189.109L525.302 188.869L525.502 188.709C527.23 187.414 529.246 186.556 531.377 186.208C533.508 185.86 535.692 186.031 537.742 186.709C538.493 186.943 539.163 187.382 539.679 187.975C540.194 188.568 540.535 189.293 540.662 190.069C540.616 193.998 540.207 197.915 539.442 201.769C538.811 205.357 538.364 208.975 538.102 212.609C538.102 214.469 538.102 216.749 538.202 219.169C538.362 224.549 538.502 229.629 537.502 231.849C537.128 232.539 536.615 233.144 535.996 233.626C535.376 234.108 534.663 234.456 533.902 234.649C532.782 235.035 531.607 235.245 530.422 235.269ZM526.962 190.109C524.565 196.267 522.894 202.684 521.982 209.229C520.822 219.229 526.302 231.909 527.782 232.769C529.56 233.407 531.505 233.407 533.282 232.769C533.778 232.654 534.246 232.44 534.658 232.141C535.07 231.843 535.418 231.464 535.682 231.029C536.502 229.249 536.342 223.929 536.202 219.249C536.202 216.809 536.062 214.489 536.102 212.569C536.356 208.854 536.81 205.155 537.462 201.489C538.184 197.803 538.592 194.063 538.682 190.309C538.582 189.409 537.702 188.869 536.982 188.569C535.305 188.049 533.531 187.917 531.795 188.184C530.059 188.451 528.406 189.109 526.962 190.109Z" fill="#2B3B4F"/>
<path d="M539.663 190.269C539.663 190.269 545.002 187.729 548.862 189.829C552.722 191.929 553.642 197.709 553.122 200.569C552.602 203.429 550.782 220.429 549.542 224.569C548.302 228.709 545.162 230.569 542.622 230.369C540.082 230.169 538.322 226.909 537.922 223.309C537.522 219.709 537.103 212.729 537.103 212.729L539.663 190.269Z" fill="white"/>
<path d="M543.083 231.309H542.503C539.203 230.949 537.343 227.049 536.943 223.309C536.543 219.569 536.103 212.749 536.103 212.669L538.823 189.609L539.323 189.369C539.563 189.249 545.162 186.629 549.422 188.949C553.682 191.269 554.722 197.829 554.182 200.749C554.022 201.649 553.703 204.149 553.343 207.029C552.723 212.992 551.801 218.919 550.583 224.789C550.197 226.537 549.26 228.114 547.91 229.288C546.559 230.462 544.867 231.171 543.083 231.309ZM538.103 212.769C538.103 212.769 538.542 219.629 538.922 223.129C539.302 226.629 540.923 229.129 542.723 229.289C544.523 229.449 547.483 227.809 548.603 224.209C549.403 221.549 550.603 212.669 551.263 206.789C551.663 203.749 551.963 201.349 552.143 200.389C552.563 198.049 551.903 192.609 548.383 190.709C545.663 189.229 541.923 190.429 540.603 190.969L538.103 212.769Z" fill="#2B3B4F"/>
<path d="M553.102 195.249C556.311 195.971 559.429 197.044 562.402 198.449C564.522 199.889 565.322 204.569 563.862 211.729C562.402 218.889 560.322 223.049 557.002 223.409C553.682 223.769 551.002 219.569 551.002 217.049C551.002 214.529 553.722 201.009 553.102 195.249Z" fill="white"/>
<path d="M556.582 224.429C555.176 224.388 553.836 223.825 552.822 222.849C551.158 221.358 550.14 219.278 549.982 217.049C549.982 216.149 550.282 214.189 550.682 211.469C551.402 206.549 552.522 199.129 552.102 195.469L551.942 194.049L553.342 194.389C556.672 195.123 559.907 196.237 562.982 197.709C565.642 199.549 566.322 204.769 564.842 212.029C563.162 220.249 560.842 224.029 557.102 224.509L556.582 224.429ZM554.182 196.569C554.053 201.666 553.545 206.747 552.662 211.769C552.302 214.189 551.982 216.289 551.982 217.049C552.135 218.708 552.915 220.246 554.162 221.349C554.517 221.705 554.943 221.983 555.411 222.165C555.879 222.348 556.38 222.431 556.882 222.409C559.482 222.129 561.442 218.569 562.882 211.529C564.402 204.049 563.282 200.249 561.842 199.269C559.405 198.07 556.833 197.163 554.182 196.569Z" fill="#2B3B4F"/>
<path d="M458.182 200.669C462.682 207.929 461.082 217.069 454.622 221.069C448.162 225.069 439.262 222.429 434.762 215.069C430.262 207.709 431.842 198.669 438.322 194.669C444.802 190.669 453.662 193.389 458.182 200.669Z" fill="#BEFFBE"/>
<path d="M448.002 223.929C445.148 223.857 442.358 223.064 439.893 221.623C437.427 220.182 435.366 218.141 433.902 215.689C431.625 212.08 430.749 207.76 431.442 203.549C431.751 201.58 432.476 199.7 433.569 198.034C434.663 196.369 436.099 194.955 437.782 193.889C444.722 189.609 454.243 192.409 459.023 200.129C461.297 203.74 462.178 208.055 461.502 212.269C461.192 214.239 460.464 216.12 459.367 217.786C458.27 219.452 456.83 220.865 455.142 221.929C452.996 223.25 450.523 223.943 448.002 223.929ZM444.942 193.929C442.79 193.916 440.678 194.505 438.842 195.629C437.396 196.544 436.163 197.759 435.224 199.19C434.286 200.622 433.665 202.238 433.402 203.929C432.799 207.66 433.59 211.483 435.622 214.669C439.822 221.469 448.103 223.969 454.083 220.269C455.529 219.354 456.762 218.139 457.701 216.708C458.639 215.276 459.26 213.66 459.523 211.969C460.13 208.24 459.347 204.419 457.322 201.229C456.048 199.058 454.244 197.246 452.079 195.963C449.914 194.679 447.458 193.965 444.942 193.889V193.929Z" fill="#2B3B4F"/>
<path d="M422.822 225.149C425.982 230.249 424.822 236.649 420.342 239.449C415.862 242.249 409.582 240.409 406.342 235.309C403.102 230.209 404.342 223.809 408.822 220.989C413.302 218.169 419.582 220.049 422.822 225.149Z" fill="#2B3B4F"/>
<path d="M451.742 237.329C454.902 242.429 453.742 248.829 449.262 251.629C444.782 254.429 438.502 252.589 435.262 247.489C432.022 242.389 433.262 235.989 437.742 233.169C442.222 230.349 448.602 232.229 451.742 237.329Z" fill="#8A8A8A"/>
<path d="M444.602 253.949C443.552 253.942 442.509 253.787 441.502 253.489C438.588 252.561 436.101 250.622 434.491 248.022C432.881 245.422 432.254 242.331 432.722 239.309C432.944 237.889 433.47 236.533 434.263 235.335C435.057 234.136 436.099 233.123 437.32 232.364C438.54 231.604 439.91 231.117 441.336 230.935C442.762 230.753 444.21 230.881 445.582 231.309C448.516 232.212 451.014 234.162 452.602 236.789C456.042 242.349 454.782 249.369 449.782 252.469C448.227 253.435 446.433 253.947 444.602 253.949ZM442.482 232.869C441.026 232.855 439.597 233.258 438.362 234.029C437.378 234.643 436.539 235.464 435.904 236.434C435.268 237.404 434.851 238.501 434.682 239.649C434.277 242.201 434.798 244.814 436.152 247.015C437.505 249.216 439.602 250.86 442.062 251.649C443.164 252.002 444.328 252.115 445.477 251.981C446.625 251.846 447.732 251.467 448.722 250.869C452.722 248.349 453.762 242.549 450.902 237.929C449.572 235.727 447.48 234.09 445.022 233.329C444.203 233.05 443.347 232.895 442.482 232.869Z" fill="#2B3B4F"/>
</svg>
