<svg width="917" height="979" viewBox="0 0 917 979" fill="none" xmlns="http://www.w3.org/2000/svg">
<ellipse cx="466" cy="534" rx="451" ry="445" fill="#738297" fill-opacity="0.71"/>
<path d="M892.58 362.7C894.06 351.82 878.72 342.88 867.2 341.94C861.7 341.5 855.98 342.34 850.78 340.52C839.48 336.52 834.98 322.02 823.96 317.36C815.74 313.9 806.26 316.98 798.28 321C790.3 325.02 782.4 330.08 773.48 330.64C765.72 331.14 757.3 328.26 750.52 332.06C745.46 334.88 742.82 340.7 738.16 344.06C733.5 347.42 727.64 348.06 721.98 348.44C716.32 348.82 710.46 348.82 705.32 351.18C700.18 353.54 695.9 358.98 696.98 364.54L892.58 362.7Z" fill="#EDF2F7"/>
<path d="M390.7 184.22C391.88 175.66 379.8 168.62 370.7 167.88C366.38 167.54 361.88 168.2 357.78 166.78C348.9 163.68 345.36 152.2 336.7 148.54C330.22 145.82 322.7 148.24 316.48 151.4C310.26 154.56 304 158.54 296.98 159C290.98 159.38 284.24 157.12 278.98 160.1C274.98 162.32 272.98 166.92 269.26 169.62C265.54 172.32 260.98 172.82 256.54 173.06C252.1 173.3 247.48 173.36 243.42 175.2C239.36 177.04 236.02 181.36 236.86 185.72L390.7 184.22Z" fill="#FAFAFA"/>
<path d="M297.88 127.5C299.88 113.2 279.64 101.5 264.46 100.2C257.24 99.62 249.72 100.72 242.86 98.32C228 93.14 222.06 73.96 207.56 67.84C196.72 63.26 184.24 67.34 173.74 72.62C163.24 77.9 152.84 84.56 141.1 85.38C130.9 86.04 119.8 82.24 110.88 87.24C104.22 90.96 100.72 98.62 94.6001 103.24C88.4801 107.86 80.7601 108.62 73.3201 109.02C65.8801 109.42 58.1601 109.5 51.3201 112.6C44.4801 115.7 38.9401 122.88 40.3401 130.2L297.88 127.5Z" fill="#EDF2F7"/>
<path d="M138.86 656.86C138.86 656.86 123.86 652 116.86 686.6C109.86 721.2 108.86 740.32 108.86 740.32C108.86 740.32 106.54 747.82 101.02 744.88C95.5 741.94 86.26 731.8 79.44 735.98C72.62 740.16 72.2 749.62 77.16 761.82C82.12 774.02 92.04 801.18 92.92 803.64C93.8 806.1 93.38 810.06 89.3 808.66C85.22 807.26 59.44 790.78 52.34 803.5C45.24 816.22 64.68 847.94 66.74 851.5C68.8 855.06 68.5 856.82 66.96 858.26C65.42 859.7 57.28 853.34 49.74 848.96C42.2 844.58 32.72 840.8 29.24 848.48C25.76 856.16 31.24 882.48 67.56 917.68L85.44 932.88L107.68 925.38C154.48 906.3 169.44 883.96 169.08 875.54C168.72 867.12 158.52 867.06 149.88 868.32C141.24 869.58 131.32 872.42 130.44 870.5C129.56 868.58 129.96 866.8 133.18 864.3C136.4 861.8 166.28 839.64 164.46 825.2C162.64 810.76 132.46 816.42 128.24 816.18C124.02 815.94 125.06 812.08 126.78 810.18C128.5 808.28 147.84 786.64 157.1 777.18C166.36 767.72 169.6 759.04 164.64 752.36C159.68 745.68 147.52 751.88 141.3 752.54C135.08 753.2 135.66 745.38 135.66 745.38C135.66 745.38 141.86 727.28 148.28 692.54C154.7 657.8 138.56 656.76 138.56 656.76" fill="#C8C8C8"/>
<path d="M82.8599 937.9C87.6799 912.42 96.9799 867.26 104.76 828.44C112.54 789.62 119.56 754.44 124.5 729.06C126.96 716.34 128.94 706.04 130.32 698.9C131 695.36 131.54 692.6 131.9 690.7C132.08 689.78 132.24 689.08 132.34 688.56C132.44 688.04 132.5 687.84 132.5 687.84C132.5 687.84 132.5 688.1 132.5 688.58C132.5 689.06 132.3 689.8 132.14 690.72C131.8 692.72 131.32 695.4 130.7 698.94C129.42 706.08 127.52 716.4 125.1 729.16C120.3 754.64 113.36 789.8 105.58 828.6C97.7999 867.4 88.3999 912.6 83.5799 938" fill="#8A8A8A"/>
<path d="M91.7197 750.66C92.0972 751.086 92.4321 751.549 92.7197 752.04C93.3197 752.96 94.1597 754.28 95.1597 756.04C97.1597 759.36 99.8797 764.04 102.74 769.24L110.04 782.6L112.28 786.6C112.588 787.077 112.843 787.587 113.04 788.12C112.652 787.697 112.311 787.234 112.02 786.74C111.42 785.84 110.6 784.5 109.6 782.74C107.6 779.38 104.98 774.74 102.1 769.48C99.2197 764.22 96.6997 759.72 94.7197 756.18L92.4597 752.18C92.151 751.706 91.9024 751.195 91.7197 750.66Z" fill="#8A8A8A"/>
<path d="M115.22 787.9C115.22 787.72 124.5 781.78 136.2 774.6C147.9 767.42 157.44 761.74 157.54 761.92C157.64 762.1 148.26 768.04 136.58 775.22C124.9 782.4 115.32 788.08 115.22 787.9Z" fill="#8A8A8A"/>
<path d="M100.58 846.96C101.102 846.713 101.653 846.532 102.22 846.42L106.76 845.16C110.6 844.12 115.88 842.64 121.66 840.78C127.44 838.92 132.62 837.12 136.34 835.74L140.78 834.14C141.307 833.91 141.857 833.736 142.42 833.62C141.942 833.945 141.425 834.207 140.88 834.4C139.86 834.86 138.38 835.5 136.54 836.24C132.84 837.72 127.68 839.64 121.88 841.48C116.08 843.32 110.76 844.74 106.9 845.66C104.9 846.12 103.38 846.48 102.3 846.68C101.737 846.826 101.161 846.92 100.58 846.96Z" fill="#8A8A8A"/>
<path d="M71.8999 817.96C72.3582 818.241 72.7755 818.585 73.1399 818.98L76.3199 821.94C78.9799 824.48 82.6399 827.94 86.6199 831.94C90.5999 835.94 94.1999 839.46 96.7799 842.1L99.7999 845.22C100.197 845.588 100.546 846.005 100.84 846.46C100.393 846.162 99.978 845.821 99.5999 845.44L96.4199 842.46C93.7599 839.92 90.0999 836.46 86.1199 832.46C82.1399 828.46 78.5399 824.92 75.9599 822.3L72.9399 819.16C72.5481 818.802 72.1991 818.399 71.8999 817.96Z" fill="#8A8A8A"/>
<path d="M52.3599 868.44C52.9138 868.838 53.4355 869.28 53.9199 869.76L58.0199 873.56C61.4399 876.78 66.1599 881.28 71.3199 886.28C76.4799 891.28 81.1399 895.84 84.4799 899.16L88.4799 903.16C88.9895 903.619 89.4518 904.128 89.8599 904.68C89.2961 904.294 88.7734 903.852 88.2999 903.36C87.2199 902.38 85.8599 901.1 84.1999 899.56C80.7599 896.34 76.0599 891.84 70.8999 886.84C65.7399 881.84 61.0799 877.3 57.7399 873.98L53.7399 869.98C53.2267 869.517 52.7641 869.001 52.3599 868.44Z" fill="#8A8A8A"/>
<path d="M89.1001 903.52C89.751 903.233 90.419 902.986 91.1001 902.78L96.8001 901C101.62 899.48 108.26 897.38 115.52 894.84C122.78 892.3 129.3 889.84 134 888.02L139.58 885.88C140.222 885.581 140.892 885.346 141.58 885.18C140.94 885.553 140.272 885.874 139.58 886.14C138.3 886.72 136.42 887.54 134.1 888.5C129.44 890.5 122.94 893 115.66 895.52C108.38 898.04 101.66 900.1 96.8401 901.52C94.4201 902.2 92.4401 902.74 91.0801 903.08C90.4314 903.274 89.7697 903.421 89.1001 903.52Z" fill="#8A8A8A"/>
<path d="M552.7 797.38C556.771 797.374 560.802 798.189 564.551 799.777C568.3 801.365 571.691 803.692 574.52 806.62C580.153 812.528 584.354 819.651 586.8 827.44C591.96 842.28 590.8 860.34 587.54 875.72C570.72 871.06 559.34 854.3 554.1 845.44C545.82 831.44 539.36 801.1 552.7 797.44" fill="#C8C8C8"/>
<path d="M612.46 892.46C609.725 888.817 608 884.517 607.459 879.994C606.918 875.471 607.581 870.885 609.38 866.7C611.259 862.564 613.942 858.843 617.273 855.752C620.603 852.662 624.515 850.265 628.78 848.7C632.78 847.18 637.3 846.32 640.94 848.4C642.588 849.471 643.92 850.962 644.799 852.72C645.678 854.478 646.072 856.439 645.94 858.4C645.585 862.334 644.206 866.106 641.94 869.34C634.74 880.7 625.7 890.4 612.4 892.48" fill="#C8C8C8"/>
<path d="M614.04 931.76C612.748 928.536 611.803 925.184 611.22 921.76C610.425 918.041 610.076 914.241 610.18 910.44C610.183 905.819 610.483 901.203 611.08 896.62C612.211 888.193 615.39 880.173 620.34 873.26C621.9 871.227 623.655 869.351 625.58 867.66C626.98 866.54 627.82 865.98 627.88 866.08C627.94 866.18 624.96 868.78 621.36 874.08C616.845 880.976 613.927 888.793 612.82 896.96C612.232 901.471 611.891 906.011 611.8 910.56C611.632 914.259 611.846 917.965 612.44 921.62C613.198 924.961 613.732 928.348 614.04 931.76Z" fill="#8A8A8A"/>
<path d="M559.66 820.14C560.711 821.545 561.628 823.045 562.4 824.62C564.06 827.58 566.4 831.86 569.24 837.2C574.92 847.86 582.62 862.68 590.72 879.2C598.82 895.72 605.72 911 610.48 922.1C612.86 927.66 614.74 932.1 615.98 935.32C616.701 936.923 617.289 938.582 617.74 940.28C616.803 938.794 616 937.228 615.34 935.6C613.8 932.24 611.78 927.88 609.34 922.62C604.3 911.64 597.22 896.62 589.14 879.96C581.06 863.3 573.64 848.8 568.14 837.7C565.56 832.5 563.42 828.2 561.8 824.88C560.959 823.361 560.244 821.775 559.66 820.14Z" fill="#8A8A8A"/>
<path d="M597.1 906.44C590.541 899.417 582.403 894.058 573.36 890.806C564.317 887.554 554.63 886.503 545.1 887.74C540.28 888.4 534.74 890.42 533.52 895.16C532.3 899.9 536.24 904.34 540.22 907.16C548.644 912.894 558.578 916.006 568.768 916.102C578.959 916.198 588.949 913.274 597.48 907.7" fill="#C8C8C8"/>
<path d="M555.5 897.64C556.398 897.392 557.33 897.29 558.26 897.34C560.02 897.24 562.6 897.34 565.78 897.34C574.126 897.581 582.357 899.357 590.06 902.58C594.282 904.479 598.166 907.053 601.56 910.2C606.121 914.565 609.635 919.905 611.84 925.82C612.253 926.655 612.517 927.555 612.62 928.48C612.3 928.62 610.92 924.92 607.52 919.68C605.52 916.637 603.148 913.856 600.46 911.4C597.135 908.451 593.387 906.017 589.34 904.18C581.802 901.065 573.815 899.174 565.68 898.58C562.272 898.457 558.873 898.143 555.5 897.64Z" fill="#8A8A8A"/>
<path d="M104.1 377.98L79.52 327.32L54.84 343.06L16.96 310.5L51.3 360.6L76.3 344.54L104.1 377.98Z" fill="#8A8A8A"/>
<path d="M96.7402 391.88L62.5202 375.18L55.9602 393.86L22.2002 392.34L61.4002 404.68L68.0002 385.68L96.7402 391.88Z" fill="#8A8A8A"/>
<path d="M760.08 885.12C759.652 885.08 759.229 884.993 758.82 884.86C758 884.66 756.82 884.26 755.26 883.92C744.363 881.279 733.049 880.837 721.98 882.62C708.383 884.992 695.606 890.758 684.831 899.383C674.055 908.008 665.632 919.213 660.34 931.96C659.68 933.42 659.32 934.6 658.98 935.38C658.836 935.786 658.662 936.18 658.46 936.56C658.521 936.136 658.628 935.72 658.78 935.32C659.04 934.52 659.36 933.32 659.96 931.82C661.578 927.564 663.587 923.466 665.96 919.58C673.694 906.611 684.953 896.106 698.425 889.287C711.897 882.467 727.029 879.614 742.06 881.06C746.588 881.464 751.068 882.294 755.44 883.54C757 883.92 758.16 884.4 758.96 884.66C759.346 884.78 759.721 884.934 760.08 885.12Z" fill="#232F40"/>
<path d="M753.2 882.04C749.623 886.085 747.214 891.027 746.231 896.336C745.248 901.646 745.728 907.123 747.62 912.18C748.4 914.18 749.82 916.34 751.96 916.36C754.1 916.38 755.66 913.94 756.4 911.78C757.899 907.237 758.451 902.435 758.021 897.671C757.591 892.906 756.188 888.281 753.9 884.08C756.894 891.395 761.989 897.658 768.54 902.08C771.02 903.74 774.54 905.1 776.86 903.32C779.18 901.54 778.96 898.04 778 895.32C776.209 890.62 772.963 886.616 768.735 883.892C764.507 881.168 759.519 879.868 754.5 880.18C758.992 880.509 763.479 879.461 767.36 877.173C771.241 874.886 774.331 871.47 776.22 867.38C777.58 864.2 777.72 859.7 774.66 858.1C773.685 857.743 772.645 857.6 771.61 857.679C770.575 857.758 769.569 858.059 768.66 858.56C764.919 860.181 761.575 862.593 758.858 865.632C756.14 868.671 754.114 872.263 752.92 876.16C754.842 871.733 755.431 866.841 754.614 862.084C753.797 857.327 751.609 852.912 748.32 849.38C746.18 847.16 743.12 845.26 740.16 846.12C736.44 847.2 735.2 851.9 735.3 855.78C735.477 860.632 736.741 865.383 738.998 869.682C741.254 873.98 744.447 877.718 748.34 880.62C745.824 879.002 742.953 878.022 739.973 877.764C736.993 877.506 733.996 877.978 731.24 879.14C727.64 880.68 724.28 884.64 725.88 888.2C727.48 891.76 732.16 891.92 735.88 891.24C742.583 889.982 748.923 887.25 754.44 883.24" fill="#BEFFBE"/>
<path d="M684.36 897.8C689.971 904.775 697.037 910.44 705.066 914.399C713.094 918.358 721.891 920.515 730.84 920.72C730.54 916.72 727.44 913.72 724.32 911.34C713.05 902.79 699.244 898.256 685.1 898.46" fill="#2B3B4F"/>
<path d="M751.34 903.22C752.21 899.403 752.845 895.535 753.24 891.64C753.285 887.726 753.098 883.812 752.68 879.92C755.277 887.566 754.796 895.922 751.34 903.22Z" fill="#232F40"/>
<path d="M766.32 894.86C764.634 892.179 762.684 889.674 760.5 887.38C756.66 883.76 752.72 881.8 752.9 881.5C756.046 882.509 758.901 884.266 761.22 886.62C763.744 888.762 765.529 891.645 766.32 894.86Z" fill="#232F40"/>
<path d="M765.58 868.66C764.78 871.709 763.154 874.477 760.88 876.66C758.821 879.116 756.009 880.825 752.88 881.52C755.479 879.923 757.899 878.052 760.1 875.94C762.049 873.608 763.878 871.178 765.58 868.66Z" fill="#232F40"/>
<path d="M753.1 877.02C753.818 876.964 754.536 877.123 755.163 877.478C755.79 877.832 756.297 878.366 756.619 879.01C756.942 879.654 757.064 880.38 756.972 881.094C756.879 881.809 756.575 882.479 756.1 883.02C755.199 882.308 754.185 881.754 753.1 881.38C753.311 879.934 753.311 878.466 753.1 877.02Z" fill="#FAFAFA"/>
<path d="M742.46 855.8C743.575 856.673 744.535 857.728 745.3 858.92C749.344 864.441 751.799 870.963 752.4 877.78C752.655 879.168 752.655 880.592 752.4 881.98C751.815 877.3 750.763 872.69 749.26 868.22C747.395 863.872 745.118 859.713 742.46 855.8Z" fill="#232F40"/>
<path d="M33.78 861.02C35.928 861.041 38.0497 861.495 40.0186 862.354C41.9875 863.213 43.7632 864.46 45.24 866.02C48.1636 869.179 50.3314 872.961 51.58 877.08C54.2 884.94 53.48 894.46 51.58 902.56C42.74 899.98 36.82 891.08 34.12 886.38C29.84 878.94 26.6 862.9 33.68 861.02" fill="#BEFFBE"/>
<path d="M64.7199 911.48C63.3007 909.542 62.4183 907.264 62.1619 904.876C61.9055 902.488 62.2843 900.075 63.2599 897.88C64.2697 895.703 65.7047 893.75 67.4804 892.136C69.2562 890.521 71.3368 889.278 73.5999 888.48C74.6051 888.012 75.7008 887.769 76.8099 887.769C77.9189 887.769 79.0146 888.012 80.0199 888.48C80.8806 889.055 81.572 889.849 82.0221 890.781C82.4723 891.713 82.6648 892.749 82.5799 893.78C82.3641 895.801 81.6266 897.73 80.4399 899.38C76.5799 905.38 71.7399 910.38 64.7199 911.38" fill="#BEFFBE"/>
<path d="M67.2998 938.14C67.0942 937.608 66.9337 937.059 66.8198 936.5C66.5198 935.34 66.1198 933.82 65.6598 932C64.1788 927.06 63.5034 921.914 63.6598 916.76C63.9572 911.573 65.62 906.557 68.4798 902.22C69.3733 900.937 70.4063 899.756 71.5598 898.7C71.9598 898.32 72.3198 898.08 72.5398 897.9C72.7598 897.72 72.8998 897.64 72.9198 897.66C71.4273 899.12 70.087 900.729 68.9198 902.46C66.2119 906.779 64.6367 911.711 64.3398 916.8C64.1663 921.889 64.739 926.977 66.0398 931.9C66.4798 933.9 66.8198 935.38 67.0198 936.46C67.1726 937.008 67.2665 937.572 67.2998 938.14Z" fill="#232F40"/>
<path d="M37.2998 873.02C37.4624 873.206 37.5971 873.415 37.6998 873.64L38.6998 875.52C39.5798 877.16 40.7998 879.52 42.2798 882.48C45.2598 888.38 49.2598 896.58 53.4798 905.74C57.6998 914.9 61.3198 923.38 63.8598 929.38C65.1198 932.42 66.1198 934.9 66.7998 936.62C67.1198 937.44 67.3598 938.1 67.5598 938.62C67.6704 938.849 67.751 939.091 67.7998 939.34C67.6629 939.133 67.5489 938.912 67.4598 938.68C67.2198 938.18 66.9398 937.52 66.5798 936.68C65.8198 934.9 64.7598 932.48 63.4598 929.5C60.8198 923.5 57.1398 915.1 52.9398 905.94C48.7398 896.78 44.7798 888.56 41.8998 882.62C40.4998 879.7 39.3398 877.32 38.4998 875.58C38.1131 874.807 37.8131 874.14 37.5998 873.58C37.4898 873.399 37.3896 873.212 37.2998 873.02Z" fill="#232F40"/>
<path d="M55.9598 921.1C53.0884 916.931 49.269 913.503 44.8152 911.097C40.3615 908.691 35.4005 907.376 30.3398 907.26C27.7598 907.26 24.7198 907.86 23.6998 910.22C22.6798 912.58 24.3998 915.22 26.2598 917C30.2076 920.651 35.1471 923.053 40.4568 923.904C45.7664 924.754 51.209 924.015 56.0998 921.78" fill="#BEFFBE"/>
<path d="M34.6396 913.88C35.1782 913.824 35.7211 913.824 36.2597 913.88C36.8855 913.836 37.5138 913.836 38.1396 913.88C38.8596 913.98 39.6996 914 40.6196 914.2C41.6167 914.353 42.6048 914.56 43.5797 914.82C44.7047 915.105 45.8131 915.452 46.8997 915.86C49.3949 916.804 51.7764 918.025 53.9996 919.5C56.1992 921.012 58.213 922.777 59.9996 924.76C60.7707 925.625 61.4919 926.533 62.1596 927.48C62.7586 928.299 63.3063 929.154 63.7996 930.04C64.2244 930.759 64.6116 931.5 64.9596 932.26C65.2447 932.816 65.492 933.391 65.6996 933.98C65.9284 934.473 66.1028 934.989 66.2197 935.52C66.0997 935.52 65.3396 933.4 63.4396 930.26C62.9396 929.48 62.4197 928.62 61.7597 927.78C61.0822 926.861 60.3544 925.979 59.5797 925.14C57.7827 923.203 55.7696 921.478 53.5797 920C51.4065 918.542 49.0791 917.328 46.6396 916.38C45.5727 915.963 44.4845 915.603 43.3796 915.3C42.3396 914.98 41.3796 914.8 40.4596 914.6C36.9396 913.98 34.6396 914 34.6396 913.88Z" fill="#232F40"/>
<path d="M604.64 939.52H659L736.98 561.96L684.86 551.18L604.64 939.52Z" fill="#2B3B4F"/>
<path d="M838.76 819.9L510.36 752.06L501.06 743.72L535.78 629.04L551.02 630.04L527.52 617.52L540.96 550.5L869.36 618.34L878.68 626.7L865.06 692.62L839.04 693.1L853.36 695.84L862.66 704.18L838.76 819.9Z" fill="#232F40"/>
<path d="M829.46 811.56L501.06 743.72L526.48 620.68L541.72 621.68L529 608.46L540.96 550.5L869.36 618.34L855.74 684.26L829.74 684.74L853.36 695.84L829.46 811.56Z" fill="#2B3B4F"/>
<path d="M836.76 684.06C836.76 684.06 836.5 684.06 835.98 684.06L833.68 683.9L824.84 683.18L818.46 682.62L810.88 681.72C805.46 681.04 799.24 680.4 792.46 679.28L781.76 677.66C778.04 677.08 774.2 676.32 770.22 675.66C762.22 674.3 753.76 672.52 744.84 670.72C727.02 666.94 707.52 662.36 687.16 657.18C646.46 646.7 609.78 636.62 583.02 630.08C576.36 628.38 570.28 627 565.02 625.72C559.76 624.44 555.02 623.4 551.34 622.58L542.7 620.58L540.46 620.04C540.2 619.983 539.946 619.902 539.7 619.8C539.964 619.811 540.225 619.851 540.48 619.92L542.76 620.34L551.44 622.08C555.22 622.84 559.84 623.82 565.16 625.04C570.48 626.26 576.58 627.58 583.28 629.22C610.08 635.54 646.82 645.5 687.5 655.96C707.86 661.14 727.32 665.76 745.1 669.6C754.02 671.42 762.46 673.24 770.44 674.64C774.44 675.36 778.26 676.12 781.96 676.64L792.62 678.34C799.4 679.52 805.58 680.22 811 680.96L818.56 681.96L824.92 682.62L833.74 683.58L836.02 683.86L836.76 684.06Z" fill="#232F40"/>
<path d="M853.26 673.56C853.004 673.416 852.757 673.255 852.52 673.08L850.52 671.58C848.7 670.28 846.1 668.22 842.52 665.78C832.662 658.864 822.39 652.559 811.76 646.9C795.977 638.562 779.461 631.693 762.42 626.38C741.53 619.963 719.966 615.99 698.16 614.54C674.94 612.84 652.78 615.1 632.6 615.56C623.03 615.899 613.449 615.705 603.9 614.98C583.514 613.303 563.518 608.437 544.64 600.56C540.64 598.9 537.7 597.5 535.68 596.56L533.4 595.4L532.64 594.98C532.925 595.054 533.201 595.161 533.46 595.3L535.8 596.34C537.8 597.26 540.86 598.6 544.82 600.18C555.996 604.658 567.548 608.131 579.34 610.56C587.473 612.233 595.702 613.395 603.98 614.04C613.492 614.703 623.032 614.856 632.56 614.5C652.68 613.98 674.9 611.68 698.24 613.38C720.142 614.84 741.797 618.868 762.76 625.38C779.846 630.775 796.391 637.752 812.18 646.22C822.796 651.928 833.025 658.329 842.8 665.38C846.26 667.86 848.8 670 850.6 671.38L852.6 672.98C852.835 673.156 853.055 673.35 853.26 673.56Z" fill="#232F40"/>
<path d="M694.52 585.38C694.026 585.609 693.51 585.79 692.98 585.92L688.48 587.26C686.48 587.86 684.14 588.52 681.32 589.16C678.5 589.8 675.32 590.68 671.72 591.32C668.12 591.96 664.24 592.82 659.98 593.32C655.72 593.82 651.2 594.52 646.42 595.06C636.012 596.066 625.555 596.474 615.1 596.28C604.647 596.002 594.217 595.141 583.86 593.7C579.1 592.94 574.58 592.28 570.38 591.36C566.18 590.44 562.38 589.64 558.76 588.76C555.14 587.88 552.06 586.98 549.28 586.18C546.5 585.38 544.12 584.64 542.2 583.98L537.76 582.44C537.238 582.282 536.729 582.082 536.24 581.84C536.785 581.903 537.321 582.024 537.84 582.2L542.34 583.52C544.34 584.12 546.66 584.82 549.46 585.52C552.26 586.22 555.46 587.18 558.96 587.92C562.46 588.66 566.38 589.62 570.58 590.36C574.78 591.1 579.28 591.86 584.02 592.58C594.33 593.947 604.704 594.768 615.1 595.04C625.506 595.224 635.914 594.85 646.28 593.92C651.04 593.4 655.58 592.98 659.8 592.3C664.02 591.62 667.94 591.04 671.52 590.3C675.1 589.56 678.3 588.92 681.12 588.3C683.94 587.68 686.36 587.12 688.32 586.6L692.86 585.5C693.407 585.398 693.964 585.358 694.52 585.38Z" fill="#232F40"/>
<path d="M607.1 702.7C607.1 702.7 607.62 702.98 608.58 703.58L612.9 706.24C616.7 708.54 622.26 712.06 629.7 716.04C638.667 721.022 648.277 724.744 658.26 727.1C661.272 727.77 664.326 728.238 667.4 728.5C670.618 728.902 673.877 728.196 676.64 726.5C677.982 725.513 678.954 724.105 679.4 722.5C679.834 720.841 679.834 719.099 679.4 717.44C678.352 713.971 676.124 710.978 673.1 708.98C648.06 692.38 612.8 680.28 572.9 679.16C567.92 679 562.9 679 557.78 679.16C552.66 679.32 547.46 680.52 544.04 684.32C543.177 685.217 542.501 686.276 542.051 687.437C541.601 688.597 541.387 689.836 541.42 691.08C541.606 693.623 542.586 696.043 544.22 698C547.44 702.12 552.08 704.98 556.54 708C574.54 720.2 593.6 732.32 615.04 740.72C636.48 749.12 659.26 752.9 680.72 749.72C686.015 748.936 691.234 747.705 696.32 746.04C701.33 744.624 705.824 741.791 709.26 737.88C712.332 733.813 713.958 728.836 713.88 723.74C713.894 718.745 712.787 713.81 710.64 709.3C706.277 700.646 699.586 693.38 691.32 688.32C683.539 683.511 675.096 679.865 666.26 677.5C657.76 675.04 649.34 673.28 641.3 671.5L618.16 666.26L548.34 650.4L529.38 646.02L524.46 644.86C523.34 644.6 522.78 644.42 522.78 644.42L524.48 644.74L529.44 645.78L548.46 649.94L618.36 665.42L641.5 670.58C649.5 672.4 657.98 674.12 666.54 676.58C675.482 678.951 684.027 682.624 691.9 687.48C700.352 692.633 707.196 700.045 711.66 708.88C713.88 713.54 715.028 718.638 715.02 723.8C715.11 729.155 713.406 734.385 710.18 738.66C706.606 742.753 701.925 745.726 696.7 747.22C691.546 748.926 686.253 750.178 680.88 750.96C659.16 754.2 636.1 750.34 614.6 741.92C593.1 733.5 573.9 721.38 555.94 709.12C551.5 706.04 546.78 703.12 543.38 698.78C541.584 696.633 540.512 693.973 540.32 691.18C540.285 689.785 540.527 688.397 541.032 687.096C541.536 685.795 542.294 684.607 543.26 683.6C545.112 681.619 547.449 680.158 550.04 679.36C552.555 678.603 555.156 678.172 557.78 678.08C562.94 677.88 568 677.9 573 678.08C613.14 679.3 648.5 691.5 673.7 708.34C676.875 710.465 679.203 713.635 680.28 717.3C680.751 719.096 680.751 720.984 680.28 722.78C679.788 724.54 678.708 726.079 677.22 727.14C674.31 728.936 670.876 729.69 667.48 729.28C664.366 728.991 661.273 728.503 658.22 727.82C648.201 725.395 638.568 721.585 629.6 716.5C622.16 712.5 616.64 708.86 612.88 706.5C611.04 705.32 609.62 704.5 608.64 703.74C607.66 702.98 607.1 702.7 607.1 702.7Z" fill="#232F40"/>
<path d="M846.88 724.04C846.204 723.967 845.536 723.84 844.88 723.66C843.64 723.32 841.78 722.96 839.4 722.54C832.604 721.568 825.7 721.622 818.92 722.7C808.886 724.389 799.15 727.528 790.02 732.02C778.909 737.689 768.18 744.076 757.9 751.14C747.564 758.243 736.729 764.593 725.48 770.14C716.202 774.559 706.3 777.527 696.12 778.94C689.247 779.864 682.27 779.669 675.46 778.36C673.618 777.994 671.802 777.513 670.02 776.92C669.387 776.751 668.771 776.523 668.18 776.24C668.823 776.341 669.458 776.488 670.08 776.68C671.32 777.04 673.16 777.44 675.54 777.9C682.311 779.007 689.211 779.067 696 778.08C706.061 776.564 715.837 773.544 725 769.12C736.167 763.54 746.933 757.191 757.22 750.12C767.551 743.027 778.349 736.639 789.54 731C798.78 726.498 808.643 723.411 818.8 721.84C825.663 720.825 832.643 720.906 839.48 722.08C841.379 722.396 843.256 722.83 845.1 723.38C845.713 723.544 846.309 723.765 846.88 724.04Z" fill="#232F40"/>
<path d="M840.8 756.6C840.8 756.72 839.24 756.08 836.36 755.44C832.292 754.557 828.097 754.421 823.98 755.04C817.881 756.072 811.943 757.901 806.32 760.48C799.368 763.518 792.639 767.04 786.18 771.02C779.22 775.14 772.58 779.16 766.18 782.22C760.566 784.995 754.655 787.122 748.56 788.56C744.441 789.496 740.222 789.913 736 789.8C734.855 789.772 733.712 789.672 732.58 789.5C732.178 789.481 731.781 789.407 731.4 789.28C731.4 789.14 733.06 789.28 736 789.28C740.174 789.219 744.327 788.682 748.38 787.68C754.37 786.134 760.177 783.948 765.7 781.16C771.98 778.08 778.56 774.06 785.54 769.92C792.052 765.9 798.858 762.377 805.9 759.38C811.629 756.805 817.686 755.035 823.9 754.12C828.112 753.563 832.392 753.834 836.5 754.92C837.608 755.221 838.696 755.588 839.76 756.02C840.132 756.163 840.482 756.359 840.8 756.6Z" fill="#232F40"/>
<path d="M735.1 590.88C735.1 591.22 722.44 588.74 706.98 585.34C691.52 581.94 678.98 578.92 679.12 578.6C679.26 578.28 691.78 580.74 707.24 584.14C722.7 587.54 735.1 590.56 735.1 590.88Z" fill="#232F40"/>
<path d="M644.12 666.76L633.84 664.52L630.96 677.76L611.86 673.62L614.74 660.36L578.16 652.36L580.94 639.6L621.4 603.16L641.68 607.56L604.68 641.88L618.68 644.92L621.24 633.16L639.74 637.16L637.18 648.94L647.46 651.18L644.12 666.76Z" fill="white"/>
<path d="M652.74 646.26C657.7 623.38 673.42 613.08 691.1 616.92C708.78 620.76 718.7 636.7 713.72 659.54C708.74 682.38 693.02 692.74 675.44 688.9C657.86 685.06 647.76 669.1 652.74 646.26ZM694.06 655.26C697.22 640.74 693.86 634.3 687.64 632.94C681.42 631.58 675.64 636.02 672.4 650.54C669.16 665.06 672.62 671.52 678.94 672.9C685.26 674.28 690.9 669.8 694.06 655.26Z" fill="white"/>
<path d="M781.1 696.58L770.82 694.34L767.94 707.6L748.82 703.38L751.72 690.12L715.14 682.12L717.92 669.36L758.36 632.92L778.64 637.38L741.66 671.68L755.66 674.74L758.22 662.96L776.7 666.96L774.14 678.72L784.42 680.96L781.1 696.58Z" fill="white"/>
<path d="M629.48 715.84L628.46 720.18L607.64 715.38L614.14 687.62L634.42 692.36L633.4 696.68L618.3 693.14L616.6 700.36L630 703.52L629.02 707.76L615.6 704.62L613.8 712.28L629.48 715.84Z" fill="white"/>
<path d="M652.4 725.78L648.64 716.32C648.276 716.27 647.915 716.196 647.56 716.1L641.28 714.64L639.38 722.64L634.22 721.44L640.74 693.66L652.16 696.34C659.46 698.06 663.12 702.84 661.68 709C661.314 710.925 660.339 712.682 658.898 714.011C657.458 715.339 655.629 716.17 653.68 716.38L657.94 727L652.4 725.78ZM650.9 700.74L644.9 699.32L642.3 710.4L648.3 711.8C652.82 712.86 655.66 711.34 656.48 707.8C657.3 704.26 655.42 701.8 650.9 700.74Z" fill="white"/>
<path d="M681.4 732.58L677.64 723.12C677.276 723.066 676.916 722.993 676.56 722.9L670.3 721.38L668.3 729.48L663.14 728.26L669.64 700.48L681.08 703.16C688.38 704.88 692.02 709.66 690.58 715.82C690.217 717.747 689.243 719.505 687.802 720.834C686.361 722.164 684.53 722.993 682.58 723.2L686.82 733.82L681.4 732.58ZM679.92 707.54L673.92 706.12L671.32 717.2L677.32 718.6C681.84 719.66 684.66 718.14 685.48 714.6C686.3 711.06 684.44 708.6 679.92 707.54Z" fill="white"/>
<path d="M693.52 720.76C695.52 712.56 703.22 707.98 711.82 710C720.42 712.02 725.38 719.54 723.44 727.78C721.5 736.02 713.74 740.58 705.14 738.56C696.54 736.54 691.6 728.98 693.52 720.76ZM718.24 726.56C718.688 724.633 718.553 722.617 717.855 720.767C717.156 718.916 715.925 717.315 714.316 716.164C712.707 715.014 710.793 714.366 708.816 714.304C706.839 714.241 704.888 714.766 703.209 715.812C701.531 716.858 700.2 718.379 699.386 720.181C698.572 721.984 698.31 723.988 698.635 725.939C698.959 727.89 699.855 729.701 701.209 731.143C702.562 732.585 704.313 733.593 706.24 734.04C707.521 734.377 708.857 734.448 710.166 734.25C711.475 734.052 712.73 733.589 713.853 732.888C714.977 732.188 715.946 731.265 716.7 730.177C717.455 729.089 717.979 727.858 718.24 726.56Z" fill="white"/>
<path d="M743.84 747.22L740.08 737.76L738.98 737.54L732.72 736.08L730.82 744.08L725.66 742.88L732.18 715.1L743.6 717.78C750.9 719.5 754.56 724.28 753.12 730.44C752.751 732.364 751.775 734.119 750.335 735.447C748.895 736.775 747.068 737.607 745.12 737.82L749.38 748.44L743.84 747.22ZM742.34 722.16L736.34 720.76L733.74 731.82L739.74 733.24C744.28 734.3 747.1 732.78 747.92 729.24C748.74 725.7 746.86 723.22 742.34 722.16Z" fill="white"/>
<path d="M654.42 265.86C654.683 265.965 654.937 266.092 655.18 266.24L657.32 267.46C660.014 269.11 662.576 270.969 664.98 273.02C673.883 280.632 680.669 290.415 684.68 301.42C687.406 309.02 688.826 317.026 688.88 325.1C688.941 334.371 687.335 343.577 684.14 352.28C680.659 361.958 675.211 370.811 668.14 378.28C664.41 382.22 660.165 385.637 655.52 388.44C650.719 391.313 645.514 393.45 640.08 394.78C629.356 397.14 618.325 397.781 607.4 396.68C596.82 395.9 586.72 394.52 577.04 394.08C567.893 393.449 558.704 394.197 549.78 396.3C542.013 398.131 534.776 401.739 528.64 406.84C523.605 411.091 519.875 416.68 517.88 422.96C516.308 427.677 515.836 432.692 516.5 437.62C516.929 440.732 517.918 443.741 519.42 446.5C520.48 448.38 521.18 449.28 521.12 449.32C520.429 448.46 519.8 447.551 519.24 446.6C517.642 443.85 516.577 440.824 516.1 437.68C515.344 432.686 515.761 427.585 517.32 422.78C519.297 416.364 523.056 410.642 528.16 406.28C534.36 401.06 541.696 397.361 549.58 395.48C558.579 393.292 567.859 392.489 577.1 393.1C586.84 393.52 596.96 394.88 607.48 395.64C618.305 396.722 629.233 396.087 639.86 393.76C645.192 392.444 650.3 390.348 655.02 387.54C659.58 384.775 663.751 381.411 667.42 377.54C674.379 370.183 679.745 361.467 683.18 351.94C686.36 343.343 687.979 334.247 687.96 325.08C687.955 317.104 686.603 309.186 683.96 301.66C679.016 287.689 669.603 275.739 657.18 267.66L655.18 266.36L654.42 265.86Z" fill="#232F40"/>
<path d="M516.06 13.38C521.26 28.46 526.48 43.78 527.22 59.7C527.96 75.62 523.54 92.48 511.98 103.38C498.58 116.1 478.7 118.52 460.32 120.3C473.54 120.76 488.04 123.9 495.96 134.5C505.04 146.64 502.08 164 495.96 177.84C489.84 191.68 480.66 204.58 478.16 219.54C488.696 212.869 500.84 209.17 513.306 208.834C525.772 208.499 538.097 211.539 548.977 217.634C559.857 223.729 568.888 232.651 575.112 243.457C581.337 254.263 584.526 266.551 584.34 279.02C595.72 257.56 615.24 240 638.62 233.42C662 226.84 688.96 232.22 706.44 249.08C699.622 239.248 694.843 228.151 692.383 216.442C689.924 204.734 689.834 192.651 692.119 180.907C694.405 169.164 699.019 157.996 705.69 148.065C712.36 138.133 720.953 129.638 730.96 123.08C720.32 131.92 703.68 130.86 692.36 122.9C681.04 114.94 674.6 101.5 672.2 87.88C669.8 74.26 670.98 60.3 672.2 46.52C660.2 62.1 635.34 65.64 619.5 54C603.26 42 599.16 20 596.3 0C597.78 19.56 582.8 38.98 563.5 42.52C544.2 46.06 523.32 33.2 517.76 14.4" fill="#EDF2F7"/>
<path d="M644.46 254.52C643.04 263.94 645.66 273.58 648.58 282.64C649.044 284.393 649.907 286.015 651.1 287.38C651.704 288.058 652.495 288.544 653.374 288.775C654.252 289.006 655.18 288.973 656.04 288.68C656.78 288.25 657.424 287.674 657.933 286.986C658.442 286.298 658.805 285.513 659 284.68C660.202 281.172 660.817 277.489 660.82 273.78C663.8 275.98 667.02 278.28 670.82 278.46C674.62 278.64 678.6 275.62 678.02 271.96C677.453 269.923 676.221 268.135 674.52 266.88L654.74 248.62L644.6 254.52" fill="#BEFFBE"/>
<path d="M538.86 64.18C538.86 64.18 486.24 103.02 502.34 165.12L507.64 165.78L526.22 146.54L551.82 182.1L548.26 145.84L559.22 153.84L578 114.6C578 114.6 550 94.6 554 75.02C554.08 74.94 537.62 74.02 538.86 64.18Z" fill="#BEFFBE"/>
<path d="M518.38 195.38C521.069 211.656 529.055 226.588 541.1 237.86L572.34 219.04C572.34 219.04 531.74 211.64 518.38 195.38Z" fill="#BEFFBE"/>
<path d="M583.84 236.9C583.84 236.9 598.26 260.12 634.88 258.9C660.88 258.02 677.66 224.9 671.18 193.24L649.98 209.24L642.12 204.12V220.84C642.12 220.84 633.58 233.18 622.54 226.22C622.58 226.22 612.98 246.62 583.84 236.9Z" fill="#BEFFBE"/>
<path d="M597.34 57.48C596.1 58.02 622.36 88.96 622.58 107.48C622.58 107.48 631.24 90.58 648.9 89.86C648.9 89.86 649.54 75.22 663.8 78.28C663.8 78.24 633.34 41.96 597.34 57.48Z" fill="#BEFFBE"/>
<path d="M682.72 118C682.72 118 695.14 139.8 694.72 162C694.72 162 676.82 143.58 662.36 156.54L658.74 147.8C658.74 147.8 667.28 146.1 667.24 135.8C667.2 125.5 657.1 119.48 657.1 119.48C657.1 119.48 676.68 135.9 682.72 118Z" fill="#BEFFBE"/>
<path d="M575.68 171.56C575.68 171.84 552.88 177.56 524.6 184.4C496.32 191.24 473.34 196.4 473.28 196.22C473.22 196.04 496.08 190.22 524.36 183.38C552.64 176.54 575.62 171.38 575.68 171.56Z" fill="#232F40"/>
<path d="M581.68 135.38C581.58 135.64 569.28 131.38 554.18 125.96C539.08 120.54 526.94 115.96 527.04 115.58C527.14 115.2 539.44 119.58 554.54 125C569.64 130.42 581.78 135.12 581.68 135.38Z" fill="#232F40"/>
<path d="M563.66 0.419983C563.94 0.419983 573.52 27.34 585.08 60.76C596.64 94.18 605.78 121.38 605.5 121.38C605.22 121.38 595.64 94.48 584.1 61.06C572.56 27.64 563.4 0.519983 563.66 0.419983Z" fill="#232F40"/>
<path d="M639.86 78.04C640 80.041 639.94 82.051 639.68 84.04C639.4 87.68 638.84 92.72 637.92 98.24C637 103.76 635.92 108.7 635 112.24C634.608 114.182 634.018 116.078 633.24 117.9C633.445 115.931 633.792 113.979 634.28 112.06C635.02 108.48 635.98 103.54 636.9 98.06C637.82 92.58 638.48 87.58 638.9 83.96C639.057 81.9637 639.379 79.9838 639.86 78.04Z" fill="#232F40"/>
<path d="M716.1 81.84C716.24 82.1 698.74 92.58 677 105.26C655.26 117.94 637.54 128.02 637.4 127.76C637.26 127.5 654.74 117.04 676.48 104.36C698.22 91.68 715.94 81.6 716.1 81.84Z" fill="#232F40"/>
<path d="M716.3 179.12C715.329 179.152 714.357 179.085 713.4 178.92C711.54 178.7 708.84 178.38 705.54 177.92C698.9 177.02 689.76 175.64 679.68 173.92C669.6 172.2 660.54 170.4 654 169C650.72 168.32 648 167.72 646.26 167.28C645.301 167.125 644.361 166.863 643.46 166.5C644.429 166.553 645.393 166.687 646.34 166.9L654.14 168.28L679.86 172.9L705.64 177.22L713.46 178.52C714.424 178.629 715.375 178.83 716.3 179.12Z" fill="#232F40"/>
<path d="M687.38 265.48C687.16 265.68 671.92 249.08 653.38 228.4C634.84 207.72 619.88 190.78 620.1 190.6C620.32 190.42 635.56 207.02 654.1 227.7C672.64 248.38 687.6 265.38 687.38 265.48Z" fill="#232F40"/>
<path d="M566.12 258.06C566.272 257.272 566.52 256.507 566.86 255.78C567.38 254.32 568.2 252.24 569.24 249.78C571.24 244.68 574.3 237.66 577.76 229.98C581.22 222.3 584.52 215.4 586.96 210.46C588.2 208 589.22 206 589.94 204.64C590.269 203.925 590.685 203.253 591.18 202.64C590.96 203.414 590.666 204.164 590.3 204.88L587.64 210.88C585.26 216.12 582.14 222.88 578.72 230.5C575.3 238.12 572.26 244.94 569.92 250.18C568.86 252.54 567.92 254.52 567.22 256.18C566.924 256.845 566.555 257.476 566.12 258.06Z" fill="#232F40"/>
<path d="M581.62 157.38C581.62 157.2 583.22 157.04 585.62 156.08C588.71 154.861 591.384 152.777 593.321 150.078C595.258 147.379 596.375 144.178 596.54 140.86C596.68 138.32 596.32 136.72 596.54 136.7C597.146 138.006 597.414 139.443 597.32 140.88C597.364 144.395 596.284 147.831 594.236 150.688C592.189 153.545 589.282 155.673 585.94 156.76C584.577 157.334 583.089 157.547 581.62 157.38Z" fill="#232F40"/>
<path d="M598.2 185.78C598.04 185.78 598.9 184.36 599.36 181.92C599.999 178.792 599.41 175.537 597.716 172.831C596.023 170.124 593.353 168.173 590.26 167.38C587.9 166.7 586.26 166.88 586.26 166.7C587.609 166.288 589.051 166.288 590.4 166.7C592.082 167.03 593.678 167.703 595.088 168.677C596.499 169.651 597.694 170.905 598.598 172.362C599.503 173.818 600.097 175.445 600.345 177.141C600.593 178.837 600.489 180.566 600.04 182.22C599.784 183.56 599.145 184.797 598.2 185.78Z" fill="#232F40"/>
<path d="M637.2 168.82C637.2 168.98 635.44 168.32 632.58 167.98C628.86 167.553 625.093 168.034 621.6 169.38C618.132 170.791 615.063 173.03 612.66 175.9C610.8 178.12 610.02 179.76 609.86 179.68C610.265 178.097 611.024 176.627 612.08 175.38C614.414 172.236 617.578 169.806 621.217 168.361C624.856 166.916 628.825 166.514 632.68 167.2C634.288 167.397 635.832 167.951 637.2 168.82Z" fill="#232F40"/>
<path d="M636.14 157.14C634.944 157.215 633.752 156.951 632.7 156.38C630.046 155.182 627.88 153.115 626.56 150.52C625.276 147.902 624.937 144.92 625.6 142.08C625.76 140.898 626.268 139.791 627.06 138.9C627.22 138.9 626.62 140.16 626.32 142.22C625.913 144.893 626.325 147.626 627.5 150.06C628.758 152.465 630.709 154.436 633.1 155.72C634.86 156.72 636.16 156.96 636.14 157.14Z" fill="#232F40"/>
<path d="M624.34 131.98C623.604 132.826 622.732 133.543 621.76 134.1C619.552 135.747 616.939 136.763 614.2 137.04C612.79 137.125 611.381 136.853 610.105 136.248C608.829 135.643 607.726 134.725 606.9 133.58C605.7 131.68 606.12 130.22 606.2 130.28C606.485 131.294 606.924 132.258 607.5 133.14C608.304 134.104 609.325 134.866 610.478 135.363C611.632 135.86 612.886 136.078 614.14 136C616.709 135.703 619.181 134.842 621.38 133.48C622.285 132.834 623.283 132.328 624.34 131.98Z" fill="#232F40"/>
<g opacity="0.3">
<path d="M644.18 257.08C648.354 255.146 652.243 252.649 655.74 249.66L659.44 253.08C654.4 256.7 648.56 260.1 644.32 264.64C644.037 262.13 643.99 259.599 644.18 257.08Z" fill="black"/>
</g>
<path d="M656.84 248.46C655.287 250.813 653.266 252.82 650.901 254.355C648.537 255.89 645.881 256.92 643.1 257.38C643.1 257.08 646.54 255.96 650.28 253.5C654.02 251.04 656.6 248.26 656.84 248.46Z" fill="#232F40"/>
<path d="M648.84 248.96C648.164 249.39 647.447 249.751 646.7 250.04C645.847 250.436 644.972 250.784 644.08 251.08C642.914 251.522 641.725 251.902 640.52 252.22C637.391 253.088 634.192 253.677 630.96 253.98C626.998 254.311 623.013 254.264 619.06 253.84C615.107 253.338 611.21 252.467 607.42 251.24C604.338 250.179 601.359 248.84 598.52 247.24C597.28 246.62 596.26 245.9 595.32 245.24C594.512 244.761 593.743 244.22 593.02 243.62C592.352 243.175 591.736 242.658 591.18 242.08C591.32 241.92 594 244.08 598.88 246.52C601.724 247.968 604.68 249.186 607.72 250.16C615.191 252.556 623.058 253.473 630.88 252.86C634.068 252.604 637.232 252.096 640.34 251.34C645.64 250.2 648.74 248.76 648.84 248.96Z" fill="#FAFAFA"/>
<path d="M650 281.88C648.532 279.536 647.616 276.89 647.32 274.14C646.706 271.441 646.706 268.639 647.32 265.94C647.64 265.94 647.62 269.58 648.38 273.94C649.14 278.3 650.28 281.76 650 281.88Z" fill="#FAFAFA"/>
<path d="M538.46 228.72C537.188 227.953 536.041 226.995 535.06 225.88C529.971 220.818 525.832 214.884 522.84 208.36C522.142 207.046 521.636 205.638 521.34 204.18C521.64 204.04 524.26 210.18 529.02 217.06C533.78 223.94 538.68 228.5 538.46 228.72Z" fill="#FAFAFA"/>
<path d="M519.68 94.94C519.84 95.06 517.82 98.06 515.16 103.22C508.203 116.704 504.498 131.628 504.34 146.8C504.34 152.62 504.64 156.2 504.46 156.22C504.224 155.406 504.084 154.567 504.04 153.72C503.77 151.423 503.623 149.113 503.6 146.8C503.479 139.159 504.353 131.535 506.2 124.12C508.048 116.708 510.837 109.563 514.5 102.86C515.94 100.32 517.18 98.3 518.14 96.86C518.579 96.1639 519.096 95.5198 519.68 94.94Z" fill="#FAFAFA"/>
<path d="M534.4 77.58C534.58 77.8 533.34 79.14 531.6 80.56C529.86 81.98 528.32 82.94 528.14 82.72C527.96 82.5 529.22 81.16 530.94 79.74C532.66 78.32 534.22 77.38 534.4 77.58Z" fill="#FAFAFA"/>
<path d="M575.28 568.66C575.738 569.02 576.119 569.469 576.4 569.98C577.26 571.446 577.632 573.149 577.46 574.84C577.143 577.51 575.938 579.996 574.04 581.9C571.627 584.465 568.714 586.507 565.48 587.9C561.559 589.622 557.262 590.311 553 589.9C548.083 589.32 543.469 587.223 539.8 583.9C535.821 580.131 533.293 575.084 532.66 569.64C531.954 563.848 532.832 557.973 535.2 552.64C537.536 547.367 540.688 542.494 544.54 538.2C548.18 534 551.98 530.2 555.02 526.2C558.024 522.507 560.163 518.188 561.28 513.56C562.406 508.588 562.154 503.403 560.551 498.564C558.947 493.725 556.053 489.415 552.18 486.1C550.48 484.681 548.667 483.403 546.76 482.28C548.827 483.138 550.744 484.319 552.44 485.78C557.22 489.704 560.585 495.084 562.02 501.1C562.984 505.254 563.025 509.569 562.14 513.74C561.027 518.509 558.853 522.967 555.78 526.78C552.7 530.88 548.9 534.66 545.32 538.78C541.55 543.011 538.46 547.801 536.16 552.98C533.864 558.136 533.007 563.817 533.68 569.42C534.262 574.641 536.662 579.491 540.46 583.12C543.973 586.312 548.388 588.339 553.1 588.92C557.217 589.358 561.378 588.753 565.2 587.16C572.16 584.22 576.74 579.16 577.06 574.78C577.254 573.165 576.962 571.528 576.22 570.08C575.7 569.1 575.22 568.7 575.28 568.66Z" fill="#232F40"/>
<path d="M170.2 834.98C176.08 807.56 209.66 608.56 209.66 608.56C209.66 608.56 185.44 612.4 180.56 621.08C175.1 630.62 149.1 777.24 146.18 826.98C143.79 826.8 141.39 826.8 139 826.98C132.91 827.299 127.127 829.749 122.66 833.9C120.141 836.529 118.4 839.805 117.631 843.364C116.861 846.923 117.093 850.625 118.3 854.06C119.687 857.667 122.117 860.779 125.28 863C124.9 867.26 126.26 872.48 129.6 874.66C131.544 875.891 133.811 876.517 136.112 876.456C138.412 876.396 140.643 875.652 142.52 874.32C142.93 875.618 143.702 876.773 144.745 877.648C145.788 878.523 147.059 879.083 148.409 879.262C149.759 879.44 151.132 879.23 152.366 878.656C153.601 878.082 154.647 877.167 155.38 876.02C156.98 879.74 162.22 880.02 166 878.7C169.532 877.319 172.662 875.076 175.107 872.177C177.552 869.278 179.234 865.814 180 862.1C180.699 858.389 180.645 854.575 179.841 850.885C179.037 847.195 177.5 843.704 175.32 840.62C173.83 838.554 172.113 836.662 170.2 834.98Z" fill="#BEFFBE"/>
<g opacity="0.3">
<path d="M175.1 806.44C160.78 781.28 153.48 754.44 164.34 715.52C172.1 687.62 187.58 659.08 201.82 633.86" fill="black"/>
</g>
<path d="M167.26 859.92C167.897 859.475 168.487 858.965 169.02 858.4C169.695 857.608 170.177 856.67 170.427 855.66C170.677 854.65 170.688 853.595 170.46 852.58C170.043 851.111 169.206 849.796 168.051 848.797C166.896 847.799 165.474 847.16 163.96 846.96C162.074 846.776 160.173 847.087 158.444 847.862C156.715 848.637 155.217 849.85 154.1 851.38C151.773 854.454 150.478 858.185 150.4 862.04C150.286 865.196 150.873 868.338 152.12 871.24C153.35 873.896 155.058 876.303 157.16 878.34C157.16 878.34 156.96 878.34 156.62 878.02C156.128 877.688 155.673 877.306 155.26 876.88C153.667 875.352 152.372 873.541 151.44 871.54C150.054 868.554 149.37 865.291 149.44 862C149.48 857.926 150.826 853.972 153.28 850.72C154.52 849.066 156.171 847.766 158.069 846.949C159.967 846.131 162.047 845.825 164.1 846.06C165.784 846.307 167.356 847.05 168.617 848.193C169.877 849.336 170.77 850.828 171.18 852.48C171.399 853.596 171.344 854.749 171.02 855.839C170.696 856.929 170.113 857.924 169.32 858.74C168.894 859.17 168.401 859.528 167.86 859.8C167.48 859.9 167.26 859.96 167.26 859.92Z" fill="#232F40"/>
<path d="M122.96 861.7C123.651 862.006 124.319 862.36 124.96 862.76C126.753 863.661 128.701 864.211 130.7 864.38C133.641 864.66 136.6 864.083 139.22 862.72C140.772 861.942 142.137 860.837 143.22 859.48C143.771 858.778 144.173 857.97 144.4 857.107C144.627 856.243 144.674 855.343 144.54 854.46C143.827 851.23 142.137 848.297 139.7 846.06C137.696 844.13 135.303 842.65 132.68 841.72L131.46 841.28L132.72 840.96C135.847 840.078 138.892 838.927 141.82 837.52C141.158 838.122 140.41 838.62 139.6 839C137.482 840.167 135.233 841.08 132.9 841.72V840.96C135.664 841.869 138.196 843.371 140.32 845.36C141.56 846.513 142.642 847.825 143.54 849.26C144.548 850.791 145.229 852.514 145.54 854.32C145.693 855.338 145.635 856.375 145.37 857.37C145.105 858.364 144.639 859.293 144 860.1C142.829 861.559 141.355 862.746 139.68 863.58C136.888 864.983 133.74 865.519 130.64 865.12C128.566 864.881 126.568 864.199 124.78 863.12C124.303 862.837 123.854 862.509 123.44 862.14C123.107 861.873 122.947 861.727 122.96 861.7Z" fill="#232F40"/>
<path d="M141.2 862.04C141.54 862.16 140.34 865.02 140.8 868.6C141.326 870.742 141.995 872.847 142.8 874.9C141.06 873.3 139.994 871.097 139.82 868.74C139.595 867.587 139.601 866.402 139.837 865.251C140.074 864.101 140.538 863.01 141.2 862.04Z" fill="#232F40"/>
<path d="M155.94 848C155.754 847.146 155.444 846.324 155.02 845.56C154.522 844.821 153.83 844.233 153.02 843.86C151.996 843.431 150.863 843.333 149.78 843.58C147.734 844.093 145.931 845.302 144.68 847C143.66 848.3 143.16 849.22 143.02 849.14C142.88 849.06 143.16 848.06 144.08 846.58C144.679 845.58 145.473 844.711 146.414 844.024C147.355 843.337 148.425 842.846 149.56 842.58C150.864 842.284 152.229 842.432 153.44 843C154.407 843.483 155.203 844.251 155.72 845.2C156.52 846.86 156.04 848.06 155.94 848Z" fill="#232F40"/>
<g opacity="0.3">
<path d="M133.56 841.1C135.177 840.675 136.876 840.68 138.49 841.115C140.104 841.55 141.576 842.4 142.76 843.58C144.808 841.099 147.622 839.368 150.76 838.66C152.334 838.361 153.963 838.649 155.338 839.471C156.713 840.294 157.739 841.592 158.22 843.12C159.37 842.605 160.625 842.369 161.884 842.432C163.142 842.494 164.368 842.852 165.462 843.478C166.556 844.104 167.486 844.979 168.177 846.032C168.869 847.086 169.301 848.288 169.44 849.54C167.661 847.741 165.32 846.605 162.805 846.322C160.291 846.038 157.756 846.623 155.62 847.98C155.592 846.987 155.252 846.028 154.649 845.238C154.046 844.449 153.211 843.869 152.26 843.58C151.298 843.325 150.292 843.286 149.314 843.466C148.335 843.645 147.408 844.04 146.6 844.62C144.991 845.797 143.71 847.367 142.88 849.18C140.695 845.388 137.226 842.501 133.1 841.04" fill="black"/>
</g>
<path d="M126.6 860.58C125.217 859.927 124.015 858.945 123.1 857.72C120.586 854.879 119.075 851.291 118.8 847.507C118.526 843.723 119.502 839.954 121.58 836.78C122.301 835.416 123.345 834.249 124.62 833.38C124.76 833.5 123.48 834.72 122.12 837.12C120.33 840.234 119.513 843.812 119.773 847.393C120.033 850.975 121.359 854.398 123.58 857.22C125.28 859.38 126.72 860.44 126.6 860.58Z" fill="white"/>
<path d="M560.32 469.88C559 466.06 555.4 462.24 551.52 463.34C551.948 462.046 551.997 460.656 551.66 459.336C551.324 458.015 550.617 456.818 549.622 455.886C548.627 454.954 547.387 454.327 546.047 454.078C544.706 453.829 543.323 453.968 542.06 454.48C541.901 452.17 541.054 449.96 539.628 448.135C538.203 446.31 536.263 444.953 534.06 444.24C530.24 443.04 525.36 445.28 522.3 448.24C518.58 447.185 514.628 447.276 510.96 448.5C507.55 449.723 504.545 451.865 502.276 454.688C500.007 457.512 498.561 460.907 498.1 464.5C497.709 470.588 499.472 476.62 503.08 481.54C506.123 485.73 509.64 489.555 513.56 492.94C492.96 589.12 387.42 605.84 387.42 605.84L397.32 644.56C498.46 619.58 526.32 538.94 533.9 501.06C534.8 501.06 535.68 501.06 536.56 501.06C540.33 500.79 544.007 499.765 547.374 498.047C550.741 496.33 553.728 493.954 556.16 491.06C558.554 488.151 560.187 484.692 560.913 480.995C561.639 477.298 561.435 473.479 560.32 469.88Z" fill="#BEFFBE"/>
<path d="M546.56 482.74C546.668 482.918 546.743 483.115 546.78 483.32C546.925 483.915 546.966 484.531 546.9 485.14C546.771 486.266 546.371 487.344 545.733 488.281C545.096 489.218 544.24 489.987 543.24 490.52C541.7 491.249 539.978 491.504 538.294 491.251C536.609 490.998 535.038 490.249 533.78 489.1C532.294 487.663 531.213 485.861 530.644 483.874C530.075 481.887 530.04 479.785 530.54 477.78C531.504 473.82 533.712 470.273 536.84 467.66C539.347 465.525 542.309 463.992 545.5 463.18C547.641 462.633 549.866 462.49 552.06 462.76C552.651 462.809 553.234 462.923 553.8 463.1C554.2 463.1 554.4 463.28 554.38 463.3C551.474 462.972 548.533 463.175 545.7 463.9C542.66 464.777 539.848 466.305 537.46 468.38C534.536 470.891 532.473 474.256 531.56 478C531.097 479.83 531.118 481.748 531.619 483.568C532.12 485.387 533.085 487.045 534.42 488.38C535.532 489.433 536.927 490.136 538.435 490.402C539.942 490.669 541.495 490.487 542.9 489.88C543.827 489.409 544.634 488.731 545.258 487.899C545.882 487.066 546.307 486.102 546.5 485.08C546.573 484.302 546.593 483.52 546.56 482.74Z" fill="#232F40"/>
<path d="M519.9 447.38C519.9 447.38 520.1 447.38 520.48 447.38C521.038 447.481 521.587 447.629 522.12 447.82C524.085 448.512 525.879 449.617 527.38 451.06C529.645 453.221 531.218 456.005 531.9 459.06C532.311 460.877 532.311 462.763 531.9 464.58C531.677 465.585 531.251 466.534 530.649 467.369C530.048 468.205 529.282 468.909 528.4 469.44C526.8 470.347 525.03 470.912 523.2 471.1C518.605 471.65 513.961 470.59 510.06 468.1L510.62 467.6C511.589 469.813 512.306 472.127 512.76 474.5C512.987 475.367 513.068 476.266 513 477.16C512.254 473.991 511.216 470.898 509.9 467.92L509.36 466.76L510.48 467.44C512.86 468.874 515.52 469.782 518.28 470.1C521.558 470.585 524.906 470.039 527.86 468.54C528.627 468.084 529.292 467.476 529.814 466.754C530.337 466.032 530.707 465.21 530.9 464.34C531.27 462.667 531.27 460.933 530.9 459.26C530.296 456.366 528.873 453.708 526.8 451.6C525.398 450.16 523.735 449 521.9 448.18C520.66 447.58 519.88 447.38 519.9 447.38Z" fill="#232F40"/>
<path d="M531.72 461.22C532.043 460.09 532.588 459.036 533.323 458.119C534.057 457.202 534.968 456.441 536 455.88C537.941 454.531 540.32 453.967 542.66 454.3C540.564 454.973 538.519 455.795 536.54 456.76C533.48 458.66 532 461.38 531.72 461.22Z" fill="#232F40"/>
<path d="M530.16 481.52C530.26 481.52 529.64 482.7 527.8 483.08C526.732 483.27 525.632 483.138 524.64 482.7C523.434 482.122 522.455 481.158 521.86 479.96C521.351 478.911 521.057 477.771 520.995 476.606C520.933 475.442 521.105 474.277 521.5 473.18C522.08 471.54 522.7 470.66 522.82 470.72C522.709 471.624 522.508 472.515 522.22 473.38C521.688 475.416 521.886 477.575 522.78 479.48C523.279 480.478 524.076 481.295 525.06 481.82C525.864 482.246 526.775 482.427 527.68 482.34C528.546 482.204 529.384 481.927 530.16 481.52Z" fill="#232F40"/>
<g opacity="0.3">
<path d="M510.64 468.56C511.337 470.081 512.421 471.392 513.782 472.364C515.144 473.336 516.736 473.934 518.4 474.1C517.778 477.267 518.221 480.551 519.66 483.44C521.3 486.18 525.02 487.9 527.84 486.4C528.174 487.605 528.785 488.715 529.625 489.641C530.464 490.567 531.51 491.284 532.676 491.733C533.843 492.182 535.099 492.352 536.343 492.228C537.587 492.104 538.785 491.69 539.84 491.02C537.313 490.787 534.943 489.695 533.123 487.926C531.304 486.158 530.145 483.819 529.84 481.3C529.053 481.908 528.094 482.252 527.099 482.284C526.105 482.317 525.126 482.035 524.3 481.48C523.493 480.899 522.826 480.145 522.349 479.273C521.871 478.401 521.595 477.433 521.54 476.44C521.423 474.452 521.822 472.467 522.7 470.68C518.402 471.393 513.991 470.549 510.26 468.3" fill="black"/>
</g>
<path d="M252.42 842.8C258.78 869.76 265.127 896.727 271.46 923.7C261.608 922.285 251.564 924.155 242.88 929.02C239.88 930.72 236.7 934.06 238.32 937.02C239.58 939.42 242.88 939.6 245.58 939.48C266.62 938.58 287.58 940.36 308.74 939.48L307.58 857.48" fill="#BEFFBE"/>
<path d="M366.5 842.8C360.167 869.76 353.82 896.727 347.46 923.7C357.319 922.284 367.37 924.153 376.06 929.02C379.06 930.72 382.22 934.06 380.62 937.02C379.34 939.42 376.06 939.6 373.36 939.48C352.3 938.58 331.36 940.36 310.2 939.48L311.36 857.48" fill="#BEFFBE"/>
<g opacity="0.3">
<path d="M256.86 861.64L259.48 872.34C276.68 873.28 293.36 875.88 307.8 872.7L307.66 863.26C307.66 863.26 289.86 862.32 279.66 859.64L284.32 868.18C274.953 867.027 265.742 864.833 256.86 861.64Z" fill="black"/>
</g>
<g opacity="0.3">
<path d="M311.1 872.54C311.1 872.54 328.06 877.14 344.42 874.3C358.26 871.92 360.2 869.42 360.2 869.42L364.5 851.38C364.5 851.38 345.34 862.32 315.56 856.42L331.1 862.78H311.26L311.1 872.54Z" fill="black"/>
</g>
<path d="M443.48 739.06C436.803 725.625 428.515 713.052 418.8 701.62V701.48C424.059 702.573 429.438 702.969 434.8 702.66C425.418 695.684 417.461 686.973 411.36 677C403.18 646.82 394.42 616.5 394.24 585.66L210.74 584.24C205.844 620.984 197.35 657.157 185.38 692.24C172.72 730.24 158.42 775.46 183.68 812.68C188.31 819.323 194.095 825.081 200.76 829.68C208.626 838.007 217.06 845.779 226 852.94C224.453 849.033 222.927 845.133 221.42 841.24L224.56 842.64C242.523 857.181 264.177 866.439 287.1 869.38L283.7 861.24C309.98 865.8 336.68 864.42 360.54 853.24C405.08 832.24 428.54 807.38 434.06 774.78C436.88 758.26 433.68 743.42 428.72 728.6L443.48 739.06Z" fill="#BEFFBE"/>
<path d="M382.92 748.12C382.92 748.12 382.66 748.12 382.18 748.12C381.7 748.12 380.98 747.92 380.18 747.7C377.59 747.118 375.044 746.357 372.56 745.42C364.099 742.228 356.41 737.28 350 730.9L350.84 730.34C351.72 732.6 352.64 734.94 353.56 737.34C355.24 741.7 356.88 745.9 358.38 749.78L359.52 752.74L357.52 750.28C351.8 743.18 346.84 737.04 343.2 732.5L339.2 727.32C338.689 726.69 338.228 726.021 337.82 725.32C338.428 725.832 338.978 726.408 339.46 727.04L343.76 732.06L358.38 749.58L357.52 750.08C356.02 746.2 354.38 742.08 352.68 737.66C351.74 735.26 350.84 732.9 349.96 730.66L349.08 728.38L350.8 730.12C357.093 736.397 364.572 741.36 372.8 744.72C375.241 745.709 377.731 746.57 380.26 747.3C381.161 747.524 382.05 747.798 382.92 748.12Z" fill="#232F40"/>
<path d="M224.4 711.82C223.508 710.338 222.835 708.735 222.4 707.06C221.078 703.082 220.238 698.959 219.9 694.78C219.556 690.603 219.711 686.4 220.36 682.26C220.539 680.529 220.963 678.832 221.62 677.22C221.55 678.936 221.377 680.645 221.1 682.34C220.663 686.439 220.609 690.571 220.94 694.68C221.29 698.79 222.013 702.861 223.1 706.84C223.63 708.473 224.064 710.136 224.4 711.82Z" fill="#232F40"/>
<path d="M230.54 696.18C229.906 695.059 229.479 693.833 229.28 692.56C228.552 689.567 228.163 686.501 228.12 683.42C228.08 680.344 228.375 677.272 229 674.26C229.185 672.991 229.577 671.762 230.16 670.62C229.607 674.867 229.273 679.139 229.16 683.42C229.396 687.695 229.857 691.954 230.54 696.18Z" fill="#232F40"/>
<path d="M295.72 813.64C295.346 813.621 294.976 813.554 294.62 813.44C293.9 813.26 292.84 813.04 291.5 812.64C287.693 811.544 283.959 810.208 280.32 808.64C268.176 803.477 257.115 796.067 247.72 786.8L248.5 786.12C248.92 786.68 249.34 787.3 249.78 787.92C253.656 793.565 256.675 799.752 258.74 806.28L259.12 807.48L258.04 806.84C250.202 802.292 243.613 795.875 238.86 788.16C237.515 785.956 236.332 783.656 235.32 781.28C234.98 780.44 234.76 779.78 234.6 779.28C234.501 779.057 234.433 778.822 234.4 778.58C234.862 779.378 235.27 780.207 235.62 781.06C236.724 783.37 237.973 785.608 239.36 787.76C244.208 795.254 250.777 801.48 258.52 805.92L257.82 806.5C255.737 800.102 252.74 794.039 248.92 788.5L247.68 786.72L248.46 786.04C257.763 795.247 268.651 802.7 280.6 808.04C284.198 809.643 287.876 811.058 291.62 812.28C292.94 812.74 293.98 813.02 294.66 813.26C295.025 813.35 295.381 813.477 295.72 813.64Z" fill="#232F40"/>
<path d="M201.8 627.5C201.818 627.66 201.818 627.82 201.8 627.98C201.8 628.34 201.8 628.8 201.8 629.34C201.7 630.56 201.48 632.32 201.18 634.6C200.54 639.14 199.34 645.7 197.4 653.66C195.46 661.62 192.72 671.04 189.4 681.38C186.08 691.72 182.42 703.04 179.04 715.08C175.738 726.324 173.225 737.785 171.52 749.38C170.213 758.867 170.059 768.476 171.06 778C171.773 784.418 173.243 790.728 175.44 796.8C176.28 798.92 176.94 800.58 177.44 801.66L177.98 802.92C178.056 803.058 178.11 803.206 178.14 803.36C178.14 803.36 178.14 803.24 177.88 802.98C177.62 802.72 177.5 802.24 177.24 801.76C176.66 800.7 175.94 799.06 175.06 796.94C172.689 790.878 171.09 784.541 170.3 778.08C169.193 768.493 169.28 758.806 170.56 749.24C172.183 737.563 174.649 726.02 177.94 714.7C181.36 702.7 185.12 691.34 188.4 681C191.68 670.66 194.52 661.34 196.54 653.42C198.56 645.5 199.88 638.98 200.54 634.46C200.9 632.2 201.18 630.46 201.34 629.24L201.56 627.88C201.622 627.743 201.703 627.615 201.8 627.5Z" fill="#232F40"/>
<path d="M209.6 822.86C209.142 822.531 208.707 822.17 208.3 821.78C207.52 821.04 206.3 820.04 204.78 818.5C200.631 814.294 197.017 809.592 194.02 804.5C189.541 796.92 186.174 788.737 184.02 780.2C181.39 769.745 180.212 758.977 180.52 748.2C180.901 737.462 182.28 726.782 184.64 716.3C186.76 706.64 189.24 698.08 191.46 690.94C193.68 683.8 195.64 678.1 197 674.16C197.68 672.26 198.2 670.74 198.6 669.62C198.77 669.083 198.984 668.561 199.24 668.06C199.131 668.616 198.984 669.164 198.8 669.7C198.46 670.82 197.98 672.36 197.38 674.28C196.14 678.28 194.3 684.02 192.16 691.16C190.02 698.3 187.64 706.86 185.58 716.5C183.294 726.931 181.955 737.548 181.58 748.22C181.333 758.896 182.517 769.558 185.1 779.92C187.175 788.385 190.427 796.518 194.76 804.08C197.673 809.182 201.17 813.927 205.18 818.22C206.54 819.8 207.8 820.82 208.54 821.64C208.93 822.013 209.285 822.421 209.6 822.86Z" fill="white"/>
<path d="M228.36 829C224.929 826.799 221.697 824.303 218.7 821.54C215.469 819.057 212.464 816.293 209.72 813.28C213.138 815.49 216.363 817.986 219.36 820.74C222.589 823.233 225.6 825.997 228.36 829Z" fill="white"/>
<path d="M155.84 267.5C154.34 267.88 117.38 284.96 124.34 333.98C130.34 376.92 155.84 377.98 155.84 377.98L203.2 336.58C203.2 336.58 168.82 332.92 159.94 307.86C150.92 282.36 155.84 267.5 155.84 267.5Z" fill="#2B3B4F"/>
<path d="M176.54 326.92C176.54 327.12 173.12 327.04 167.82 328.32C160.88 329.94 154.446 333.246 149.088 337.945C143.73 342.644 139.612 348.591 137.1 355.26C135.1 360.36 134.78 363.78 134.58 363.74C134.548 362.935 134.615 362.129 134.78 361.34C135.138 359.184 135.68 357.063 136.4 355C138.779 348.123 142.903 341.982 148.369 337.179C153.835 332.376 160.455 329.075 167.58 327.6C169.718 327.14 171.894 326.879 174.08 326.82C174.901 326.74 175.729 326.774 176.54 326.92Z" fill="#232F40"/>
<path d="M162.44 311.38C162.44 311.58 159.66 311.06 155.24 311.38C149.481 311.796 143.922 313.666 139.081 316.814C134.24 319.961 130.277 324.285 127.56 329.38C125.56 333.38 124.82 336 124.62 335.94C124.638 335.257 124.766 334.582 125 333.94C125.503 332.219 126.173 330.551 127 328.96C129.618 323.627 133.628 319.101 138.605 315.858C143.583 312.616 149.344 310.779 155.28 310.54C157.058 310.459 158.839 310.546 160.6 310.8C161.239 310.898 161.86 311.094 162.44 311.38Z" fill="#232F40"/>
<path d="M126.34 302.68C126.34 302.68 126.34 302.18 126.78 301.34C127.327 300.165 127.998 299.052 128.78 298.02C131.371 294.583 134.951 292.022 139.04 290.68C143.168 289.356 147.639 289.598 151.6 291.36C152.794 291.881 153.917 292.553 154.94 293.36C155.66 293.9 156 294.28 155.96 294.32C155.92 294.36 154.3 293.2 151.32 292.12C147.479 290.637 143.248 290.503 139.32 291.74C135.418 293.039 131.955 295.401 129.32 298.56C127.32 300.92 126.52 302.76 126.34 302.68Z" fill="#232F40"/>
<path d="M146.62 276.06C146.62 276.06 145.66 277.12 143.92 279C141.483 281.658 139.263 284.507 137.28 287.52C130.598 297.418 126.765 308.962 126.2 320.892C125.636 332.821 128.362 344.675 134.08 355.16C135.781 358.34 137.727 361.382 139.9 364.26C141.44 366.26 142.36 367.38 142.3 367.44C142.02 367.23 141.765 366.989 141.54 366.72C141.1 366.22 140.38 365.52 139.54 364.5C137.218 361.698 135.162 358.685 133.4 355.5C127.42 344.959 124.549 332.94 125.119 320.834C125.689 308.729 129.677 297.032 136.62 287.1C138.686 284.1 141.023 281.295 143.6 278.72C144.48 277.78 145.26 277.16 145.76 276.72C146.012 276.458 146.302 276.235 146.62 276.06Z" fill="#FAFAFA"/>
<path d="M436.32 271.72C437.8 272.08 474.76 289.18 467.8 338.2C461.8 381.14 436.32 382.2 436.32 382.2L388.96 340.82C388.96 340.82 423.32 337.16 432.22 312.1C441.22 286.58 436.32 271.72 436.32 271.72Z" fill="#2B3B4F"/>
<path d="M415.6 331.12C416.394 330.993 417.199 330.96 418 331.02C420.186 331.098 422.361 331.365 424.5 331.82C431.631 333.282 438.258 336.578 443.726 341.383C449.194 346.188 453.314 352.336 455.68 359.22C456.401 361.283 456.943 363.404 457.3 365.56C457.476 366.34 457.55 367.14 457.52 367.94C457.3 367.94 456.94 364.58 454.98 359.46C452.477 352.801 448.372 346.862 443.028 342.166C437.684 337.471 431.266 334.165 424.34 332.54C419.1 331.26 415.58 331.38 415.6 331.12Z" fill="#232F40"/>
<path d="M430.68 315.76C431.283 315.525 431.916 315.377 432.56 315.32C434.287 315.057 436.035 314.963 437.78 315.04C443.605 315.3 449.239 317.192 454.04 320.5C458.847 323.744 462.728 328.182 465.3 333.38C466.069 334.953 466.691 336.593 467.16 338.28C467.378 338.884 467.499 339.518 467.52 340.16C467.34 340.16 466.68 337.56 464.64 333.72C461.959 328.741 458.125 324.476 453.46 321.28C448.795 318.084 443.376 316.161 437.74 315.7C433.4 315.38 430.7 315.96 430.68 315.76Z" fill="#232F40"/>
<path d="M465.8 306.9C465.64 306.9 464.84 305.14 462.84 302.68C460.207 299.524 456.743 297.168 452.84 295.88C448.914 294.63 444.679 294.764 440.84 296.26C437.86 297.34 436.32 298.62 436.2 298.46C436.08 298.3 436.5 298.04 437.22 297.48C438.248 296.681 439.37 296.009 440.56 295.48C444.53 293.726 449.004 293.484 453.14 294.8C457.223 296.153 460.796 298.721 463.38 302.16C464.167 303.189 464.838 304.303 465.38 305.48C465.62 305.918 465.764 306.402 465.8 306.9Z" fill="#232F40"/>
<path d="M439.66 276.16C440.013 276.889 440.287 277.653 440.48 278.44C440.787 279.341 441.028 280.264 441.2 281.2C441.492 282.434 441.719 283.682 441.88 284.94C442.095 286.452 442.229 287.974 442.28 289.5C442.369 291.259 442.369 293.021 442.28 294.78C442.026 298.798 441.356 302.78 440.28 306.66C439.103 310.523 437.521 314.25 435.56 317.78C434.6 319.36 433.74 320.9 432.74 322.22C431.866 323.482 430.917 324.691 429.9 325.84C429.094 326.809 428.233 327.731 427.32 328.6C426.678 329.325 425.975 329.994 425.22 330.6C424.616 331.173 423.945 331.67 423.22 332.08C423.08 331.92 425.8 329.74 429.22 325.44C430.178 324.276 431.073 323.061 431.9 321.8C432.86 320.5 433.68 318.96 434.62 317.4C436.48 313.9 438 310.23 439.16 306.44C440.246 302.632 440.957 298.727 441.28 294.78C441.28 292.96 441.5 291.24 441.42 289.6C441.404 288.096 441.311 286.594 441.14 285.1C440.54 279.52 439.44 276.22 439.66 276.16Z" fill="#FAFAFA"/>
<path d="M266.82 300C266.82 300 260.58 301.78 263.26 276.78L284.68 300.02C284.68 300.02 275.98 285.7 273.64 273.2C273.64 273.2 300.72 298.26 310.12 300.02C319.52 301.78 383.84 305.36 421.34 337.52C458.84 369.68 475.86 400.84 479.94 434.56C486.58 489.22 476.72 535.8 450.82 567.06L449.94 558.14C449.94 558.14 422.24 598.32 380.26 609.94C338.28 621.56 214.12 609.94 214.12 609.94C214.12 609.94 144.46 591.18 120.34 536.7C96.2201 482.22 109.62 474.18 109.62 474.18L99.2401 483.98C99.2401 483.98 96.5201 405.54 166.78 349.98C222.16 306.26 266.82 300 266.82 300Z" fill="#BEFFBE"/>
<path d="M401.94 601.02C401.94 601.02 401.8 601.14 401.48 601.3L400.06 602.04C398.8 602.68 396.98 603.64 394.54 604.8C389.7 607.12 382.54 610.36 373.44 613.78C362.616 617.884 351.435 620.978 340.04 623.02C333.199 624.249 326.27 624.918 319.32 625.02C311.745 625.15 304.179 624.439 296.76 622.9L297.16 621.98L314.5 633.98L316.6 635.44L314.08 634.9L309.44 633.92L268.16 625.06L268.62 624.22L278.3 634.42L279.42 635.58L277.86 635.2C259.381 630.702 241.488 624.071 224.54 615.44C218.34 612.28 213.6 609.54 210.38 607.6C208.76 606.64 207.56 605.86 206.74 605.34L205.82 604.72C205.6 604.58 205.5 604.52 205.52 604.5L205.86 604.66L206.82 605.2L210.54 607.34C213.78 609.2 218.54 611.86 224.8 614.94C241.782 623.357 259.653 629.844 278.08 634.28L277.62 635.06C274.487 631.78 271.253 628.393 267.92 624.9L266.8 623.74L268.38 624.08L309.66 632.9L314.3 633.9L313.9 634.82L296.58 622.72L294.58 621.26L297.06 621.8C304.4 623.326 311.884 624.043 319.38 623.94C326.286 623.875 333.176 623.246 339.98 622.06C351.326 620.068 362.471 617.063 373.28 613.08C382.44 609.76 389.58 606.6 394.48 604.4L400.06 601.8L401.52 601.14L401.94 601.02Z" fill="#232F40"/>
<g opacity="0.3">
<path d="M401.94 601.02C368.22 617.92 330.04 629.62 296.88 622.38L314.2 634.48L268.2 624.64C271.44 628.04 274.68 631.42 277.9 634.82C252.303 628.643 227.852 618.435 205.46 604.58C205.46 604.58 241.98 642.74 284.26 644.78C354.02 648.12 401.94 601.02 401.94 601.02Z" fill="black"/>
</g>
<path d="M168.6 547.26C168.16 547.078 167.744 546.843 167.36 546.56C166.58 546.06 165.36 545.38 163.94 544.34C159.813 541.464 155.963 538.21 152.44 534.62C140.641 522.717 132.435 507.732 128.76 491.38L129.78 491.26C129.78 491.5 129.78 491.74 129.78 492C130.08 502.72 130.38 512.86 130.66 521.88V524.28L129.7 522.08C125.679 512.999 123.082 503.352 122 493.48C121.686 490.691 121.512 487.887 121.48 485.08C121.48 484.1 121.48 483.34 121.48 482.84C121.455 482.587 121.455 482.333 121.48 482.08C121.509 482.333 121.509 482.588 121.48 482.84C121.48 483.413 121.52 484.153 121.6 485.06C121.6 487.06 121.9 489.84 122.38 493.42C123.645 503.188 126.34 512.717 130.38 521.7L129.48 521.9C129.18 512.9 128.84 502.74 128.48 492.04V491.38L129.52 491.26C131.507 500.112 134.832 508.61 139.38 516.46C145.603 527.219 153.953 536.596 163.92 544.02C165.3 545.12 166.48 545.84 167.22 546.42C167.707 546.653 168.17 546.934 168.6 547.26Z" fill="#232F40"/>
<path d="M445.24 497.72C445.24 497.72 445.42 497.38 445.86 496.8L447.86 494.26C448.64 493.12 449.44 491.62 450.46 489.94L451.78 487.1L452.5 485.56C452.7 485 452.92 484.44 453.12 483.86C456.74 474.66 458.92 460.96 458.8 445.86C458.8 443.72 458.8 441.6 458.58 439.56L458.32 435.56L459.6 439.36C460.92 443.36 462.18 447.08 463.38 450.64H462.46C464.165 446.075 465.006 441.233 464.94 436.36C464.888 432.529 464.295 428.725 463.18 425.06C462.137 421.817 460.798 418.677 459.18 415.68C459.18 415.68 459.36 415.86 459.62 416.24C459.88 416.62 460.28 417.16 460.72 417.94C462 420.138 463.046 422.464 463.84 424.88C465.07 428.58 465.744 432.442 465.84 436.34C465.991 441.327 465.183 446.297 463.46 450.98L462.98 452.28L462.54 450.96L458.7 439.7L459.7 439.5C459.84 441.6 459.9 443.7 459.92 445.86C460.04 461.06 457.74 474.88 453.92 484.12C453.68 484.7 453.46 485.28 453.24 485.82L452.48 487.38L451.06 490.22C449.98 491.9 449.06 493.38 448.28 494.48L446.28 496.92C445.52 497.48 445.26 497.76 445.24 497.72Z" fill="#232F40"/>
<path d="M356.7 349.08C356.235 349.124 355.766 349.124 355.3 349.08C354.4 349.08 353.04 349.08 351.3 348.96C346.407 348.688 341.54 348.053 336.74 347.06C320.772 343.807 305.736 337.013 292.74 327.18L293.42 326.4L293.76 326.76C300.32 333.42 306.56 339.78 312.24 345.58L313.34 346.7L311.82 346.38C306.153 345.255 300.733 343.121 295.82 340.08C291.956 337.722 288.436 334.841 285.36 331.52C283.363 329.361 281.574 327.017 280.02 324.52C279.48 323.66 279.14 322.94 278.88 322.52C278.62 322.1 278.5 321.8 278.54 321.8C279.167 322.634 279.748 323.502 280.28 324.4C281.936 326.798 283.782 329.058 285.8 331.16C288.887 334.383 292.399 337.168 296.24 339.44C301.12 342.355 306.475 344.386 312.06 345.44L311.64 346.26L293.1 327.52L292.76 327.18L293.44 326.4C306.311 336.129 321.138 342.953 336.9 346.4C341.663 347.438 346.486 348.18 351.34 348.62C353.06 348.82 354.4 348.84 355.34 348.94C355.797 348.935 356.254 348.982 356.7 349.08Z" fill="#232F40"/>
<path d="M224.52 323.2C224.372 323.298 224.21 323.372 224.04 323.42L222.62 323.94C221.38 324.4 219.48 324.98 217.14 325.94C188.255 336.629 162.704 354.754 143.069 378.483C123.435 402.212 110.413 430.705 105.32 461.08C104.84 463.56 104.64 465.5 104.42 466.82C104.42 467.42 104.24 467.92 104.16 468.32C104.146 468.492 104.106 468.661 104.04 468.82C104.04 468.82 104.04 468.64 104.04 468.3C104.04 467.96 104.04 467.4 104.18 466.8C104.36 465.48 104.48 463.5 104.9 461C105.938 453.92 107.448 446.918 109.42 440.04C112.313 429.817 116.156 419.887 120.9 410.38C132.498 386.948 149.391 366.536 170.24 350.76C178.69 344.32 187.722 338.682 197.22 333.92C203.614 330.697 210.215 327.904 216.98 325.56C219.36 324.68 221.26 324.18 222.54 323.78L223.98 323.36C224.149 323.276 224.332 323.222 224.52 323.2Z" fill="#FAFAFA"/>
<path d="M133.92 542.12C133.194 541.515 132.525 540.846 131.92 540.12C131.28 539.46 130.54 538.62 129.72 537.6C128.9 536.58 127.92 535.46 127 534.1C124.729 530.974 122.69 527.685 120.9 524.26C118.725 520.061 116.892 515.694 115.42 511.2C113.989 506.686 112.918 502.064 112.22 497.38C111.696 493.556 111.449 489.699 111.48 485.84C111.48 484.2 111.48 482.7 111.66 481.4C111.709 480.282 111.815 479.167 111.98 478.06C112.054 477.114 112.214 476.177 112.46 475.26C112.556 476.204 112.556 477.156 112.46 478.1C112.46 479.02 112.32 480.1 112.32 481.44C112.32 482.78 112.32 484.2 112.32 485.84C112.393 489.657 112.713 493.465 113.28 497.24C114.012 501.857 115.075 506.415 116.46 510.88C117.916 515.32 119.701 519.645 121.8 523.82C123.528 527.229 125.486 530.517 127.66 533.66C128.54 535.04 129.48 536.2 130.24 537.24C131 538.28 131.7 539.24 132.24 539.86C132.869 540.56 133.431 541.316 133.92 542.12Z" fill="#FAFAFA"/>
<path d="M150.46 560.88C150.36 561.14 148.46 560.7 146.46 559.3C144.46 557.9 143.34 556.22 143.56 556.06C143.78 555.9 145.16 557.14 147.06 558.44C148.96 559.74 150.56 560.58 150.46 560.88Z" fill="#FAFAFA"/>
<path d="M272.12 303.14C269.241 300.697 267.007 297.585 265.612 294.077C264.217 290.569 263.705 286.772 264.12 283.02C264.577 286.656 265.408 290.235 266.6 293.7C268.103 297.032 269.953 300.196 272.12 303.14Z" fill="#FAFAFA"/>
<g opacity="0.3">
<path d="M253.98 524.8C255.18 522.8 256.4 520.8 257.62 518.8C257.497 519.382 257.514 519.985 257.671 520.559C257.827 521.133 258.118 521.661 258.52 522.1C259.335 522.963 260.296 523.674 261.36 524.2C263.36 525.32 266 526.2 268.04 525.12C268.971 524.4 269.661 523.413 270.019 522.292C270.376 521.17 270.383 519.966 270.04 518.84C269.66 517 268.82 515.26 268.32 513.44C268.009 512.546 267.881 511.598 267.943 510.654C268.005 509.709 268.255 508.786 268.68 507.94C270.048 506.236 272.002 505.103 274.16 504.76C281.894 502.512 289.966 501.652 298 502.22C306.061 502.829 313.783 505.722 320.26 510.56C319.72 507.7 317.18 505.7 314.68 504.2C309.519 501.1 303.785 499.075 297.822 498.247C291.859 497.419 285.79 497.804 279.98 499.38C274.181 501.039 268.837 503.998 264.352 508.032C259.868 512.066 256.362 517.069 254.1 522.66" fill="black"/>
</g>
<path d="M259.4 514.2C260.158 517.597 261.997 520.656 264.64 522.92C265.064 523.402 265.617 523.752 266.234 523.929C266.85 524.106 267.505 524.103 268.12 523.92C269.42 523.26 269.46 521.42 269.22 519.92C268.495 515.693 266.946 511.649 264.66 508.02" fill="#FAFAFA"/>
<path d="M326.6 514.2C325.854 517.597 324.022 520.658 321.38 522.92C320.952 523.401 320.395 523.751 319.775 523.928C319.156 524.105 318.498 524.102 317.88 523.92C316.58 523.26 316.54 521.42 316.78 519.92C317.503 515.689 319.06 511.644 321.36 508.02" fill="#FAFAFA"/>
<path d="M335.96 523.2C335.32 523.68 331.7 519.2 324.6 513.5C320.456 510.242 315.921 507.515 311.1 505.38C305.283 502.801 299.037 501.322 292.68 501.02C286.382 500.681 280.087 501.733 274.24 504.1C269.487 506.08 265.211 509.053 261.7 512.82C255.7 519.34 254.62 525.26 253.8 525.04C253.48 525.04 253.3 523.48 253.8 520.8C254.714 517.031 256.418 513.5 258.8 510.44C262.352 505.845 266.954 502.168 272.22 499.72C278.685 496.773 285.766 495.435 292.86 495.82C299.88 496.146 306.756 497.916 313.06 501.02C318.144 503.524 322.812 506.796 326.9 510.72C333.9 517.38 336.48 522.86 335.96 523.2Z" fill="#232F40"/>
<g opacity="0.3">
<path d="M309.28 549.14C309.6 549.74 307.9 551.42 304.52 553.14C300.052 555.228 295.213 556.404 290.285 556.6C285.357 556.796 280.44 556.007 275.82 554.28C272.32 552.88 270.5 551.34 270.76 550.7C271.34 549.32 279.68 551.9 290.08 551.4C300.48 550.9 308.58 547.8 309.28 549.14Z" fill="black"/>
</g>
<path d="M216.76 401.8C266.458 418.902 320.371 419.372 370.36 403.14C370.36 403.14 360.5 473.28 293.68 477.14C226.86 481 216.76 401.8 216.76 401.8Z" fill="#FAFAFA"/>
<path d="M267.68 413.8C265.265 430.217 267.975 446.98 275.44 461.8C277.189 465.972 279.871 469.687 283.28 472.66C285.002 474.122 287.072 475.115 289.29 475.542C291.508 475.97 293.798 475.817 295.94 475.1C299.94 473.44 302.5 469.38 304.34 465.4C312.34 448.02 313.18 433.84 314.02 414.7C299.34 418.48 283.82 417.78 267.68 413.8Z" fill="#232F40"/>
<g opacity="0.3">
<path d="M360.44 440.26C360.7 440.4 359.86 442.72 357.64 446.56C354.35 451.969 350.31 456.885 345.64 461.16C342.481 464.162 339.091 466.911 335.5 469.38C331.291 472.139 326.848 474.522 322.22 476.5C311.556 481.157 299.962 483.292 288.339 482.741C276.715 482.189 265.376 478.965 255.2 473.32C250.785 470.904 246.589 468.106 242.66 464.96C239.284 462.188 236.134 459.152 233.24 455.88C229.034 451.183 225.518 445.91 222.8 440.22C220.94 436.22 220.32 433.8 220.6 433.68C220.88 433.56 222.22 435.68 224.6 439.22C227.891 444.317 231.705 449.056 235.98 453.36C238.912 456.308 242.046 459.048 245.36 461.56C249.189 464.386 253.243 466.894 257.48 469.06C267.123 474.114 277.754 477.001 288.629 477.52C299.504 478.038 310.36 476.175 320.44 472.06C324.862 470.297 329.135 468.183 333.22 465.74C336.755 463.547 340.137 461.114 343.34 458.46C347.992 454.577 352.235 450.228 356 445.48C358.64 442.02 360.08 440.06 360.44 440.26Z" fill="black"/>
</g>
<g opacity="0.3">
<path d="M355.3 391.38C353.207 391.016 351.055 391.482 349.3 392.68C330.884 401.826 310.191 405.372 289.78 402.88C269.52 400.36 248.68 393.28 233.2 379.96C228.98 382.2 227.92 388.12 229.74 392.52C231.56 396.92 235.52 400.02 239.54 402.52C253.525 411.241 269.438 416.392 285.88 417.52C302.283 418.626 318.757 417.066 334.66 412.9C342.5 410.9 350.66 408.28 355.84 402.04C357.275 400.464 358.177 398.477 358.42 396.36C358.489 395.307 358.225 394.26 357.665 393.366C357.105 392.472 356.278 391.777 355.3 391.38Z" fill="black"/>
</g>
<path d="M352.68 390.92C353.44 391.98 348.24 397.72 337.18 403.34C330.686 406.595 323.794 408.989 316.68 410.46C299.019 414.167 280.647 412.394 264.02 405.38C257.314 402.581 250.995 398.931 245.22 394.52C235.44 386.9 231.42 380.26 232.38 379.38C233.34 378.5 239.24 382.86 249.26 388.36C262.066 395.658 276.275 400.157 290.947 401.56C305.62 402.963 320.423 401.238 334.38 396.5C345.28 393.04 351.8 389.64 352.68 390.92Z" fill="#232F40"/>
<path d="M282.38 461.52C282.38 461.52 281.92 461.12 281.26 460.26C280.335 459.052 279.493 457.782 278.74 456.46C276.202 452.106 274.36 447.382 273.28 442.46C272.189 437.533 271.865 432.466 272.32 427.44C272.457 425.92 272.691 424.41 273.02 422.92C273.26 421.88 273.42 421.3 273.5 421.32C273.58 421.34 273.24 423.68 273.06 427.5C272.567 437.434 274.75 447.318 279.38 456.12C281.1 459.48 282.52 461.38 282.38 461.52Z" fill="#FAFAFA"/>
<path d="M386.24 399C384.158 400.226 381.944 401.212 379.64 401.94C377.46 402.8 374.8 403.84 371.64 404.82C368.48 405.8 364.94 407.1 360.9 408.1C356.86 409.1 352.48 410.42 347.66 411.36C345.26 411.86 342.8 412.46 340.22 412.9L332.22 414.22C320.373 415.972 308.416 416.881 296.44 416.94C284.468 416.907 272.512 416.038 260.66 414.34C255.22 413.42 250.02 412.64 245.26 411.5C242.86 410.96 240.54 410.48 238.34 409.94L232.02 408.22C228.02 407.18 224.42 405.92 221.28 404.9C219.7 404.36 218.24 403.9 216.9 403.42L213.3 401.98C210.999 401.245 208.791 400.245 206.72 399C206.9 398.48 216.54 402.1 232.58 406.08L238.88 407.58C241.08 408.08 243.4 408.48 245.78 408.96C250.52 410 255.66 410.64 261.06 411.5C272.795 412.998 284.61 413.773 296.44 413.82C308.287 413.768 320.118 412.953 331.86 411.38L339.74 410.22C342.3 409.84 344.76 409.28 347.14 408.84C351.92 408.02 356.32 406.84 360.34 405.98C364.36 405.12 367.96 403.98 371.14 403.16C374.32 402.34 377.02 401.5 379.14 400.82C381.429 399.941 383.811 399.33 386.24 399Z" fill="#232F40"/>
<path d="M911.1 939.52C911.1 939.8 707.1 940.04 455.56 940.04C204.02 940.04 0 939.8 0 939.52C0 939.24 204 939 455.56 939C707.12 939 911.1 939.24 911.1 939.52Z" fill="#232F40"/>
<path d="M354.5 286.52L343.66 237.74L369.5 235.08L377.9 191.54L381.64 245.32L355.4 247.94L354.5 286.52Z" fill="#BEFFBE"/>
<path d="M369.14 292.94L385.86 258.02L402.9 268.76L428.82 246.22L405.4 280.8L388.14 269.84L369.14 292.94Z" fill="#BEFFBE"/>
<path opacity="0.6" d="M354.5 286.52L343.66 237.74L369.5 235.08L377.9 191.54L381.64 245.32L355.4 247.94L354.5 286.52Z" fill="white"/>
<path opacity="0.6" d="M369.14 292.94L385.86 258.02L402.9 268.76L428.82 246.22L405.4 280.8L388.14 269.84L369.14 292.94Z" fill="white"/>
</svg>
