<svg width="919" height="864" viewBox="0 0 919 864" fill="none" xmlns="http://www.w3.org/2000/svg">
<path d="M783.598 413.167C604.338 310.107 313.697 310.107 134.438 413.167C-44.8225 516.227 -44.8025 683.347 134.438 786.407C313.678 889.467 604.318 889.487 783.578 786.407C962.838 683.327 962.838 516.247 783.598 413.167Z" fill="#F5F5F5" fill-opacity="0.7"/>
<path d="M241.597 613.487C311.682 613.487 368.497 580.678 368.497 540.207C368.497 499.735 311.682 466.927 241.597 466.927C171.512 466.927 114.697 499.735 114.697 540.207C114.697 580.678 171.512 613.487 241.597 613.487Z" fill="#E0E0E0" fill-opacity="0.7"/>
<path d="M457.677 732.907L445.877 726.087L454.457 721.147C456 720.4 457.301 719.234 458.212 717.782C459.123 716.33 459.606 714.651 459.606 712.937C459.606 711.223 459.123 709.543 458.212 708.091C457.301 706.639 456 705.473 454.457 704.727L433.097 692.307C430.515 690.951 427.643 690.242 424.727 690.242C421.811 690.242 418.938 690.951 416.357 692.307L401.937 700.647L327.417 657.607C324.835 656.251 321.963 655.542 319.047 655.542C316.131 655.542 313.258 656.251 310.677 657.607L280.237 675.187C278.053 676.301 276.178 677.936 274.777 679.947C273.406 682.317 272.984 685.118 273.597 687.787L289.357 766.667C290.277 770.667 293.237 774.087 298.177 776.927L319.557 789.267C322.11 790.662 324.988 791.353 327.897 791.267C330.818 791.357 333.711 790.667 336.277 789.267L396.877 754.287L414.517 764.467C417.098 765.823 419.971 766.531 422.887 766.531C425.803 766.531 428.675 765.823 431.257 764.467L457.657 749.227C459.2 748.48 460.501 747.314 461.412 745.862C462.323 744.41 462.806 742.731 462.806 741.017C462.806 739.303 462.323 737.623 461.412 736.171C460.501 734.719 459.2 733.553 457.657 732.807L457.677 732.907ZM340.317 736.287L336.777 718.527L353.917 728.527L340.317 736.287Z" fill="#E0E0E0" fill-opacity="0.7"/>
<path d="M576.337 610.087C570.997 606.687 565.097 603.127 558.797 599.467C552.497 595.807 546.217 592.387 539.997 589.087C531.651 584.861 522.891 581.51 513.857 579.087C504.203 576.429 494.248 575.024 484.237 574.907H482.877C472.765 574.957 462.695 576.206 452.877 578.627C441.646 581.455 430.873 585.859 420.877 591.707C409.977 598.007 402.337 604.267 397.497 610.907C392.767 616.859 390.206 624.244 390.237 631.847C390.604 639.146 393.423 646.108 398.237 651.607C403.445 657.718 409.556 662.998 416.357 667.267C421.877 670.767 427.917 674.407 434.357 678.107C440.797 681.807 446.917 685.207 452.737 688.247C461.081 692.5 469.84 695.884 478.877 698.347C488.527 700.976 498.475 702.354 508.477 702.447H509.877C519.989 702.4 530.059 701.151 539.877 698.727C551.107 695.898 561.88 691.495 571.877 685.647C582.777 679.347 590.417 673.067 595.257 666.447C599.995 660.5 602.557 653.111 602.517 645.507C602.146 638.208 599.328 631.248 594.517 625.747C589.301 619.62 583.168 614.338 576.337 610.087ZM540.097 651.847C538.386 653.965 536.227 655.68 533.777 656.867C528.352 660.161 522.123 661.891 515.777 661.867C515.083 661.867 514.383 661.867 513.677 661.867C510.455 661.669 507.273 661.043 504.217 660.007C500.84 658.855 497.562 657.43 494.417 655.747C482.947 649.882 471.786 643.434 460.977 636.427C458.525 634.953 456.262 633.187 454.237 631.167C453.189 630.207 452.416 628.985 451.997 627.627C451.997 627.427 451.817 626.827 452.677 625.507C454.378 623.386 456.53 621.671 458.977 620.487C462.158 618.595 465.612 617.206 469.217 616.367C471.665 615.817 474.167 615.535 476.677 615.527C477.437 615.527 478.177 615.527 478.917 615.527C482.141 615.794 485.32 616.466 488.377 617.527C491.796 618.682 495.136 620.059 498.377 621.647C509.877 627.647 521.137 634.187 531.877 640.987C534.377 642.511 536.71 644.294 538.837 646.307C539.798 647.183 540.491 648.313 540.837 649.567C540.877 649.727 541.097 650.447 540.097 651.847Z" fill="#E0E0E0" fill-opacity="0.7"/>
<path d="M752.237 562.767L740.437 555.947L749.097 550.907C750.634 550.158 751.931 548.992 752.837 547.543C753.744 546.093 754.225 544.417 754.225 542.707C754.225 540.997 753.744 539.321 752.837 537.871C751.931 536.421 750.634 535.255 749.097 534.507L727.717 522.167C725.145 520.782 722.256 520.093 719.337 520.167C716.423 520.089 713.54 520.779 710.977 522.167L696.557 530.487L622.037 487.467C619.458 486.114 616.589 485.408 613.677 485.408C610.764 485.408 607.896 486.114 605.317 487.467L574.857 505.047C572.681 506.172 570.808 507.805 569.397 509.807C568.024 512.184 567.603 514.992 568.217 517.667L583.997 596.527C584.897 600.527 587.877 603.947 592.817 606.807L614.177 619.147C616.739 620.536 619.623 621.226 622.537 621.147C625.451 621.226 628.334 620.536 630.897 619.147L691.497 584.147L709.157 594.347C711.736 595.699 714.604 596.406 717.517 596.406C720.429 596.406 723.298 595.699 725.877 594.347L752.277 579.087C753.821 578.344 755.123 577.18 756.035 575.729C756.947 574.279 757.431 572.6 757.431 570.887C757.431 569.173 756.947 567.495 756.035 566.044C755.123 564.593 753.821 563.43 752.277 562.687L752.237 562.767ZM634.877 566.127L631.337 548.367L648.497 558.267L634.877 566.127Z" fill="#E0E0E0" fill-opacity="0.7"/>
<path d="M833.837 86.4068L814.917 75.4868C815.023 74.718 815.077 73.9429 815.077 73.1668V67.6868C814.788 62.3784 813.252 57.2128 810.594 52.6087C807.936 48.0046 804.23 44.0916 799.777 41.1868C798.45 40.3022 796.961 39.6909 795.395 39.3887C793.829 39.0865 792.218 39.0994 790.657 39.4268C789.277 25.5468 779.637 9.86682 767.957 3.12682C755.317 -4.17318 745.057 1.74682 745.057 16.3268V24.5468C745.132 28.5383 745.806 32.4958 747.057 36.2868L731.337 27.2068C726.657 24.4868 722.857 26.6868 722.857 32.1068C722.999 35.0619 723.835 37.9421 725.298 40.5135C726.761 43.085 728.809 45.2753 731.277 46.9068L833.837 106.107C838.517 108.827 842.317 106.627 842.317 101.207C842.169 98.2464 841.324 95.3628 839.85 92.791C838.377 90.2191 836.317 88.0317 833.837 86.4068Z" fill="#EBEBEB" fill-opacity="0.7"/>
<path d="M719.097 106.687L707.097 99.7268C707.129 99.234 707.129 98.7396 707.097 98.2468V94.7668C706.915 91.383 705.938 88.0896 704.246 85.1536C702.554 82.2175 700.194 79.7212 697.357 77.8668C696.509 77.305 695.558 76.9167 694.56 76.7244C693.561 76.5322 692.533 76.5398 691.537 76.7468C690.657 67.9268 684.517 57.9268 677.077 53.6268C669.077 48.9868 662.497 52.7468 662.497 62.0468V67.2668C662.527 69.8088 662.945 72.3313 663.737 74.7468L653.737 68.9668C650.757 67.2468 648.337 68.6468 648.337 72.0868C648.443 73.9606 648.986 75.7835 649.924 77.4091C650.862 79.0346 652.168 80.4176 653.737 81.4468L719.097 119.187C722.077 120.907 724.497 119.507 724.497 116.047C724.392 114.173 723.848 112.35 722.911 110.725C721.973 109.099 720.667 107.716 719.097 106.687Z" fill="#EBEBEB" fill-opacity="0.7"/>
<path d="M710.737 516.407C704.277 486.787 693.917 457.747 700.337 412.407C706.177 371.327 727.757 334.627 758.497 330.407C779.217 327.647 797.317 350.747 777.037 380.407C773.657 385.347 729.737 428.407 737.037 487.747L732.937 527.227L710.737 516.407Z" fill="#BEFFBE"/>
<g opacity="0.2">
<path d="M710.737 516.407C704.277 486.787 693.917 457.747 700.337 412.407C706.177 371.327 727.757 334.627 758.497 330.407C779.217 327.647 797.317 350.747 777.037 380.407C773.657 385.347 729.737 428.407 737.037 487.747L732.937 527.227L710.737 516.407Z" fill="black"/>
</g>
<path d="M721.497 512.007C721.761 511.884 721.977 511.68 722.115 511.424C722.252 511.168 722.302 510.874 722.257 510.587C710.257 434.587 725.557 377.847 762.257 346.587C762.527 346.358 762.694 346.032 762.724 345.68C762.754 345.328 762.644 344.978 762.417 344.707C762.301 344.558 762.156 344.435 761.99 344.345C761.824 344.256 761.641 344.202 761.453 344.186C761.265 344.171 761.075 344.196 760.897 344.258C760.719 344.32 760.556 344.418 760.417 344.547C723.257 376.147 707.437 433.987 719.517 510.927C719.542 511.101 719.601 511.269 719.691 511.42C719.781 511.571 719.9 511.702 720.042 511.807C720.183 511.911 720.344 511.986 720.515 512.027C720.686 512.069 720.864 512.075 721.037 512.047L721.497 512.007Z" fill="white" fill-opacity="0.7"/>
<path d="M745.377 539.027C745.237 527.507 751.597 502.387 766.657 480.487C785.657 452.847 815.297 443.807 818.317 429.327C821.957 411.927 803.737 401.987 780.157 410.427C751.777 420.587 718.277 461.447 729.897 530.327L745.377 539.027Z" fill="#475464"/>
<path d="M737.637 526.907C737.893 526.806 738.115 526.634 738.274 526.41C738.434 526.187 738.526 525.921 738.537 525.647C741.737 464.507 778.038 432.487 796.798 424.107C797.144 423.95 797.415 423.662 797.55 423.305C797.685 422.949 797.673 422.554 797.517 422.207C797.444 422.031 797.336 421.873 797.199 421.741C797.062 421.609 796.9 421.506 796.722 421.438C796.544 421.371 796.355 421.341 796.165 421.349C795.975 421.357 795.789 421.404 795.618 421.487C774.878 430.747 738.938 463.087 735.618 525.487C735.609 525.676 735.639 525.865 735.704 526.043C735.769 526.22 735.868 526.384 735.996 526.523C736.125 526.662 736.279 526.775 736.451 526.855C736.623 526.934 736.808 526.979 736.998 526.987C737.214 527.016 737.435 526.989 737.637 526.907Z" fill="white" fill-opacity="0.7"/>
<path d="M452.417 717.587L425.997 732.907C424.307 733.749 422.445 734.187 420.557 734.187C418.669 734.187 416.807 733.749 415.117 732.907L394.537 720.907L331.097 757.627C329.409 758.487 327.542 758.936 325.647 758.936C323.753 758.936 321.885 758.487 320.197 757.627L298.837 745.287C295.317 743.287 293.317 741.107 292.837 738.767L277.097 660.067C277.012 659.605 276.971 659.136 276.977 658.667C276.977 660.187 276.977 679.827 276.977 680.787C276.981 681.19 277.021 681.591 277.097 681.987L292.837 760.687C293.377 763.027 295.377 765.207 298.837 767.227L320.197 779.567C321.89 780.409 323.756 780.847 325.647 780.847C327.538 780.847 329.404 780.409 331.097 779.567L394.537 742.907L415.097 754.747C416.782 755.604 418.646 756.051 420.537 756.051C422.428 756.051 424.292 755.604 425.977 754.747L452.397 739.507C453.022 739.236 453.56 738.797 453.952 738.239C454.344 737.682 454.574 737.027 454.617 736.347V714.347C454.581 715.036 454.357 715.703 453.969 716.274C453.582 716.845 453.045 717.299 452.417 717.587Z" fill="#BEFFBE"/>
<path d="M451.397 708.187V686.187C451.352 686.866 451.121 687.52 450.73 688.077C450.338 688.635 449.801 689.074 449.177 689.347L431.837 699.347L450.557 710.147C451.07 709.619 451.369 708.921 451.397 708.187Z" fill="#BEFFBE"/>
<path d="M331.138 705.087L344.278 712.707L363.278 701.747L326.178 680.307L331.098 705.087H331.138Z" fill="#BEFFBE"/>
<path opacity="0.35" d="M331.138 705.087L344.278 712.707L363.278 701.747L326.178 680.307L331.098 705.087H331.138Z" fill="black"/>
<path opacity="0.2" d="M451.397 708.187V686.187C451.352 686.866 451.121 687.52 450.73 688.077C450.338 688.635 449.801 689.074 449.177 689.347L431.837 699.347L450.557 710.147C451.07 709.619 451.369 708.921 451.397 708.187Z" fill="black"/>
<path opacity="0.2" d="M452.418 717.587L425.998 732.907C424.324 733.811 422.439 734.253 420.538 734.187V756.187C422.442 756.256 424.329 755.807 425.998 754.887L452.418 739.647C453.043 739.376 453.581 738.937 453.973 738.379C454.364 737.822 454.594 737.167 454.638 736.487V714.487C454.575 715.154 454.337 715.793 453.947 716.337C453.557 716.882 453.029 717.313 452.418 717.587Z" fill="black"/>
<path opacity="0.25" d="M292.697 738.767L276.957 660.067C276.872 659.605 276.832 659.136 276.837 658.667C276.837 660.187 276.837 679.827 276.837 680.787C276.842 681.19 276.882 681.591 276.957 681.987L292.697 760.687C292.791 761.154 292.953 761.606 293.177 762.027V740.027C292.961 739.63 292.8 739.206 292.697 738.767Z" fill="black"/>
<path opacity="0.35" d="M325.558 758.907C323.662 758.952 321.788 758.504 320.118 757.607L298.758 745.267C296.417 744.134 294.472 742.322 293.178 740.067V762.067C294.478 764.317 296.421 766.128 298.758 767.267L320.118 779.607C321.79 780.497 323.664 780.938 325.558 780.887C325.764 780.907 325.972 780.907 326.178 780.887V758.907C325.972 758.936 325.763 758.936 325.558 758.907Z" fill="black"/>
<path opacity="0.2" d="M331.098 757.627C329.618 758.449 327.951 758.876 326.258 758.867V780.867C327.948 780.857 329.611 780.431 331.098 779.627L394.538 742.907V720.907L331.098 757.627Z" fill="black"/>
<path opacity="0.35" d="M415.098 732.907L394.538 720.907V742.907L415.098 754.747C416.753 755.664 418.626 756.114 420.518 756.047V734.047C418.642 734.154 416.771 733.76 415.098 732.907Z" fill="black"/>
<path d="M425.998 732.907C424.304 733.749 422.439 734.187 420.548 734.187C418.657 734.187 416.791 733.749 415.098 732.907L394.538 720.907L331.098 757.627C329.404 758.469 327.539 758.907 325.648 758.907C323.757 758.907 321.891 758.469 320.198 757.627L298.838 745.287C295.344 743.273 293.344 741.1 292.838 738.767L277.118 660.067C276.797 658.852 276.94 657.562 277.518 656.447C278.435 655.27 279.603 654.313 280.938 653.647L311.398 636.067C313.088 635.225 314.95 634.787 316.838 634.787C318.726 634.787 320.588 635.225 322.278 636.067L399.718 680.787L417.058 670.787C418.751 669.945 420.617 669.507 422.508 669.507C424.399 669.507 426.264 669.945 427.958 670.787L449.098 683.107C449.75 683.337 450.314 683.763 450.714 684.327C451.113 684.891 451.327 685.566 451.327 686.257C451.327 686.948 451.113 687.622 450.714 688.186C450.314 688.751 449.75 689.177 449.098 689.407L431.758 699.407L452.338 711.287C452.983 711.521 453.54 711.948 453.934 712.509C454.328 713.071 454.539 713.741 454.539 714.427C454.539 715.113 454.328 715.782 453.934 716.344C453.54 716.906 452.983 717.333 452.338 717.567L425.998 732.907ZM363.278 701.827L326.178 680.407L333.838 718.827L363.278 701.827Z" fill="#BEFFBE"/>
<path d="M594.377 620.207C594.039 626.109 591.88 631.762 588.197 636.387C583.891 642.267 576.697 648.127 566.617 653.967C557.115 659.546 546.865 663.742 536.177 666.427C526.366 668.862 516.286 670.051 506.177 669.967C496.668 669.89 487.209 668.579 478.037 666.067C469.409 663.718 461.051 660.474 453.097 656.387C447.337 653.373 441.291 650.04 434.957 646.387C428.624 642.733 422.711 639.16 417.217 635.667C410.928 631.759 405.287 626.894 400.497 621.247C396.477 616.751 394.095 611.028 393.737 605.007C393.857 608.487 393.597 623.107 393.737 627.007C394.09 633.035 396.473 638.765 400.497 643.267C405.298 648.903 410.937 653.767 417.217 657.687C422.737 661.194 428.651 664.76 434.957 668.387C441.264 672.013 447.311 675.347 453.097 678.387C461.081 682.464 469.466 685.702 478.117 688.047C487.291 690.55 496.749 691.86 506.257 691.947C516.367 692.024 526.446 690.828 536.257 688.387C546.945 685.702 557.195 681.506 566.697 675.927C576.804 670.1 583.997 664.24 588.277 658.347C592.237 653.455 594.41 647.36 594.437 641.067C594.237 637.807 594.457 625.187 594.377 620.207Z" fill="#BEFFBE"/>
<path opacity="0.35" d="M511.617 669.867C509.817 669.867 508.017 670.007 506.237 669.867C496.728 669.79 487.269 668.479 478.097 665.967C469.453 663.654 461.074 660.444 453.097 656.387C447.337 653.373 441.291 650.04 434.957 646.387C428.624 642.733 422.711 639.16 417.217 635.667C410.928 631.759 405.287 626.894 400.497 621.247C396.477 616.751 394.095 611.028 393.737 605.007C393.857 608.487 393.597 623.107 393.737 627.007C394.09 633.035 396.473 638.765 400.497 643.267C405.298 648.903 410.937 653.767 417.217 657.687C422.737 661.194 428.651 664.76 434.957 668.387C441.264 672.013 447.311 675.347 453.097 678.387C461.081 682.464 469.466 685.702 478.117 688.047C487.291 690.55 496.749 691.86 506.257 691.947C508.037 691.947 509.837 691.947 511.637 691.827L511.617 669.867Z" fill="black"/>
<path opacity="0.2" d="M594.378 620.207C594.04 626.109 591.88 631.762 588.198 636.387C583.891 642.267 576.698 648.127 566.618 653.967C557.115 659.546 546.865 663.742 536.178 666.427C528.127 668.394 519.899 669.546 511.618 669.867V691.867C519.901 691.566 528.131 690.413 536.178 688.427C546.865 685.742 557.115 681.546 566.618 675.967C576.724 670.14 583.918 664.28 588.198 658.387C592.157 653.495 594.33 647.4 594.358 641.107C594.238 637.807 594.458 625.187 594.378 620.207Z" fill="black"/>
<path d="M447.657 608.547C448.89 609.812 450.228 610.97 451.657 612.007C452.337 611.567 452.997 611.127 453.757 610.687C457.462 608.506 461.473 606.894 465.657 605.907C469.396 605.073 473.236 604.783 477.057 605.047C480.768 605.324 484.43 606.063 487.957 607.247C491.639 608.519 495.239 610.015 498.737 611.727C510.431 617.887 521.724 624.414 532.617 631.307C534.037 632.187 535.357 633.107 536.617 633.987C539.025 632.577 541.121 630.692 542.777 628.447C544.169 626.533 544.751 624.147 544.397 621.807C543.833 619.364 542.535 617.152 540.677 615.467C538.222 613.2 535.541 611.189 532.677 609.467C521.771 602.547 510.477 596.027 498.797 589.907C495.303 588.18 491.702 586.677 488.017 585.407C484.487 584.232 480.827 583.493 477.117 583.207C473.295 582.95 469.455 583.247 465.717 584.087C461.531 585.058 457.518 586.663 453.817 588.847C450.592 590.505 447.772 592.854 445.557 595.727C444.872 596.66 444.383 597.722 444.122 598.85C443.86 599.978 443.832 601.147 444.037 602.287C444.675 604.654 445.923 606.813 447.657 608.547Z" fill="#BEFFBE"/>
<path opacity="0.35" d="M447.657 608.547C448.89 609.812 450.228 610.97 451.657 612.007C452.337 611.567 452.997 611.127 453.757 610.687C457.462 608.506 461.473 606.894 465.657 605.907C469.396 605.073 473.236 604.783 477.057 605.047C480.768 605.324 484.43 606.063 487.957 607.247C491.639 608.519 495.239 610.015 498.737 611.727C510.431 617.887 521.724 624.414 532.617 631.307C534.037 632.187 535.357 633.107 536.617 633.987C539.025 632.577 541.121 630.692 542.777 628.447C544.169 626.533 544.751 624.147 544.397 621.807C543.833 619.364 542.535 617.152 540.677 615.467C538.222 613.2 535.541 611.189 532.677 609.467C521.771 602.547 510.477 596.027 498.797 589.907C495.303 588.18 491.702 586.677 488.017 585.407C484.487 584.232 480.827 583.493 477.117 583.207C473.295 582.95 469.455 583.247 465.717 584.087C461.531 585.058 457.518 586.663 453.817 588.847C450.592 590.505 447.772 592.854 445.557 595.727C444.872 596.66 444.383 597.722 444.122 598.85C443.86 599.978 443.832 601.147 444.037 602.287C444.675 604.654 445.923 606.813 447.657 608.547Z" fill="black"/>
<path d="M421.437 570.127C430.943 564.539 441.2 560.343 451.897 557.667C461.709 555.232 471.788 554.042 481.897 554.127C491.406 554.205 500.865 555.516 510.037 558.027C518.684 560.369 527.063 563.606 535.037 567.687C541.077 570.873 547.264 574.287 553.597 577.927C559.917 581.587 565.597 585.067 570.937 588.407C577.217 592.344 582.862 597.213 587.677 602.847C591.688 607.347 594.062 613.069 594.417 619.087C594.406 625.379 592.239 631.478 588.277 636.367C583.984 642.26 576.791 648.127 566.697 653.967C557.191 659.549 546.933 663.738 536.237 666.407C526.428 668.859 516.348 670.055 506.237 669.967C496.735 669.88 487.284 668.57 478.117 666.067C469.463 663.728 461.077 660.491 453.097 656.407C447.317 653.367 441.277 650.047 434.957 646.407C428.637 642.767 422.717 639.187 417.197 635.707C410.92 631.775 405.281 626.905 400.477 621.267C396.454 616.772 394.072 611.048 393.717 605.027C393.738 598.73 395.904 592.628 399.857 587.727C404.164 581.847 411.357 575.98 421.437 570.127ZM532.557 609.367C521.651 602.46 510.357 595.94 498.677 589.807C495.186 588.078 491.585 586.582 487.897 585.327C484.403 584.144 480.775 583.399 477.097 583.107C473.275 582.849 469.435 583.146 465.697 583.987C461.508 584.957 457.494 586.569 453.797 588.767C450.565 590.406 447.742 592.75 445.537 595.627C444.847 596.561 444.355 597.627 444.094 598.759C443.833 599.891 443.806 601.064 444.017 602.207C444.657 604.624 445.951 606.818 447.757 608.547C450.118 610.917 452.757 612.992 455.617 614.727C466.571 621.819 477.879 628.347 489.497 634.287C492.897 636.098 496.434 637.636 500.077 638.887C503.632 640.088 507.331 640.808 511.077 641.027C514.935 641.263 518.806 640.953 522.577 640.107C526.767 639.137 530.781 637.524 534.477 635.327C537.705 633.681 540.527 631.337 542.737 628.467C543.431 627.521 543.931 626.447 544.208 625.308C544.486 624.169 544.537 622.986 544.357 621.827C543.789 619.38 542.484 617.167 540.617 615.487C538.163 613.158 535.46 611.106 532.557 609.367Z" fill="#BEFFBE"/>
<path d="M746.977 547.507L720.557 562.747C718.872 563.604 717.008 564.051 715.117 564.051C713.227 564.051 711.363 563.604 709.677 562.747L689.097 550.907L625.557 587.607C623.887 588.502 622.012 588.943 620.117 588.887C618.217 588.941 616.336 588.5 614.657 587.607L593.297 575.247C589.804 573.247 587.804 571.073 587.297 568.727L571.557 490.027C571.521 489.561 571.521 489.093 571.557 488.627C571.557 490.147 571.557 509.787 571.557 510.747C571.53 511.153 571.53 511.561 571.557 511.967L587.297 590.667C587.837 593.007 589.857 595.167 593.297 597.187L614.657 609.527C616.334 610.427 618.215 610.875 620.117 610.827C622.013 610.877 623.889 610.429 625.557 609.527L689.097 572.907L709.657 584.787C711.347 585.629 713.21 586.067 715.097 586.067C716.985 586.067 718.848 585.629 720.537 584.787L746.957 569.547C747.581 569.274 748.118 568.835 748.51 568.277C748.901 567.72 749.132 567.066 749.177 566.387V544.387C749.127 545.057 748.896 545.701 748.508 546.251C748.121 546.8 747.592 547.234 746.977 547.507Z" fill="#BEFFBE"/>
<path d="M745.977 538.107V516.107C745.929 516.783 745.696 517.433 745.305 517.986C744.913 518.539 744.378 518.975 743.757 519.247L726.397 529.247L745.137 540.047C745.633 539.517 745.93 538.831 745.977 538.107Z" fill="#BEFFBE"/>
<path d="M625.697 535.027L638.837 542.647L657.857 531.687L620.737 510.247L625.677 535.027H625.697Z" fill="#BEFFBE"/>
<path opacity="0.35" d="M625.697 535.027L638.837 542.647L657.857 531.687L620.737 510.247L625.677 535.027H625.697Z" fill="black"/>
<path opacity="0.2" d="M745.977 538.107V516.107C745.929 516.783 745.696 517.433 745.305 517.986C744.913 518.539 744.378 518.975 743.757 519.247L726.397 529.247L745.137 540.047C745.633 539.517 745.93 538.831 745.977 538.107Z" fill="black"/>
<path opacity="0.2" d="M746.978 547.507L720.558 562.747C718.896 563.665 717.015 564.114 715.118 564.047V586.047C717.012 586.111 718.89 585.669 720.558 584.767L746.978 569.527C747.601 569.254 748.138 568.815 748.53 568.257C748.921 567.7 749.152 567.046 749.198 566.367V544.367C749.149 545.043 748.916 545.693 748.525 546.246C748.134 546.799 747.599 547.235 746.978 547.507Z" fill="black"/>
<path opacity="0.25" d="M587.257 568.687L571.517 489.987C571.481 489.521 571.481 489.053 571.517 488.587C571.517 490.107 571.517 509.747 571.517 510.707C571.49 511.113 571.49 511.521 571.517 511.927L587.257 590.627C587.362 591.088 587.53 591.532 587.757 591.947V569.947C587.537 569.55 587.369 569.127 587.257 568.687Z" fill="black"/>
<path opacity="0.35" d="M620.137 588.907C618.237 588.961 616.356 588.52 614.677 587.627L593.317 575.267C590.979 574.147 589.04 572.34 587.757 570.087V592.087C589.037 594.346 590.977 596.161 593.317 597.287L614.677 609.627C616.354 610.527 618.235 610.975 620.137 610.927C620.336 610.957 620.539 610.957 620.737 610.927V588.907C620.538 588.927 620.337 588.927 620.137 588.907Z" fill="black"/>
<path opacity="0.2" d="M625.577 587.567C624.091 588.373 622.428 588.799 620.737 588.807V610.807C622.431 610.819 624.098 610.391 625.577 609.567L689.097 572.907V550.907L625.577 587.567Z" fill="black"/>
<path opacity="0.35" d="M709.678 562.747L689.098 550.907V572.907L709.658 584.787C711.325 585.691 713.203 586.132 715.098 586.067V564.067C713.205 564.127 711.331 563.67 709.678 562.747Z" fill="black"/>
<path d="M720.557 562.747C718.868 563.589 717.005 564.027 715.117 564.027C713.229 564.027 711.367 563.589 709.677 562.747L689.097 550.907L625.577 587.587C623.888 588.429 622.025 588.867 620.137 588.867C618.249 588.867 616.387 588.429 614.697 587.587L593.317 575.247C589.817 573.247 587.797 571.067 587.317 568.727L571.597 490.027C571.284 488.818 571.426 487.537 571.997 486.427C572.91 485.246 574.079 484.288 575.417 483.627L605.877 466.047C607.567 465.205 609.429 464.767 611.317 464.767C613.205 464.767 615.068 465.205 616.757 466.047L694.197 510.747L711.537 500.747C713.225 499.886 715.093 499.438 716.987 499.438C718.882 499.438 720.75 499.886 722.437 500.747L743.817 513.087C744.462 513.321 745.02 513.748 745.414 514.309C745.808 514.871 746.019 515.541 746.019 516.227C746.019 516.913 745.808 517.582 745.414 518.144C745.02 518.706 744.462 519.133 743.817 519.367L726.477 529.367L747.037 541.227C747.689 541.457 748.254 541.883 748.653 542.447C749.053 543.011 749.267 543.686 749.267 544.377C749.267 545.068 749.053 545.742 748.653 546.306C748.254 546.871 747.689 547.297 747.037 547.527L720.557 562.747ZM657.837 531.667L620.737 510.247L628.397 548.667L657.837 531.667Z" fill="#BEFFBE"/>
<path d="M583.857 733.227C584.367 732.954 584.94 732.823 585.517 732.847C586.094 732.825 586.667 732.956 587.177 733.227L593.677 737.007C593.877 737.073 594.052 737.2 594.175 737.37C594.299 737.541 594.365 737.746 594.365 737.957C594.365 738.167 594.299 738.373 594.175 738.543C594.052 738.714 593.877 738.841 593.677 738.907L564.557 755.727C564.049 756.004 563.476 756.142 562.897 756.127C562.318 756.144 561.745 756.006 561.237 755.727L521.537 732.907C521.306 732.86 521.098 732.735 520.949 732.553C520.8 732.371 520.718 732.142 520.718 731.907C520.718 731.671 520.8 731.443 520.949 731.261C521.098 731.078 521.306 730.953 521.537 730.907L550.177 714.387C550.685 714.107 551.258 713.969 551.837 713.987C552.416 713.974 552.988 714.112 553.497 714.387L559.997 718.147C560.197 718.213 560.372 718.34 560.495 718.51C560.619 718.681 560.685 718.886 560.685 719.097C560.685 719.307 560.619 719.513 560.495 719.683C560.372 719.854 560.197 719.981 559.997 720.047L541.097 730.907L547.737 734.727L565.317 724.587C565.827 724.314 566.4 724.183 566.977 724.207C567.554 724.188 568.126 724.319 568.637 724.587L575.137 728.347C575.368 728.393 575.576 728.518 575.725 728.701C575.875 728.883 575.956 729.111 575.956 729.347C575.956 729.582 575.875 729.811 575.725 729.993C575.576 730.175 575.368 730.3 575.137 730.347L557.557 740.487L564.457 744.487L583.857 733.227Z" fill="#475464"/>
<path d="M593.558 702.087C594.067 701.812 594.639 701.674 595.218 701.687C595.797 701.669 596.37 701.807 596.878 702.087L603.098 705.667C603.329 705.713 603.536 705.838 603.686 706.021C603.835 706.203 603.917 706.431 603.917 706.667C603.917 706.902 603.835 707.131 603.686 707.313C603.536 707.495 603.329 707.62 603.098 707.667L597.498 710.907C593.738 713.093 593.738 715.273 597.498 717.447L612.618 726.167C612.849 726.213 613.056 726.338 613.206 726.521C613.355 726.703 613.437 726.931 613.437 727.167C613.437 727.402 613.355 727.631 613.206 727.813C613.056 727.995 612.849 728.12 612.618 728.167L604.878 732.627C604.369 732.904 603.797 733.042 603.218 733.027C602.639 733.044 602.065 732.906 601.558 732.627L572.918 716.107C572.687 716.06 572.479 715.935 572.33 715.753C572.18 715.571 572.099 715.342 572.099 715.107C572.099 714.871 572.18 714.643 572.33 714.461C572.479 714.278 572.687 714.153 572.918 714.107L580.038 709.987C580.546 709.709 581.119 709.571 581.698 709.587C582.277 709.569 582.85 709.707 583.358 709.987L584.778 710.807C584.858 709.628 585.274 708.496 585.978 707.547C587.029 706.198 588.359 705.093 589.878 704.307L593.558 702.087Z" fill="#475464"/>
<path d="M623.317 684.907C623.825 684.627 624.398 684.489 624.977 684.507C625.556 684.491 626.129 684.629 626.637 684.907L632.837 688.487C633.068 688.533 633.276 688.658 633.425 688.841C633.575 689.023 633.656 689.251 633.656 689.487C633.656 689.722 633.575 689.951 633.425 690.133C633.276 690.315 633.068 690.44 632.837 690.487L627.237 693.707C623.477 695.88 623.477 698.06 627.237 700.247L642.357 708.967C642.588 709.013 642.796 709.138 642.945 709.321C643.095 709.503 643.176 709.731 643.176 709.967C643.176 710.202 643.095 710.431 642.945 710.613C642.796 710.795 642.588 710.92 642.357 710.967L634.617 715.447C634.108 715.719 633.535 715.85 632.957 715.827C632.38 715.846 631.809 715.715 631.297 715.447L602.657 698.907C602.426 698.86 602.219 698.735 602.069 698.553C601.92 698.371 601.838 698.142 601.838 697.907C601.838 697.671 601.92 697.443 602.069 697.261C602.219 697.078 602.426 696.953 602.657 696.907L609.797 692.787C610.307 692.514 610.88 692.383 611.457 692.407C612.034 692.388 612.606 692.519 613.117 692.787L614.517 693.607C614.598 692.434 615.014 691.309 615.717 690.367C616.772 689.017 618.102 687.906 619.617 687.107L623.317 684.907Z" fill="#475464"/>
<path d="M676.177 670.147C676.817 670.467 677.637 670.907 678.597 671.467C679.557 672.027 680.337 672.487 680.897 672.867C682.583 673.857 684.014 675.226 685.077 676.867C685.951 678.219 686.352 679.823 686.217 681.427C685.992 683.191 685.247 684.848 684.077 686.187C682.468 688.038 680.537 689.583 678.377 690.747C675.9 692.183 673.244 693.286 670.477 694.027C667.795 694.758 665.036 695.175 662.257 695.267C659.607 695.354 656.956 695.132 654.357 694.607C651.961 694.138 649.645 693.33 647.477 692.207C646.817 691.867 645.997 691.427 645.037 690.867C644.077 690.307 643.317 689.847 642.737 689.467C641.024 688.492 639.57 687.12 638.497 685.467C637.617 684.111 637.229 682.494 637.397 680.887C637.639 679.122 638.382 677.463 639.537 676.107C641.12 674.238 643.04 672.685 645.197 671.527C647.703 670.075 650.394 668.972 653.197 668.247C655.911 667.536 658.694 667.12 661.497 667.007C664.147 666.919 666.799 667.14 669.397 667.667C671.762 668.174 674.044 669.009 676.177 670.147ZM658.177 685.607C659.836 686.443 661.682 686.836 663.537 686.747C665.396 686.686 667.211 686.164 668.817 685.227C670.457 684.28 671.337 683.26 671.457 682.167C671.577 681.087 670.937 680.047 669.457 679.087C668.818 678.619 668.15 678.192 667.457 677.807C666.697 677.367 665.957 676.987 665.257 676.667C663.589 675.849 661.744 675.457 659.887 675.527C658.03 675.597 656.22 676.126 654.617 677.067C652.977 678.007 652.097 679.067 651.977 680.107C651.857 681.147 652.517 682.227 653.977 683.207C655.285 684.148 656.685 684.953 658.157 685.607H658.177Z" fill="#475464"/>
<path d="M692.158 645.167C692.665 644.887 693.239 644.749 693.818 644.767C694.397 644.751 694.969 644.889 695.478 645.167L701.678 648.747C701.909 648.793 702.117 648.918 702.266 649.101C702.415 649.283 702.497 649.511 702.497 649.747C702.497 649.982 702.415 650.211 702.266 650.393C702.117 650.575 701.909 650.7 701.678 650.747L696.078 653.967C692.318 656.14 692.318 658.32 696.078 660.507L711.198 669.227C711.429 669.273 711.637 669.398 711.786 669.581C711.935 669.763 712.017 669.991 712.017 670.227C712.017 670.462 711.935 670.691 711.786 670.873C711.637 671.055 711.429 671.18 711.198 671.227L703.458 675.687C702.95 675.966 702.377 676.104 701.798 676.087C701.219 676.1 700.647 675.962 700.138 675.687L671.498 659.167C671.267 659.12 671.059 658.995 670.91 658.813C670.76 658.631 670.679 658.402 670.679 658.167C670.679 657.931 670.76 657.703 670.91 657.521C671.059 657.338 671.267 657.213 671.498 657.167L678.638 653.047C679.145 652.767 679.719 652.629 680.298 652.647C680.876 652.634 681.448 652.772 681.958 653.047L683.358 653.867C683.438 652.688 683.854 651.556 684.558 650.607C685.609 649.258 686.939 648.153 688.458 647.367L692.158 645.167Z" fill="#475464"/>
<path d="M268.278 463.627C259.838 463.287 256.118 464.127 257.418 473.047C258.718 481.967 259.118 488.847 259.118 488.847C259.118 488.847 274.138 489.287 281.118 485.387C288.098 481.487 280.958 464.127 268.278 463.627Z" fill="#BEFFBE"/>
<path opacity="0.5" d="M268.278 463.627C259.838 463.287 256.118 464.127 257.418 473.047C258.718 481.967 259.118 488.847 259.118 488.847C259.118 488.847 274.138 489.287 281.118 485.387C288.098 481.487 280.958 464.127 268.278 463.627Z" fill="black"/>
<path d="M269.618 501.947C269.068 501.943 268.519 501.89 267.978 501.787C265.765 501.347 263.816 500.047 262.56 498.172C261.304 496.298 260.843 494.001 261.278 491.787C263.458 480.707 265.618 472.147 267.538 464.607C270.439 454.113 272.545 443.417 273.838 432.607C275.432 415.825 271.814 398.959 263.478 384.307C262.91 383.348 262.535 382.287 262.377 381.184C262.218 380.08 262.279 378.957 262.555 377.877C262.83 376.797 263.316 375.782 263.984 374.89C264.652 373.997 265.49 373.245 266.448 372.677C267.407 372.108 268.468 371.734 269.571 371.575C270.675 371.417 271.798 371.477 272.878 371.753C273.958 372.029 274.973 372.515 275.865 373.183C276.758 373.851 277.51 374.688 278.078 375.647C288.314 393.452 292.733 414.009 290.718 434.447C289.357 446.028 287.11 457.489 283.998 468.727C282.158 476.067 279.998 484.387 277.998 495.027C277.629 496.977 276.589 498.737 275.059 500.001C273.528 501.265 271.603 501.953 269.618 501.947Z" fill="#475464"/>
<path d="M249.298 513.427C248.902 515.063 248.902 516.77 249.298 518.407C250.478 520.607 257.018 523.307 260.458 524.727C265.213 526.558 269.091 530.134 271.298 534.727C275.138 541.747 282.138 546.487 289.958 549.467C300.454 553.155 311.823 553.567 322.558 550.647C335.938 547.307 336.558 539.247 336.558 539.247C336.558 539.247 336.758 531.687 333.318 530.727C329.878 529.767 249.298 513.427 249.298 513.427Z" fill="#475464"/>
<path d="M254.698 485.347C254.317 487.727 253.776 490.079 253.078 492.387C251.078 498.727 247.978 505.267 249.298 513.427C251.498 517.427 256.098 518.827 259.538 520.347C264.158 522.347 267.538 523.767 270.798 527.767C276.798 534.947 282.418 544.027 300.378 546.367C318.338 548.707 331.418 542.167 334.378 536.887C337.338 531.607 334.018 527.067 322.238 521.707C316.238 518.967 302.618 507.707 301.058 506.267C299.614 504.798 298.327 503.182 297.218 501.447C294.742 497.855 293.102 493.755 292.418 489.447C291.89 484.888 292.113 480.274 293.078 475.787C293.278 474.747 293.798 473.667 293.358 472.727C292.218 470.207 288.278 470.867 286.098 471.047C282.837 471.381 279.603 471.935 276.418 472.707C275.361 472.831 274.362 473.254 273.538 473.927C272.882 474.72 272.447 475.672 272.278 476.687C271.858 478.187 271.418 479.687 270.938 481.147C270.831 481.678 270.621 482.183 270.319 482.632C270.017 483.082 269.629 483.467 269.178 483.767C268.676 483.961 268.127 483.996 267.604 483.868C267.082 483.739 266.612 483.452 266.258 483.047C265.575 482.224 265.187 481.196 265.158 480.127C265.158 479.047 265.158 477.987 265.278 476.927C265.392 475.904 265.19 474.871 264.698 473.967C263.518 472.107 260.538 471.807 259.778 469.747C259.614 469.18 259.611 468.578 259.77 468.009C259.929 467.44 260.243 466.927 260.678 466.527C261.586 465.76 262.712 465.298 263.898 465.207C265.063 465.126 266.232 465.126 267.398 465.207L268.038 462.727C265.267 462.32 262.438 462.68 259.858 463.767C258.23 464.455 256.903 465.704 256.118 467.287C255.417 469.26 255.313 471.395 255.818 473.427C256.318 478.107 255.458 480.667 254.698 485.347Z" fill="#BEFFBE"/>
<path opacity="0.35" d="M254.698 485.347C254.317 487.727 253.776 490.079 253.078 492.387C251.078 498.727 247.978 505.267 249.298 513.427C251.498 517.427 256.098 518.827 259.538 520.347C264.158 522.347 267.538 523.767 270.798 527.767C276.798 534.947 282.418 544.027 300.378 546.367C318.338 548.707 331.418 542.167 334.378 536.887C337.338 531.607 334.018 527.067 322.238 521.707C316.238 518.967 302.618 507.707 301.058 506.267C299.614 504.798 298.327 503.182 297.218 501.447C294.742 497.855 293.102 493.755 292.418 489.447C291.89 484.888 292.113 480.274 293.078 475.787C293.278 474.747 293.798 473.667 293.358 472.727C292.218 470.207 288.278 470.867 286.098 471.047C282.837 471.381 279.603 471.935 276.418 472.707C275.361 472.831 274.362 473.254 273.538 473.927C272.882 474.72 272.447 475.672 272.278 476.687C271.858 478.187 271.418 479.687 270.938 481.147C270.831 481.678 270.621 482.183 270.319 482.632C270.017 483.082 269.629 483.467 269.178 483.767C268.676 483.961 268.127 483.996 267.604 483.868C267.082 483.739 266.612 483.452 266.258 483.047C265.575 482.224 265.187 481.196 265.158 480.127C265.158 479.047 265.158 477.987 265.278 476.927C265.392 475.904 265.19 474.871 264.698 473.967C263.518 472.107 260.538 471.807 259.778 469.747C259.614 469.18 259.611 468.578 259.77 468.009C259.929 467.44 260.243 466.927 260.678 466.527C261.586 465.76 262.712 465.298 263.898 465.207C265.063 465.126 266.232 465.126 267.398 465.207L268.038 462.727C265.267 462.32 262.438 462.68 259.858 463.767C258.23 464.455 256.903 465.704 256.118 467.287C255.417 469.26 255.313 471.395 255.818 473.427C256.318 478.107 255.458 480.667 254.698 485.347Z" fill="black"/>
<path d="M288.458 543.247C288.442 539.072 289.547 534.968 291.658 531.366C293.768 527.763 296.808 524.794 300.458 522.767C313.358 515.047 321.778 518.907 326.078 521.567C331.178 524.747 338.638 531.567 334.758 537.207C330.578 543.207 323.438 546.467 309.818 547.547C296.198 548.627 288.458 543.247 288.458 543.247Z" fill="#FAFAFA" fill-opacity="0.7"/>
<path d="M270.658 496.907C270.895 496.933 271.136 496.901 271.359 496.814C271.582 496.727 271.781 496.587 271.938 496.407C273.718 494.507 284.538 487.967 292.718 491.327C292.918 491.027 293.258 489.027 292.278 488.407C288.299 487.523 284.167 487.607 280.227 488.651C276.288 489.695 272.656 491.669 269.638 494.407C269.396 494.693 269.276 495.062 269.302 495.435C269.328 495.809 269.499 496.157 269.778 496.407C270.012 496.661 270.319 496.836 270.658 496.907Z" fill="#FAFAFA" fill-opacity="0.7"/>
<path d="M296.158 499.887C296.159 499.314 296.043 498.746 295.816 498.22C295.589 497.693 295.256 497.219 294.838 496.827C285.518 495.507 276.158 501.367 274.098 503.587C273.859 503.876 273.742 504.246 273.772 504.619C273.802 504.993 273.976 505.34 274.258 505.587C274.504 505.8 274.813 505.927 275.138 505.947C275.374 505.972 275.613 505.942 275.835 505.859C276.057 505.776 276.257 505.641 276.418 505.467C278.138 503.687 288.798 497.507 296.158 499.887Z" fill="#FAFAFA" fill-opacity="0.7"/>
<path d="M310.258 513.747C310.118 512.787 308.258 511.347 306.678 510.947C296.378 510.247 287.678 518.087 285.978 520.687C285.873 520.848 285.803 521.029 285.77 521.219C285.738 521.409 285.744 521.603 285.789 521.79C285.834 521.977 285.917 522.153 286.031 522.307C286.146 522.461 286.291 522.59 286.458 522.687C286.741 522.855 287.069 522.932 287.398 522.907C287.633 522.889 287.861 522.818 288.065 522.7C288.269 522.583 288.444 522.421 288.578 522.227C290.098 519.927 300.498 511.147 310.258 513.747Z" fill="#FAFAFA" fill-opacity="0.7"/>
<path d="M280.497 514.907C280.733 514.896 280.964 514.835 281.174 514.728C281.385 514.622 281.57 514.471 281.717 514.287C283.217 512.187 292.257 504.287 301.557 506.667C301.557 505.847 299.917 504.227 299.077 504.007C289.857 503.167 280.937 510.147 279.077 512.607C278.863 512.923 278.782 513.31 278.853 513.686C278.925 514.061 279.142 514.392 279.457 514.607C279.76 514.822 280.127 514.927 280.497 514.907Z" fill="#FAFAFA" fill-opacity="0.7"/>
<path d="M174.418 493.127C166.018 492.447 162.238 493.127 163.178 502.087C164.118 511.047 164.218 517.947 164.218 517.947C164.218 517.947 179.198 519.007 186.338 515.407C193.478 511.807 187.098 494.167 174.418 493.127Z" fill="#BEFFBE"/>
<path opacity="0.5" d="M174.418 493.127C166.018 492.447 162.238 493.127 163.178 502.087C164.118 511.047 164.218 517.947 164.218 517.947C164.218 517.947 179.198 519.007 186.338 515.407C193.478 511.807 187.098 494.167 174.418 493.127Z" fill="black"/>
<path d="M174.158 531.467C173.606 531.443 173.057 531.369 172.518 531.247C171.432 530.986 170.408 530.514 169.505 529.857C168.603 529.2 167.838 528.371 167.257 527.417C166.675 526.464 166.287 525.405 166.116 524.302C165.945 523.198 165.993 522.072 166.258 520.987C168.898 510.007 171.418 501.567 173.638 494.087C176.986 483.743 179.54 473.159 181.278 462.427C183.573 445.731 180.668 428.733 172.958 413.747C172.065 411.781 171.953 409.548 172.646 407.503C173.338 405.457 174.784 403.752 176.688 402.734C178.592 401.716 180.813 401.46 182.899 402.02C184.985 402.579 186.779 403.912 187.918 405.747C197.358 423.936 200.909 444.61 198.078 464.907C196.233 476.432 193.505 487.799 189.918 498.907C187.758 506.167 185.318 514.387 182.778 524.907C182.329 526.832 181.222 528.54 179.649 529.738C178.075 530.935 176.134 531.547 174.158 531.467Z" fill="#475464"/>
<path d="M153.378 542.087C152.888 543.701 152.799 545.41 153.118 547.067C154.198 549.307 160.598 552.287 163.978 553.847C168.661 555.895 172.383 559.66 174.378 564.367C177.938 571.527 184.738 576.567 192.378 579.867C202.71 583.99 214.051 584.876 224.898 582.407C238.398 579.647 239.298 571.607 239.298 571.607C239.298 571.607 239.818 564.067 236.418 562.967C233.018 561.867 153.378 542.087 153.378 542.087Z" fill="#475464"/>
<path d="M159.938 514.267C159.422 516.628 158.754 518.952 157.938 521.227C155.738 527.487 152.298 533.867 153.278 542.087C155.278 546.087 159.818 547.767 163.278 549.447C167.818 551.687 171.078 553.187 174.218 557.327C179.858 564.747 185.138 574.067 202.998 577.147C220.858 580.227 234.198 574.247 237.358 569.147C240.518 564.047 237.358 559.327 225.858 553.467C219.998 550.487 206.838 538.707 205.338 537.167C201.072 532.338 198.294 526.379 197.338 520.007C197.005 515.431 197.417 510.831 198.558 506.387C198.818 505.367 199.378 504.387 198.978 503.327C197.938 500.767 193.978 501.327 191.798 501.327C188.526 501.516 185.271 501.937 182.058 502.587C180.994 502.667 179.974 503.048 179.118 503.687C178.435 504.454 177.959 505.383 177.738 506.387C177.278 507.867 176.778 509.347 176.218 510.807C175.956 511.86 175.287 512.766 174.358 513.327C173.852 513.501 173.304 513.515 172.789 513.369C172.274 513.222 171.817 512.921 171.478 512.507C170.818 511.656 170.472 510.603 170.498 509.527C170.524 508.456 170.611 507.388 170.758 506.327C170.902 505.31 170.742 504.273 170.298 503.347C169.198 501.447 166.298 501.027 165.558 498.927C165.408 498.356 165.427 497.754 165.611 497.193C165.796 496.632 166.138 496.137 166.598 495.767C167.521 495.018 168.67 494.602 169.858 494.587C171.03 494.508 172.206 494.508 173.378 494.587L174.098 492.147C171.347 491.625 168.506 491.86 165.878 492.827C164.222 493.453 162.845 494.652 161.998 496.207C161.224 498.143 161.03 500.262 161.438 502.307C161.858 507.107 160.898 509.607 159.938 514.267Z" fill="#BEFFBE"/>
<path opacity="0.35" d="M159.938 514.267C159.422 516.628 158.754 518.952 157.938 521.227C155.738 527.487 152.298 533.867 153.278 542.087C155.278 546.087 159.818 547.767 163.278 549.447C167.818 551.687 171.078 553.187 174.218 557.327C179.858 564.747 185.138 574.067 202.998 577.147C220.858 580.227 234.198 574.247 237.358 569.147C240.518 564.047 237.358 559.327 225.858 553.467C219.998 550.487 206.838 538.707 205.338 537.167C201.072 532.338 198.294 526.379 197.338 520.007C197.005 515.431 197.417 510.831 198.558 506.387C198.818 505.367 199.378 504.387 198.978 503.327C197.938 500.767 193.978 501.327 191.798 501.327C188.526 501.516 185.271 501.937 182.058 502.587C180.994 502.667 179.974 503.048 179.118 503.687C178.435 504.454 177.959 505.383 177.738 506.387C177.278 507.867 176.778 509.347 176.218 510.807C175.956 511.86 175.287 512.766 174.358 513.327C173.852 513.501 173.304 513.515 172.789 513.369C172.274 513.222 171.817 512.921 171.478 512.507C170.818 511.656 170.472 510.603 170.498 509.527C170.524 508.456 170.611 507.388 170.758 506.327C170.902 505.31 170.742 504.273 170.298 503.347C169.198 501.447 166.298 501.027 165.558 498.927C165.408 498.356 165.427 497.754 165.611 497.193C165.796 496.632 166.138 496.137 166.598 495.767C167.521 495.018 168.67 494.602 169.858 494.587C171.03 494.508 172.206 494.508 173.378 494.587L174.098 492.147C171.347 491.625 168.506 491.86 165.878 492.827C164.222 493.453 162.845 494.652 161.998 496.207C161.224 498.143 161.03 500.262 161.438 502.307C161.858 507.107 160.898 509.607 159.938 514.267Z" fill="black"/>
<path d="M191.238 573.527C191.389 569.348 192.66 565.287 194.919 561.768C197.178 558.25 200.342 555.403 204.078 553.527C217.298 546.347 225.558 550.547 229.738 553.407C234.698 556.787 241.858 563.947 237.738 569.407C233.298 575.267 226.038 578.187 212.378 578.687C198.718 579.187 191.238 573.527 191.238 573.527Z" fill="#FAFAFA" fill-opacity="0.7"/>
<path d="M175.418 526.387C175.653 526.423 175.892 526.404 176.118 526.331C176.344 526.258 176.549 526.133 176.718 525.967C178.558 524.127 189.638 517.967 197.678 521.767C197.898 521.447 198.318 519.487 197.358 518.827C193.416 517.781 189.281 517.696 185.299 518.58C181.318 519.464 177.607 521.291 174.478 523.907C174.214 524.173 174.066 524.532 174.066 524.907C174.066 525.281 174.214 525.641 174.478 525.907C174.725 526.173 175.058 526.343 175.418 526.387Z" fill="#FAFAFA" fill-opacity="0.7"/>
<path d="M200.758 530.547C200.795 529.971 200.707 529.394 200.499 528.855C200.292 528.317 199.971 527.83 199.558 527.427C190.318 525.707 180.718 531.167 178.578 533.307C178.314 533.573 178.166 533.932 178.166 534.307C178.166 534.681 178.314 535.041 178.578 535.307C178.871 535.581 179.257 535.734 179.658 535.734C180.059 535.734 180.445 535.581 180.738 535.307C182.598 533.567 193.498 527.847 200.758 530.547Z" fill="#FAFAFA" fill-opacity="0.7"/>
<path d="M214.258 544.907C214.258 543.947 212.258 542.427 210.798 541.967C200.538 540.827 191.518 548.307 189.698 550.827C189.591 550.985 189.517 551.162 189.48 551.35C189.443 551.537 189.444 551.729 189.483 551.916C189.523 552.103 189.599 552.279 189.708 552.436C189.817 552.592 189.957 552.725 190.118 552.827C190.389 553.009 190.712 553.1 191.038 553.087C191.276 553.076 191.509 553.014 191.72 552.903C191.93 552.792 192.114 552.637 192.258 552.447C193.858 550.307 204.618 541.967 214.258 544.907Z" fill="#FAFAFA" fill-opacity="0.7"/>
<path d="M184.458 544.907C184.697 544.908 184.934 544.857 185.152 544.757C185.37 544.656 185.563 544.51 185.718 544.327C187.318 542.327 196.658 534.767 205.858 537.547C205.958 536.727 204.318 535.067 203.498 534.787C194.318 533.567 185.118 540.167 183.258 542.547C183.145 542.697 183.063 542.869 183.017 543.051C182.971 543.234 182.961 543.424 182.989 543.61C183.017 543.796 183.082 543.974 183.179 544.135C183.277 544.296 183.406 544.436 183.558 544.547C183.81 544.762 184.126 544.888 184.458 544.907Z" fill="#FAFAFA" fill-opacity="0.7"/>
<path d="M391.218 345.707C383.098 345.707 372.978 342.847 361.738 335.187C360.412 334.277 359.502 332.878 359.207 331.297C358.913 329.716 359.259 328.083 360.168 326.757C361.078 325.431 362.477 324.52 364.058 324.226C365.639 323.931 367.272 324.277 368.598 325.187C383.718 335.507 394.598 334.307 398.598 331.967C399.553 331.228 400.341 330.295 400.909 329.23C401.478 328.165 401.815 326.991 401.898 325.787C402.858 319.787 400.898 310.147 392.538 300.707C374.858 280.707 352.678 270.487 318.358 266.387C316.767 266.196 315.317 265.381 314.326 264.12C313.336 262.86 312.887 261.258 313.078 259.667C313.269 258.076 314.084 256.625 315.345 255.635C316.605 254.645 318.207 254.196 319.798 254.387C356.838 258.787 382.058 270.607 401.618 292.707C411.098 303.407 415.618 316.507 413.898 327.747C413.571 330.732 412.576 333.606 410.987 336.154C409.398 338.702 407.255 340.86 404.718 342.467C400.587 344.73 395.926 345.849 391.218 345.707Z" fill="#475464"/>
<path d="M314.458 190.067C323.638 181.407 331.738 155.967 327.558 129.247C323.378 102.527 298.698 77.5468 288.858 72.1268C279.018 66.7068 272.098 73.7068 274.858 83.6868C278.498 97.2268 283.038 127.687 257.738 141.147C260.553 154.168 266.26 166.39 274.438 176.907C287.478 192.647 314.458 190.067 314.458 190.067Z" fill="#BEFFBE"/>
<path opacity="0.75" d="M314.458 190.067C323.638 181.407 331.738 155.967 327.558 129.247C323.378 102.527 298.698 77.5468 288.858 72.1268C279.018 66.7068 272.098 73.7068 274.858 83.6868C278.498 97.2268 283.038 127.687 257.738 141.147C260.553 154.168 266.26 166.39 274.438 176.907C287.478 192.647 314.458 190.067 314.458 190.067Z" fill="white" fill-opacity="0.7"/>
<path d="M280.138 88.9068C277.942 88.9147 275.757 88.5911 273.658 87.9468C273.349 87.8458 273.093 87.628 272.943 87.3401C272.794 87.0522 272.763 86.7171 272.858 86.4068C272.907 86.2544 272.987 86.1134 273.091 85.9917C273.196 85.87 273.323 85.7701 273.466 85.6976C273.609 85.6252 273.765 85.5816 273.925 85.5695C274.085 85.5573 274.245 85.5768 274.398 85.6268C282.398 88.1668 293.098 85.2068 295.798 76.8868C295.846 76.7358 295.924 76.5958 296.027 76.4749C296.129 76.354 296.255 76.2544 296.396 76.182C296.537 76.1096 296.691 76.0657 296.849 76.0528C297.007 76.0399 297.167 76.0582 297.318 76.1068C297.469 76.1554 297.609 76.2333 297.73 76.336C297.85 76.4386 297.95 76.5641 298.022 76.7053C298.095 76.8464 298.139 77.0005 298.152 77.1586C298.165 77.3167 298.146 77.4758 298.098 77.6268C295.678 85.1268 287.778 88.9068 280.138 88.9068Z" fill="#BEFFBE"/>
<path d="M289.238 105.727C284.533 105.699 279.921 104.414 275.878 102.007C275.616 101.838 275.429 101.576 275.354 101.273C275.279 100.971 275.323 100.651 275.477 100.38C275.63 100.109 275.882 99.9067 276.179 99.815C276.477 99.7233 276.799 99.749 277.078 99.8868C279.749 101.51 282.716 102.585 285.806 103.049C288.897 103.512 292.049 103.355 295.078 102.587C306.118 99.9268 308.478 93.4668 308.978 90.8068C308.988 90.6338 309.034 90.4648 309.114 90.3112C309.194 90.1575 309.306 90.0227 309.442 89.9156C309.578 89.8085 309.736 89.7317 309.904 89.6902C310.072 89.6488 310.248 89.6436 310.418 89.6751C310.588 89.7066 310.75 89.774 310.892 89.8729C311.035 89.9718 311.154 90.0998 311.243 90.2485C311.332 90.3972 311.388 90.5631 311.408 90.7353C311.428 90.9074 311.411 91.0818 311.358 91.2468C310.758 94.3668 308.058 101.947 295.638 104.947C293.542 105.452 291.394 105.714 289.238 105.727Z" fill="#BEFFBE"/>
<path d="M301.798 126.767C296.743 126.827 291.73 125.846 287.072 123.885C282.413 121.924 278.207 119.024 274.718 115.367C274.491 115.138 274.363 114.829 274.363 114.507C274.363 114.185 274.491 113.875 274.718 113.647C274.83 113.532 274.963 113.441 275.111 113.378C275.259 113.316 275.418 113.284 275.578 113.284C275.738 113.284 275.897 113.316 276.045 113.378C276.192 113.441 276.326 113.532 276.438 113.647C279.699 117.066 283.631 119.775 287.988 121.603C292.345 123.43 297.033 124.337 301.758 124.267C317.358 124.267 321.978 116.947 323.958 113.827C324.042 113.69 324.152 113.571 324.282 113.477C324.413 113.383 324.561 113.317 324.718 113.281C324.874 113.246 325.036 113.242 325.195 113.271C325.353 113.299 325.503 113.359 325.638 113.447C325.911 113.62 326.104 113.893 326.175 114.208C326.246 114.523 326.19 114.853 326.018 115.127C324.038 118.347 318.718 126.767 301.798 126.767Z" fill="#BEFFBE"/>
<path d="M308.158 151.167C303.345 151.169 298.563 150.392 293.998 148.867C282.518 144.987 274.218 138.327 269.358 129.087C269.248 128.808 269.244 128.498 269.347 128.217C269.451 127.935 269.654 127.701 269.919 127.56C270.184 127.419 270.491 127.381 270.782 127.452C271.074 127.523 271.329 127.7 271.498 127.947C276.138 136.767 283.738 142.847 294.778 146.567C309.978 151.687 324.498 146.567 328.558 142.847C328.8 142.675 329.097 142.597 329.392 142.628C329.687 142.659 329.961 142.797 330.162 143.015C330.363 143.233 330.478 143.517 330.484 143.814C330.491 144.111 330.389 144.4 330.198 144.627C327.098 147.567 318.578 151.167 308.158 151.167Z" fill="#BEFFBE"/>
<path opacity="0.1" d="M277.478 168.367C299.258 143.507 290.838 104.367 285.478 93.0868C277.938 77.2868 281.138 70.3468 287.738 71.5868C278.518 67.3068 272.218 74.1068 274.778 83.5868C278.418 97.1268 282.958 127.587 257.658 141.047C260.242 152.756 265.123 163.837 272.018 173.647C273.976 172.035 275.802 170.27 277.478 168.367Z" fill="black"/>
<path d="M334.457 337.607C327.057 319.607 323.377 269.787 324.897 237.067C329.857 236.027 335.918 229.267 333.478 220.527C331.278 212.667 329.137 211.627 322.497 203.147C317.777 197.147 314.498 189.147 310.258 182.587C295.698 160.307 277.197 145.447 249.957 139.027C248.85 138.763 247.807 138.277 246.893 137.599C245.978 136.921 245.211 136.064 244.637 135.08C244.063 134.097 243.694 133.007 243.554 131.878C243.413 130.748 243.503 129.601 243.818 128.507C245.558 122.507 247.037 114.667 245.217 108.907C241.837 98.2668 235.117 97.1868 230.677 99.1668C226.237 101.147 225.898 105.547 227.238 112.687C228.578 119.827 226.478 121.087 224.098 120.327C221.718 119.567 219.938 106.567 203.318 100.467C186.698 94.3668 175.478 102.467 175.758 109.227C176.058 116.727 181.498 117.227 193.038 118.547C198.048 119.019 202.764 121.128 206.458 124.547C207.498 125.637 208.229 126.986 208.573 128.454C208.918 129.921 208.864 131.454 208.418 132.894C207.971 134.334 207.148 135.628 206.033 136.643C204.918 137.658 203.553 138.357 202.077 138.667C159.818 148.047 127.098 183.267 117.718 230.787C116.191 239.323 115.202 247.947 114.758 256.607C111.813 251.604 107.035 247.945 101.438 246.407C93.2775 244.407 90.0375 248.307 90.1575 251.947C90.2775 255.587 94.7975 257.327 99.3775 259.227C106.718 262.267 107.918 265.087 107.918 265.087C104.095 264.5 100.187 264.892 96.5575 266.227C91.5375 268.447 90.2175 273.867 95.0775 275.947C97.7775 277.087 101.918 275.027 106.178 273.947C108.858 273.327 113.818 272.327 114.178 275.547C114.178 283.087 114.178 290.947 114.358 299.047C114.978 321.867 118.978 337.487 115.338 358.187C112.558 373.867 98.8375 386.187 112.618 399.207C115.127 401.548 118.165 403.249 121.473 404.165C124.781 405.081 128.261 405.184 131.618 404.467C133.819 404.067 136.09 404.535 137.955 405.773C139.819 407.011 141.132 408.922 141.618 411.107C143.158 417.607 147.857 425.527 161.137 429.107C173.377 432.347 181.137 428.627 185.997 424.087C186.791 423.291 187.738 422.666 188.782 422.249C189.826 421.832 190.943 421.632 192.066 421.662C193.19 421.692 194.295 421.951 195.315 422.423C196.335 422.895 197.248 423.57 197.997 424.407C203.097 430.507 212.558 437.047 229.658 436.967C246.758 436.887 255.358 429.467 259.658 423.147C260.831 421.33 262.655 420.029 264.755 419.513C266.856 418.996 269.075 419.301 270.957 420.367C277.437 424.207 287.877 427.287 300.957 420.367C310.617 415.207 313.118 405.947 313.358 398.367C313.394 397.198 313.676 396.049 314.186 394.996C314.695 393.943 315.421 393.009 316.315 392.254C317.209 391.5 318.252 390.942 319.375 390.617C320.499 390.291 321.679 390.206 322.837 390.367C326.672 391.158 330.658 390.763 334.262 389.234C337.867 387.705 340.921 385.114 343.018 381.807C352.158 367.887 341.097 353.827 334.457 337.607Z" fill="#BEFFBE"/>
<g opacity="0.1">
<path d="M99.3775 259.227C106.718 262.267 107.918 265.087 107.918 265.087C104.095 264.5 100.187 264.892 96.5575 266.227C91.5375 268.447 90.2175 273.867 95.0775 275.947C97.7775 277.087 101.918 275.027 106.178 273.947C108.858 273.327 113.818 272.327 114.178 275.547C114.178 283.087 114.178 290.947 114.358 299.047C114.978 321.867 118.978 337.487 115.338 358.187C112.558 373.867 98.8375 386.187 112.618 399.207C115.432 401.902 118.969 403.722 122.798 404.447C122.378 404.227 115.938 393.867 123.538 378.927C134.218 357.907 133.538 344.767 130.758 302.187C127.338 250.187 133.718 227.847 152.618 191.047C171.998 153.327 202.798 151.507 215.878 141.507C222.998 136.067 220.558 126.207 214.338 119.947C209.118 114.687 200.957 112.547 196.137 112.047C185.617 110.967 175.838 109.127 177.818 103.867C176.525 105.313 175.812 107.187 175.818 109.127C176.118 116.627 181.558 117.127 193.098 118.447C198.108 118.919 202.824 121.028 206.518 124.447C207.558 125.537 208.289 126.886 208.633 128.354C208.978 129.821 208.924 131.354 208.478 132.794C208.031 134.234 207.208 135.528 206.093 136.543C204.978 137.558 203.613 138.257 202.137 138.567C159.817 148.047 127.098 183.267 117.718 230.787C116.191 239.323 115.202 247.947 114.758 256.607C111.813 251.604 107.035 247.945 101.438 246.407C93.2775 244.407 90.0375 248.307 90.1575 251.947C90.2775 255.587 94.7975 257.327 99.3775 259.227Z" fill="black"/>
<path d="M152.538 411.407C147.178 404.327 142.838 403.167 135.378 404.747C136.9 405.153 138.283 405.968 139.376 407.103C140.468 408.238 141.23 409.65 141.578 411.187C143.118 417.687 147.818 425.607 161.098 429.187C169.738 431.487 176.198 430.287 180.918 427.787C161.698 431.907 157.918 418.467 152.538 411.407Z" fill="black"/>
<path d="M244.697 434.527C235.237 435.767 226.377 433.627 216.417 426.327C205.677 418.467 200.417 419.207 193.777 421.867C195.421 422.234 196.898 423.134 197.977 424.427C203.077 430.527 212.537 437.067 229.637 436.987C234.761 437.031 239.854 436.199 244.697 434.527Z" fill="black"/>
<path d="M231.638 109.587C231.278 103.267 235.298 98.5068 240.258 100.587C238.968 99.4504 237.378 98.7117 235.678 98.4597C233.978 98.2077 232.241 98.4533 230.678 99.1668C226.218 101.167 225.898 105.547 227.238 112.687C228.578 119.827 226.478 121.087 224.098 120.327C223.628 120.077 223.25 119.685 223.018 119.207C224.858 123.207 226.638 127.207 230.798 125.047C234.958 122.887 231.998 115.887 231.638 109.587Z" fill="black"/>
</g>
<path opacity="0.2" d="M191.397 253.767C192.152 256.608 193.849 259.11 196.211 260.861C198.573 262.612 201.459 263.51 204.397 263.407C215.097 263.267 216.277 258.407 220.657 251.767C225.037 245.127 234.457 243.647 242.657 243.507C244.825 243.399 246.934 242.762 248.799 241.652C250.664 240.541 252.229 238.991 253.357 237.137C254.486 235.283 255.143 233.181 255.272 231.014C255.401 228.847 254.998 226.682 254.097 224.707C254.316 226.863 253.921 229.038 252.958 230.98C251.996 232.922 250.505 234.554 248.657 235.687C242.097 239.967 233.377 236.107 224.797 240.207C216.217 244.307 215.477 253.567 209.177 256.507C206.248 257.727 203.039 258.116 199.903 257.633C196.766 257.15 193.824 255.812 191.397 253.767Z" fill="black"/>
<path d="M241.518 248.227C241.18 251.589 239.786 254.757 237.536 257.278C235.287 259.799 232.297 261.543 228.995 262.26C225.693 262.977 222.249 262.631 219.156 261.27C216.064 259.91 213.481 257.605 211.778 254.687C216.018 250.687 217.618 243.887 224.778 240.207C230.438 237.327 234.778 238.647 239.478 238.507C241.164 241.451 241.878 244.853 241.518 248.227Z" fill="#475464"/>
<path d="M202.598 258.907C199.303 259.118 196.024 258.305 193.209 256.579C190.395 254.853 188.183 252.299 186.878 249.267C186.749 248.972 186.743 248.639 186.859 248.339C186.975 248.04 187.204 247.798 187.498 247.667C187.643 247.601 187.8 247.564 187.96 247.56C188.12 247.555 188.279 247.582 188.428 247.64C188.577 247.698 188.713 247.785 188.828 247.896C188.943 248.007 189.035 248.14 189.098 248.287C190.938 252.447 195.098 257.227 204.718 256.387C210.098 255.927 212.178 252.707 214.718 248.627C216.901 244.616 220.164 241.297 224.138 239.047C227.78 237.253 231.867 236.558 235.898 237.047C240.288 237.709 244.766 236.672 248.418 234.147C249.753 233.283 250.85 232.098 251.608 230.7C252.366 229.303 252.762 227.737 252.758 226.147C252.8 224.307 252.479 222.476 251.813 220.76C251.148 219.045 250.15 217.477 248.878 216.147C248.619 215.955 248.446 215.669 248.397 215.35C248.348 215.032 248.428 214.707 248.618 214.447C248.709 214.317 248.825 214.207 248.96 214.123C249.095 214.039 249.245 213.984 249.402 213.96C249.559 213.935 249.719 213.943 249.873 213.982C250.027 214.021 250.171 214.091 250.298 214.187C252.718 215.947 255.258 221.167 255.178 226.187C255.174 228.17 254.679 230.122 253.737 231.867C252.794 233.612 251.434 235.096 249.778 236.187C245.692 239.008 240.695 240.193 235.778 239.507C232.177 239.013 228.512 239.59 225.238 241.167C221.648 243.219 218.709 246.241 216.758 249.887C214.118 253.887 211.378 258.187 204.758 258.747C204.118 258.907 203.338 258.907 202.598 258.907Z" fill="#475464"/>
<path d="M237.338 246.487C237.33 247.362 237.062 248.215 236.569 248.938C236.076 249.66 235.379 250.221 234.568 250.547C233.756 250.874 232.865 250.952 232.009 250.772C231.153 250.592 230.369 250.162 229.757 249.536C229.146 248.91 228.734 248.117 228.573 247.257C228.413 246.397 228.511 245.509 228.856 244.704C229.201 243.9 229.777 243.216 230.51 242.74C231.244 242.263 232.103 242.015 232.978 242.027C233.557 242.032 234.13 242.152 234.663 242.379C235.196 242.606 235.679 242.936 236.085 243.351C236.49 243.765 236.809 244.256 237.024 244.794C237.239 245.332 237.346 245.907 237.338 246.487Z" fill="#F5F5F5" fill-opacity="0.7"/>
<path opacity="0.2" d="M324.878 237.607L323.818 237.067C321.642 236.92 319.557 236.142 317.818 234.827C315.678 232.827 313.278 226.367 306.438 224.707C299.598 223.047 295.758 226.367 288.158 226.707C280.558 227.047 278.018 221.787 276.498 217.387C275.678 224.847 277.798 229.847 283.198 232.047C289.198 234.487 300.078 229.367 304.718 232.047C309.358 234.727 312.038 240.267 317.818 240.907C320.208 241.269 322.65 240.781 324.718 239.527C324.818 238.907 324.858 238.247 324.878 237.607Z" fill="black"/>
<path d="M317.898 234.907C316.949 238.693 314.596 241.978 311.316 244.094C308.036 246.21 304.074 247 300.233 246.303C296.392 245.606 292.96 243.474 290.632 240.341C288.304 237.207 287.255 233.305 287.698 229.427C287.797 228.526 287.977 227.635 288.238 226.767C293.878 226.627 299.018 222.767 306.518 224.767C313.098 226.527 313.558 231.747 317.898 234.907Z" fill="#475464"/>
<path d="M324.718 238.287C323.039 238.207 321.384 237.856 319.818 237.247C316.997 235.996 314.635 233.899 313.058 231.247C311.559 228.604 309.092 226.646 306.178 225.787C302.391 224.93 298.437 225.194 294.798 226.547C290.618 227.727 286.298 228.947 281.158 225.847C278.823 224.451 277.022 222.316 276.04 219.779C275.058 217.243 274.951 214.451 275.738 211.847C275.79 211.696 275.871 211.558 275.976 211.439C276.082 211.32 276.21 211.224 276.353 211.155C276.497 211.086 276.652 211.046 276.811 211.038C276.97 211.03 277.128 211.053 277.278 211.107C277.429 211.161 277.568 211.244 277.687 211.351C277.806 211.459 277.903 211.589 277.971 211.733C278.04 211.878 278.08 212.035 278.088 212.195C278.096 212.356 278.072 212.516 278.018 212.667C277.438 214.742 277.552 216.949 278.343 218.953C279.134 220.957 280.558 222.647 282.398 223.767C286.658 226.327 290.118 225.347 294.138 224.227C298.202 222.722 302.62 222.45 306.838 223.447C310.324 224.449 313.286 226.765 315.098 229.907C316.432 232.145 318.422 233.918 320.798 234.987C322.123 235.492 323.521 235.782 324.938 235.847C325.256 235.846 325.562 235.965 325.795 236.18C326.029 236.395 326.173 236.69 326.198 237.007C326.206 237.166 326.182 237.325 326.128 237.475C326.074 237.625 325.99 237.763 325.882 237.88C325.774 237.998 325.644 238.092 325.499 238.159C325.354 238.225 325.197 238.262 325.038 238.267L324.718 238.287Z" fill="#475464"/>
<path d="M311.238 234.007C311.23 234.825 310.978 235.622 310.515 236.297C310.052 236.971 309.398 237.493 308.638 237.794C307.877 238.096 307.044 238.165 306.245 237.991C305.445 237.818 304.715 237.41 304.148 236.821C303.581 236.231 303.202 235.486 303.061 234.68C302.919 233.874 303.02 233.044 303.351 232.296C303.683 231.548 304.229 230.916 304.921 230.48C305.614 230.043 306.42 229.823 307.238 229.847C307.777 229.846 308.31 229.955 308.806 230.166C309.303 230.377 309.751 230.686 310.124 231.074C310.498 231.463 310.789 231.923 310.981 232.427C311.172 232.931 311.259 233.468 311.238 234.007Z" fill="#F5F5F5" fill-opacity="0.7"/>
<path d="M262.718 268.187C241.938 277.487 223.678 295.867 215.238 316.187C210.038 328.687 212.878 339.067 219.838 341.427C233.598 346.067 249.018 324.627 264.358 317.147C279.698 309.667 292.178 316.907 299.958 311.887C309.118 305.987 307.778 290.927 302.858 280.187C297.378 268.147 283.518 258.907 262.718 268.187Z" fill="#475464"/>
<path d="M299.438 312.127C291.818 285.627 266.938 277.367 241.698 281.367C230.225 290.678 221.151 302.605 215.238 316.147C210.038 328.647 212.878 339.027 219.838 341.387C233.598 346.027 249.018 324.587 264.358 317.107C279.198 309.867 291.618 316.527 299.438 312.127Z" fill="#F28F8F"/>
<path opacity="0.1" d="M283.098 313.507C257.558 306.647 241.098 328.587 232.998 328.387C224.898 328.187 220.998 321.127 232.218 303.227C243.438 285.327 267.438 280.427 277.918 285.667C267.458 280.507 254.678 279.327 241.778 281.367C230.305 290.678 221.231 302.605 215.318 316.147C210.118 328.627 212.958 339.027 219.918 341.387C233.678 346.027 249.098 324.587 264.438 317.107C270.265 314.382 276.676 313.145 283.098 313.507Z" fill="black"/>
<path d="M292.818 288.147C287.898 290.287 287.958 296.827 283.898 310.727C283.618 311.707 283.338 312.727 283.058 313.527C289.898 313.687 295.678 314.607 299.958 311.847C300.814 311.275 301.599 310.603 302.298 309.847C303.298 299.347 298.018 285.887 292.818 288.147Z" fill="#F5F5F5" fill-opacity="0.7"/>
<path d="M302.298 309.887C302.411 308.637 302.445 307.381 302.398 306.127C300.993 308.023 298.97 309.367 296.678 309.927C294.061 310.35 291.394 310.35 288.778 309.927C288.778 309.927 290.058 301.807 291.338 294.827C292.178 290.147 294.978 288.107 297.218 289.727C295.838 288.187 294.338 287.487 292.818 288.147C287.898 290.287 287.958 296.827 283.898 310.727C283.618 311.707 283.338 312.727 283.058 313.527C289.898 313.687 295.678 314.607 299.958 311.847C300.811 311.287 301.597 310.629 302.298 309.887Z" fill="#E0E0E0" fill-opacity="0.7"/>
<path d="M240.038 305.407C235.098 307.547 235.178 314.087 231.118 327.987C229.338 333.987 227.818 338.547 226.638 341.747C233.978 340.347 241.678 333.747 249.498 327.407C250.598 316.907 245.278 303.127 240.038 305.407Z" fill="#F5F5F5" fill-opacity="0.7"/>
<path d="M249.498 327.387C249.649 325.65 249.649 323.904 249.498 322.167C241.718 327.207 237.038 332.607 235.798 331.927C234.558 331.247 235.638 325.787 236.158 319.787C236.798 312.527 237.698 305.007 242.538 305.527C242.146 305.32 241.714 305.203 241.271 305.182C240.829 305.161 240.388 305.238 239.978 305.407C235.038 307.547 235.118 314.087 231.058 327.987C229.278 333.987 227.758 338.547 226.578 341.747C233.918 340.347 241.618 333.747 249.438 327.407L249.498 327.387Z" fill="#E0E0E0" fill-opacity="0.7"/>
<path d="M70.6179 395.687C69.9387 395.684 69.264 395.576 68.6179 395.367C67.8578 395.121 67.1544 394.726 66.549 394.204C65.9436 393.683 65.4485 393.046 65.0927 392.33C64.7369 391.615 64.5275 390.836 64.4769 390.038C64.4263 389.241 64.5354 388.441 64.7979 387.687C81.0979 339.507 104.758 319.147 137.838 301.907C138.544 301.539 139.316 301.314 140.11 301.245C140.903 301.175 141.703 301.263 142.462 301.503C143.222 301.742 143.927 302.129 144.537 302.641C145.147 303.153 145.65 303.78 146.018 304.487C146.386 305.193 146.611 305.965 146.68 306.759C146.749 307.552 146.662 308.352 146.422 309.111C146.182 309.871 145.796 310.576 145.284 311.186C144.772 311.796 144.144 312.299 143.438 312.667C112.258 328.907 91.2979 347.027 76.3779 391.547C75.9693 392.751 75.1944 393.798 74.1616 394.54C73.1288 395.282 71.8898 395.683 70.6179 395.687Z" fill="#475464"/>
<path d="M66.3379 383.347C63.7979 389.947 59.9179 392.607 56.2179 396.507C52.5179 400.407 48.5179 402.767 44.6579 408.847C40.7979 414.927 38.9779 425.247 40.1379 430.067C40.7779 432.787 44.5579 432.807 44.7779 430.427C45.5979 421.547 47.0779 413.907 53.2979 409.167C50.8194 414.322 49.2045 419.849 48.5179 425.527C47.9579 433.327 48.9979 442.647 52.2179 443.107C55.4379 443.567 55.3379 440.267 54.8779 435.567C54.4179 430.867 53.9979 418.467 60.2579 409.567C60.2579 409.567 58.0179 422.647 60.2579 431.007C62.4979 439.367 66.8179 445.327 69.2179 444.307C71.6179 443.287 71.4979 441.687 68.8979 435.267C66.8979 430.287 66.8979 423.967 67.4979 418.607C67.6229 413.722 69.5622 409.059 72.9379 405.527C74.2009 404.163 75.7911 403.144 77.5579 402.567C78.5538 402.441 79.5653 402.537 80.5197 402.848C81.4741 403.159 82.3477 403.678 83.0779 404.367C85.7769 406.862 87.4996 410.237 87.9379 413.887C88.4979 418.087 95.4379 418.467 92.8579 406.667C90.2779 394.867 75.7379 392.787 79.3779 383.147L66.3379 383.347Z" fill="#475464"/>
<path d="M368.438 339.167L373.978 328.447C365.378 323.967 375.218 310.787 370.238 299.767C365.258 288.747 359.938 293.187 361.978 296.887C362.967 298.434 363.635 300.165 363.94 301.976C364.246 303.787 364.184 305.64 363.758 307.427C362.918 310.367 361.018 312.087 358.998 310.347C356.978 308.607 355.678 302.887 348.258 296.587C343.859 292.552 338.215 290.139 332.258 289.747C326.458 289.747 328.498 293.747 331.278 294.887C343.278 299.687 344.758 302.367 347.758 306.287C350.758 310.207 350.378 312.447 348.818 311.987C347.258 311.527 344.818 308.127 337.578 304.767C330.338 301.407 322.158 301.427 320.898 302.967C319.638 304.507 319.778 306.487 323.258 307.307C328.378 308.376 333.352 310.048 338.078 312.287C343.178 315.227 345.498 319.027 344.658 320.127C343.818 321.227 339.458 318.127 332.818 316.927C326.178 315.727 322.818 315.707 320.018 316.787C318.018 317.567 318.718 321.667 324.798 321.967C330.972 322.478 336.942 324.415 342.238 327.627C345.406 329.921 348.796 331.891 352.358 333.507C357.609 335.69 362.978 337.58 368.438 339.167Z" fill="#475464"/>
<path d="M169.858 177.247C176.878 180.927 188.138 200.087 174.338 220.467C169.942 227.405 163.547 232.848 155.996 236.079C148.445 239.31 140.092 240.178 132.038 238.567C126.438 235.847 97.1183 223.127 95.6783 182.567C94.2383 142.007 119.098 126.567 125.418 122.907C131.738 119.247 144.098 118.247 142.558 132.127C141.018 146.007 139.558 158.327 149.638 167.247C157.558 174.307 169.858 177.247 169.858 177.247Z" fill="#BEFFBE"/>
<path opacity="0.75" d="M169.858 177.247C176.878 180.927 188.138 200.087 174.338 220.467C169.942 227.405 163.547 232.848 155.996 236.079C148.445 239.31 140.092 240.178 132.038 238.567C126.438 235.847 97.1183 223.127 95.6783 182.567C94.2383 142.007 119.098 126.567 125.418 122.907C131.738 119.247 144.098 118.247 142.558 132.127C141.018 146.007 139.558 158.327 149.638 167.247C157.558 174.307 169.858 177.247 169.858 177.247Z" fill="white" fill-opacity="0.7"/>
<path d="M117.358 229.947C116.376 229.95 115.395 229.903 114.418 229.807C114.097 229.772 113.804 229.611 113.601 229.36C113.399 229.109 113.304 228.788 113.338 228.467C113.373 228.146 113.534 227.853 113.785 227.65C114.036 227.448 114.357 227.353 114.678 227.387C120.678 228.047 139.358 226.687 152.218 212.667C165.358 198.327 165.898 184.347 164.018 175.147C163.986 174.992 163.985 174.832 164.014 174.677C164.044 174.521 164.105 174.373 164.192 174.241C164.28 174.109 164.392 173.996 164.524 173.908C164.655 173.819 164.802 173.758 164.958 173.727C165.273 173.662 165.602 173.724 165.871 173.9C166.141 174.076 166.33 174.352 166.398 174.667C168.398 184.407 167.838 199.207 153.998 214.307C142.138 227.247 125.578 229.947 117.358 229.947Z" fill="#BEFFBE"/>
<path d="M109.918 203.187C105.473 203.208 101.037 202.779 96.6778 201.907C96.5228 201.873 96.3761 201.808 96.246 201.717C96.1159 201.627 96.005 201.511 95.9196 201.377C95.8341 201.244 95.7759 201.094 95.7481 200.938C95.7204 200.782 95.7237 200.622 95.7578 200.467C95.7919 200.312 95.8563 200.165 95.9471 200.035C96.038 199.905 96.1535 199.794 96.2873 199.709C96.421 199.623 96.5702 199.565 96.7264 199.537C96.8827 199.509 97.0428 199.513 97.1978 199.547C98.1178 199.747 119.878 204.467 135.458 194.007C149.578 184.547 150.818 173.127 151.338 168.247C151.373 167.926 151.534 167.633 151.785 167.43C152.036 167.228 152.357 167.133 152.678 167.167C152.837 167.181 152.991 167.228 153.132 167.304C153.272 167.381 153.396 167.484 153.495 167.61C153.594 167.735 153.667 167.879 153.708 168.033C153.75 168.188 153.76 168.349 153.738 168.507C153.238 173.267 151.878 185.927 136.818 196.027C128.238 201.787 117.938 203.187 109.918 203.187Z" fill="#BEFFBE"/>
<path d="M115.718 170.907C108.401 171.12 101.182 169.179 94.9577 165.327C94.8167 165.245 94.694 165.135 94.5971 165.003C94.5001 164.872 94.431 164.722 94.3938 164.563C94.3567 164.405 94.3523 164.24 94.381 164.079C94.4097 163.919 94.4709 163.765 94.5608 163.629C94.6506 163.493 94.7674 163.377 94.9038 163.287C95.0402 163.198 95.1934 163.137 95.3541 163.108C95.5148 163.08 95.6796 163.085 95.8384 163.122C95.9972 163.16 96.1466 163.23 96.2777 163.327C100.278 165.967 109.238 170.067 123.698 167.867C135.118 166.127 140.078 162.447 143.698 158.747C143.809 158.634 143.942 158.544 144.088 158.482C144.235 158.421 144.392 158.389 144.551 158.388C144.709 158.387 144.867 158.417 145.014 158.477C145.161 158.537 145.295 158.625 145.408 158.737C145.521 158.848 145.61 158.981 145.672 159.128C145.734 159.274 145.766 159.431 145.767 159.59C145.768 159.749 145.737 159.906 145.677 160.053C145.618 160.2 145.529 160.334 145.418 160.447C141.418 164.447 136.178 168.447 124.058 170.267C121.298 170.69 118.51 170.904 115.718 170.907Z" fill="#BEFFBE"/>
<path d="M128.458 147.507C125.986 147.495 123.526 147.166 121.138 146.527C118.191 145.88 115.422 144.593 113.027 142.758C110.632 140.923 108.669 138.584 107.278 135.907C107.205 135.764 107.162 135.608 107.15 135.448C107.138 135.288 107.158 135.127 107.208 134.975C107.258 134.823 107.338 134.682 107.442 134.56C107.547 134.439 107.674 134.339 107.818 134.267C107.959 134.195 108.114 134.152 108.272 134.14C108.431 134.128 108.59 134.148 108.741 134.198C108.891 134.249 109.03 134.328 109.15 134.433C109.27 134.537 109.368 134.664 109.438 134.807C110.662 137.186 112.401 139.263 114.529 140.885C116.656 142.508 119.119 143.636 121.738 144.187C125.104 145.133 128.636 145.336 132.089 144.784C135.542 144.231 138.834 142.936 141.738 140.987C141.869 140.894 142.018 140.83 142.175 140.797C142.332 140.764 142.494 140.763 142.651 140.795C142.808 140.827 142.957 140.891 143.089 140.982C143.221 141.073 143.333 141.191 143.418 141.327C143.507 141.459 143.57 141.608 143.601 141.764C143.632 141.921 143.632 142.082 143.601 142.238C143.569 142.395 143.506 142.543 143.417 142.675C143.327 142.807 143.212 142.92 143.078 143.007C138.758 145.923 133.669 147.49 128.458 147.507Z" fill="#BEFFBE"/>
<path opacity="0.1" d="M147.858 224.107C139.018 223.287 127.858 220.787 118.358 206.107C108.858 191.427 105.798 160.807 114.538 142.367C120.298 130.227 131.798 119.107 140.098 122.827C136.398 119.367 129.558 120.607 125.418 122.987C119.178 126.587 94.2381 142.087 95.6781 182.627C97.1181 223.167 126.438 235.867 132.038 238.627C140.092 240.238 148.445 239.37 155.996 236.139C163.547 232.908 169.942 227.465 174.338 220.527C183.578 206.887 181.578 193.787 177.158 185.507C184.078 207.187 161.098 225.307 147.858 224.107Z" fill="black"/>
<path d="M166.018 219.907C166.018 219.907 155.578 231.407 155.498 242.447C155.436 243.866 155.662 245.282 156.163 246.611C156.663 247.94 157.427 249.154 158.409 250.18C159.391 251.206 160.571 252.022 161.877 252.58C163.183 253.138 164.588 253.425 166.008 253.425C167.428 253.425 168.834 253.138 170.14 252.58C171.446 252.022 172.625 251.206 173.607 250.18C174.59 249.154 175.354 247.94 175.854 246.611C176.354 245.282 176.58 243.866 176.518 242.447C176.438 231.407 166.018 219.907 166.018 219.907Z" fill="#FAFAFA" fill-opacity="0.7"/>
<path d="M523.097 36.2868L394.177 110.667C393.467 111.124 392.876 111.743 392.452 112.473C392.028 113.203 391.783 114.024 391.737 114.867V195.947C391.784 196.787 392.03 197.604 392.454 198.33C392.879 199.057 393.469 199.673 394.177 200.127L402.877 204.987C403.631 205.367 404.463 205.564 405.307 205.564C406.151 205.564 406.984 205.367 407.737 204.987L536.717 130.627C537.421 130.165 538.007 129.544 538.427 128.815C538.847 128.085 539.091 127.267 539.137 126.427V45.3268C539.09 44.4868 538.844 43.6699 538.42 42.9433C537.996 42.2166 537.406 41.601 536.697 41.1468L527.997 36.2668C527.235 35.8882 526.396 35.6928 525.545 35.6963C524.694 35.6997 523.856 35.902 523.097 36.2868Z" fill="#BEFFBE"/>
<path d="M405.317 203.567V122.487C405.364 121.646 405.607 120.828 406.028 120.099C406.448 119.369 407.034 118.749 407.737 118.287L536.717 43.9268C538.057 43.1468 539.137 43.7868 539.137 45.3268V126.407C539.091 127.247 538.848 128.065 538.427 128.795C538.007 129.524 537.421 130.145 536.717 130.607L407.737 204.907C406.397 205.747 405.317 205.107 405.317 203.567Z" fill="#BEFFBE"/>
<path opacity="0.2" d="M407.737 204.907C406.985 205.291 406.152 205.492 405.307 205.492C404.462 205.492 403.63 205.291 402.877 204.907L394.177 200.007C393.468 199.558 392.877 198.947 392.452 198.223C392.028 197.499 391.783 196.685 391.737 195.847V114.907C391.768 114.025 392.038 113.168 392.517 112.427L406.037 120.147C405.588 120.861 405.339 121.683 405.317 122.527V203.607C405.317 204.907 406.317 205.807 407.737 204.907Z" fill="black"/>
<path opacity="0.4" d="M539.098 44.9068C538.918 43.6868 537.918 43.2468 536.698 43.9468L407.758 118.307C407.04 118.759 406.449 119.385 406.038 120.127L392.498 112.407C392.902 111.7 393.48 111.108 394.178 110.687L523.098 36.2868C523.853 35.9115 524.684 35.7162 525.528 35.7162C526.371 35.7162 527.202 35.9115 527.958 36.2868L536.658 41.1668C537.31 41.5771 537.866 42.1239 538.287 42.7695C538.708 43.4151 538.985 44.1442 539.098 44.9068Z" fill="white" fill-opacity="0.7"/>
<path d="M391.737 143.667L372.217 163.527C371.994 163.755 371.823 164.03 371.719 164.331C371.614 164.633 371.578 164.954 371.612 165.272C371.647 165.589 371.751 165.895 371.918 166.168C372.085 166.44 372.31 166.672 372.577 166.847C372.977 167.127 386.097 174.627 386.097 174.627L405.317 151.487L391.737 143.667Z" fill="#BEFFBE"/>
<path opacity="0.1" d="M391.737 143.667L372.217 163.527C371.994 163.755 371.823 164.03 371.719 164.331C371.614 164.633 371.578 164.954 371.612 165.272C371.647 165.589 371.751 165.895 371.918 166.168C372.085 166.44 372.31 166.672 372.577 166.847C372.977 167.127 386.097 174.627 386.097 174.627L405.317 151.487L391.737 143.667Z" fill="black"/>
<path d="M405.318 151.487L385.798 171.347C385.487 171.67 385.284 172.081 385.217 172.524C385.15 172.967 385.223 173.42 385.425 173.82C385.627 174.22 385.949 174.547 386.345 174.756C386.742 174.965 387.193 175.046 387.638 174.987L405.318 172.427C407.218 172.427 407.218 151.487 405.318 151.487Z" fill="#BEFFBE"/>
<path d="M421.097 144.907C421.185 142.602 421.5 140.31 422.037 138.067C422.576 135.831 423.368 133.664 424.397 131.607C425.401 129.594 426.651 127.713 428.117 126.007C429.539 124.329 431.245 122.914 433.157 121.827C434.655 120.847 436.389 120.288 438.177 120.207C439.535 120.164 440.861 120.627 441.897 121.507C443.011 122.514 443.828 123.808 444.257 125.247C444.856 127.102 445.173 129.037 445.197 130.987C445.197 132.647 445.197 134.427 445.197 136.287C445.197 138.147 445.197 139.907 445.197 141.567C445.129 143.867 444.814 146.154 444.257 148.387C443.715 150.635 442.923 152.815 441.897 154.887C440.907 156.908 439.657 158.791 438.177 160.487C436.744 162.14 435.048 163.546 433.157 164.647C431.647 165.622 429.911 166.193 428.117 166.307C426.759 166.35 425.433 165.886 424.397 165.007C423.287 163.972 422.472 162.661 422.037 161.207C421.457 159.354 421.141 157.428 421.097 155.487C421.097 153.887 421.097 152.167 421.097 150.287C421.097 148.407 421.097 146.667 421.097 144.907ZM438.057 145.387C438.057 144.667 438.057 143.867 438.057 142.967C438.057 142.067 438.057 141.187 438.057 140.267C438.057 139.347 438.057 138.487 438.057 137.647C438.057 136.807 438.057 136.067 438.057 135.407C438.033 134.56 437.898 133.719 437.657 132.907C437.491 132.288 437.167 131.723 436.717 131.267C436.319 130.885 435.789 130.67 435.237 130.667C434.524 130.704 433.833 130.932 433.237 131.327C432.487 131.803 431.813 132.39 431.237 133.067C430.65 133.776 430.153 134.555 429.757 135.387C429.355 136.258 429.047 137.17 428.837 138.107C428.615 139.08 428.474 140.07 428.417 141.067C428.417 141.767 428.417 142.547 428.417 143.407C428.417 144.267 428.417 145.167 428.417 146.067C428.417 146.967 428.417 147.867 428.417 148.747C428.417 149.627 428.417 150.387 428.417 151.067C428.389 152.564 428.861 154.028 429.757 155.227C430.537 156.087 431.757 156.047 433.337 155.127C434.927 154.221 436.171 152.815 436.877 151.127C437.618 149.315 438.024 147.384 438.077 145.427L438.057 145.387Z" fill="#475464"/>
<path d="M469.457 125.427C469.457 126.007 469.457 126.767 469.457 127.687C469.457 128.607 469.457 129.387 469.457 130.007C469.393 131.98 469.105 133.939 468.598 135.847C468.089 137.783 467.378 139.659 466.478 141.447C465.593 143.181 464.498 144.8 463.217 146.267C462 147.679 460.553 148.875 458.938 149.807C457.657 150.622 456.192 151.103 454.677 151.207C453.493 151.252 452.331 150.876 451.397 150.147C450.428 149.304 449.696 148.221 449.277 147.007C448.724 145.439 448.44 143.789 448.438 142.127C448.438 141.547 448.438 140.807 448.438 139.867C448.438 138.927 448.438 138.167 448.438 137.547C448.473 135.582 448.742 133.628 449.238 131.727C449.751 129.787 450.475 127.909 451.397 126.127C452.287 124.372 453.388 122.733 454.677 121.247C455.888 119.83 457.328 118.626 458.938 117.687C460.223 116.873 461.698 116.404 463.217 116.327C464.402 116.301 465.56 116.682 466.497 117.407C467.482 118.237 468.216 119.324 468.617 120.547C469.152 122.119 469.436 123.766 469.457 125.427ZM455.457 137.827C455.421 138.362 455.499 138.899 455.685 139.403C455.871 139.906 456.162 140.364 456.538 140.747C457.158 141.247 457.998 141.187 459.018 140.587C460.096 139.941 460.965 138.996 461.518 137.867C462.159 136.577 462.52 135.166 462.578 133.727C462.578 133.087 462.578 132.407 462.578 131.727C462.578 131.047 462.578 130.327 462.578 129.727C462.604 129.194 462.525 128.661 462.343 128.16C462.16 127.658 461.88 127.198 461.518 126.807C461.136 126.57 460.69 126.459 460.242 126.487C459.794 126.516 459.366 126.684 459.018 126.967C457.945 127.614 457.083 128.559 456.538 129.687C455.88 130.979 455.512 132.398 455.457 133.847C455.457 134.467 455.457 135.147 455.457 135.847C455.457 136.547 455.338 137.267 455.378 137.827H455.457Z" fill="#475464"/>
<path d="M485.217 134.647C484.597 135.013 483.922 135.276 483.217 135.427C482.736 135.531 482.238 135.531 481.757 135.427C481.375 135.325 481.02 135.141 480.717 134.887C480.457 134.66 480.222 134.405 480.017 134.127V146.787C480.016 147.246 479.906 147.698 479.697 148.107C479.546 148.468 479.297 148.78 478.977 149.007L474.097 151.807C473.996 151.891 473.869 151.938 473.737 151.938C473.606 151.938 473.478 151.891 473.377 151.807C473.259 151.678 473.17 151.526 473.115 151.361C473.06 151.196 473.04 151.02 473.057 150.847V111.727C473.056 111.274 473.166 110.828 473.377 110.427C473.517 110.059 473.769 109.744 474.097 109.527L478.797 106.907C478.897 106.813 479.03 106.76 479.167 106.76C479.305 106.76 479.437 106.813 479.537 106.907C479.76 107.175 479.868 107.52 479.837 107.867V109.227L480.597 107.547C480.868 106.933 481.204 106.35 481.597 105.807C482.038 105.208 482.526 104.646 483.057 104.127C483.711 103.521 484.436 102.997 485.217 102.567C486.207 101.943 487.332 101.566 488.497 101.467C488.988 101.432 489.48 101.497 489.944 101.659C490.408 101.821 490.835 102.075 491.197 102.407C492.089 103.278 492.737 104.367 493.077 105.567C493.613 107.391 493.876 109.285 493.857 111.187C493.857 111.767 493.857 112.567 493.857 113.567C493.857 114.567 493.857 115.387 493.857 116.007C493.838 118.202 493.576 120.389 493.077 122.527C492.649 124.371 492.018 126.161 491.197 127.867C490.487 129.319 489.579 130.665 488.497 131.867C487.557 132.96 486.45 133.898 485.217 134.647ZM486.957 119.247C487.037 118.135 487.037 117.019 486.957 115.907C486.952 114.81 486.641 113.736 486.057 112.807C485.537 112.06 484.677 112.06 483.477 112.807C482.906 113.125 482.403 113.553 481.997 114.067C481.592 114.592 481.25 115.162 480.977 115.767C480.713 116.375 480.499 117.004 480.337 117.647C480.185 118.305 480.085 118.973 480.037 119.647C480.037 120.267 480.037 120.987 480.037 121.767C480.004 122.433 480.004 123.101 480.037 123.767C480.081 124.296 480.182 124.819 480.337 125.327C480.476 125.744 480.693 126.131 480.977 126.467C481.242 126.756 481.607 126.934 481.997 126.967C482.522 126.978 483.037 126.832 483.477 126.547C484.659 125.857 485.569 124.785 486.057 123.507C486.586 122.145 486.89 120.706 486.957 119.247Z" fill="#475464"/>
<path d="M508.937 111.067C508.937 110.627 508.837 110.347 508.637 110.227C508.323 110.099 507.972 110.099 507.657 110.227C507.032 110.38 506.418 110.574 505.817 110.807C505.057 111.087 504.117 111.387 502.977 111.727C502.234 112.049 501.413 112.153 500.612 112.025C499.812 111.898 499.064 111.545 498.457 111.007C497.227 109.407 496.661 107.394 496.877 105.387C496.886 103.981 497.109 102.585 497.537 101.247C497.99 99.8452 498.608 98.5024 499.377 97.2468C500.17 95.9025 501.124 94.66 502.217 93.5468C503.313 92.4224 504.558 91.4534 505.917 90.6668C507.05 89.9682 508.306 89.4929 509.617 89.2668C510.6 89.0945 511.611 89.1701 512.557 89.4868C513.383 89.7514 514.091 90.2961 514.557 91.0268C515.044 91.7864 515.314 92.6648 515.337 93.5668C515.368 94.0179 515.271 94.4685 515.057 94.8668C514.896 95.2393 514.633 95.5584 514.297 95.7868L509.697 98.4268C509.417 98.6068 509.197 98.6268 509.037 98.5268L508.437 98.2268C508.148 98.1012 507.831 98.053 507.517 98.0868C506.957 98.1739 506.424 98.3858 505.957 98.7068C505.388 99.0201 504.885 99.4412 504.477 99.9468C504.088 100.397 503.875 100.972 503.877 101.567C503.848 101.878 503.911 102.191 504.057 102.467C504.191 102.627 504.451 102.667 504.837 102.587C505.388 102.459 505.93 102.291 506.457 102.087L509.197 101.167C511.537 100.407 513.197 100.647 514.317 101.867C515.488 103.413 516.056 105.332 515.917 107.267C515.906 108.677 515.69 110.078 515.277 111.427C514.787 112.91 514.115 114.328 513.277 115.647C512.41 117.101 511.369 118.444 510.177 119.647C508.945 120.872 507.56 121.934 506.057 122.807C504.834 123.57 503.477 124.092 502.057 124.347C501.058 124.506 500.034 124.388 499.097 124.007C498.327 123.648 497.685 123.062 497.257 122.327C496.828 121.561 496.588 120.704 496.557 119.827C496.526 119.376 496.623 118.925 496.837 118.527C497.004 118.158 497.266 117.84 497.597 117.607L502.377 114.847C502.677 114.687 502.877 114.667 502.997 114.847C503.151 115.001 503.319 115.142 503.497 115.267C503.773 115.417 504.085 115.486 504.397 115.467C505.021 115.372 505.615 115.139 506.137 114.787C506.889 114.352 507.564 113.798 508.137 113.147C508.669 112.587 508.956 111.839 508.937 111.067Z" fill="#475464"/>
<path d="M526.357 95.9068C526.353 96.3592 526.244 96.8044 526.037 97.2068C525.897 97.5748 525.646 97.8896 525.317 98.1068L520.437 100.907C520.34 101 520.211 101.052 520.077 101.052C519.943 101.052 519.814 101 519.717 100.907C519.599 100.778 519.51 100.626 519.455 100.461C519.4 100.296 519.38 100.12 519.397 99.9468V74.2868C519.399 73.8278 519.508 73.3756 519.717 72.9668C519.857 72.5988 520.109 72.2841 520.437 72.0668L525.317 69.2668C525.414 69.1739 525.543 69.1221 525.677 69.1221C525.811 69.1221 525.94 69.1739 526.037 69.2668C526.155 69.3954 526.245 69.5473 526.3 69.7127C526.355 69.8781 526.374 70.0533 526.357 70.2268V95.9068ZM526.357 108.687C526.358 109.14 526.248 109.586 526.037 109.987C525.897 110.355 525.646 110.67 525.317 110.887L520.437 113.707C520.338 113.795 520.21 113.844 520.077 113.844C519.944 113.844 519.816 113.795 519.717 113.707C519.599 113.583 519.509 113.434 519.454 113.272C519.398 113.11 519.379 112.937 519.397 112.767V106.767C519.401 106.314 519.511 105.869 519.717 105.467C519.857 105.099 520.109 104.784 520.437 104.567L525.317 101.747C525.416 101.658 525.544 101.609 525.677 101.609C525.81 101.609 525.938 101.658 526.037 101.747C526.155 101.875 526.245 102.027 526.3 102.193C526.355 102.358 526.374 102.533 526.357 102.707V108.687Z" fill="#475464"/>
</svg>
