<svg width="961" height="936" viewBox="0 0 961 936" fill="none" xmlns="http://www.w3.org/2000/svg">
<path d="M956.79 454.258C946.43 346.858 892.49 239.718 845.97 180.538C648.73 -70.2621 253.01 -69.782 64.3695 245.238C11.1895 334.078 -22.1905 531.618 17.3095 677.718C67.8495 864.718 267.01 937.538 488.49 935.918C695.43 934.218 858.15 844.238 919.01 719.918C957.19 642.178 967.15 561.658 956.79 454.258Z" fill="#232F40"/>
<path d="M64.3695 245.238C11.1895 334.078 -22.1905 531.618 17.3095 677.718C25.6393 709.088 39.0501 738.882 57.0095 765.918L277.01 638.978L464.41 530.798L904.53 276.558C886.21 238.558 865.45 205.318 845.99 180.558C648.73 -70.2621 253.01 -69.7821 64.3695 245.238Z" fill="#2F3B49"/>
<path opacity="0.2" d="M590.089 614.458V589.778L554.449 569.198V544.518L518.809 523.918V499.258L483.189 478.678L329.189 562.678L369.189 585.658V610.338L404.829 630.898V655.598L440.469 676.158V700.858L596.589 926.478C751.189 900.378 869.209 821.658 919.009 719.918C924.769 708.158 929.896 696.311 934.389 684.378L590.089 614.458Z" fill="#BEFFBE"/>
<path opacity="0.15" d="M370.57 133.318C266.37 193.318 181.89 354.118 181.89 492.558C181.89 574.818 211.73 630.678 257.89 649.878L276.95 638.878L464.35 530.698L483.89 519.418C529.71 447.318 559.33 357.418 559.33 275.418C559.25 137.018 474.79 73.3779 370.57 133.318Z" fill="#BEFFBE"/>
<path opacity="0.15" d="M370.569 173.358C283.009 223.758 212.029 358.878 212.029 475.218C212.029 591.558 283.009 645.038 370.569 594.678C458.129 544.318 529.129 409.138 529.129 292.798C529.129 176.458 458.149 122.978 370.569 173.358Z" fill="#BEFFBE"/>
<path opacity="0.15" d="M370.57 201.578C295.01 245.218 233.75 362.258 233.75 462.998C233.75 563.738 295.01 610.078 370.57 566.458C446.13 522.838 507.39 405.778 507.39 305.018C507.39 204.258 446.15 157.918 370.57 201.578Z" fill="#BEFFBE"/>
<path d="M289.89 467.778C289.89 380.498 342.97 279.098 408.43 241.278C437.29 224.638 463.71 223.098 484.25 234.058L457.63 218.658C436.83 206.658 409.63 207.658 379.95 224.818C314.45 262.638 261.39 364.038 261.39 451.318C261.39 499.098 277.29 532.738 302.43 547.218C306.73 549.678 322.71 558.938 329.23 562.698C305.01 547.678 289.89 514.478 289.89 467.778Z" fill="#BEFFBE"/>
<path opacity="0.3" d="M289.89 467.778C289.89 380.498 342.97 279.098 408.43 241.278C437.29 224.638 463.71 223.098 484.25 234.058L457.63 218.658C436.83 206.658 409.63 207.658 379.95 224.818C314.45 262.638 261.39 364.038 261.39 451.318C261.39 499.098 277.29 532.738 302.43 547.218C306.73 549.678 322.71 558.938 329.23 562.698C305.01 547.678 289.89 514.478 289.89 467.778Z" fill="white"/>
<path d="M455.01 259.578C465.35 273.378 470.89 295.338 469.65 323.898C466.67 393.898 424.09 477.178 374.57 509.758C359.53 519.658 345.55 523.758 333.51 522.658C348.55 542.658 373.75 545.518 403.07 526.218C452.61 493.638 495.19 410.418 498.17 340.338C500.21 291.578 482.57 262.038 455.01 259.578Z" fill="#BEFFBE"/>
<path opacity="0.15" d="M455.01 259.578C465.35 273.378 470.89 295.338 469.65 323.898C466.67 393.898 424.09 477.178 374.57 509.758C359.53 519.658 345.55 523.758 333.51 522.658C348.55 542.658 373.75 545.518 403.07 526.218C452.61 493.638 495.19 410.418 498.17 340.338C500.21 291.578 482.57 262.038 455.01 259.578Z" fill="black"/>
<path d="M320.09 281.018L348.59 297.478L350.87 294.418L322.37 277.918C321.59 278.978 320.85 279.918 320.09 281.018Z" fill="#BEFFBE"/>
<path d="M307.01 376.338L278.41 359.918C278.01 361.018 277.63 362.158 277.25 363.278L305.75 379.738C306.15 378.578 306.51 377.438 307.01 376.338Z" fill="#BEFFBE"/>
<path d="M437.01 211.398L465.53 227.918C466.69 228.118 467.85 228.318 468.99 228.558L440.47 212.098C439.33 211.798 438.17 211.578 437.01 211.398Z" fill="#BEFFBE"/>
<path d="M293.91 424.678C294.13 423.438 294.37 422.178 294.61 420.938L266.11 404.478C265.85 405.718 265.61 406.958 265.39 408.218L293.91 424.678Z" fill="#BEFFBE"/>
<path d="M348.109 249.018L376.609 265.478C377.589 264.538 378.609 263.598 379.569 262.698L351.009 246.238C350.069 247.138 349.009 248.078 348.109 249.018Z" fill="#BEFFBE"/>
<path d="M294.049 506.958C293.789 505.858 293.549 504.738 293.309 503.618L293.089 503.118L264.729 486.738C264.989 488.018 265.249 489.278 265.549 490.518L294.049 506.958Z" fill="#BEFFBE"/>
<path d="M412.149 212.138C410.949 212.378 409.709 212.698 408.489 212.998L437.009 229.458C438.249 229.138 439.489 228.858 440.709 228.618L412.149 212.138Z" fill="#BEFFBE"/>
<path d="M410.21 240.318L381.71 223.918C381.11 224.258 380.53 224.538 379.95 224.878L378.21 225.938L406.71 242.398L408.43 241.338L410.21 240.318Z" fill="#BEFFBE"/>
<path d="M295.93 319.918L324.43 336.378L326.11 333.258L297.61 316.798C297.01 317.798 296.47 318.838 295.93 319.918Z" fill="#BEFFBE"/>
<path d="M306.15 538.358C305.51 537.258 304.91 536.158 304.29 535.018L275.81 518.578C276.41 519.718 277.05 520.818 277.69 521.918L306.15 538.358Z" fill="#BEFFBE"/>
<path d="M261.39 451.638L289.89 468.118V467.778C289.89 466.558 289.89 465.298 289.89 464.058L261.37 447.598C261.37 448.838 261.37 450.098 261.37 451.318L261.39 451.638Z" fill="#BEFFBE"/>
<path d="M408.43 241.278C342.97 279.098 289.89 380.498 289.89 467.778C289.89 555.058 342.97 595.198 408.43 557.398C473.89 519.598 527.01 418.198 527.01 330.898C527.01 243.598 473.91 203.478 408.43 241.278ZM498.11 340.338C495.13 410.338 452.55 493.618 403.01 526.198C353.47 558.778 315.77 528.398 318.75 458.338C321.73 388.278 364.35 305.058 413.85 272.478C463.35 239.898 501.11 270.278 498.11 340.338Z" fill="#BEFFBE"/>
<g opacity="0.15">
<path d="M384.17 298.818C385.13 297.758 386.07 296.678 387.05 295.638L379.55 262.698C378.55 263.598 377.55 264.518 376.59 265.458L384.17 298.818Z" fill="black"/>
<path d="M406.689 242.318V277.638C407.849 276.738 409.009 275.858 410.189 275.018V240.298L408.429 241.278L406.689 242.318Z" fill="black"/>
<path d="M430.79 263.598C432.07 263.098 433.35 262.638 434.61 262.238L440.61 228.598C439.39 228.838 438.15 229.118 436.91 229.418L430.79 263.598Z" fill="black"/>
<path d="M334.15 385.138L335.41 381.818L307.01 376.318C306.61 377.438 306.21 378.558 305.83 379.678L334.15 385.138Z" fill="black"/>
<path d="M347.61 353.918L349.21 350.718L326.09 333.238L324.43 336.378L347.61 353.918Z" fill="black"/>
<path d="M522.15 288.978L497.01 312.558C497.21 313.958 497.39 315.378 497.55 316.858L523.17 292.858C522.79 291.578 522.49 290.258 522.15 288.978Z" fill="black"/>
<path d="M319.61 446.918L289.93 464.038C289.93 465.298 289.93 466.538 289.93 467.778V468.118L319.25 451.198C319.31 449.778 319.47 448.338 319.61 446.918Z" fill="black"/>
<path d="M324.41 417.918C324.71 416.658 325.03 415.398 325.33 414.118L294.59 420.898C294.35 422.138 294.11 423.398 293.89 424.638L324.41 417.918Z" fill="black"/>
<path d="M454.41 259.558C455.63 259.658 456.81 259.798 457.97 259.998L469.01 228.458C467.85 228.218 466.69 227.998 465.51 227.798L454.41 259.558Z" fill="black"/>
<path d="M489.29 285.798C489.85 286.978 490.39 288.218 490.91 289.478L511.51 261.738C510.89 260.618 510.23 259.538 509.51 258.478L489.29 285.798Z" fill="black"/>
<path d="M474.729 267.218C475.669 267.938 476.59 268.698 477.49 269.518L493.009 239.798C492.069 239.058 491.13 238.358 490.15 237.678L474.729 267.218Z" fill="black"/>
<path d="M364.349 324.798L366.509 321.538L350.849 294.398L348.569 297.478L364.349 324.798Z" fill="black"/>
<path d="M433.309 499.178C432.369 500.278 431.309 501.338 430.449 502.378L437.949 535.418C438.949 534.518 439.949 533.538 440.909 532.598L433.309 499.178Z" fill="black"/>
<path d="M470.49 442.358C469.97 443.438 469.43 444.498 468.89 445.558L492.07 463.078L493.69 459.898L470.49 442.358Z" fill="black"/>
<path d="M453.57 472.318L451.41 475.598L467.11 502.798C467.87 501.778 468.65 500.798 469.39 499.738L453.57 472.318Z" fill="black"/>
<path d="M483.849 410.378C483.449 411.498 483.069 412.618 482.649 413.718L511.049 419.198C511.449 418.078 511.829 416.958 512.209 415.838L483.849 410.378Z" fill="black"/>
<path d="M493.23 377.198C492.97 378.458 492.71 379.718 492.41 380.958L523.01 374.258C523.23 372.998 523.43 371.758 523.65 370.518L493.23 377.198Z" fill="black"/>
<path d="M527.009 327.218L497.889 343.918C497.889 345.318 497.709 346.718 497.609 348.138L527.009 331.238V330.898C527.009 329.658 527.009 328.438 527.009 327.218Z" fill="black"/>
<path d="M410.189 556.338V521.058C409.029 521.958 407.849 522.838 406.689 523.678V558.398L408.429 557.398C409.009 557.058 409.609 556.678 410.189 556.338Z" fill="black"/>
<path d="M326.63 510.798C326.09 509.578 325.57 508.318 325.07 506.998L304.29 534.998C304.89 536.138 305.53 537.258 306.17 538.338L326.63 510.798Z" fill="black"/>
<path d="M340.89 530.498C339.97 529.738 339.07 528.938 338.19 528.078L322.59 557.918C323.51 558.678 324.45 559.398 325.41 560.098L340.89 530.498Z" fill="black"/>
<path d="M385.409 535.378C384.129 535.858 382.869 536.278 381.609 536.678L375.609 570.218C376.849 569.978 378.089 569.718 379.329 569.418L385.409 535.378Z" fill="black"/>
<path d="M361.31 539.038C360.11 538.918 358.95 538.738 357.79 538.518L346.87 569.918C348.03 570.198 349.19 570.418 350.35 570.618L361.31 539.038Z" fill="black"/>
<path d="M319.55 483.138C319.39 481.698 319.25 480.218 319.13 478.718L293.13 502.978C293.41 504.318 293.69 505.638 293.99 506.978L319.55 483.138Z" fill="black"/>
</g>
<path d="M440.429 700.878L304.949 622.658V548.598L333.469 565.058L369.149 585.678V610.358L404.789 630.918V655.618L440.429 676.178V700.878Z" fill="#2F3B49"/>
<path d="M333.51 565.098L483.19 478.678L518.81 499.258L369.15 585.678L333.51 565.098Z" fill="#2B3B4F"/>
<path d="M369.149 585.678V610.358L518.809 523.938V499.258L369.149 585.678Z" fill="#232F40"/>
<path d="M369.149 610.358L518.809 523.938L554.449 544.518L404.789 630.918L369.149 610.358Z" fill="#2B3B4F"/>
<path d="M404.79 630.918V655.618L554.45 569.198V544.518L404.79 630.918Z" fill="#232F40"/>
<path d="M404.79 655.618L554.45 569.198L590.09 589.778L440.43 676.178L404.79 655.618Z" fill="#2B3B4F"/>
<path d="M440.43 676.178V700.878L590.09 614.458V589.778L440.43 676.178Z" fill="#232F40"/>
<path d="M483.29 331.918C480.31 401.918 437.71 485.198 388.19 517.798C369.79 529.898 353.03 533.318 339.35 529.218C325.35 516.438 317.35 491.958 318.75 458.378C321.75 388.378 364.35 305.098 413.85 272.518C432.27 260.398 449.07 256.998 462.73 261.118C476.81 273.918 484.73 298.318 483.29 331.918Z" fill="#BEFFBE"/>
<path opacity="0.9" d="M483.29 331.918C480.31 401.918 437.71 485.198 388.19 517.798C369.79 529.898 353.03 533.318 339.35 529.218C325.35 516.438 317.35 491.958 318.75 458.378C321.75 388.378 364.35 305.098 413.85 272.518C432.27 260.398 449.07 256.998 462.73 261.118C476.81 273.918 484.73 298.318 483.29 331.918Z" fill="white"/>
<path opacity="0.1" d="M387.97 481.918C372.51 483.707 358.204 490.981 347.65 502.418C341.948 508.538 337.298 515.559 333.89 523.198C335.535 525.35 337.362 527.357 339.35 529.198C342.294 530.059 345.327 530.582 348.39 530.758C349.19 528.758 349.79 526.658 350.49 524.638C353.948 515.232 360.112 507.059 368.204 501.148C376.297 495.237 385.957 491.852 395.97 491.418C402.83 491.238 409.63 492.478 416.45 493.018C419.15 490.038 421.79 487.018 424.45 483.738C412.37 483.118 399.91 480.718 387.97 481.918ZM385.01 379.498C399.01 381.318 414.29 382.098 426.53 374.938C440.39 366.818 446.97 350.718 453.65 336.138C459.87 322.598 468.37 308.298 481.95 303.058C479.13 284.118 472.37 269.858 462.71 261.058C456.121 259.162 449.175 258.867 442.45 260.198C435.674 267.956 430.738 277.145 428.01 287.078C424.81 298.278 423.69 310.178 418.55 320.598C413.315 331.075 404.431 339.276 393.57 343.658C385.01 347.058 375.71 347.878 366.61 349.278C360.262 350.215 353.987 351.592 347.83 353.398C343.079 362.834 338.846 372.521 335.15 382.418C337.605 381.162 340.16 380.112 342.79 379.278C356.37 375.098 371.01 377.698 385.01 379.498ZM399.33 309.498C403.81 301.758 405.33 292.738 407.79 284.118C408.67 280.898 409.79 277.758 410.83 274.618C407.63 276.871 404.456 279.325 401.31 281.978C396.79 292.958 392.39 303.978 384.05 312.258C379.799 316.423 374.723 319.652 369.15 321.738C368.096 322.09 367.011 322.338 365.91 322.478C363.87 325.478 361.87 328.545 359.91 331.678C364.422 331.316 368.893 330.553 373.27 329.398C384.106 326.147 393.38 319.048 399.35 309.438L399.33 309.498ZM483.33 321.638C479.418 323.665 475.875 326.336 472.85 329.538C465.41 337.698 461.41 348.278 456.85 358.358C450.49 372.718 442.19 387.338 428.37 394.778C419.17 399.718 408.37 400.958 398.03 401.238C378.33 401.778 358.33 399.238 339.07 403.458C334.918 404.365 330.861 405.657 326.95 407.318C325.616 412.105 324.45 416.871 323.45 421.618C327.934 419.244 332.679 417.398 337.59 416.118C366.05 408.918 397.59 424.718 424.85 414.118C444.85 406.298 457.03 386.438 466.85 367.358C470.85 359.578 475.15 351.358 482.05 346.198C482.583 341.438 482.956 336.718 483.17 332.038C483.43 328.338 483.47 324.918 483.41 321.578L483.33 321.638ZM412.33 438.218C396.93 438.778 381.55 437.338 366.15 437.118C358.259 436.689 350.35 437.498 342.71 439.518C336.022 441.78 329.731 445.08 324.07 449.298C322.33 450.538 320.65 451.818 318.99 453.118C318.87 454.898 318.75 456.658 318.67 458.398C317.81 478.698 320.39 495.638 325.65 508.718C329.049 505.767 332.072 502.409 334.65 498.718C345.23 484.418 355.43 468.598 371.47 460.938C388.69 452.718 408.99 455.658 427.71 451.898C435.899 450.225 443.766 447.247 451.01 443.078C453.97 437.531 456.763 431.878 459.39 426.118C458.59 426.598 457.77 427.058 456.95 427.518C443.41 434.938 427.79 437.598 412.41 438.158L412.33 438.218Z" fill="#BEFFBE"/>
<path d="M518.229 208.658C518.229 215.458 516.949 221.498 508.629 222.958C517.149 223.318 517.749 228.958 518.229 236.838C518.509 229.018 519.249 223.318 526.969 222.958C519.009 221.638 518.229 215.458 518.229 208.658Z" fill="#BEFFBE"/>
<path d="M324.109 570.678C324.109 577.478 322.829 583.518 314.509 584.978C323.029 585.338 323.629 590.978 324.109 598.858C324.389 591.018 325.129 585.338 332.849 584.978C324.849 583.638 324.109 577.478 324.109 570.678Z" fill="#BEFFBE"/>
<path d="M261.569 361.158C261.569 364.138 261.009 366.758 257.369 367.398C261.089 367.558 261.369 370.058 261.569 373.398C261.689 369.978 262.009 367.398 265.389 367.398C261.889 366.818 261.569 364.138 261.569 361.158Z" fill="#BEFFBE"/>
<path d="M245.209 372.858C245.209 379.638 243.909 385.678 235.609 387.138C244.129 387.498 244.729 393.138 245.209 401.038C245.469 393.198 246.209 387.518 253.949 387.138C245.949 385.918 245.209 379.638 245.209 372.858Z" fill="#C8C8C8"/>
<path d="M237.409 338.778C237.409 342.278 236.749 345.358 232.489 346.118C236.849 346.298 237.169 349.218 237.409 353.238C237.549 349.238 237.929 346.298 241.909 346.118C237.789 345.438 237.409 342.278 237.409 338.778Z" fill="#C8C8C8"/>
<path d="M495.129 188.218C495.129 192.218 495.029 196.018 489.289 196.918C495.289 196.918 494.889 200.658 495.189 205.458C495.349 200.658 495.769 197.218 500.509 196.998C495.609 196.178 495.749 193.918 495.129 188.218Z" fill="#C8C8C8"/>
<path d="M545.009 373.318C544.589 380.818 543.989 384.058 537.209 384.958C544.109 385.338 544.689 389.918 545.089 396.298C545.309 389.918 545.869 385.278 552.169 384.958C545.689 383.918 545.529 380.918 545.009 373.318Z" fill="#C8C8C8"/>
<path d="M296.549 570.738C296.309 575.118 295.969 576.998 292.009 577.538C296.009 577.758 296.369 580.398 296.609 584.118C296.729 580.398 297.049 577.698 300.729 577.538C297.009 576.898 296.849 575.178 296.549 570.738Z" fill="#C8C8C8"/>
<path d="M530.85 201.698C530.85 204.118 530.85 206.438 527.31 206.978C530.99 206.978 530.71 209.238 530.89 212.138C530.99 209.238 531.23 207.158 534.09 207.018C531.13 206.518 531.21 205.158 530.85 201.698Z" fill="#C8C8C8"/>
<path d="M538.39 395.118C538.39 397.518 538.39 399.838 534.85 400.378C538.51 400.378 538.23 402.658 538.41 405.558C538.51 402.658 538.77 400.558 541.63 400.438C538.67 399.918 538.75 398.558 538.39 395.118Z" fill="#C8C8C8"/>
<path d="M315.01 561.198C315.01 563.598 315.01 565.918 311.47 566.458C315.15 566.458 314.87 568.718 315.05 571.618C315.15 568.718 315.41 566.638 318.27 566.498C315.35 566.018 315.43 564.638 315.01 561.198Z" fill="#C8C8C8"/>
<path d="M713.51 541.078L776.49 504.718L871.57 559.598L917.19 533.258L822.13 478.378L853.01 460.538L803.01 431.638L772.13 449.478L717.01 417.698L671.37 444.058L726.43 475.918L609.01 543.598L645.75 564.798L942.11 644.358L947.87 641.038C950.696 629.678 953.036 618.085 954.89 606.258L713.51 541.078Z" fill="#2F3B49"/>
<path d="M719.429 262.098L717.069 263.458V186.618L688.549 170.158L653.269 190.518L682.369 81.118L653.869 64.658L604.809 92.978L525.529 389.418V431.918L554.029 448.378L643.009 396.978V427.598L671.529 444.058L717.009 417.698V354.178L747.869 336.358V278.558L719.429 262.098ZM643.009 306.278L618.869 320.278L643.009 229.438V306.278Z" fill="#BEFFBE"/>
<path opacity="0.3" d="M719.429 262.098L717.069 263.458V186.618L688.549 170.158L653.269 190.518L682.369 81.118L653.869 64.658L604.809 92.978L525.529 389.418V431.918L554.029 448.378L643.009 396.978V427.598L671.529 444.058L717.009 417.698V354.178L747.869 336.358V278.558L719.429 262.098ZM643.009 306.278L618.869 320.278L643.009 229.438V306.278Z" fill="black"/>
<path d="M717.049 296.378V186.618L671.429 212.958V322.738L608.429 359.098L682.369 81.118L633.309 109.438L554.029 405.878V448.298L671.429 380.538V444.058L717.049 417.698V354.178L747.929 336.358V278.558L717.049 296.378Z" fill="#BEFFBE"/>
<path opacity="0.3" d="M717.049 296.378V186.618L671.429 212.958V322.738L608.429 359.098L682.369 81.118L633.309 109.438L554.029 405.878V448.298L671.429 380.538V444.058L717.049 417.698V354.178L747.929 336.358V278.558L717.049 296.378Z" fill="white"/>
<path d="M682.37 81.118L653.87 64.658L604.81 92.978L633.31 109.438L682.37 81.118Z" fill="#BEFFBE"/>
<path opacity="0.5" d="M682.37 81.118L653.87 64.658L604.81 92.978L633.31 109.438L682.37 81.118Z" fill="white"/>
<path d="M688.55 170.158L717.05 186.618L671.43 212.958L650.51 200.878L653.27 190.518L688.55 170.158Z" fill="#BEFFBE"/>
<path opacity="0.5" d="M688.55 170.158L717.05 186.618L671.43 212.958L650.51 200.878L653.27 190.518L688.55 170.158Z" fill="white"/>
<path d="M671.43 322.738L642.91 306.278L618.77 320.218L608.43 359.098L671.43 322.738Z" fill="#BEFFBE"/>
<path opacity="0.5" d="M671.43 322.738L642.91 306.278L618.77 320.218L608.43 359.098L671.43 322.738Z" fill="white"/>
<path d="M747.929 278.558L719.429 262.098L717.049 263.458V296.378L747.929 278.558Z" fill="#BEFFBE"/>
<path opacity="0.5" d="M717.049 296.378L747.929 278.558L719.429 262.098L717.049 263.458V296.378Z" fill="white"/>
<path d="M554.029 405.878L525.529 389.418L604.809 92.978L633.309 109.438L554.029 405.878Z" fill="#BEFFBE"/>
<path opacity="0.15" d="M554.029 405.878L525.529 389.418L604.809 92.978L633.309 109.438L554.029 405.878Z" fill="black"/>
<path d="M389.909 727.918L339.849 699.018L308.989 716.838L253.969 685.078L208.329 711.418L263.349 743.178L145.949 810.958L182.689 832.178L479.069 911.738L528.129 883.418L250.409 808.458L313.409 772.078L408.469 826.978L454.109 800.618L359.029 745.738L389.909 727.918Z" fill="#2F3B49"/>
<path d="M256.33 529.458L253.97 530.838V453.918L225.45 437.458L190.17 457.918L219.27 348.518L190.77 332.058L141.71 360.338L62.4297 656.798V699.218L91.0097 715.678L179.91 664.358V694.958L208.41 711.418L254.05 685.078V621.538L284.91 603.718V545.918L256.33 529.458ZM179.83 573.638L155.69 587.638L179.83 496.878V573.638Z" fill="#BEFFBE"/>
<path opacity="0.3" d="M256.33 529.458L253.97 530.838V453.918L225.45 437.458L190.17 457.918L219.27 348.518L190.77 332.058L141.71 360.338L62.4297 656.798V699.218L91.0097 715.678L179.91 664.358V694.958L208.41 711.418L254.05 685.078V621.538L284.91 603.718V545.918L256.33 529.458ZM179.83 573.638L155.69 587.638L179.83 496.878V573.638Z" fill="black"/>
<path d="M253.97 563.758V453.978L208.33 480.318V590.098L145.33 626.458L219.29 348.478L170.23 376.798L90.9297 673.238V715.678L208.33 647.898V711.418L253.97 685.078V621.538L284.83 603.718V545.918L253.97 563.758Z" fill="#BEFFBE"/>
<path opacity="0.3" d="M253.97 563.758V453.978L208.33 480.318V590.098L145.33 626.458L219.29 348.478L170.23 376.798L90.9297 673.238V715.678L208.33 647.898V711.418L253.97 685.078V621.538L284.83 603.718V545.918L253.97 563.758Z" fill="white"/>
<path d="M219.29 348.478L190.77 332.018L141.71 360.338L170.23 376.798L219.29 348.478Z" fill="#BEFFBE"/>
<path opacity="0.5" d="M219.29 348.478L190.77 332.018L141.71 360.338L170.23 376.798L219.29 348.478Z" fill="white"/>
<path d="M225.45 437.518L253.97 453.978L208.33 480.318L187.41 468.258L190.17 457.898L225.45 437.518Z" fill="#BEFFBE"/>
<path opacity="0.5" d="M225.45 437.518L253.97 453.978L208.33 480.318L187.41 468.258L190.17 457.898L225.45 437.518Z" fill="white"/>
<path d="M208.33 590.098L179.83 573.638L155.69 587.578L145.33 626.458L208.33 590.098Z" fill="#BEFFBE"/>
<path opacity="0.5" d="M208.33 590.098L179.83 573.638L155.69 587.578L145.33 626.458L208.33 590.098Z" fill="white"/>
<path d="M284.83 545.918L256.33 529.458L253.97 530.838V563.758L284.83 545.918Z" fill="#BEFFBE"/>
<path opacity="0.5" d="M253.97 563.758L284.83 545.918L256.33 529.458L253.97 530.838V563.758Z" fill="white"/>
<path d="M90.9297 673.238L62.4297 656.798L141.71 360.338L170.23 376.798L90.9297 673.238Z" fill="#BEFFBE"/>
<path opacity="0.15" d="M90.9297 673.238L62.4297 656.798L141.71 360.338L170.23 376.798L90.9297 673.238Z" fill="black"/>
<path d="M285.749 188.838C286.909 183.358 264.569 196.258 263.409 201.738L270.609 221.118C270.851 221.7 271.271 222.19 271.809 222.518C273.389 223.498 279.209 226.778 279.709 227.078C280.111 227.329 280.564 227.484 281.035 227.533C281.506 227.581 281.982 227.521 282.426 227.357C282.87 227.192 283.271 226.929 283.597 226.586C283.924 226.243 284.167 225.83 284.309 225.378L293.649 193.378C294.229 190.698 285.749 188.838 285.749 188.838Z" fill="#BEFFBE"/>
<path opacity="0.25" d="M285.749 188.838C286.909 183.358 264.569 196.258 263.409 201.738L270.609 221.118C270.851 221.7 271.271 222.19 271.809 222.518C273.389 223.498 279.209 226.778 279.709 227.078C280.111 227.329 280.564 227.484 281.035 227.533C281.506 227.581 281.982 227.521 282.426 227.357C282.87 227.192 283.271 226.929 283.597 226.586C283.924 226.243 284.167 225.83 284.309 225.378L293.649 193.378C294.229 190.698 285.749 188.838 285.749 188.838Z" fill="black"/>
<path d="M361.709 81.9179L175.309 189.438C174.441 190.012 173.719 190.781 173.201 191.684C172.684 192.587 172.385 193.599 172.329 194.638V255.458C172.382 256.497 172.682 257.509 173.204 258.41C173.725 259.311 174.454 260.074 175.329 260.638L177.189 261.718C178.12 262.186 179.147 262.429 180.189 262.429C181.231 262.429 182.258 262.186 183.189 261.718L369.589 153.918C370.463 153.353 371.191 152.589 371.712 151.689C372.234 150.788 372.534 149.777 372.589 148.738V88.0779C372.536 87.0384 372.236 86.0265 371.714 85.1258C371.193 84.2251 370.464 83.4614 369.589 82.8979L367.709 81.8179C366.77 81.3655 365.739 81.1389 364.697 81.1563C363.655 81.1736 362.632 81.4345 361.709 81.9179Z" fill="#BEFFBE"/>
<path opacity="0.25" d="M361.709 81.9179L175.309 189.438C174.441 190.012 173.719 190.781 173.201 191.684C172.684 192.587 172.385 193.599 172.329 194.638V255.458C172.382 256.497 172.682 257.509 173.204 258.41C173.725 259.311 174.454 260.074 175.329 260.638L177.189 261.718C178.12 262.186 179.147 262.429 180.189 262.429C181.231 262.429 182.258 262.186 183.189 261.718L369.589 153.918C370.463 153.353 371.191 152.589 371.712 151.689C372.234 150.788 372.534 149.777 372.589 148.738V88.0779C372.536 87.0384 372.236 86.0265 371.714 85.1258C371.193 84.2251 370.464 83.4614 369.589 82.8979L367.709 81.8179C366.77 81.3655 365.739 81.1389 364.697 81.1563C363.655 81.1736 362.632 81.4345 361.709 81.9179Z" fill="black"/>
<path d="M372.59 88.0779V89.2579C372.591 88.7726 372.465 88.2954 372.223 87.8745C371.982 87.4535 371.634 87.1037 371.214 86.8603C370.794 86.6169 370.317 86.4886 369.832 86.4881C369.347 86.4877 368.87 86.6153 368.45 86.8579L184.33 193.218C183.071 193.936 182.028 194.979 181.31 196.238L173.31 191.558C173.814 190.62 174.56 189.833 175.47 189.278L361.71 81.9179C362.64 81.45 363.668 81.2064 364.71 81.2064C365.751 81.2064 366.779 81.45 367.71 81.9179L369.59 82.9979C370.452 83.5516 371.172 84.2995 371.693 85.1816C372.214 86.0638 372.521 87.0557 372.59 88.0779Z" fill="#BEFFBE"/>
<path opacity="0.45" d="M372.59 88.0779V89.2579C372.591 88.7726 372.465 88.2954 372.223 87.8745C371.982 87.4535 371.634 87.1037 371.214 86.8603C370.794 86.6169 370.317 86.4886 369.832 86.4881C369.347 86.4877 368.87 86.6153 368.45 86.8579L184.33 193.218C183.071 193.936 182.028 194.979 181.31 196.238L173.31 191.558C173.814 190.62 174.56 189.833 175.47 189.278L361.71 81.9179C362.64 81.45 363.668 81.2064 364.71 81.2064C365.751 81.2064 366.779 81.45 367.71 81.9179L369.59 82.9979C370.452 83.5516 371.172 84.2995 371.693 85.1816C372.214 86.0638 372.521 87.0557 372.59 88.0779Z" fill="white"/>
<path d="M369.829 87.5579C369.532 87.5574 369.241 87.6406 368.989 87.7979L184.869 194.158C183.779 194.79 182.875 195.697 182.246 196.789C181.618 197.88 181.288 199.118 181.289 200.378V258.538C181.289 259.118 181.289 260.418 182.489 260.418C182.958 260.394 183.413 260.249 183.809 259.998L273.249 208.338L279.249 224.898C279.503 225.476 279.926 225.963 280.463 226.295C281 226.628 281.625 226.789 282.255 226.759C282.886 226.729 283.492 226.508 283.995 226.126C284.497 225.743 284.872 225.218 285.069 224.618L293.069 196.858L367.869 153.678C370.369 152.258 371.469 150.798 371.469 148.978V89.2579C371.469 88.8173 371.299 88.3937 370.993 88.0766C370.687 87.7594 370.269 87.5735 369.829 87.5579Z" fill="#2F3B49"/>
<path d="M182.489 261.498C181.109 261.498 180.209 260.338 180.209 258.538V200.378C180.21 198.931 180.592 197.51 181.315 196.257C182.038 195.004 183.077 193.963 184.329 193.238L368.449 86.8779C368.866 86.6276 369.343 86.4961 369.829 86.4979C370.559 86.5032 371.258 86.7956 371.775 87.3121C372.291 87.8286 372.584 88.5276 372.589 89.2579V148.978C372.47 150.204 372.023 151.375 371.295 152.367C370.566 153.36 369.583 154.138 368.449 154.618L294.029 197.578L286.029 224.918C285.778 225.735 285.279 226.455 284.603 226.978C283.926 227.501 283.103 227.801 282.249 227.838C281.408 227.872 280.576 227.652 279.863 227.206C279.149 226.76 278.587 226.109 278.249 225.338L272.669 209.918L184.349 260.938C183.789 261.285 183.147 261.478 182.489 261.498ZM369.829 88.6379C369.731 88.6107 369.627 88.6107 369.529 88.6379L185.409 195.078C184.481 195.618 183.711 196.391 183.174 197.321C182.637 198.251 182.353 199.304 182.349 200.378V258.538C182.332 258.827 182.387 259.115 182.509 259.378C182.779 259.325 183.036 259.224 183.269 259.078L273.809 206.778L280.209 224.538C280.366 224.932 280.643 225.265 281.002 225.491C281.36 225.717 281.781 225.823 282.204 225.794C282.626 225.765 283.029 225.603 283.353 225.33C283.678 225.058 283.907 224.689 284.009 224.278L292.209 196.158L292.569 195.938L367.369 152.758C370.069 151.198 370.449 149.978 370.449 148.978V89.2579C370.444 89.0951 370.377 88.9403 370.262 88.8251C370.147 88.7099 369.992 88.643 369.829 88.6379Z" fill="#BEFFBE"/>
<path opacity="0.3" d="M198.489 237.918C197.309 237.918 195.909 237.098 195.909 234.758V205.758C195.864 204.897 196.057 204.041 196.466 203.283C196.875 202.524 197.485 201.893 198.229 201.458L198.909 201.058C199.419 200.758 199.997 200.592 200.589 200.578C201.182 200.588 201.756 200.788 202.227 201.148C202.698 201.508 203.042 202.009 203.209 202.578L206.609 211.078V199.618C206.566 198.758 206.76 197.902 207.169 197.144C207.578 196.386 208.186 195.755 208.929 195.318L209.309 195.098C209.803 194.796 210.369 194.63 210.949 194.618C211.524 194.616 212.083 194.815 212.528 195.18C212.973 195.545 213.277 196.053 213.389 196.618C213.555 196.076 213.762 195.548 214.009 195.038L215.109 193.038C215.639 191.946 216.472 191.029 217.509 190.398L224.129 186.578C224.689 186.235 225.332 186.049 225.989 186.038C226.72 186.033 227.429 186.288 227.989 186.758C228.035 185.991 228.27 185.247 228.671 184.592C229.072 183.936 229.627 183.389 230.289 182.998L241.049 176.798C241.539 176.484 242.107 176.311 242.689 176.298C243.889 176.298 245.269 177.138 245.269 179.518V179.918C245.304 180.763 245.106 181.602 244.697 182.343C244.288 183.083 243.683 183.697 242.949 184.118L240.509 185.538C240.349 185.538 240.089 185.778 240.089 186.538V211.378C240.133 212.236 239.942 213.09 239.537 213.848C239.132 214.606 238.527 215.238 237.789 215.678L237.409 215.898C236.912 216.195 236.347 216.36 235.769 216.378C234.509 216.378 233.189 215.538 233.189 213.178V189.798L232.189 190.378C231.691 190.692 231.117 190.865 230.529 190.878H230.409V214.238C230.395 215.464 230.093 216.67 229.529 217.758L228.429 219.878C227.898 220.965 227.065 221.875 226.029 222.498L219.449 226.298C218.849 226.672 218.155 226.866 217.449 226.858C216.774 226.86 216.119 226.634 215.589 226.218L214.449 225.378C214.006 225.036 213.656 224.589 213.429 224.078V226.818C213.469 227.67 213.274 228.516 212.864 229.264C212.455 230.012 211.848 230.633 211.109 231.058L210.729 231.278C210.225 231.595 209.644 231.768 209.049 231.778C208.459 231.763 207.89 231.562 207.422 231.202C206.955 230.843 206.614 230.344 206.449 229.778L202.729 220.578V232.878C202.768 233.732 202.573 234.581 202.164 235.332C201.755 236.083 201.148 236.708 200.409 237.138L200.029 237.358C199.571 237.672 199.041 237.865 198.489 237.918ZM220.489 197.138C220.349 197.138 220.089 197.378 220.089 198.098V217.418L223.169 215.658C223.309 215.658 223.569 215.418 223.569 214.698V195.378L220.489 197.138ZM251.589 207.298C250.409 207.298 249.009 206.478 249.009 204.138V175.178C248.974 174.324 249.171 173.477 249.58 172.727C249.988 171.977 250.593 171.352 251.329 170.918L262.069 164.738C262.558 164.421 263.126 164.248 263.709 164.238C264.208 164.235 264.696 164.384 265.107 164.667C265.518 164.949 265.833 165.351 266.009 165.818C266.128 165.483 266.268 165.155 266.429 164.838L267.529 162.838C268.053 161.742 268.887 160.824 269.929 160.198L276.549 156.378C277.108 156.032 277.751 155.846 278.409 155.838C279.137 155.826 279.847 156.074 280.409 156.538L281.429 157.318C281.879 157.666 282.236 158.119 282.469 158.638V155.798C282.429 154.944 282.625 154.095 283.034 153.344C283.443 152.593 284.05 151.968 284.789 151.538L285.169 151.318C285.663 151.016 286.229 150.85 286.809 150.838C287.989 150.838 289.389 151.658 289.389 153.998V177.458L292.449 175.678C292.609 175.678 292.869 175.438 292.869 174.678V149.798C292.811 148.961 292.979 148.124 293.356 147.375C293.732 146.626 294.303 145.991 295.009 145.538L295.389 145.318C295.883 145.016 296.449 144.85 297.029 144.838C297.474 144.833 297.912 144.952 298.293 145.181C298.675 145.411 298.985 145.742 299.189 146.138C299.144 145.277 299.337 144.421 299.746 143.663C300.155 142.904 300.765 142.273 301.509 141.838L302.189 141.458C302.685 141.141 303.26 140.968 303.849 140.958C304.445 140.964 305.024 141.162 305.499 141.522C305.974 141.882 306.321 142.385 306.489 142.958L309.889 151.458V139.918C309.848 139.061 310.042 138.209 310.451 137.454C310.86 136.7 311.468 136.072 312.209 135.638L312.569 135.418C313.06 135.106 313.627 134.933 314.209 134.918C314.661 134.915 315.105 135.039 315.49 135.276C315.876 135.513 316.187 135.853 316.389 136.258C316.342 135.382 316.542 134.511 316.967 133.744C317.391 132.977 318.022 132.344 318.789 131.918L327.469 126.918C328.035 126.569 328.684 126.376 329.349 126.358C330.079 126.356 330.787 126.611 331.349 127.078L332.369 127.858C332.856 128.261 333.24 128.774 333.49 129.355C333.741 129.935 333.85 130.567 333.809 131.198V154.558C333.792 155.79 333.491 157.001 332.929 158.098L331.829 160.098C331.291 161.191 330.451 162.107 329.409 162.738L320.689 167.918C320.192 168.215 319.627 168.38 319.049 168.398C318.6 168.407 318.158 168.289 317.773 168.06C317.387 167.83 317.074 167.497 316.869 167.098C316.908 167.95 316.715 168.796 316.309 169.547C315.904 170.297 315.302 170.923 314.569 171.358L314.189 171.558C313.679 171.878 313.091 172.051 312.489 172.058C311.918 172.048 311.364 171.862 310.902 171.525C310.44 171.189 310.093 170.718 309.909 170.178L306.169 160.958V173.278C306.206 174.127 306.012 174.97 305.607 175.717C305.202 176.464 304.601 177.087 303.869 177.518L303.489 177.738C302.991 178.052 302.417 178.225 301.829 178.238C301.253 178.24 300.695 178.041 300.25 177.676C299.804 177.311 299.5 176.803 299.389 176.238C299.241 176.77 299.04 177.286 298.789 177.778L297.689 179.778C297.171 180.889 296.336 181.821 295.289 182.458L288.709 186.258C288.14 186.599 287.492 186.785 286.829 186.798C286.1 186.807 285.392 186.559 284.829 186.098L283.769 185.298C283.324 184.945 282.968 184.493 282.729 183.978C282.712 185.197 282.411 186.396 281.849 187.478L280.749 189.478C280.219 190.57 279.386 191.487 278.349 192.118L271.769 195.918C271.163 196.277 270.473 196.471 269.769 196.478C269.089 196.477 268.428 196.252 267.889 195.838L266.769 194.978C266.282 194.575 265.897 194.062 265.647 193.481C265.397 192.9 265.288 192.269 265.329 191.638V185.998C264.938 186.612 264.402 187.12 263.769 187.478L256.129 191.898C255.969 191.998 255.729 192.138 255.729 192.858V202.198C255.768 203.052 255.573 203.901 255.164 204.652C254.755 205.403 254.148 206.028 253.409 206.458L253.029 206.678C252.591 207.014 252.075 207.234 251.529 207.318L251.589 207.298ZM272.849 166.918C272.689 166.918 272.449 167.158 272.449 167.878V187.198L275.509 185.418C275.669 185.418 275.929 185.178 275.929 184.458V165.138L272.849 166.918ZM265.529 170.638C265.144 171.262 264.607 171.778 263.969 172.138L256.329 176.538C256.169 176.638 255.929 176.778 255.929 177.498V183.738L262.069 180.198C262.558 179.881 263.126 179.708 263.709 179.698C264.053 179.695 264.395 179.766 264.709 179.908C265.023 180.049 265.303 180.258 265.529 180.518V170.638ZM323.849 137.558C323.669 137.558 323.449 137.798 323.449 138.518V157.738L326.509 155.978C326.669 155.978 326.929 155.738 326.929 155.018V135.918L323.849 137.558ZM352.429 153.118C351.827 153.114 351.242 152.918 350.76 152.558C350.278 152.198 349.924 151.694 349.749 151.118L347.869 146.218C347.586 145.478 347.398 144.705 347.309 143.918L346.149 134.798C346.149 134.058 346.149 133.638 346.149 133.458C346.149 133.278 346.149 132.778 346.149 132.138L347.309 121.598C347.411 120.687 347.578 119.785 347.809 118.898L349.709 111.778C349.877 111.081 350.18 110.423 350.602 109.843C351.024 109.263 351.557 108.772 352.169 108.398L352.849 108.018C353.346 107.704 353.92 107.531 354.509 107.518H354.929H355.269C355.777 107.704 356.21 108.051 356.502 108.506C356.795 108.961 356.93 109.499 356.889 110.038C356.89 110.532 356.822 111.023 356.689 111.498L354.689 118.258C354.485 118.957 354.345 119.674 354.269 120.398L353.249 130.398C353.249 130.858 353.249 131.198 353.249 131.378C353.249 131.558 353.249 131.878 353.249 132.318L354.269 141.058C354.31 141.533 354.425 141.998 354.609 142.438L356.609 146.958C356.795 147.443 356.89 147.958 356.889 148.478C356.874 149.179 356.689 149.865 356.349 150.478C355.984 151.162 355.428 151.724 354.749 152.098L354.069 152.498C353.575 152.803 353.009 152.969 352.429 152.978V153.118ZM341.769 148.278C340.589 148.278 339.229 147.478 339.229 145.198V143.198C339.177 142.333 339.364 141.471 339.77 140.705C340.175 139.94 340.784 139.301 341.529 138.858L342.249 138.438C342.744 138.138 343.31 137.973 343.889 137.958C345.129 137.958 346.469 138.798 346.469 141.198V143.198C346.498 144.037 346.298 144.868 345.889 145.602C345.48 146.335 344.878 146.942 344.149 147.358L343.429 147.758C342.918 148.097 342.322 148.284 341.709 148.298L341.769 148.278ZM341.769 131.618C340.589 131.618 339.229 130.798 339.229 128.518V126.518C339.179 125.653 339.367 124.792 339.773 124.027C340.178 123.262 340.785 122.622 341.529 122.178L342.249 121.758C342.743 121.456 343.309 121.29 343.889 121.278C345.129 121.278 346.469 122.138 346.469 124.538V126.538C346.501 127.377 346.301 128.21 345.892 128.943C345.483 129.677 344.88 130.284 344.149 130.698L343.429 131.118C342.916 131.45 342.32 131.63 341.709 131.638L341.769 131.618Z" fill="#BEFFBE"/>
<path opacity="0.3" d="M198.489 236.998C198.109 236.998 196.869 236.838 196.869 234.778V205.758C196.819 205.064 196.966 204.37 197.291 203.755C197.616 203.139 198.107 202.628 198.709 202.278L199.389 201.878C199.75 201.655 200.164 201.53 200.589 201.518C200.985 201.532 201.367 201.671 201.68 201.915C201.992 202.16 202.219 202.497 202.329 202.878L207.549 215.918C207.56 215.798 207.56 215.678 207.549 215.558V199.558C207.499 198.864 207.646 198.17 207.971 197.555C208.296 196.939 208.787 196.428 209.389 196.078L209.769 195.858C210.117 195.639 210.517 195.515 210.929 195.498C211.309 195.498 212.549 195.678 212.549 197.758V226.798C212.589 227.482 212.438 228.165 212.114 228.769C211.789 229.373 211.302 229.874 210.709 230.218L210.329 230.438C209.967 230.661 209.553 230.785 209.129 230.798C208.741 230.793 208.365 230.664 208.056 230.43C207.746 230.196 207.52 229.87 207.409 229.498L201.889 215.918C201.889 216.038 201.889 216.178 201.889 216.298V233.058C201.931 233.745 201.781 234.431 201.456 235.038C201.131 235.646 200.644 236.151 200.049 236.498L199.689 236.718C199.319 236.911 198.906 237.007 198.489 236.998ZM217.549 225.898C217.077 225.909 216.617 225.753 216.249 225.458L215.129 224.618C214.759 224.3 214.47 223.898 214.285 223.446C214.101 222.994 214.027 222.504 214.069 222.018V198.598C214.078 197.517 214.345 196.454 214.849 195.498L215.949 193.398C216.393 192.473 217.085 191.691 217.949 191.138L224.549 187.338C224.97 187.077 225.453 186.932 225.949 186.918C226.449 186.909 226.934 187.087 227.309 187.418L228.369 188.218C228.739 188.532 229.028 188.93 229.212 189.379C229.397 189.828 229.471 190.314 229.429 190.798V214.238C229.415 215.318 229.148 216.38 228.649 217.338L227.549 219.338C227.11 220.261 226.416 221.038 225.549 221.578L218.969 225.378C218.541 225.642 218.051 225.787 217.549 225.798V225.898ZM219.969 196.338C219.662 196.515 219.413 196.777 219.253 197.094C219.093 197.41 219.029 197.766 219.069 198.118C219.069 198.118 219.069 219.038 219.069 219.078L223.549 216.498C223.856 216.321 224.104 216.058 224.264 215.742C224.424 215.426 224.488 215.07 224.449 214.718C224.449 214.718 224.449 193.798 224.449 193.738L219.969 196.338ZM235.769 215.478C235.269 215.478 234.129 215.258 234.129 213.218V188.158L231.709 189.558C231.353 189.778 230.947 189.902 230.529 189.918C230.149 189.918 228.929 189.758 228.929 187.738V187.238C228.883 186.547 229.031 185.857 229.356 185.246C229.681 184.635 230.171 184.126 230.769 183.778L241.529 177.558C241.877 177.339 242.277 177.215 242.689 177.198C243.069 177.198 244.309 177.358 244.309 179.458V179.918C244.348 180.595 244.199 181.269 243.878 181.866C243.556 182.462 243.075 182.958 242.489 183.298L240.029 184.718C239.72 184.902 239.473 185.173 239.316 185.496C239.16 185.82 239.102 186.182 239.149 186.538V211.378C239.198 212.072 239.052 212.766 238.727 213.381C238.402 213.996 237.91 214.508 237.309 214.858L236.929 215.078C236.58 215.297 236.18 215.421 235.769 215.438V215.478ZM251.529 206.378C251.149 206.378 249.909 206.218 249.909 204.158V175.178C249.867 174.49 250.017 173.805 250.342 173.197C250.667 172.59 251.154 172.085 251.749 171.738L262.469 165.558C262.822 165.332 263.23 165.207 263.649 165.198C264.029 165.198 265.269 165.358 265.269 167.398V167.918C265.313 168.606 265.164 169.292 264.839 169.9C264.514 170.508 264.025 171.013 263.429 171.358L255.809 175.758C255.498 175.931 255.246 176.193 255.086 176.51C254.926 176.827 254.864 177.185 254.909 177.538V185.418L262.469 181.058C262.826 180.84 263.231 180.717 263.649 180.698C264.029 180.698 265.269 180.858 265.269 182.918V183.418C265.314 184.103 265.165 184.787 264.84 185.392C264.514 185.997 264.025 186.498 263.429 186.838L255.809 191.238C255.497 191.414 255.244 191.68 255.084 192C254.923 192.321 254.862 192.682 254.909 193.038V202.378C254.953 203.066 254.804 203.752 254.479 204.36C254.154 204.968 253.665 205.473 253.069 205.818L252.709 206.018C252.355 206.242 251.947 206.367 251.529 206.378ZM269.909 195.678C269.439 195.676 268.983 195.522 268.609 195.238L267.489 194.398C267.119 194.08 266.83 193.678 266.645 193.226C266.461 192.774 266.387 192.284 266.429 191.798V168.358C266.44 167.284 266.708 166.228 267.209 165.278L268.309 163.178C268.747 162.25 269.441 161.466 270.309 160.918L276.909 157.098C277.33 156.837 277.813 156.692 278.309 156.678C278.806 156.683 279.287 156.86 279.669 157.178L280.729 157.978C281.099 158.296 281.388 158.698 281.572 159.15C281.757 159.602 281.831 160.092 281.789 160.578V184.018C281.777 185.092 281.51 186.148 281.009 187.098L279.909 189.098C279.465 190.022 278.772 190.805 277.909 191.358L271.329 195.158C270.9 195.419 270.411 195.564 269.909 195.578V195.678ZM272.309 166.118C272.004 166.296 271.758 166.559 271.601 166.876C271.445 167.192 271.385 167.548 271.429 167.898V188.858L275.929 186.258C276.236 186.081 276.484 185.818 276.644 185.502C276.804 185.186 276.868 184.83 276.829 184.478C276.829 184.478 276.829 163.558 276.829 163.518L272.309 166.118ZM286.829 185.918C286.331 185.913 285.851 185.736 285.469 185.418L284.389 184.598C284.02 184.278 283.732 183.877 283.548 183.425C283.363 182.973 283.288 182.484 283.329 181.998V155.798C283.285 155.11 283.433 154.423 283.759 153.816C284.084 153.208 284.572 152.703 285.169 152.358L285.549 152.138C285.897 151.919 286.297 151.795 286.709 151.778C287.089 151.778 288.329 151.938 288.329 153.998V179.098L292.829 176.498C293.137 176.314 293.385 176.043 293.541 175.72C293.698 175.396 293.756 175.034 293.709 174.678V149.798C293.667 149.11 293.817 148.425 294.142 147.817C294.467 147.21 294.954 146.705 295.549 146.358L295.929 146.138C296.284 145.918 296.691 145.794 297.109 145.778C297.489 145.778 298.729 145.938 298.729 147.998V174.218C298.709 175.293 298.435 176.349 297.929 177.298L296.849 179.298C296.417 180.241 295.722 181.039 294.849 181.598L288.269 185.398C287.848 185.661 287.365 185.806 286.869 185.818L286.829 185.918ZM301.829 177.318C301.449 177.318 300.229 177.158 300.229 175.098V146.078C300.183 145.387 300.331 144.697 300.656 144.086C300.981 143.475 301.471 142.966 302.069 142.618L302.749 142.218C303.103 141.995 303.511 141.871 303.929 141.858C304.326 141.858 304.712 141.989 305.027 142.232C305.342 142.474 305.567 142.814 305.669 143.198L311.009 156.258C311.009 156.138 311.009 156.018 311.009 155.898V139.918C310.963 139.227 311.111 138.537 311.436 137.926C311.761 137.315 312.25 136.806 312.849 136.458L313.209 136.238C313.557 136.019 313.957 135.895 314.369 135.878C314.749 135.878 316.009 136.038 316.009 138.138V167.158C316.054 167.843 315.905 168.527 315.58 169.132C315.254 169.737 314.765 170.238 314.169 170.578L313.789 170.798C313.427 171.038 313.003 171.17 312.569 171.178C312.184 171.169 311.813 171.038 311.508 170.804C311.202 170.571 310.979 170.246 310.869 169.878L305.329 156.178C305.318 156.311 305.318 156.445 305.329 156.578V173.338C305.374 174.023 305.225 174.707 304.9 175.312C304.574 175.917 304.085 176.418 303.489 176.758L303.109 176.978C302.723 177.211 302.279 177.329 301.829 177.318ZM319.049 167.318C318.669 167.318 317.429 167.158 317.429 165.098V136.198C317.387 135.51 317.537 134.825 317.862 134.217C318.187 133.61 318.674 133.105 319.269 132.758L327.949 127.758C328.369 127.495 328.853 127.35 329.349 127.338C329.849 127.329 330.334 127.507 330.709 127.838L331.749 128.638C332.126 128.947 332.422 129.343 332.61 129.793C332.799 130.243 332.874 130.732 332.829 131.218V154.558C332.812 155.64 332.538 156.703 332.029 157.658L330.929 159.658C330.487 160.584 329.794 161.367 328.929 161.918L320.229 166.918C319.886 167.151 319.484 167.283 319.069 167.298L319.049 167.318ZM323.309 136.678C323.005 136.857 322.761 137.121 322.605 137.437C322.448 137.753 322.387 138.108 322.429 138.458V159.418L326.929 156.818C327.234 156.64 327.48 156.377 327.636 156.06C327.793 155.744 327.853 155.388 327.809 155.038V134.158L323.309 136.678ZM352.369 152.098C351.953 152.094 351.551 151.95 351.228 151.688C350.904 151.427 350.679 151.064 350.589 150.658L348.689 145.918C348.455 145.27 348.287 144.6 348.189 143.918L347.009 134.618C347.009 133.958 347.009 133.578 347.009 133.398C347.009 133.218 347.009 132.758 347.009 132.158L348.169 121.638C348.264 120.78 348.424 119.931 348.649 119.098L350.549 111.978C350.678 111.401 350.922 110.856 351.265 110.375C351.609 109.894 352.045 109.487 352.549 109.178L353.229 108.778C353.583 108.553 353.989 108.422 354.409 108.398H354.589L354.929 108.498C355.234 108.629 355.489 108.856 355.655 109.145C355.821 109.433 355.889 109.768 355.849 110.098C355.846 110.504 355.786 110.909 355.669 111.298L353.669 118.058C353.449 118.809 353.302 119.579 353.229 120.358L352.189 130.358C352.189 130.878 352.189 131.238 352.189 131.438C352.169 131.778 352.169 132.118 352.189 132.458L353.209 141.238C353.252 141.803 353.387 142.357 353.609 142.878L355.609 147.398C355.757 147.76 355.831 148.147 355.829 148.538C355.817 149.103 355.673 149.658 355.409 150.158C355.106 150.681 354.672 151.115 354.149 151.418L353.469 151.818C353.116 152.026 352.718 152.143 352.309 152.158L352.369 152.098ZM341.709 147.278C341.329 147.278 340.109 147.118 340.109 145.138V143.138C340.056 142.438 340.201 141.737 340.526 141.115C340.851 140.493 341.344 139.974 341.949 139.618L342.669 139.198C343.017 138.979 343.417 138.855 343.829 138.838C344.309 138.838 345.449 139.078 345.449 141.138V143.138C345.484 143.808 345.33 144.475 345.005 145.062C344.68 145.649 344.196 146.133 343.609 146.458L342.889 146.878C342.539 147.112 342.13 147.244 341.709 147.258V147.278ZM341.709 130.598C341.329 130.598 340.109 130.458 340.109 128.458V126.458C340.061 125.759 340.208 125.06 340.532 124.438C340.857 123.817 341.347 123.298 341.949 122.938L342.669 122.538C343.017 122.319 343.417 122.195 343.829 122.178C344.309 122.178 345.449 122.398 345.449 124.478V126.478C345.505 127.167 345.361 127.859 345.035 128.469C344.709 129.079 344.214 129.582 343.609 129.918L342.889 130.338C342.533 130.558 342.127 130.682 341.709 130.698V130.598Z" fill="#BEFFBE"/>
<path d="M199.569 235.598L199.189 235.798C198.269 236.338 197.829 235.978 197.829 234.778V205.758C197.781 205.231 197.884 204.702 198.124 204.231C198.365 203.761 198.734 203.368 199.189 203.098L199.869 202.718C200.609 202.278 201.129 202.438 201.429 203.218L206.909 216.898C206.994 217.12 207.148 217.309 207.349 217.438C207.419 217.487 207.503 217.513 207.589 217.513C207.675 217.513 207.758 217.487 207.829 217.438C208.071 217.287 208.249 217.052 208.329 216.778C208.469 216.387 208.536 215.973 208.529 215.558V199.558C208.484 199.032 208.587 198.503 208.828 198.033C209.068 197.563 209.436 197.169 209.889 196.898L210.249 196.698C211.169 196.158 211.629 196.518 211.629 197.758V226.798C211.667 227.317 211.558 227.837 211.314 228.297C211.07 228.757 210.701 229.139 210.249 229.398L209.889 229.618C209.129 230.038 208.609 229.898 208.309 229.158L202.529 214.818C202.289 214.218 202.009 214.018 201.629 214.218C201.388 214.397 201.213 214.65 201.129 214.938C200.985 215.342 200.917 215.769 200.929 216.198V232.958C200.97 233.481 200.865 234.005 200.624 234.471C200.384 234.938 200.019 235.328 199.569 235.598Z" fill="#BEFFBE"/>
<path d="M227.83 216.898L226.75 218.898C226.382 219.673 225.799 220.326 225.069 220.778L218.489 224.578C218.248 224.752 217.957 224.846 217.659 224.846C217.362 224.846 217.071 224.752 216.83 224.578L215.709 223.718C215.459 223.487 215.267 223.199 215.149 222.88C215.03 222.56 214.99 222.217 215.03 221.878V198.598C215.039 197.663 215.272 196.744 215.709 195.918L216.789 193.918C217.163 193.152 217.745 192.507 218.47 192.058L225.069 188.238C225.312 188.056 225.607 187.958 225.909 187.958C226.212 187.958 226.507 188.056 226.75 188.238L227.83 189.078C228.08 189.305 228.272 189.589 228.39 189.905C228.509 190.222 228.549 190.562 228.509 190.898V214.338C228.484 215.232 228.251 216.109 227.83 216.898ZM225.409 214.718V193.918C225.409 192.698 224.969 192.358 224.049 192.878L219.489 195.518C219.038 195.776 218.67 196.158 218.429 196.619C218.188 197.08 218.084 197.6 218.129 198.118V218.918C218.129 220.138 218.569 220.478 219.489 219.958L224.049 217.318C224.499 217.058 224.866 216.676 225.107 216.215C225.348 215.755 225.453 215.236 225.409 214.718Z" fill="#BEFFBE"/>
<path d="M231.229 184.598L242.009 178.378C242.909 177.858 243.369 178.218 243.369 179.458V179.918C243.404 180.429 243.296 180.94 243.055 181.392C242.815 181.845 242.452 182.221 242.009 182.478L239.549 183.898C239.098 184.166 238.731 184.556 238.49 185.023C238.25 185.49 238.145 186.015 238.189 186.538V211.378C238.232 211.904 238.127 212.431 237.887 212.901C237.647 213.371 237.281 213.765 236.829 214.038L236.449 214.258C235.549 214.778 235.089 214.418 235.089 213.178V188.378C235.089 187.118 234.629 186.778 233.729 187.298L231.229 188.738C230.329 189.258 229.869 188.918 229.869 187.738V187.238C229.825 186.715 229.93 186.19 230.17 185.723C230.411 185.256 230.778 184.866 231.229 184.598Z" fill="#BEFFBE"/>
<path d="M252.229 172.578L262.949 166.378C263.869 165.858 264.309 166.198 264.309 167.398V167.918C264.351 168.438 264.246 168.96 264.005 169.423C263.765 169.887 263.398 170.273 262.949 170.538L255.329 174.938C254.877 175.196 254.509 175.578 254.268 176.039C254.027 176.5 253.923 177.02 253.969 177.538V185.258C253.969 186.478 254.409 186.818 255.329 186.298L263.009 181.918C263.929 181.398 264.369 181.738 264.369 182.958V183.458C264.385 183.953 264.268 184.442 264.028 184.876C263.789 185.309 263.436 185.669 263.009 185.918L255.389 190.318C254.94 190.58 254.575 190.962 254.335 191.422C254.094 191.882 253.988 192.401 254.029 192.918V202.278C254.07 202.798 253.962 203.318 253.717 203.779C253.473 204.24 253.102 204.621 252.649 204.878L252.289 205.098C251.369 205.638 250.929 205.278 250.929 204.078V175.178C250.877 174.666 250.972 174.15 251.202 173.69C251.432 173.229 251.788 172.844 252.229 172.578Z" fill="#BEFFBE"/>
<path d="M280.189 186.678L279.109 188.678C278.736 189.449 278.154 190.101 277.429 190.558L270.849 194.338C270.607 194.512 270.317 194.606 270.019 194.606C269.721 194.606 269.431 194.512 269.189 194.338L268.069 193.498C267.818 193.267 267.626 192.979 267.508 192.66C267.39 192.34 267.349 191.997 267.389 191.658V168.358C267.399 167.429 267.632 166.517 268.069 165.698L269.149 163.698C269.516 162.923 270.1 162.27 270.829 161.818L277.429 157.998C277.67 157.813 277.965 157.713 278.269 157.713C278.573 157.713 278.868 157.813 279.109 157.998L280.189 158.818C280.439 159.049 280.632 159.336 280.75 159.656C280.868 159.976 280.909 160.319 280.869 160.658V184.098C280.847 184.999 280.614 185.883 280.189 186.678ZM277.769 184.478V163.678C277.769 162.478 277.309 162.118 276.409 162.658L271.849 165.278C271.399 165.543 271.033 165.929 270.792 166.392C270.552 166.856 270.447 167.378 270.489 167.898V188.698C270.489 189.898 270.929 190.238 271.849 189.718L276.409 187.078C276.857 186.816 277.222 186.433 277.463 185.974C277.704 185.514 277.81 184.995 277.769 184.478Z" fill="#BEFFBE"/>
<path d="M296.029 147.178L296.409 146.978C297.309 146.438 297.769 146.798 297.769 147.998V174.218C297.759 175.146 297.526 176.059 297.089 176.878L295.989 178.878C295.654 179.699 295.074 180.397 294.329 180.878L287.749 184.678C287.512 184.864 287.22 184.966 286.919 184.966C286.618 184.966 286.325 184.864 286.089 184.678L285.009 183.918C284.756 183.688 284.561 183.401 284.439 183.081C284.318 182.762 284.273 182.418 284.309 182.078V155.798C284.271 155.276 284.38 154.754 284.624 154.291C284.868 153.827 285.237 153.442 285.689 153.178L286.049 152.978C286.969 152.438 287.409 152.798 287.409 153.998V178.898C287.409 180.138 287.869 180.498 288.789 179.958L293.349 177.338C293.799 177.063 294.164 176.669 294.404 176.2C294.644 175.73 294.749 175.204 294.709 174.678V149.798C294.667 149.282 294.769 148.765 295.001 148.303C295.234 147.841 295.59 147.451 296.029 147.178Z" fill="#BEFFBE"/>
<path d="M303.009 175.918L302.629 176.138C301.729 176.658 301.269 176.318 301.269 175.098V146.078C301.226 145.555 301.33 145.03 301.571 144.563C301.811 144.096 302.178 143.706 302.629 143.438L303.309 143.038C304.069 142.598 304.589 142.778 304.889 143.538L310.369 157.218C310.443 157.441 310.591 157.632 310.789 157.758C310.864 157.806 310.951 157.832 311.039 157.832C311.128 157.832 311.215 157.806 311.289 157.758C311.534 157.61 311.713 157.374 311.789 157.098C311.92 156.712 311.981 156.305 311.969 155.898V139.918C311.926 139.395 312.03 138.87 312.271 138.403C312.511 137.936 312.878 137.546 313.329 137.278L313.709 137.058C314.609 136.538 315.069 136.898 315.069 138.138V167.158C315.11 167.675 315.004 168.194 314.764 168.654C314.523 169.114 314.158 169.496 313.709 169.758L313.329 169.978C312.589 170.418 312.069 170.258 311.769 169.518L305.969 155.198C305.749 154.578 305.449 154.378 305.089 154.598C304.843 154.767 304.66 155.013 304.569 155.298C304.434 155.711 304.366 156.143 304.369 156.578V173.338C304.409 173.852 304.302 174.367 304.061 174.824C303.821 175.28 303.456 175.66 303.009 175.918Z" fill="#BEFFBE"/>
<path d="M331.189 157.238L330.089 159.238C329.723 160.008 329.148 160.66 328.429 161.118L319.749 166.118C318.829 166.638 318.369 166.298 318.369 165.098V136.198C318.328 135.678 318.436 135.157 318.68 134.697C318.925 134.236 319.295 133.855 319.749 133.598L328.429 128.578C328.668 128.398 328.959 128.3 329.259 128.3C329.558 128.3 329.85 128.398 330.089 128.578L331.189 129.418C331.439 129.645 331.631 129.929 331.75 130.245C331.868 130.562 331.909 130.902 331.869 131.238V154.558C331.859 155.493 331.626 156.412 331.189 157.238ZM322.849 160.278L327.409 157.638C327.857 157.376 328.223 156.994 328.463 156.534C328.704 156.074 328.81 155.555 328.769 155.038V134.338C328.769 133.118 328.309 132.778 327.409 133.298L322.849 135.918C322.395 136.175 322.025 136.556 321.78 137.017C321.536 137.477 321.428 137.998 321.469 138.518V159.258C321.469 160.458 321.929 160.798 322.849 160.278Z" fill="#BEFFBE"/>
<path d="M343.15 129.078L342.43 129.478C341.51 130.018 341.07 129.698 341.07 128.538V126.538C341.02 126.008 341.122 125.476 341.363 125.002C341.603 124.527 341.973 124.131 342.43 123.858L343.15 123.438C344.05 122.918 344.51 123.278 344.51 124.558V126.558C344.542 127.063 344.432 127.567 344.191 128.013C343.951 128.459 343.59 128.828 343.15 129.078ZM343.15 145.738L342.43 146.158C341.51 146.678 341.07 146.358 341.07 145.218V143.218C341.017 142.685 341.116 142.148 341.357 141.67C341.598 141.192 341.97 140.792 342.43 140.518L343.15 140.098C344.05 139.578 344.51 139.958 344.51 141.218V143.218C344.544 143.724 344.435 144.229 344.194 144.675C343.954 145.121 343.591 145.489 343.15 145.738Z" fill="#BEFFBE"/>
<path d="M355.009 148.558C355.007 148.963 354.904 149.362 354.709 149.718C354.499 150.097 354.187 150.409 353.809 150.618L353.129 151.018C352.382 151.445 351.862 151.245 351.569 150.418L349.569 145.478C349.333 144.874 349.178 144.242 349.109 143.598L347.969 134.498C347.969 133.918 347.969 133.558 347.969 133.398C347.969 133.238 347.969 132.798 347.969 132.238L349.109 121.758C349.195 120.946 349.349 120.144 349.569 119.358L351.569 112.218C351.73 111.293 352.247 110.467 353.009 109.918L353.689 109.518C353.949 109.331 354.272 109.252 354.589 109.298C354.789 109.378 354.889 109.618 354.889 110.018C354.89 110.337 354.843 110.653 354.749 110.958L352.749 117.718C352.526 118.518 352.365 119.333 352.269 120.158L351.249 130.158C351.249 130.738 351.249 131.118 351.249 131.338C351.249 131.558 351.249 131.918 351.249 132.438L352.269 141.238C352.342 141.922 352.503 142.595 352.749 143.238L354.749 147.738C354.898 147.987 354.987 148.268 355.009 148.558Z" fill="#BEFFBE"/>
<path opacity="0.6" d="M263.009 166.378L252.289 172.578C251.837 172.836 251.469 173.218 251.228 173.679C250.987 174.14 250.883 174.66 250.929 175.178V204.158C250.929 205.358 251.369 205.718 252.289 205.178L252.649 204.958C253.102 204.701 253.473 204.32 253.718 203.859C253.962 203.398 254.07 202.878 254.029 202.358V192.998C253.988 192.481 254.094 191.962 254.335 191.502C254.575 191.042 254.941 190.66 255.389 190.398L263.009 185.918C263.459 185.658 263.825 185.276 264.066 184.815C264.307 184.355 264.412 183.836 264.369 183.318V182.818C264.369 181.598 263.929 181.258 263.009 181.778L255.389 186.198C254.469 186.718 254.029 186.378 254.029 185.158V177.518C253.983 177 254.087 176.48 254.328 176.019C254.569 175.558 254.937 175.176 255.389 174.918L263.009 170.518C263.459 170.253 263.825 169.867 264.065 169.403C264.306 168.94 264.411 168.418 264.369 167.898V167.398C264.309 166.198 263.869 165.918 263.009 166.378ZM210.249 196.718L209.889 196.918C209.434 197.189 209.063 197.581 208.819 198.051C208.575 198.521 208.468 199.05 208.509 199.578V215.578C208.521 215.992 208.46 216.405 208.329 216.798C208.249 217.072 208.071 217.307 207.829 217.458C207.758 217.507 207.675 217.533 207.589 217.533C207.503 217.533 207.419 217.507 207.349 217.458C207.148 217.329 206.994 217.14 206.909 216.918L201.429 203.238C201.129 202.458 200.609 202.298 199.869 202.738L199.189 203.118C198.734 203.388 198.365 203.781 198.124 204.251C197.884 204.722 197.781 205.251 197.829 205.778V234.798C197.829 235.998 198.269 236.358 199.189 235.818L199.569 235.618C200.015 235.35 200.379 234.963 200.619 234.5C200.859 234.038 200.966 233.518 200.929 232.998V216.238C200.917 215.809 200.985 215.382 201.129 214.978C201.213 214.69 201.388 214.437 201.629 214.258C202.009 214.058 202.289 214.258 202.529 214.858L208.309 229.198C208.609 229.938 209.129 230.078 209.889 229.658L210.249 229.438C210.701 229.179 211.07 228.797 211.314 228.337C211.558 227.877 211.667 227.357 211.629 226.838V197.778C211.629 196.538 211.169 196.178 210.249 196.718ZM279.109 157.918C278.868 157.733 278.572 157.633 278.269 157.633C277.965 157.633 277.67 157.733 277.429 157.918L270.829 161.738C270.1 162.19 269.516 162.843 269.149 163.618L268.069 165.618C267.632 166.437 267.398 167.35 267.389 168.278V191.718C267.349 192.057 267.39 192.4 267.508 192.72C267.626 193.039 267.818 193.327 268.069 193.558L269.189 194.398C269.43 194.572 269.721 194.666 270.019 194.666C270.317 194.666 270.607 194.572 270.849 194.398L277.429 190.618C278.154 190.161 278.736 189.509 279.109 188.738L280.189 186.738C280.626 185.919 280.859 185.006 280.869 184.078V160.578C280.909 160.239 280.868 159.896 280.75 159.576C280.631 159.256 280.439 158.969 280.189 158.738L279.109 157.918ZM277.769 184.478C277.809 184.995 277.703 185.514 277.463 185.974C277.222 186.434 276.857 186.816 276.409 187.078L271.849 189.718C270.929 190.238 270.489 189.898 270.489 188.698V167.918C270.447 167.398 270.552 166.876 270.792 166.413C271.033 165.949 271.399 165.563 271.849 165.298L276.409 162.678C277.309 162.138 277.769 162.498 277.769 163.698V184.478ZM226.749 188.138C226.506 187.956 226.212 187.858 225.909 187.858C225.606 187.858 225.311 187.956 225.069 188.138L218.469 191.958C217.745 192.407 217.162 193.052 216.789 193.818L215.709 195.818C215.272 196.644 215.038 197.563 215.029 198.498V221.918C214.989 222.257 215.03 222.6 215.148 222.92C215.266 223.239 215.458 223.527 215.709 223.758L216.829 224.618C217.07 224.792 217.361 224.886 217.659 224.886C217.957 224.886 218.247 224.792 218.489 224.618L225.069 220.818C225.798 220.366 226.381 219.713 226.749 218.938L227.829 216.938C228.266 216.119 228.499 215.206 228.509 214.278V190.798C228.549 190.462 228.508 190.122 228.389 189.805C228.271 189.489 228.079 189.205 227.829 188.978L226.749 188.138ZM225.409 214.718C225.452 215.236 225.347 215.755 225.106 216.215C224.865 216.676 224.499 217.058 224.049 217.318L219.489 219.918C218.569 220.438 218.129 220.098 218.129 218.878V198.118C218.083 197.6 218.187 197.08 218.428 196.619C218.669 196.158 219.037 195.776 219.489 195.518L224.049 192.878C224.969 192.358 225.409 192.698 225.409 193.918V214.718ZM242.009 178.378L231.229 184.598C230.777 184.866 230.41 185.256 230.17 185.723C229.929 186.19 229.825 186.715 229.869 187.238V187.738C229.869 188.918 230.329 189.258 231.229 188.738L233.729 187.298C234.629 186.778 235.089 187.118 235.089 188.378V213.218C235.089 214.458 235.549 214.818 236.449 214.298L236.829 214.078C237.28 213.805 237.647 213.411 237.887 212.941C238.127 212.471 238.232 211.944 238.189 211.418V186.578C238.145 186.055 238.249 185.53 238.49 185.063C238.73 184.596 239.097 184.206 239.549 183.938L242.009 182.518C242.452 182.261 242.815 181.885 243.055 181.433C243.295 180.98 243.404 180.469 243.369 179.958V179.458C243.369 178.218 243.009 177.918 242.009 178.378ZM296.409 146.978L296.029 147.178C295.582 147.446 295.219 147.833 294.979 148.296C294.738 148.758 294.631 149.278 294.669 149.798V174.678C294.709 175.204 294.604 175.73 294.364 176.2C294.124 176.669 293.759 177.063 293.309 177.338L288.749 179.918C287.829 180.458 287.369 180.098 287.369 178.858V153.918C287.369 152.718 286.929 152.358 286.009 152.898L285.649 153.098C285.197 153.362 284.828 153.747 284.584 154.211C284.34 154.674 284.231 155.196 284.269 155.718V181.918C284.233 182.258 284.278 182.602 284.399 182.921C284.521 183.241 284.716 183.528 284.969 183.758L286.089 184.598C286.325 184.784 286.618 184.886 286.919 184.886C287.22 184.886 287.512 184.784 287.749 184.598L294.329 180.798C295.074 180.317 295.654 179.619 295.989 178.798L297.089 176.798C297.526 175.979 297.759 175.066 297.769 174.138V147.918C297.769 146.798 297.309 146.438 296.409 146.978ZM343.149 140.058L342.429 140.478C341.969 140.752 341.597 141.152 341.356 141.63C341.116 142.108 341.016 142.645 341.069 143.178V145.178C341.069 146.318 341.509 146.638 342.429 146.118L343.149 145.698C343.587 145.451 343.947 145.086 344.188 144.643C344.429 144.201 344.54 143.7 344.509 143.198V141.198C344.509 139.918 344.049 139.538 343.149 140.058ZM352.849 143.278C352.603 142.635 352.442 141.962 352.369 141.278L351.349 132.478C351.349 131.958 351.349 131.598 351.349 131.378C351.349 131.158 351.349 130.778 351.349 130.198L352.369 120.198C352.465 119.373 352.626 118.558 352.849 117.758L354.849 110.998C354.943 110.693 354.99 110.377 354.989 110.058C354.989 109.658 354.889 109.418 354.689 109.338C354.372 109.292 354.049 109.371 353.789 109.558L353.009 109.918C352.219 110.426 351.659 111.223 351.449 112.138L349.449 119.278C349.238 120.066 349.085 120.868 348.989 121.678L347.849 132.158C347.849 132.718 347.849 133.118 347.849 133.318C347.849 133.518 347.849 133.838 347.849 134.418L348.989 143.518C349.068 144.16 349.222 144.791 349.449 145.398L351.449 150.338C351.742 151.151 352.262 151.351 353.009 150.938L353.689 150.538C354.067 150.329 354.379 150.017 354.589 149.638C354.784 149.282 354.887 148.884 354.889 148.478C354.898 148.211 354.85 147.945 354.749 147.698L352.849 143.278ZM343.149 123.398L342.429 123.818C341.972 124.091 341.603 124.487 341.362 124.962C341.121 125.436 341.02 125.968 341.069 126.498V128.498C341.069 129.658 341.509 129.978 342.429 129.438L343.149 129.038C343.589 128.788 343.95 128.419 344.19 127.973C344.431 127.527 344.541 127.023 344.509 126.518V124.518C344.509 123.238 344.049 122.878 343.149 123.398ZM313.609 137.038L313.229 137.258C312.777 137.526 312.41 137.916 312.17 138.383C311.929 138.85 311.825 139.375 311.869 139.898V155.898C311.88 156.305 311.819 156.712 311.689 157.098C311.606 157.37 311.428 157.604 311.189 157.758C311.114 157.806 311.027 157.832 310.939 157.832C310.85 157.832 310.763 157.806 310.689 157.758C310.491 157.632 310.342 157.441 310.269 157.218L304.789 143.538C304.489 142.778 303.969 142.598 303.209 143.038L302.529 143.438C302.077 143.706 301.71 144.096 301.47 144.563C301.229 145.03 301.125 145.555 301.169 146.078V175.098C301.169 176.318 301.629 176.658 302.529 176.138L303.009 175.918C303.459 175.658 303.825 175.276 304.066 174.815C304.307 174.355 304.412 173.836 304.369 173.318V156.558C304.365 156.123 304.433 155.691 304.569 155.278C304.659 154.993 304.842 154.747 305.089 154.578C305.449 154.358 305.749 154.578 305.969 155.178L311.769 169.498C312.069 170.238 312.589 170.398 313.329 169.958L313.709 169.738C314.157 169.476 314.522 169.094 314.763 168.634C315.003 168.174 315.109 167.655 315.069 167.138V138.118C315.009 136.878 314.509 136.518 313.609 137.038ZM330.089 128.558C329.849 128.378 329.558 128.28 329.259 128.28C328.959 128.28 328.668 128.378 328.429 128.558L319.749 133.578C319.295 133.835 318.924 134.216 318.68 134.677C318.435 135.137 318.328 135.658 318.369 136.178V165.158C318.369 166.358 318.829 166.698 319.749 166.178L328.429 161.178C329.148 160.72 329.723 160.068 330.089 159.298L331.189 157.298C331.626 156.472 331.859 155.553 331.869 154.618V131.218C331.909 130.882 331.868 130.542 331.749 130.225C331.631 129.909 331.439 129.625 331.189 129.398L330.089 128.558ZM328.769 155.038C328.809 155.555 328.703 156.074 328.463 156.534C328.222 156.994 327.857 157.376 327.409 157.638L322.849 160.278C321.929 160.798 321.469 160.458 321.469 159.258V138.538C321.428 138.018 321.535 137.497 321.78 137.037C322.024 136.576 322.395 136.195 322.849 135.938L327.409 133.298C328.309 132.778 328.769 133.118 328.769 134.338V155.038Z" fill="white"/>
<path d="M652.529 719.158C644.553 715.518 636.114 712.995 627.449 711.658C622.148 710.779 616.735 710.826 611.449 711.798C607.686 712.567 604.041 713.832 600.609 715.558C588.849 721.398 587.149 727.898 586.769 733.398C586.389 738.898 589.429 746.258 599.149 753.058L765.969 869.918C796.334 853.741 824.553 833.826 849.969 810.638C777.489 776.958 659.209 722.018 652.529 719.158Z" fill="#2F3B49"/>
<path d="M705.909 473.218C716.149 475.218 720.149 475.918 725.049 484.398C729.949 492.878 738.269 524.398 740.549 530.938C742.829 537.478 743.509 539.858 742.549 547.138C741.569 554.738 737.089 568.238 735.209 575.638C734.329 579.058 733.749 582.398 733.109 585.898C732.224 589.48 731.088 592.995 729.709 596.418C729.119 598.087 728.089 599.565 726.729 600.698C725.889 601.438 724.729 601.518 723.929 602.198C723.129 602.878 722.909 604.078 721.789 604.638C720.669 605.198 719.109 604.878 718.009 605.518C716.924 606.313 715.796 607.048 714.629 607.718C713.555 608.03 712.573 608.6 711.769 609.378C711.049 610.158 710.369 611.918 709.069 611.778C707.769 611.638 707.389 610.238 707.329 609.038C707.375 606.683 708.174 604.405 709.609 602.538C710.885 600.459 712.281 598.455 713.789 596.538C715.258 594.76 716.31 592.676 716.869 590.438C717.329 588.938 717.189 587.038 715.249 587.898C712.989 588.938 710.589 591.098 707.869 590.618C705.989 590.298 705.869 588.818 706.969 587.578C708.778 585.534 710.435 583.362 711.929 581.078C713.449 578.738 714.709 576.278 716.289 573.998C717.143 572.813 718.071 571.684 719.069 570.618C721.829 567.618 721.709 563.518 722.029 559.698C722.469 554.398 722.849 540.798 722.849 540.798L710.449 510.258L705.909 473.218Z" fill="#FFBDA7"/>
<path d="M722.049 559.698C722.169 553.398 722.429 547.098 722.669 540.798C718.669 531.078 714.389 520.378 710.469 510.258C714.789 520.378 718.989 530.545 723.069 540.758C722.749 547.078 722.469 553.398 722.049 559.698Z" fill="white"/>
<path d="M636.77 710.398C640.29 709.158 642.91 709.038 642.87 710.778C642.393 712.922 641.633 714.994 640.61 716.938L637.81 720.798L636.47 724.598C636.47 724.598 634.83 726.598 634.73 726.798C634.63 726.998 634.09 719.698 634.09 719.698C634.09 719.698 632.11 711.298 636.77 710.398Z" fill="#2F3B49"/>
<path d="M674.57 561.918C674.57 561.918 666.57 571.418 661.83 589.218C657.457 605.761 654.117 622.56 651.83 639.518C650.69 647.098 648.85 656.658 646.13 671.518C644.03 682.958 637.43 718.038 637.43 718.038C637.43 718.038 641.23 724.358 645.83 726.278C652.43 729.038 658.79 727.778 659.63 721.878C659.63 721.878 663.99 714.918 670.61 696.958C673.792 688.713 676.333 680.234 678.21 671.598C678.865 666.177 679.059 660.711 678.79 655.258L705.35 609.078C708.285 604.019 711.803 599.32 715.83 595.078C718.318 592.531 720.269 589.512 721.57 586.198C725.97 574.198 719.57 558.058 719.57 558.058L674.57 561.918Z" fill="#2F3B49"/>
<path d="M651.929 639.498C647.649 665.798 642.749 691.998 637.529 718.118C642.129 691.878 647.049 665.698 651.929 639.498Z" fill="white"/>
<path d="M641.569 738.338L640.149 738.058C640.249 737.518 650.889 682.758 658.329 659.758C665.769 636.758 685.269 591.078 685.469 590.618L686.809 591.198C686.609 591.638 667.149 637.298 659.729 660.218C652.309 683.138 641.689 737.798 641.569 738.338Z" fill="black"/>
<path d="M709.529 577.298H665.909C664.313 581.171 662.977 585.147 661.909 589.198C657.877 604.429 654.771 619.891 652.609 635.498C653.669 642.638 654.869 649.978 655.969 655.018C658.909 668.338 660.749 677.738 663.069 683.238C665.309 687.887 667.952 692.331 670.969 696.518C674.075 688.44 676.556 680.136 678.389 671.678C679.044 666.257 679.238 660.791 678.969 655.338L704.969 610.238L706.829 603.138C713.289 592.398 712.549 584.338 709.529 577.298Z" fill="black"/>
<path d="M601.01 728.138C600.23 727.778 599.27 730.838 599.19 731.938C599.11 733.038 601.19 737.518 606.65 740.818C612.11 744.118 621.49 745.958 625.01 747.058C628.53 748.158 631.35 751.058 635.99 753.318C640.11 755.318 646.33 756.378 649.05 755.158C649.575 754.845 650.025 754.422 650.371 753.918C650.716 753.414 650.948 752.84 651.05 752.238C651.79 749.978 651.73 749.458 651.45 749.378L601.01 728.138Z" fill="#232F40"/>
<path d="M653.389 744.378C653.031 746.688 652.266 748.915 651.129 750.958C650.334 751.557 649.428 751.991 648.462 752.234C647.497 752.478 646.493 752.527 645.509 752.378C641.274 752.074 637.196 750.653 633.689 748.258C631.012 746.516 628.121 745.124 625.089 744.118C620.917 743.112 616.821 741.816 612.829 740.238C609.852 738.98 607.081 737.281 604.609 735.198C602.609 733.318 600.749 731.198 600.949 728.558C601.398 726.896 602.351 725.413 603.675 724.314C605 723.215 606.633 722.552 608.349 722.418C611.635 722.251 614.92 722.748 618.009 723.878C621.01 724.894 624.117 725.565 627.269 725.878C629.429 726.058 631.969 727.878 633.649 725.978C635.649 723.778 636.429 718.578 637.769 715.978C637.989 715.558 638.289 715.098 638.749 714.998C639.209 714.898 639.969 715.458 640.389 716.018C642.347 718.462 644.856 720.408 647.709 721.698C655.429 725.518 659.009 723.498 659.009 723.498L659.729 721.898C659.729 721.898 661.269 722.758 659.309 726.358C657.656 729.318 656.264 732.416 655.149 735.618C654.176 738.447 653.585 741.393 653.389 744.378Z" fill="#2B3B4F"/>
<path d="M601.01 728.558C603.43 719.598 613.59 721.998 620.15 724.258C622.474 725.077 624.882 725.634 627.33 725.918C624.856 725.807 622.409 725.37 620.05 724.618C613.57 722.618 603.83 720.058 601.01 728.618V728.558Z" fill="white"/>
<path d="M619.45 724.278C616.15 724.578 615.25 729.918 615.25 729.918C618.207 731.506 621.424 732.549 624.75 732.998C627.063 733.398 629.441 732.921 631.421 731.66C633.4 730.398 634.837 728.443 635.45 726.178C636.85 721.718 635.57 715.478 635.31 713.458C635.158 712.764 635.282 712.038 635.655 711.434C636.028 710.829 636.622 710.393 637.31 710.218C636.744 710.271 636.195 710.44 635.697 710.714C635.199 710.988 634.762 711.362 634.415 711.813C634.068 712.263 633.817 712.78 633.679 713.331C633.54 713.883 633.517 714.457 633.61 715.018C633.71 717.418 633.61 722.158 632.59 723.738C631.57 725.318 626.47 726.018 619.45 724.278Z" fill="#2B3B4F"/>
<path d="M702.129 561.918C706.933 567.595 709.744 574.691 710.129 582.118C710.459 589.333 708.196 596.427 703.749 602.118C702.089 626.438 697.289 673.258 697.289 673.258C703.709 679.858 705.289 684.138 709.089 695.978C711.349 703.178 719.829 726.318 721.929 732.758C710.689 734.138 704.569 745.318 704.569 745.318C704.569 745.318 684.769 716.078 675.249 698.878C668.189 686.158 664.929 681.518 662.829 673.998C660.229 664.618 659.529 659.778 657.209 643.998C654.889 628.218 652.669 608.138 651.529 592.578C650.389 577.018 649.529 560.578 649.529 560.578L702.129 561.918Z" fill="#2F3B49"/>
<path d="M704.649 745.258C693.109 728.258 681.789 711.058 671.869 693.058C668.607 687.809 665.803 682.289 663.489 676.558C661.638 670.67 660.221 664.653 659.249 658.558C654.145 626.064 650.913 593.303 649.569 560.438L651.249 585.038C652.769 609.658 655.829 634.158 659.749 658.478C661.169 666.478 662.649 674.738 666.289 682.098C677.963 703.82 690.768 724.916 704.649 745.298V745.258Z" fill="white"/>
<path d="M676.67 680.838C670.85 665.998 663.87 585.218 664.23 557.298H662.77C662.65 566.638 663.35 581.858 664.55 598.558C659.81 596.158 656.75 591.758 656.75 569.638H655.29C655.29 591.878 658.19 597.258 664.67 600.238C667.11 633.318 671.47 671.578 675.31 681.398C681.01 695.918 710.75 744.978 711.03 745.398L712.29 744.638C711.99 744.198 682.33 695.258 676.67 680.838Z" fill="black"/>
<path d="M703.01 742.778C701.23 745.298 699.21 747.078 704.27 750.438C708.27 753.018 708.41 755.098 709.63 757.858C710.425 760.549 710.749 763.357 710.59 766.158C710.59 766.158 717.31 756.018 715.35 749.478C713.39 742.938 703.01 742.778 703.01 742.778Z" fill="#2B3B4F"/>
<path d="M724.55 736.978C726.443 738.975 728.67 740.626 731.13 741.858C732.83 742.918 734.59 743.858 735.13 745.858C735.13 746.078 734.13 747.278 734.15 747.498C734.237 748.452 734.203 749.413 734.05 750.358C733.67 753.658 731.87 756.098 731.47 759.378C731.339 760.688 731.105 761.985 730.77 763.258C730.482 764.807 730.355 766.382 730.39 767.958C730.29 769.598 730.17 771.238 730.09 772.878C730 773.575 730 774.281 730.09 774.978C730.23 775.678 719.07 781.298 714.57 783.458C714.303 783.587 714.03 783.7 713.75 783.798C711.004 784.545 708.08 784.26 705.53 782.998C696.57 779.738 697.13 776.498 697.13 776.498C697.176 775.156 697.6 773.854 698.354 772.743C699.107 771.632 700.16 770.756 701.39 770.218C701.935 769.9 702.512 769.639 703.11 769.438C705.339 768.61 707.77 768.491 710.07 769.098C710.524 767.766 710.734 766.364 710.69 764.958C710.873 762.856 710.907 760.744 710.79 758.638C710.393 756.258 709.471 753.997 708.09 752.018C706.19 749.398 704.09 746.018 702.83 744.178C701.57 742.338 701.23 737.898 708.69 732.558C715.85 727.458 721.09 728.558 722.11 730.658C722.678 732.851 723.496 734.972 724.55 736.978Z" fill="#2B3B4F"/>
<path d="M697.01 776.518C697.01 770.338 704.89 767.238 710.03 769.058C704.77 768.078 697.77 770.518 697.01 776.518Z" fill="white"/>
<path opacity="0.1" d="M705.29 772.298C705.888 770.772 707.017 769.515 708.47 768.758C708.997 768.818 709.518 768.919 710.03 769.058C709.13 769.918 705.91 771.198 705.29 772.298Z" fill="black"/>
<path d="M736.17 747.798C738.17 748.638 736.51 751.798 734.17 756.698C732.055 760.319 731.211 764.542 731.77 768.698C732.25 773.038 731.23 775.158 729.35 776.698C727.47 778.238 713.51 784.338 713.51 784.338C716.829 780.146 718.753 775.019 719.01 769.678C719.77 760.118 720.69 753.978 725.45 749.798C726.93 748.6 728.685 747.79 730.557 747.441C732.428 747.092 734.357 747.215 736.17 747.798Z" fill="black"/>
<path d="M697.01 776.498C697.23 778.378 702.57 782.178 708.87 782.098C715.17 782.018 715.71 780.678 716.69 773.298C717.67 765.918 718.35 755.658 721.55 751.298C724.75 746.938 728.95 744.298 735.09 745.898C735.79 746.238 737.69 748.138 736.99 749.898C736.99 749.898 736.99 748.498 734.47 747.758C732.31 747.138 729.73 747.198 726.13 750.318C721.91 753.938 720.97 762.478 720.49 769.798C720.01 777.118 717.73 784.138 711.67 784.798C709.054 785.152 706.392 784.931 703.871 784.151C701.349 783.37 699.028 782.048 697.07 780.278C696.691 779.049 696.67 777.738 697.01 776.498Z" fill="#232F40"/>
<path d="M660.89 427.298C660.073 426.149 659.57 424.807 659.43 423.404C659.29 422.001 659.517 420.586 660.09 419.298C661.11 416.698 663.23 413.958 669.41 410.758C676.77 406.958 696.97 404.238 706.97 417.458C708.41 419.458 688.53 456.758 689.51 464.498C684.35 459.078 667.33 440.018 667.33 440.018C663.33 438.298 660.85 436.838 659.99 433.038C659.679 431.078 659.994 429.069 660.89 427.298Z" fill="#2F3B49"/>
<path d="M667.33 439.918C661.33 438.338 657.51 433.078 660.89 427.238C658.33 433.238 661.75 437.598 667.33 439.918Z" fill="white"/>
<path d="M660.889 427.298C658.369 424.538 658.989 420.098 660.889 417.138C663.096 414.266 666.04 412.047 669.409 410.718C667.873 411.602 666.39 412.577 664.969 413.638C660.789 416.538 657.669 422.638 660.969 427.298H660.889Z" fill="white"/>
<path d="M663.93 437.918C663.93 437.918 658.47 446.818 659.09 447.558C660.345 448.557 661.684 449.446 663.09 450.218L663.93 437.918Z" fill="#F0997A"/>
<path d="M663.93 437.918C662.57 440.778 660.93 443.478 659.59 446.318C659.41 446.778 659.03 447.318 659.29 447.638C659.633 448.034 660.038 448.372 660.49 448.638C659.95 448.338 659.05 448.098 658.93 447.378C660.031 443.957 661.723 440.755 663.93 437.918Z" fill="white"/>
<path d="M670.69 421.638C667.03 423.378 663.87 426.178 662.69 434.198C662.39 436.298 664.03 439.158 663.29 441.938C660.11 453.938 663.89 463.938 666.21 466.038C667.77 467.518 675.97 468.178 680.21 466.978C685.59 465.478 697.29 460.198 702.87 451.778C709.43 441.778 710.87 428.578 703.65 423.238C693.47 415.718 674.59 419.798 670.69 421.638Z" fill="#FFBDA7"/>
<path d="M662.73 434.198C662.73 436.918 664.33 439.578 663.41 442.358C661.71 450.098 661.59 459.298 666.25 466.038C661.13 459.518 661.13 450.038 663.09 442.278C664.01 439.638 662.49 436.938 662.73 434.278V434.198Z" fill="white"/>
<path d="M698.669 457.438L700.789 472.178C704.089 472.878 704.389 476.778 702.789 479.718L703.569 483.878L681.009 487.918L678.489 467.298L698.669 457.438Z" fill="#FFBDA7"/>
<path d="M666.689 466.338C668.689 467.398 672.789 468.178 678.509 467.378L678.169 464.458C676.355 465.139 674.489 465.674 672.589 466.058C670.648 466.443 668.659 466.537 666.689 466.338Z" fill="#F0997A"/>
<path d="M665.29 425.918C665.137 427.648 665.59 429.378 666.572 430.812C667.553 432.245 669.001 433.294 670.67 433.778C669.779 435.694 669.446 437.822 669.71 439.918C669.785 441.156 670.212 442.347 670.943 443.35C671.673 444.353 672.674 445.126 673.83 445.578C675.41 446.118 675.83 445.418 676.45 444.158C677.25 442.378 678.27 439.658 682.09 440.158C686.47 440.758 687.63 447.358 685.07 451.678C684.578 452.591 683.871 453.371 683.01 453.949C682.15 454.528 681.161 454.888 680.13 454.998C679.562 454.989 679.003 454.86 678.489 454.619C677.975 454.377 677.519 454.029 677.15 453.598C677.15 453.598 677.43 459.358 684.85 462.778C689.491 465.247 694.867 465.957 699.99 464.778C703.439 460.947 706.69 456.941 709.73 452.778C717.73 441.098 719.43 419.718 705.73 415.878C705.07 415.698 692.61 413.878 686.53 415.278C667.79 419.278 665.33 425.018 665.29 425.918Z" fill="#2F3B49"/>
<path d="M699.11 414.378C697.453 415.571 696.315 417.353 695.93 419.358C695.758 420.357 695.853 421.384 696.204 422.336C696.555 423.287 697.15 424.129 697.93 424.778C701.93 427.918 708.17 424.258 708.91 419.618C709.75 414.138 703.15 411.378 699.11 414.378Z" fill="#BEFFBE"/>
<path d="M702.37 416.118C698.27 418.638 695.71 424.578 697.89 428.858C698.49 430.018 699.33 431.058 699.89 432.278C701.47 436.178 699.17 440.478 698.67 444.658C698.328 447.976 698.902 451.324 700.33 454.338C701.69 456.558 704.69 457.118 705.89 459.438C706.71 461.038 706.15 462.998 706.47 464.778C707.17 468.598 711.69 470.438 715.59 470.518C717.239 470.664 718.9 470.446 720.455 469.879C722.01 469.312 723.422 468.41 724.59 467.238C725.485 465.849 726.46 464.513 727.51 463.238C729.83 461.058 733.51 461.238 736.07 459.238C737.017 458.402 737.759 457.359 738.237 456.19C738.716 455.021 738.919 453.758 738.83 452.498C738.594 449.973 737.917 447.509 736.83 445.218C735.17 441.218 736.49 438.638 737.33 434.578C737.724 432.385 737.36 430.123 736.299 428.165C735.238 426.206 733.542 424.666 731.49 423.798C728.67 422.678 725.23 422.858 722.95 420.838C721.869 419.558 720.854 418.223 719.91 416.838C715.63 412.138 707.19 413.178 702.37 416.118Z" fill="#2F3B49"/>
<path d="M718.469 484.238C717.57 481.793 716.146 479.576 714.298 477.741C712.449 475.906 710.221 474.499 707.769 473.618C705.769 473.018 700.789 472.178 700.789 472.178C701.929 474.778 700.009 476.498 696.629 477.278C692.289 478.298 685.669 478.398 681.169 475.418L679.329 474.278C674.419 475.485 669.573 476.94 664.809 478.638C663.829 479.098 658.409 480.918 649.889 500.058C646.249 508.238 647.329 516.538 654.029 522.438C654.409 527.618 651.069 539.278 651.069 539.278C649.371 549.009 648.981 558.923 649.909 568.758C649.909 568.758 653.909 579.358 685.629 579.238C710.169 579.238 722.509 567.238 722.509 567.238C722.209 561.238 712.769 540.178 713.709 533.098C715.169 522.778 724.629 504.278 718.469 484.238Z" fill="#BEFFBE"/>
<path d="M664.809 478.638C671.269 483.898 671.769 491.118 670.809 500.858C669.849 510.598 660.069 541.038 658.069 547.658C656.069 554.278 653.209 556.578 648.169 561.938C643.129 567.298 631.349 575.818 625.489 580.698C622.769 582.958 620.349 585.318 617.769 587.778C614.95 590.155 611.97 592.334 608.849 594.298C607.39 595.296 605.692 595.89 603.929 596.018C602.809 596.018 601.829 595.498 600.769 595.578C599.709 595.658 598.769 596.498 597.609 596.298C596.449 596.098 595.289 594.918 594.029 594.778C592.693 594.797 591.358 594.736 590.029 594.598C588.976 594.207 587.84 594.09 586.729 594.258C585.689 594.458 584.109 595.478 583.129 594.618C582.149 593.758 582.689 592.378 583.329 591.358C584.744 589.449 586.735 588.047 589.009 587.358C591.26 586.428 593.564 585.633 595.909 584.978C598.116 584.386 600.165 583.313 601.909 581.838C603.149 580.898 604.149 579.258 602.089 578.838C599.649 578.338 596.429 578.678 594.489 576.698C593.169 575.338 593.949 574.078 595.569 573.718C598.232 573.13 600.846 572.341 603.389 571.358C605.989 570.358 608.449 569.098 611.069 568.178C612.466 567.727 613.889 567.36 615.329 567.078C619.329 566.258 621.629 562.878 624.109 559.978C627.589 555.978 633.569 548.338 637.629 542.858L643.769 513.158C647.649 497.038 649.009 483.518 664.809 478.638Z" fill="#FFBDA7"/>
<path d="M670.769 500.858C669.209 509.657 667.064 518.343 664.349 526.858C664.149 527.558 663.929 528.238 663.729 528.858C661.269 537.198 658.889 544.718 658.009 547.638C656.209 553.638 653.669 556.118 649.449 560.518L648.109 561.918C642.849 567.498 631.289 575.798 625.429 580.698C622.729 582.958 620.289 585.298 617.729 587.758C614.904 590.142 611.917 592.327 608.789 594.298C607.328 595.289 605.631 595.876 603.869 595.998C602.749 596.098 601.769 595.478 600.709 595.558C599.649 595.638 598.709 596.478 597.549 596.278C596.389 596.078 595.229 594.898 593.969 594.778C592.633 594.79 591.298 594.723 589.969 594.578C588.914 594.196 587.781 594.08 586.669 594.238C586.349 594.238 585.969 594.458 585.569 594.598L585.069 594.758C584.844 594.842 584.609 594.896 584.369 594.918C584.146 594.963 583.915 594.957 583.693 594.902C583.472 594.847 583.266 594.743 583.089 594.598C581.989 593.638 582.629 592.378 583.269 591.358C584.683 589.448 586.675 588.045 588.949 587.358C591.2 586.421 593.504 585.62 595.849 584.958C598.056 584.366 600.105 583.293 601.849 581.818C603.089 580.878 604.089 579.258 602.029 578.818C599.589 578.318 596.369 578.658 594.449 576.698C593.109 575.318 593.889 574.058 595.509 573.698C598.173 573.112 600.787 572.323 603.329 571.338C605.929 570.338 608.409 569.078 611.009 568.178C612.402 567.713 613.826 567.346 615.269 567.078C619.269 566.258 621.569 562.858 624.049 559.978C627.529 555.978 633.509 548.318 637.589 542.838L643.709 513.138C647.589 496.938 649.009 483.418 664.749 478.558C666.374 479.875 667.732 481.49 668.749 483.318C671.429 488.038 671.489 493.778 670.769 500.858Z" fill="#FFBDA7"/>
<path d="M583.01 594.618C582.637 594.24 582.415 593.738 582.385 593.208C582.356 592.678 582.521 592.155 582.85 591.738C584.35 588.838 587.61 587.598 590.49 586.618C592.404 585.718 594.418 585.047 596.49 584.618C598.455 584.01 600.302 583.07 601.95 581.838C600.391 583.237 598.569 584.311 596.59 584.998C592.595 585.978 588.758 587.513 585.19 589.558C583.87 590.618 581.57 592.838 583.09 594.538L583.01 594.618Z" fill="white"/>
<path d="M594.49 576.778C592.01 573.938 596.81 573.578 598.61 572.978C603.37 571.758 607.57 569.138 612.25 567.818C614.649 567.451 616.945 566.585 618.99 565.278C622.25 562.698 625.75 557.518 628.45 554.258L637.45 542.798C639.45 532.798 642.63 517.218 645.01 507.058C647.55 495.058 651.45 482.238 664.81 478.638C651.65 482.378 647.81 495.118 645.37 507.138C642.97 517.458 640.09 532.558 637.83 543.138L628.75 554.578C625.97 557.858 622.55 562.938 619.17 565.598C617.098 566.909 614.775 567.774 612.35 568.138C607.67 569.438 603.41 571.998 598.65 573.138C596.83 573.718 592.07 573.978 594.49 576.838V576.778Z" fill="white"/>
<path opacity="0.3" d="M710.03 608.738C710.029 609.514 710.244 610.276 710.65 610.938C711.07 610.418 711.43 609.778 711.79 609.378C712.594 608.6 713.575 608.031 714.65 607.718C715.816 607.048 716.945 606.313 718.03 605.518C719.11 604.878 720.55 605.258 721.81 604.638C723.07 604.018 723.11 602.918 723.95 602.198C724.79 601.478 725.95 601.438 726.75 600.698C728.11 599.565 729.139 598.087 729.73 596.418C731.108 592.995 732.245 589.48 733.13 585.898C733.77 582.398 734.35 579.058 735.23 575.638C737.11 568.238 741.59 554.738 742.57 547.138C743.51 539.858 742.83 537.458 740.57 530.938C738.31 524.418 729.97 492.938 725.07 484.398C720.43 476.398 716.57 475.318 707.45 473.518L706.91 473.378L705.99 473.178L705.27 473.018L704.35 472.838L703.81 472.738L702.49 472.478L701.49 472.298H701.23H700.81L699.75 464.918H700.01C701.63 462.918 703.41 461.018 705.27 458.778C705.497 459.04 705.692 459.329 705.85 459.638C706.69 461.238 706.11 463.178 706.43 464.958C707.13 468.798 711.65 470.618 715.55 470.718C717.199 470.856 718.86 470.632 720.414 470.062C721.968 469.492 723.38 468.59 724.55 467.418C725.451 466.033 726.426 464.698 727.47 463.418C729.79 461.238 733.47 461.418 736.05 459.418C736.994 458.577 737.733 457.53 738.208 456.358C738.683 455.185 738.882 453.919 738.79 452.658C738.563 450.131 737.886 447.666 736.79 445.378C735.13 441.378 736.45 438.798 737.29 434.758C737.686 432.565 737.326 430.302 736.269 428.34C735.211 426.378 733.519 424.833 731.47 423.958C728.63 422.838 725.19 423.038 722.91 420.998C721.835 419.717 720.827 418.382 719.89 416.998C716.69 413.498 711.19 413.198 706.59 414.478C705.453 413.69 704.092 413.29 702.71 413.338C696.47 408.498 688.33 407.338 681.35 407.898C678.723 409.001 676.348 410.628 674.37 412.678C668.09 418.898 664.37 428.038 666.01 436.678C666.33 438.298 666.83 439.858 667.09 441.478C667.75 445.618 666.83 449.838 666.85 454.038C666.87 458.238 668.19 462.878 671.83 464.938C674.59 466.478 677.97 466.178 681.11 466.578C686.27 467.238 685.67 470.418 685.87 474.798C685.957 475.468 685.902 476.15 685.71 476.798C685.63 477.032 685.508 477.249 685.35 477.438C684.01 479.098 680.21 479.758 678.53 480.318C675.2 481.125 671.947 482.222 668.81 483.598C667.369 484.33 666.121 485.392 665.17 486.698C661.35 492.058 659.73 498.438 658.11 504.698C656.61 510.498 655.03 516.298 653.37 522.058C651.876 527.285 650.316 532.485 648.69 537.658C647.424 542.365 645.527 546.88 643.05 551.078C639.95 555.818 635.51 559.498 631.51 563.538C622.45 572.698 614.87 584.418 602.75 588.818C598.09 590.498 593.09 590.958 588.31 592.238C586.65 592.678 584.77 593.558 584.31 595.098C584.549 595.076 584.784 595.022 585.01 594.938L585.51 594.778C585.91 594.638 586.29 594.498 586.61 594.418C587.721 594.26 588.854 594.376 589.91 594.758C591.238 594.903 592.574 594.97 593.91 594.958C595.17 595.078 596.11 596.238 597.49 596.458C598.87 596.678 599.49 595.818 600.65 595.738C601.81 595.658 602.65 596.278 603.81 596.178C605.571 596.056 607.268 595.469 608.73 594.478C611.857 592.507 614.844 590.322 617.67 587.938C620.23 585.478 622.67 583.138 625.37 580.878C631.23 575.978 642.79 567.678 648.05 562.098L649.39 560.698C653.59 556.318 656.13 553.858 657.93 547.838C658.81 544.918 661.19 537.398 663.65 529.058L664.27 527.058C665.193 528.182 665.676 529.604 665.63 531.058C666.37 540.778 668.69 550.618 670.27 560.298C671.39 567.198 672.53 574.098 673.05 581.058C673.45 586.098 673.51 591.058 673.59 596.178L674.07 632.178C674.07 634.178 674.07 636.178 674.17 638.298C674.195 643.964 674.583 649.622 675.33 655.238C675.982 660.188 677.059 665.073 678.55 669.838C678.91 670.998 679.29 672.158 679.71 673.318C683.85 684.818 690.35 695.318 696.61 705.678C702.961 716.748 708.657 728.181 713.67 739.918C714.697 741.97 715.45 744.149 715.91 746.398C716.55 750.278 715.49 754.218 715.19 758.138C714.89 762.058 715.33 765.818 715.19 769.658C715.276 773.522 714.158 777.318 711.99 780.518C710.426 782.532 708.261 783.997 705.81 784.698C707.731 785.032 709.691 785.093 711.63 784.878C712.748 784.775 713.825 784.405 714.77 783.798C719.718 781.711 724.552 779.361 729.25 776.758C731.13 775.258 732.15 773.118 731.69 768.758C731.112 764.604 731.95 760.377 734.07 756.758C735.353 754.559 736.335 752.198 736.99 749.738C737.49 748.038 735.73 746.278 734.99 745.938C734.49 743.938 732.73 742.978 730.99 741.938C728.535 740.706 726.315 739.055 724.43 737.058C723.347 735.045 722.508 732.91 721.93 730.698C721.674 730.211 721.276 729.814 720.79 729.558C717.71 720.698 711.01 702.278 709.03 696.018C705.31 684.158 703.65 679.878 697.23 673.278C697.23 673.278 700.77 638.718 702.83 613.578L705.31 609.238C705.57 608.778 705.83 608.338 706.11 607.898C708.886 603.371 712.131 599.148 715.79 595.298C716.15 594.918 716.51 594.478 716.87 594.058C716.33 594.958 715.81 595.858 715.21 596.738C712.83 600.378 709.85 604.278 710.03 608.738ZM722.27 567.498L722.51 567.278C722.389 565.977 722.141 564.691 721.77 563.438C721.31 561.738 720.67 559.718 719.97 557.538C719.75 556.858 719.51 556.158 719.27 555.538C718.45 553.098 717.57 550.498 716.77 547.978C716.51 547.198 716.27 546.418 716.05 545.658C715.83 544.898 715.53 543.978 715.31 543.178C715.09 542.378 714.99 542.038 714.85 541.478C714.85 541.298 714.75 541.098 714.71 540.918C714.67 540.738 714.53 540.178 714.45 539.838C714.29 539.178 714.15 538.558 714.05 537.958L713.93 537.298C713.92 537.145 713.92 536.991 713.93 536.838C713.871 536.547 713.831 536.253 713.81 535.958V535.358C713.79 534.998 713.79 534.638 713.81 534.278C713.788 533.932 713.788 533.584 713.81 533.238C714.35 530.133 715.092 527.067 716.03 524.058C716.67 521.738 717.39 519.258 718.03 516.618C719.93 520.158 721.77 523.698 723.61 527.258C725.19 530.072 726.529 533.016 727.61 536.058C729.81 542.978 729.27 550.478 728.43 557.698C727.551 565.934 725.726 574.041 722.99 581.858C723.575 577.065 723.331 572.208 722.27 567.498Z" fill="black"/>
</svg>
