<svg width="717" height="535" viewBox="0 0 717 535" fill="none" xmlns="http://www.w3.org/2000/svg">
<rect width="717" height="528" fill="white"/>
<path d="M634.769 522.058H711L677.416 262.058H549.425V301.125H576.982L549 522.058H591.791L594.889 497.597H631.623L634.769 522.058ZM600.885 449.916L613.034 353.978L625.447 449.916H600.885Z" fill="black"/>
<path d="M461.128 359.5L371 261L371 522.062H463V412L498.036 367.155V522.058H533V261L461.128 359.5Z" fill="black"/>
<path d="M277.769 522.049H354L320.416 262.049H192.425V301.117H219.982L192 522.049H234.791L237.889 497.589H274.623L277.769 522.049ZM243.885 449.908L256.034 353.969L268.447 449.908H243.885Z" fill="black"/>
<path d="M178 314.519C178 275.241 155.873 262.049 114.881 262.049H18V301.196H48.0428L6 522.049H50L94.0618 383.138L137.178 522.049H171.379L129.705 370.743C129.705 370.743 178 353.779 178 314.519ZM112.653 325.461L122.128 297.449C122.128 297.449 135.699 300.627 131.47 314.081C127.015 328.235 112.653 325.461 112.653 325.461Z" fill="black"/>
<path d="M670.5 81V189.5C670.498 199.897 671.135 209.724 665.993 217.075C660.851 224.426 657.771 227 650.5 227V100H549V184.656C549 205.434 554.773 225.361 565.048 240.053C575.324 254.746 589.26 263 603.792 263H644.208C658.74 263 676.724 254.746 687 240.053C697.276 225.361 699 205.434 699 184.656V81H670.5Z" fill="black"/>
<path d="M670.5 180L670.5 79.4994C670.498 69.1026 671.135 59.275 665.993 51.9242C660.851 44.5734 657.771 41.9994 650.5 41.9994L650.5 180L549 179L549 84.3437C549 63.5655 554.773 43.6383 565.048 28.9459C575.324 14.2535 589.26 5.9994 603.792 5.9994L644.208 5.9994C658.74 5.9994 676.724 14.2535 687 28.9459C697.276 43.6383 699 63.5654 699 84.3436L699 180L670.5 180Z" fill="black"/>
<path d="M527 58.4692C527 19.1918 504.873 6 463.881 6H367V47.35H397L355 264H399L443.062 127.089C443.062 127.089 527 118.5 527 58.4692ZM461.653 69.4113L471.128 41.3997C471.128 41.3997 484.699 44.5773 480.47 58.0316C476.015 72.1862 461.653 69.4113 461.653 69.4113Z" fill="black"/>
<path d="M348 47.341V7H192V264H267.332C270.671 249 273.538 236.122 276.237 224C281.917 198.488 286.852 176.321 293.88 144.752H348V106.454H302.402L315.562 47.341H348Z" fill="black"/>
<path d="M276.237 224L267.332 264H348V224H276.237Z" fill="black"/>
<path d="M178 58.4692C178 19.1918 155.873 6 114.881 6H18V45.1463H48.0428L6 266H50L94.0618 127.089L137.178 266H171.379L129.705 114.694C129.705 114.694 178 97.7292 178 58.4692ZM112.653 69.4113L122.128 41.3997C122.128 41.3997 135.699 44.5773 131.47 58.0316C127.015 72.1862 112.653 69.4113 112.653 69.4113Z" fill="black"/>
</svg>
