<svg width="1430" height="284" viewBox="0 0 1430 284" fill="none" xmlns="http://www.w3.org/2000/svg">
<rect width="1430" height="284" fill="white"/>
<path d="M1341.77 269.2H1418L1384.42 12.0469H1256.43V50.6865H1283.98L1256 269.2H1298.79L1301.89 245.007H1338.62L1341.77 269.2ZM1307.89 197.848L1320.03 102.96L1332.45 197.848H1307.89Z" fill="black"/>
<path d="M1168.13 108.422L1078 11L1078 269.204H1170V160.347L1205.04 115.994V269.2H1240V11L1168.13 108.422Z" fill="black"/>
<path d="M984.769 269.191H1061L1027.42 12.0381H899.425V50.6777H926.982L899 269.191H941.791L944.889 244.998H981.623L984.769 269.191ZM950.885 197.84L963.034 102.952L975.447 197.84H950.885Z" fill="black"/>
<path d="M885 63.9328C885 25.0854 862.873 12.0381 821.881 12.0381H725V50.7557H755.043L713 269.191H757L801.062 131.801L844.178 269.191H878.379L836.705 119.542C836.705 119.542 885 102.763 885 63.9328ZM819.653 74.7551L829.128 47.0502C829.128 47.0502 842.699 50.193 838.47 63.5C834.015 77.4996 819.653 74.7551 819.653 74.7551Z" fill="black"/>
<path d="M676.5 87V195.5C676.498 205.897 677.135 215.724 671.993 223.075C666.851 230.426 663.771 233 656.5 233V106H555V190.656C555 211.434 560.773 231.361 571.048 246.053C581.324 260.746 595.26 269 609.792 269H650.208C664.74 269 682.724 260.746 693 246.053C703.276 231.361 705 211.434 705 190.656V87H676.5Z" fill="black"/>
<path d="M676.5 186L676.5 85.4994C676.498 75.1026 677.135 65.275 671.993 57.9242C666.851 50.5734 663.771 47.9994 656.5 47.9994L656.5 186L555 185L555 90.3437C555 69.5655 560.773 49.6383 571.048 34.9459C581.324 20.2535 595.26 11.9994 609.792 11.9994L650.208 11.9994C664.74 11.9994 682.724 20.2535 693 34.9459C703.276 49.6383 705 69.5654 705 90.3436L705 186L676.5 186Z" fill="black"/>
<path d="M533 64.4692C533 25.1918 510.873 12 469.881 12H373V53.35H403L361 270H405L449.062 133.089C449.062 133.089 533 124.5 533 64.4692ZM467.653 75.4113L477.128 47.3997C477.128 47.3997 490.699 50.5773 486.47 64.0316C482.015 78.1862 467.653 75.4113 467.653 75.4113Z" fill="black"/>
<path d="M354 53.341V13H198V270H273.332C276.671 255 279.538 242.122 282.237 230C287.917 204.488 292.852 182.321 299.88 150.752H354V112.454H308.402L321.562 53.341H354Z" fill="black"/>
<path d="M282.237 230L273.332 270H354V230H282.237Z" fill="black"/>
<path d="M184 64.4692C184 25.1918 161.873 12 120.881 12H24V51.1463H54.0428L12 272H56L100.062 133.089L143.178 272H177.379L135.705 120.694C135.705 120.694 184 103.729 184 64.4692ZM118.653 75.4113L128.128 47.3997C128.128 47.3997 141.699 50.5773 137.47 64.0316C133.015 78.1862 118.653 75.4113 118.653 75.4113Z" fill="black"/>
</svg>
