<svg width="507" height="626" viewBox="0 0 507 626" fill="none" xmlns="http://www.w3.org/2000/svg">
<path d="M9.21436 469.555L279.576 625.642L506.344 494.748L235.982 338.661L9.21436 469.555Z" fill="#C8C8C8" fill-opacity="0.47"/>
<path d="M484.881 489.765L279.549 608.327L48.3267 474.51L253.659 355.976L484.881 489.765Z" fill="#BEFFBE"/>
<path opacity="0.5" d="M484.881 489.765L279.549 608.327L48.3267 474.51L253.659 355.976L484.881 489.765Z" fill="#232F40"/>
<path d="M253.659 195.268V355.976L48.3267 474.51V313.83L253.659 195.268Z" fill="#BEFFBE"/>
<path opacity="0.23" d="M253.659 195.268V355.976L48.3267 474.51V313.83L253.659 195.268Z" fill="#232F40"/>
<path d="M279.549 447.619V608.327L48.3267 474.51V313.83L279.549 447.619Z" fill="#BEFFBE"/>
<path opacity="0.38" d="M279.549 447.619V608.327L48.3267 474.51V313.83L279.549 447.619Z" fill="#232F40"/>
<path d="M484.881 329.057V489.765L253.659 355.976V195.268L484.881 329.057Z" fill="#BEFFBE"/>
<path opacity="0.4" d="M484.881 329.057V489.765L253.659 355.976V195.268L484.881 329.057Z" fill="#232F40"/>
<path d="M484.881 489.765V329.057L279.549 447.619V608.327L484.881 489.765Z" fill="#BEFFBE"/>
<path opacity="0.23" d="M484.881 489.765V329.057L279.549 447.619V608.327L484.881 489.765Z" fill="#232F40"/>
<path d="M253.659 195.268L253.938 106.298L484.603 240.254L484.881 329.057L253.659 195.268Z" fill="#BEFFBE"/>
<path opacity="0.2" d="M253.659 195.268L253.938 106.298L484.603 240.254L484.881 329.057L253.659 195.268Z" fill="#232F40"/>
<path d="M279.549 447.619L298.813 369.784L502.28 252.308L484.881 329.057L279.549 447.619Z" fill="#BEFFBE"/>
<path opacity="0.3" d="M279.549 447.619L298.813 369.784L502.28 252.308L484.881 329.057L279.549 447.619Z" fill="#232F40"/>
<path d="M48.3265 313.83L23.8291 233.1L229.162 114.566L253.659 195.268L48.3265 313.83Z" fill="#BEFFBE"/>
<path opacity="0.1" d="M48.3265 313.83L23.8291 233.1L229.162 114.566L253.659 195.268L48.3265 313.83Z" fill="#232F40"/>
<path d="M48.3267 313.83L0 247.102L231.25 380.891L279.549 447.619L48.3267 313.83Z" fill="#BEFFBE"/>
<path opacity="0.45" d="M48.3267 313.83L0 247.102L231.25 380.891L279.549 447.619L48.3267 313.83Z" fill="#232F40"/>
<g opacity="0.7">
<path d="M340.012 560.53C339.678 560.53 339.356 560.399 339.117 560.164C338.877 559.93 338.739 559.612 338.732 559.277V530.994C338.739 530.656 338.876 530.335 339.115 530.096C339.353 529.857 339.675 529.72 340.012 529.713C340.347 529.72 340.666 529.858 340.9 530.098C341.134 530.337 341.265 530.659 341.265 530.994V559.277C341.265 559.609 341.133 559.928 340.898 560.163C340.663 560.398 340.345 560.53 340.012 560.53Z" fill="#FAFAFA"/>
<path d="M336.31 540.793C336.144 540.819 335.975 540.819 335.809 540.793C335.505 540.652 335.267 540.401 335.142 540.09C335.018 539.78 335.018 539.433 335.141 539.122L339.651 528.739L344.662 534.529C344.841 534.788 344.918 535.104 344.879 535.417C344.84 535.73 344.686 536.017 344.449 536.224C344.211 536.431 343.905 536.543 343.59 536.538C343.275 536.533 342.972 536.413 342.741 536.199L340.374 533.416L337.591 540.097C337.47 540.327 337.284 540.515 337.056 540.639C336.828 540.763 336.569 540.817 336.31 540.793Z" fill="#FAFAFA"/>
<path d="M351.677 553.876C351.342 553.869 351.023 553.731 350.789 553.492C350.555 553.252 350.424 552.931 350.424 552.596V524.34C350.424 524.008 350.556 523.689 350.791 523.454C351.026 523.22 351.344 523.088 351.677 523.088C352.009 523.088 352.327 523.22 352.562 523.454C352.797 523.689 352.929 524.008 352.929 524.34V552.568C352.933 552.736 352.903 552.903 352.843 553.06C352.782 553.217 352.69 553.36 352.574 553.482C352.458 553.603 352.318 553.701 352.165 553.768C352.011 553.836 351.845 553.873 351.677 553.876Z" fill="#FAFAFA"/>
<path d="M347.974 534.139C347.808 534.165 347.639 534.165 347.473 534.139C347.32 534.073 347.182 533.977 347.067 533.857C346.952 533.736 346.862 533.594 346.802 533.439C346.743 533.283 346.715 533.117 346.72 532.951C346.725 532.784 346.764 532.62 346.833 532.469L351.315 521.946L356.326 527.709C356.557 527.948 356.686 528.267 356.686 528.6C356.686 528.932 356.557 529.251 356.326 529.49C356.209 529.608 356.07 529.702 355.917 529.766C355.764 529.829 355.6 529.862 355.435 529.862C355.269 529.862 355.105 529.829 354.952 529.766C354.799 529.702 354.66 529.608 354.544 529.49L352.178 526.707L349.394 533.388C349.279 533.656 349.075 533.877 348.817 534.014C348.558 534.151 348.261 534.195 347.974 534.139Z" fill="#FAFAFA"/>
</g>
<g opacity="0.7">
<path d="M306.357 579.71C305.881 579.717 305.412 579.602 304.993 579.376C304.49 579.053 304.082 578.602 303.813 578.068C303.543 577.534 303.422 576.938 303.462 576.341V572.862C303.469 572.527 303.607 572.208 303.847 571.974C304.086 571.74 304.408 571.609 304.743 571.609C305.075 571.609 305.393 571.741 305.628 571.976C305.863 572.211 305.995 572.529 305.995 572.862V576.341C305.995 576.842 305.995 577.121 306.246 577.176C306.496 577.232 306.635 577.177 307.053 576.954C307.837 576.23 308.454 575.345 308.862 574.36C309.271 573.375 309.461 572.313 309.419 571.247V556.771C309.419 556.439 309.551 556.12 309.786 555.885C310.021 555.651 310.34 555.519 310.672 555.519C311.004 555.519 311.323 555.651 311.558 555.885C311.793 556.12 311.925 556.439 311.925 556.771V571.247C311.987 572.75 311.694 574.246 311.07 575.615C310.446 576.984 309.509 578.186 308.334 579.125C307.739 579.493 307.056 579.694 306.357 579.71Z" fill="#FAFAFA"/>
<path d="M293.078 568.046V565.874C293.409 560.299 295.039 554.878 297.837 550.045C300.636 545.211 304.526 541.099 309.196 538.036C313.762 535.42 318.104 535.03 321.445 536.979C323.227 538.2 324.647 539.878 325.558 541.837C326.469 543.796 326.837 545.964 326.623 548.114V548.838L293.078 568.046ZM316.768 538.148C314.539 538.25 312.373 538.921 310.477 540.096C306.475 542.73 303.086 546.194 300.54 550.252C297.994 554.311 296.351 558.87 295.723 563.619L324.034 547.251C324.155 545.638 323.857 544.022 323.169 542.559C322.481 541.096 321.427 539.835 320.109 538.899C319.08 538.36 317.928 538.101 316.768 538.148Z" fill="#FAFAFA"/>
</g>
<path opacity="0.7" d="M0 247.102L231.25 380.891L279.549 447.619L228.689 383.257L0 247.102Z" fill="#FAFAFA"/>
<path opacity="0.7" d="M484.881 329.057L279.549 447.619V608.327L283.39 450.848L484.881 329.057Z" fill="#FAFAFA"/>
<path d="M183.563 264.779C204.748 261.717 224.095 248.076 236.455 230.928C242.219 222.916 246.465 213.915 248.982 204.371C251.655 195.446 252.095 186.001 250.263 176.867C246.449 161.584 232.307 152.537 217.358 150.644C209.773 149.646 202.059 150.398 194.81 152.843C187.292 155.423 180.771 160.29 176.158 166.762C173.266 170.21 171.447 174.429 170.925 178.899C170.88 180.65 171.497 182.353 172.653 183.669C173.809 184.985 175.419 185.816 177.16 185.998C181.643 186.375 186.123 185.238 189.882 182.769C194.467 180.198 198.505 176.755 201.769 172.636C208.771 163.994 214.011 154.063 217.191 143.406C219.423 134.261 219.423 124.713 217.191 115.568C215.496 106.001 211.123 97.1114 204.581 89.9291C197.08 83.1081 187.562 78.9158 177.467 77.9866C167.419 76.6062 157.189 77.5587 147.569 80.7704C143.343 82.0515 139.429 84.1936 136.072 87.0617C133.678 89.2888 130.949 92.9634 131.924 96.5823C132.898 100.201 138.187 101.816 141.778 101.343C147.093 100.347 151.962 97.708 155.697 93.7985C159.861 89.6999 163.397 85.0098 166.192 79.8796C168.269 76.1925 169.353 72.0295 169.338 67.7979C168.976 50.1486 149.462 38.7351 134.179 35.5059C130.053 34.644 125.827 34.3629 121.624 34.6708C120.204 34.6708 121.067 37.0091 122.208 36.9256C130.432 36.5519 138.606 38.3981 145.871 42.2705C153.038 45.5649 159.058 50.9256 163.158 57.6649C164.985 60.9875 165.887 64.7395 165.769 68.5295C165.652 72.3195 164.519 76.0085 162.49 79.2115C159.764 83.959 156.37 88.2903 152.412 92.0726C149.1 95.0791 144.061 98.5588 139.412 98.2247C138.645 98.223 137.893 98.0054 137.243 97.5968C136.594 97.1883 136.072 96.6052 135.738 95.9142C135.597 95.0001 135.673 94.0659 135.958 93.1862C136.243 92.3065 136.73 91.5056 137.38 90.8477C139.838 88.2004 142.878 86.1609 146.26 84.8904C154.612 81.4187 163.655 79.9322 172.679 80.5477C181.978 80.716 191.021 83.6208 198.679 88.8991C205.35 94.4381 210.088 101.954 212.208 110.362C214.894 118.903 215.729 127.919 214.658 136.808C213.005 145.753 209.568 154.274 204.553 161.862C199.403 170.381 192.945 178.565 183.257 181.906C180.863 182.769 175.852 184.021 174.906 180.542C173.959 177.062 176.687 172.775 178.441 170.075C182.319 163.971 187.973 159.201 194.643 156.406C201.079 153.826 208.026 152.778 214.937 153.344C228.048 154.318 241.355 161.166 245.92 174.194C248.21 181.981 248.46 190.225 246.644 198.135C245.006 206.806 241.889 215.13 237.43 222.744C227.837 238.921 213.308 251.596 195.979 258.905C191.859 260.687 187.627 262.19 183.313 263.582C182.867 263.749 183.062 264.863 183.563 264.779Z" fill="#C8C8C8"/>
<path d="M95.0664 23.0901C83.9312 22.2828 68.5925 31.0518 74.0488 37.4545C79.505 43.8573 93.9807 33.5015 93.9807 33.5015C93.9807 33.5015 92.6167 46.4462 97.3491 47.9216C102.082 49.397 108.484 37.0369 103.752 29.131C106.034 30.0307 108.507 30.3392 110.94 30.0277C113.374 29.7162 115.689 28.7949 117.671 27.3493C124.408 22.3942 117.281 17.7174 107.788 18.5525C107.788 18.5525 114.581 -3.71782 100.857 0.541386C93.9808 2.62923 91.5588 10.6744 95.0664 23.0901Z" fill="#BEFFBE"/>
<path opacity="0.65" d="M95.0664 23.0901C83.9312 22.2828 68.5925 31.0518 74.0488 37.4545C79.505 43.8573 93.9807 33.5015 93.9807 33.5015C93.9807 33.5015 92.6167 46.4462 97.3491 47.9216C102.082 49.397 108.484 37.0369 103.752 29.131C106.034 30.0307 108.507 30.3392 110.94 30.0277C113.374 29.7162 115.689 28.7949 117.671 27.3493C124.408 22.3942 117.281 17.7174 107.788 18.5525C107.788 18.5525 114.581 -3.71782 100.857 0.541386C93.9808 2.62923 91.5588 10.6744 95.0664 23.0901Z" fill="#FAFAFA"/>
<path d="M105.422 27.8225C104.806 27.2192 104.155 26.6522 103.474 26.1244C102.499 25.3728 101.469 24.649 100.495 23.9252C99.5462 23.2355 98.551 22.6122 97.5162 22.06C96.9206 21.7295 96.3073 21.4322 95.6789 21.1693C94.8113 20.7619 93.8465 20.6075 92.8951 20.7238C92.6458 20.7309 92.4029 20.8048 92.192 20.9378C91.981 21.0708 91.8097 21.2581 91.6958 21.4801C91.582 21.702 91.5299 21.9504 91.545 22.1994C91.5601 22.4483 91.6418 22.6886 91.7816 22.8952C92.5469 23.7242 93.5022 24.3548 94.5654 24.7325L96.0686 25.5398C97.0986 26.1522 98.0173 26.8482 98.8524 27.5441C99.6876 28.2401 100.801 28.9082 101.636 29.6041C103.072 30.7688 104.677 31.7075 106.397 32.3879C106.474 32.4294 106.56 32.4511 106.647 32.4511C106.735 32.4511 106.821 32.4294 106.898 32.3879C108.317 31.2744 106.229 28.6298 105.422 27.8225Z" fill="#2B3B4F"/>
</svg>
