<svg width="41" height="40" viewBox="0 0 41 40" fill="none" xmlns="http://www.w3.org/2000/svg">
<ellipse cx="20.443" cy="19.9133" rx="20.443" ry="19.9133" fill="white"/>
<path d="M16.7042 26.5102C16.5865 26.5102 13.9959 26.5102 12.8184 26.5102C12.1904 26.5102 11.9941 26.2776 11.9941 25.6961C11.9941 24.1455 11.9941 22.5562 11.9941 21.0056C11.9941 20.3854 12.2296 20.1915 12.8184 20.1915H16.7042C16.7042 20.0753 16.7042 17.8269 16.7042 16.7803C16.7042 15.2297 16.979 13.7566 17.764 12.3999C18.5882 11.0043 19.7658 10.074 21.2573 9.53128C22.2386 9.1824 23.2198 9.02734 24.2796 9.02734H28.1261C28.6757 9.02734 28.9112 9.25993 28.9112 9.80264V14.2218C28.9112 14.7645 28.6757 14.9971 28.1261 14.9971C27.0664 14.9971 26.0066 14.9971 24.9468 15.0359C23.8871 15.0359 23.3376 15.5398 23.3376 16.6252C23.2983 17.7881 23.3376 18.9123 23.3376 20.114H27.8906C28.5187 20.114 28.7542 20.3466 28.7542 20.9668V25.6574C28.7542 26.2776 28.5579 26.4714 27.8906 26.4714C26.4776 26.4714 23.4553 26.4714 23.3376 26.4714V39.1087C23.3376 39.7677 23.1413 40.0002 22.4348 40.0002C20.7863 40.0002 19.177 40.0002 17.5285 40.0002C16.9397 40.0002 16.7042 39.7677 16.7042 39.1862C16.7042 35.1159 16.7042 26.6265 16.7042 26.5102Z" fill="#2B3B4F"/>
</svg>
