<svg width="41" height="40" viewBox="0 0 41 40" fill="none" xmlns="http://www.w3.org/2000/svg">
<ellipse cx="20.443" cy="20" rx="20.443" ry="20" fill="white"/>
<path d="M20.4444 8.75C17.3214 8.75 16.9294 8.76336 15.7028 8.81797C14.4786 8.87281 13.643 9.06242 12.9118 9.34063C12.1555 9.62797 11.514 10.0123 10.8748 10.6379C10.2351 11.2632 9.84224 11.8909 9.54757 12.6305C9.26248 13.3461 9.06843 14.1638 9.01333 15.361C8.95847 16.561 8.94409 16.9447 8.94409 20C8.94409 23.0553 8.95799 23.4376 9.01357 24.6376C9.06987 25.8352 9.26368 26.6527 9.54781 27.368C9.84176 28.108 10.2347 28.7356 10.8741 29.3609C11.513 29.9867 12.1546 30.372 12.9104 30.6594C13.642 30.9376 14.4779 31.1272 15.7019 31.182C16.9285 31.2366 17.3202 31.25 20.4429 31.25C23.5662 31.25 23.9569 31.2366 25.1835 31.182C26.4077 31.1272 27.2443 30.9376 27.976 30.6594C28.732 30.372 29.3727 29.9867 30.0116 29.3609C30.6512 28.7356 31.0441 28.108 31.3388 27.3683C31.6215 26.6527 31.8155 25.835 31.873 24.6378C31.9281 23.4378 31.9425 23.0553 31.9425 20C31.9425 16.9447 31.9281 16.5613 31.873 15.3612C31.8155 14.1636 31.6215 13.3461 31.3388 12.6308C31.0441 11.8909 30.6512 11.2632 30.0116 10.6379C29.3719 10.0121 28.7323 9.62773 27.9752 9.34063C27.2422 9.06242 26.4061 8.87281 25.1819 8.81797C23.9553 8.76336 23.5648 8.75 20.4408 8.75H20.4444ZM19.4128 10.7773C19.719 10.7769 20.0606 10.7773 20.4444 10.7773C23.5147 10.7773 23.8786 10.7881 25.0911 10.842C26.2123 10.8922 26.8208 11.0755 27.2261 11.2295C27.7627 11.4334 28.1453 11.6771 28.5476 12.0709C28.9501 12.4646 29.1992 12.8396 29.4081 13.3646C29.5655 13.7607 29.7531 14.356 29.8041 15.4529C29.8592 16.6388 29.8712 16.9951 29.8712 19.9974C29.8712 22.9998 29.8592 23.356 29.8041 24.542C29.7529 25.6388 29.5655 26.2341 29.4081 26.6302C29.1997 27.1552 28.9501 27.5291 28.5476 27.9226C28.1451 28.3163 27.763 28.5601 27.2261 28.764C26.8212 28.9187 26.2123 29.1015 25.0911 29.1516C23.8788 29.2055 23.5147 29.2173 20.4444 29.2173C17.3738 29.2173 17.0099 29.2055 15.7977 29.1516C14.6765 29.101 14.068 28.9177 13.6624 28.7638C13.1258 28.5598 12.7425 28.3161 12.34 27.9223C11.9375 27.5286 11.6884 27.1545 11.4795 26.6293C11.3221 26.2332 11.1345 25.6379 11.0834 24.541C11.0283 23.3551 11.0173 22.9988 11.0173 19.9946C11.0173 16.9904 11.0283 16.636 11.0834 15.4501C11.1347 14.3532 11.3221 13.7579 11.4795 13.3613C11.6879 12.8363 11.9375 12.4613 12.34 12.0676C12.7425 11.6738 13.1258 11.4301 13.6624 11.2257C14.0678 11.071 14.6765 10.8882 15.7977 10.8378C16.8585 10.7909 17.2696 10.7769 19.4128 10.7745V10.7773ZM26.5826 12.6453C25.8208 12.6453 25.2027 13.2493 25.2027 13.9948C25.2027 14.7402 25.8208 15.3448 26.5826 15.3448C27.3445 15.3448 27.9625 14.7402 27.9625 13.9948C27.9625 13.2495 27.3445 12.6448 26.5826 12.6448V12.6453ZM20.4444 14.2227C17.1831 14.2227 14.539 16.8095 14.539 20C14.539 23.1905 17.1831 25.7762 20.4444 25.7762C23.7056 25.7762 26.3488 23.1905 26.3488 20C26.3488 16.8095 23.7054 14.2227 20.4441 14.2227H20.4444ZM20.4444 16.25C22.5612 16.25 24.2775 17.9288 24.2775 20C24.2775 22.0709 22.5612 23.75 20.4444 23.75C18.3273 23.75 16.6113 22.0709 16.6113 20C16.6113 17.9288 18.3273 16.25 20.4444 16.25Z" fill="#2B3B4F"/>
</svg>
