<svg width="41" height="40" viewBox="0 0 41 40" fill="none" xmlns="http://www.w3.org/2000/svg">
<ellipse cx="20.443" cy="20" rx="20.443" ry="20" fill="white"/>
<path d="M20.4534 7.5C13.3914 7.5 7.66602 13.0921 7.66602 19.9897C7.66602 25.2837 11.0339 29.8067 15.791 31.6262C15.6752 30.6394 15.5805 29.118 15.8331 28.0387C16.0647 27.0621 17.3276 21.8298 17.3276 21.8298C17.3276 21.8298 16.9487 21.0794 16.9487 19.9794C16.9487 18.2422 17.9801 16.947 19.2641 16.947C20.3587 16.947 20.8849 17.7488 20.8849 18.7048C20.8849 19.7738 20.1903 21.3775 19.8219 22.868C19.5167 24.1118 20.4639 25.1295 21.7164 25.1295C23.9897 25.1295 25.7368 22.7858 25.7368 19.4141C25.7368 16.4227 23.5371 14.3359 20.3903 14.3359C16.7488 14.3359 14.6123 16.9984 14.6123 19.7533C14.6123 20.8224 15.0332 21.9737 15.5595 22.6007C15.6647 22.7241 15.6752 22.8372 15.6437 22.9605C15.5489 23.3512 15.3279 24.2044 15.2858 24.3791C15.2332 24.6053 15.0964 24.6567 14.8543 24.5436C13.2546 23.8137 12.2547 21.5419 12.2547 19.7019C12.2547 15.7648 15.1806 12.1464 20.706 12.1464C25.1369 12.1464 28.5889 15.2303 28.5889 19.3627C28.5889 23.6698 25.8104 27.134 21.9584 27.134C20.6639 27.134 19.4431 26.4762 19.0326 25.6949C19.0326 25.6949 18.3906 28.0798 18.2327 28.6657C17.9486 29.7553 17.1697 31.1123 16.6435 31.9449C17.8433 32.3047 19.1063 32.5 20.4324 32.5C27.4944 32.5 33.2198 26.9079 33.2198 20.0103C33.2408 13.0921 27.5154 7.5 20.4534 7.5Z" fill="#2B3B4F"/>
</svg>
