<svg width="41" height="40" viewBox="0 0 41 40" fill="none" xmlns="http://www.w3.org/2000/svg">
<ellipse cx="20.443" cy="20" rx="20.443" ry="20" fill="white"/>
<path d="M31.1035 13.3648C30.2733 12.3954 28.7405 12 25.8131 12H15.1867C12.1923 12 10.6335 12.4209 9.80641 13.453C9 14.4593 9 15.9419 9 17.9939V21.9051C9 25.8806 9.9568 27.899 15.1867 27.899H25.8131C28.3518 27.899 29.7585 27.5501 30.6685 26.6946C31.6018 25.8173 32 24.3849 32 21.9051V17.9939C32 15.8299 31.9376 14.3385 31.1035 13.3648ZM23.7661 20.4895L18.9407 22.9666C18.8328 23.022 18.7148 23.0495 18.597 23.0495C18.4636 23.0495 18.3305 23.0142 18.2126 22.9441C17.9906 22.812 17.8551 22.5756 17.8551 22.3207V17.3824C17.8551 17.1279 17.9903 16.8918 18.2118 16.7596C18.4334 16.6274 18.709 16.6183 18.939 16.7357L23.7644 19.1968C24.0099 19.322 24.164 19.571 24.1644 19.8426C24.1647 20.1144 24.0112 20.3637 23.7661 20.4895Z" fill="#2B3B4F"/>
</svg>
